<svg width="348" height="104" viewBox="0 0 348 104" fill="none" xmlns="http://www.w3.org/2000/svg">
<g clip-path="url(#clip0_399_825)">
<path fill-rule="evenodd" clip-rule="evenodd" d="M251.077 0.176697H263.001V35.949H263.002V47.8731H263.001V91.5947H263.002V103.519L263.001 103.519H251.077L216.101 103.519V91.5947H251.077V47.8731H216.101V47.873V35.949V22.6937C214.47 23.0421 212.734 23.23 210.933 23.23C201.494 23.23 193.842 18.0693 193.842 11.7033C193.842 5.33737 201.494 0.176727 210.933 0.176727C219.775 0.176727 227.049 4.7052 227.934 10.5109H228.025V35.949H251.077V0.176697Z" fill="#8DC73F"/>
<path fill-rule="evenodd" clip-rule="evenodd" d="M47.7034 23.1388C56.049 27.5489 65.2256 26.5614 68.1999 20.933C71.1742 15.3045 66.82 7.16664 58.4744 2.75645C50.6947 -1.35471 42.1928 -0.775297 38.6663 3.88156L38.6633 3.88003L38.6544 3.89728C38.4026 4.23143 38.1764 4.58649 37.9779 4.96223C37.756 5.38208 37.5749 5.8159 37.4332 6.2611L17.4968 44.8522H11.9241V0.33558H0V44.8522V56.7763V103.678H11.9241V56.7763H34.9765V91.7537H34.9865C34.9798 91.8856 34.9765 92.0181 34.9765 92.1512C34.9765 98.5171 42.6285 103.678 52.0677 103.678C61.5069 103.678 69.1589 98.5171 69.1589 92.1512C69.1589 85.7852 61.5069 80.6245 52.0677 80.6245C50.2667 80.6245 48.5307 80.8124 46.9006 81.1607V56.7763H46.9014V44.8522H30.918L43.5549 20.3909C44.7914 21.4057 46.181 22.3342 47.7034 23.1388Z" fill="#8DC73F"/>
<path fill-rule="evenodd" clip-rule="evenodd" d="M125.6 92.0592V12.2598H159.784V81.1609C158.153 80.8126 156.417 80.6247 154.616 80.6247C145.177 80.6247 137.525 85.7853 137.525 92.1513C137.525 98.5173 145.177 103.678 154.616 103.678C163.858 103.678 171.387 98.7307 171.697 92.5488H171.708V0.335825H166.143V0.335754H119.241V0.335825H113.676V81.1607C112.046 80.8125 110.31 80.6247 108.509 80.6247C99.07 80.6247 91.418 85.7853 91.418 92.1513C91.418 98.5173 99.07 103.678 108.509 103.678C117.751 103.678 125.28 98.7307 125.59 92.5488H125.6V92.2434L125.6 92.1892L125.6 92.1513C125.6 92.1206 125.6 92.0899 125.6 92.0592Z" fill="#8DC73F"/>
<path fill-rule="evenodd" clip-rule="evenodd" d="M285.265 0.657908V0.657867H332.166V12.582H297.189V65.6997C302.541 62.8029 309.308 61.0733 316.665 61.0733C334.007 61.0733 348.065 70.6828 348.065 82.5366C348.065 94.3905 334.007 104 316.665 104C299.712 104 285.898 94.8172 285.286 83.3316H285.265V82.5366V12.582V0.657908Z" fill="#8DC73F"/>
</g>
<defs>
<clipPath id="clip0_399_825">
<rect width="348" height="104" fill="white"/>
</clipPath>
</defs>
</svg>
