<svg width="843" height="409" viewBox="0 0 843 409" fill="none" xmlns="http://www.w3.org/2000/svg">
<path fill-rule="evenodd" clip-rule="evenodd" d="M505.929 198.253C505.929 198.225 505.929 198.197 505.929 198.169C505.929 198.141 505.929 198.113 505.929 198.085V195.91H505.758C504.082 184.913 490.303 176.335 473.554 176.335C455.674 176.335 441.18 186.11 441.18 198.169C441.18 210.228 455.674 220.003 473.554 220.003C476.966 220.003 480.254 219.647 483.342 218.987V244.096V266.683V266.683H549.598V349.502H483.342V372.089L549.598 372.089H572.185V176.335H549.598V244.096H505.929V198.253Z" fill="#8DC73F"/>
<path fill-rule="evenodd" clip-rule="evenodd" d="M164.362 219.83C180.17 228.184 197.553 226.313 203.187 215.652C208.821 204.99 200.573 189.575 184.764 181.221C170.027 173.434 153.923 174.531 147.243 183.353L147.236 183.35L147.217 183.387C146.741 184.019 146.314 184.69 145.939 185.4C145.52 186.193 145.177 187.013 144.909 187.854L107.142 260.96H96.587V176.636H74V260.96V283.547V372.389H96.587V283.547H140.256V349.803H140.275C140.262 350.053 140.256 350.304 140.256 350.556C140.256 362.614 154.75 372.39 172.631 372.39C190.511 372.39 205.005 362.614 205.005 350.556C205.005 338.497 190.511 328.721 172.631 328.721C169.219 328.721 165.931 329.077 162.843 329.737V260.961H162.842V260.96H132.565L156.502 214.624C158.845 216.547 161.477 218.306 164.362 219.83Z" fill="#8DC73F"/>
<path fill-rule="evenodd" clip-rule="evenodd" d="M311.915 350.476V199.223H376.664V329.737C373.576 329.077 370.288 328.722 366.877 328.722C348.997 328.722 334.502 338.497 334.502 350.556C334.502 362.614 348.997 372.39 366.877 372.39C384.383 372.39 398.644 363.019 399.233 351.309H399.251V350.673C399.251 350.634 399.251 350.595 399.251 350.556C399.251 350.517 399.251 350.477 399.251 350.438V176.636L388.711 176.636H299.869V176.636H289.328V329.737C286.24 329.077 282.952 328.722 279.541 328.722C261.661 328.722 247.166 338.497 247.166 350.556C247.166 362.614 261.661 372.39 279.541 372.39C297.047 372.39 311.308 363.019 311.896 351.309H311.915V350.636L311.915 350.556L311.915 350.476Z" fill="#8DC73F"/>
<path fill-rule="evenodd" clip-rule="evenodd" d="M614.355 199.833V177.246H703.198V199.833H636.942V300.45C647.081 294.963 659.898 291.687 673.834 291.687C706.684 291.687 733.313 309.889 733.313 332.343C733.313 354.797 706.684 373 673.834 373C641.723 373 615.554 355.606 614.395 333.849H614.355V332.384C614.355 332.37 614.355 332.357 614.355 332.343C614.355 332.33 614.355 332.316 614.355 332.303V199.833H614.355Z" fill="#8DC73F"/>
</svg>
