<svg width="486" height="146" viewBox="0 0 486 146" fill="none" xmlns="http://www.w3.org/2000/svg">
<g clip-path="url(#clip0_345_6492)">
<path fill-rule="evenodd" clip-rule="evenodd" d="M301.74 31.6871C299.464 32.1735 297.039 32.4359 294.524 32.4359C281.345 32.4359 270.66 25.2301 270.66 16.3414C270.66 7.4526 281.345 0.246826 294.524 0.246826C306.871 0.246826 317.027 6.56994 318.263 14.6764H318.389V50.1954H350.577V0.246826H367.227V50.1954H367.228V66.8449H367.227V127.893H367.228V144.543H367.227H350.577H301.74V127.893H350.577V66.8449H318.389H301.74V50.1954V31.6871Z" fill="#8DC73F"/>
<path fill-rule="evenodd" clip-rule="evenodd" d="M66.609 32.3085C78.2619 38.4664 91.0751 37.0875 95.2281 29.2286C99.3812 21.3696 93.3013 10.0067 81.6484 3.84881C70.7856 -1.89166 58.9143 -1.08252 53.9903 5.42006L53.9855 5.4176L53.9712 5.44536C53.6208 5.91088 53.3059 6.40544 53.0293 6.92873C52.7202 7.51361 52.4678 8.1179 52.2702 8.73801L24.4308 62.6268H16.6495V0.468596H0V62.6268V79.2764V144.764H16.6495V79.2764H48.8391V128.115H48.8531C48.8438 128.299 48.8391 128.484 48.8391 128.67C48.8391 137.559 59.5236 144.765 72.7035 144.765C85.8834 144.765 96.5678 137.559 96.5678 128.67C96.5678 119.781 85.8834 112.575 72.7035 112.575C70.1887 112.575 67.7648 112.838 65.4887 113.324V62.627H65.4881V62.6268H43.1709L60.8159 28.4712C62.5426 29.8883 64.483 31.185 66.609 32.3085Z" fill="#8DC73F"/>
<path fill-rule="evenodd" clip-rule="evenodd" d="M175.374 129.225V17.1183H223.102V113.324C220.826 112.838 218.402 112.576 215.887 112.576C202.707 112.576 192.023 119.781 192.023 128.67C192.023 137.559 202.707 144.765 215.887 144.765C228.791 144.765 239.304 137.857 239.737 129.225H239.752V0.468783L231.982 0.46875H166.494V0.468783H158.724V113.324C156.448 112.838 154.024 112.576 151.509 112.576C138.329 112.576 127.645 119.781 127.645 128.67C127.645 137.559 138.329 144.765 151.509 144.765C164.413 144.765 174.926 137.857 175.359 129.225H175.374Z" fill="#8DC73F"/>
<path fill-rule="evenodd" clip-rule="evenodd" d="M398.312 17.5682V0.918701H463.801V17.5682H414.962V91.7362C422.436 87.6914 431.883 85.2764 442.156 85.2764C466.37 85.2764 486 98.694 486 115.246C486 131.797 466.37 145.215 442.156 145.215C418.486 145.215 399.196 132.393 398.342 116.356H398.313V115.271C398.313 115.262 398.312 115.254 398.312 115.246C398.312 115.237 398.313 115.229 398.313 115.221V17.5682H398.312Z" fill="#8DC73F"/>
</g>
<defs>
<clipPath id="clip0_345_6492">
<rect width="486" height="145.21" fill="white"/>
</clipPath>
</defs>
</svg>
