<svg width="558" height="210" viewBox="0 0 558 210" fill="none" xmlns="http://www.w3.org/2000/svg">
<path fill-rule="evenodd" clip-rule="evenodd" d="M357.503 33.2277H372.867V166.38H372.866V166.38H312.435V151.016H357.503V94.6826H312.435V94.6825V79.3189V62.2402C310.335 62.6889 308.099 62.9309 305.778 62.9309C293.616 62.9309 283.757 56.2817 283.757 48.0794C283.757 39.8771 293.616 33.2278 305.778 33.2278C317.171 33.2278 326.543 39.0625 327.683 46.5429H327.799V48.0008C327.799 48.027 327.799 48.0532 327.799 48.0794C327.799 48.1055 327.799 48.1317 327.799 48.1579V79.3189H357.503V33.2277Z" fill="#8DC73F"/>
<path fill-rule="evenodd" clip-rule="evenodd" d="M95.4647 62.8135C106.218 68.4959 118.041 67.2234 121.874 59.9715C125.706 52.7195 120.096 42.2341 109.343 36.5518C99.3188 31.2547 88.3645 32.0013 83.8207 38.0014L83.8166 37.9993L83.8044 38.023C83.4804 38.4531 83.1893 38.9102 82.9337 39.3938C82.6481 39.9343 82.4149 40.4928 82.2324 41.0658L56.5443 90.7904H49.3637V33.4325H34V90.7904V106.154V166.585H49.3637V106.154H79.0677V151.221H79.0805C79.072 151.391 79.0677 151.562 79.0677 151.733C79.0677 159.935 88.9269 166.585 101.089 166.585C113.251 166.585 123.11 159.935 123.11 151.733C123.11 143.531 113.251 136.882 101.089 136.882C98.7684 136.882 96.5317 137.124 94.4314 137.572V90.7904H79.0677V90.7904H73.8371L90.1193 59.2729C91.7125 60.5804 93.503 61.7769 95.4647 62.8135Z" fill="#8DC73F"/>
<path fill-rule="evenodd" clip-rule="evenodd" d="M195.832 151.7V48.7962H239.874V137.572C237.774 137.124 235.537 136.882 233.217 136.882C221.055 136.882 211.195 143.531 211.195 151.733C211.195 159.935 221.055 166.585 233.217 166.585C245.125 166.585 254.825 160.21 255.225 152.245H255.238V151.764C255.238 151.753 255.238 151.743 255.238 151.733C255.238 151.723 255.238 151.713 255.238 151.702V33.4327H248.068V33.4325H187.638V33.4327H180.468V137.572C178.368 137.124 176.131 136.882 173.811 136.882C161.649 136.882 151.789 143.531 151.789 151.733C151.789 159.935 161.649 166.585 173.811 166.585C185.718 166.585 195.419 160.21 195.819 152.245H195.832V151.766L195.832 151.733L195.832 151.7Z" fill="#8DC73F"/>
<path fill-rule="evenodd" clip-rule="evenodd" d="M401.551 49.2114V33.8477H461.981V49.2114H416.914V117.651C423.811 113.919 432.529 111.691 442.008 111.691C464.353 111.691 482.466 124.072 482.466 139.345C482.466 154.618 464.353 167 442.008 167C420.166 167 402.366 155.168 401.578 140.369H401.551V139.403C401.551 139.383 401.551 139.364 401.551 139.345C401.551 139.326 401.551 139.307 401.551 139.288V49.2114H401.551Z" fill="#8DC73F"/>
</svg>
