<svg width="106" height="165" viewBox="0 0 106 165" fill="none" xmlns="http://www.w3.org/2000/svg">
<path fill-rule="evenodd" clip-rule="evenodd" d="M87.5317 0C83.0555 0 79.4269 3.62864 79.4269 8.10478V103.851C70.9991 98.4027 59.9223 95.0959 47.7894 95.0959C21.3961 95.0959 0 110.744 0 130.048C0 149.351 21.3961 165 47.7894 165C74.1828 165 95.5789 149.351 95.5789 130.048C95.5789 128.967 95.5118 127.898 95.3805 126.842C95.5476 126.194 95.6364 125.514 95.6364 124.813V8.10477C95.6364 3.62863 92.0078 0 87.5317 0Z" fill="#8DC73F"/>
<path d="M39.786 81.0758C39.786 87.5357 34.4906 92.7749 27.9555 92.7749C21.4204 92.7749 16.125 87.5357 16.125 81.0758C16.125 77.8409 17.4523 74.0974 19.6025 71.1629C21.7538 68.2269 24.7098 66.125 27.9555 66.125C31.2012 66.125 34.1572 68.2269 36.3085 71.1629C38.4587 74.0974 39.786 77.8409 39.786 81.0758Z" fill="white" stroke="black" stroke-width="0.25"/>
<path d="M35.4278 85.6741C35.4278 89.6648 32.0824 92.9 27.9556 92.9C23.8288 92.9 20.4834 89.6648 20.4834 85.6741C20.4834 81.6834 23.8288 76.4612 27.9556 76.4612C32.0824 76.4612 35.4278 81.6834 35.4278 85.6741Z" fill="black"/>
<path d="M67.2049 81.1735C67.2049 87.6334 61.9096 92.8726 55.3744 92.8726C48.8393 92.8726 43.5439 87.6334 43.5439 81.1735C43.5439 77.9387 44.8713 74.1951 47.0215 71.2606C49.1728 68.3246 52.1288 66.2227 55.3744 66.2227C58.6201 66.2227 61.5761 68.3246 63.7274 71.2606C65.8776 74.1951 67.2049 77.9387 67.2049 81.1735Z" fill="white" stroke="black" stroke-width="0.25"/>
<path d="M62.8482 85.7719C62.8482 89.7626 59.5028 92.9977 55.376 92.9977C51.2492 92.9977 47.9038 89.7626 47.9038 85.7719C47.9038 81.7812 51.2492 76.5589 55.376 76.5589C59.5028 76.5589 62.8482 81.7812 62.8482 85.7719Z" fill="black"/>
<path d="M95.6367 6.75401C102.391 10.4462 111.846 20.1539 95.6367 29.4474C102.841 33.1395 112.927 42.7932 95.6367 51.8705C103.111 55.7428 113.575 65.3785 95.6367 72.9429C103.381 76.2749 114.224 85.2081 95.6367 94.2855C103.381 97.9776 114.224 107.955 95.6367 118.33V94.2855V72.9429V51.8705V29.4474V6.75401Z" fill="#F9ED32"/>
</svg>
