<svg width="117" height="181" viewBox="0 0 117 181" fill="none" xmlns="http://www.w3.org/2000/svg">
<path d="M104.881 0.702637C112.247 4.57308 122.559 14.7495 104.881 24.4917C112.738 28.3622 123.737 38.482 104.881 47.9976C113.032 52.0569 124.444 62.1578 104.881 70.0875C113.327 73.5803 125.152 82.9449 104.881 92.4606C113.327 96.331 125.152 106.791 104.881 117.666L104.881 92.4606V70.0875V47.9976V24.4917V0.702637Z" fill="#F9ED32"/>
<path fill-rule="evenodd" clip-rule="evenodd" d="M105.171 0.653687L87.4931 0.653687V113.852C78.3028 107.947 66.2359 104.364 53.021 104.364C24.2194 104.364 0.871094 121.381 0.871094 142.372C0.871094 163.363 24.2194 180.379 53.021 180.379C81.6878 180.379 104.952 163.522 105.169 142.666H105.171L105.171 0.653687Z" fill="#8DC73F"/>
<ellipse cx="32.9979" cy="83.7398" rx="18.8565" ry="13.2694" transform="rotate(-90 32.9979 83.7398)" fill="#FFFDFD"/>
<ellipse cx="32.9967" cy="90.0253" rx="11.1742" ry="7.68226" transform="rotate(-90 32.9967 90.0253)" fill="#8DC73F"/>
<ellipse cx="63.7264" cy="83.7399" rx="18.8565" ry="13.2694" transform="rotate(-90 63.7264 83.7399)" fill="#FFFDFD"/>
<ellipse cx="63.7252" cy="90.0254" rx="11.1742" ry="7.68226" transform="rotate(-90 63.7252 90.0254)" fill="#8DC73F"/>
</svg>
