<svg width="106" height="165" viewBox="0 0 106 165" fill="none" xmlns="http://www.w3.org/2000/svg">
<path fill-rule="evenodd" clip-rule="evenodd" d="M87.5317 0C83.0555 0 79.4269 3.62864 79.4269 8.10478V103.851C70.9991 98.4027 59.9223 95.0959 47.7894 95.0959C21.3961 95.0959 0 110.744 0 130.048C0 149.351 21.3961 165 47.7894 165C74.1828 165 95.5789 149.351 95.5789 130.048C95.5789 128.967 95.5118 127.898 95.3805 126.842C95.5476 126.194 95.6364 125.514 95.6364 124.813V8.10477C95.6364 3.62863 92.0078 0 87.5317 0Z" fill="#8DC73F"/>
<path d="M39.911 81.0758C39.911 87.606 34.5583 92.8999 27.9555 92.8999C21.3527 92.8999 16 87.606 16 81.0758C16 74.5455 21.3527 66 27.9555 66C34.5583 66 39.911 74.5455 39.911 81.0758Z" fill="white"/>
<path d="M35.4278 85.6741C35.4278 89.6648 32.0824 92.9 27.9556 92.9C23.8288 92.9 20.4834 89.6648 20.4834 85.6741C20.4834 81.6834 23.8288 76.4612 27.9556 76.4612C32.0824 76.4612 35.4278 81.6834 35.4278 85.6741Z" fill="#8DC73F"/>
<path d="M67.3299 81.1735C67.3299 87.7038 61.9773 92.9976 55.3744 92.9976C48.7716 92.9976 43.4189 87.7038 43.4189 81.1735C43.4189 74.6432 48.7716 66.0977 55.3744 66.0977C61.9773 66.0977 67.3299 74.6432 67.3299 81.1735Z" fill="white"/>
<path d="M62.8482 85.7719C62.8482 89.7626 59.5028 92.9977 55.376 92.9977C51.2492 92.9977 47.9038 89.7626 47.9038 85.7719C47.9038 81.7812 51.2492 76.5589 55.376 76.5589C59.5028 76.5589 62.8482 81.7812 62.8482 85.7719Z" fill="#8DC73F"/>
<path d="M95.6367 6.75401C102.391 10.4462 111.846 20.1539 95.6367 29.4474C102.841 33.1395 112.927 42.7932 95.6367 51.8705C103.111 55.7428 113.575 65.3785 95.6367 72.9429C103.381 76.2749 114.224 85.2081 95.6367 94.2855C103.381 97.9776 114.224 107.955 95.6367 118.33V94.2855V72.9429V51.8705V29.4474V6.75401Z" fill="#F9ED32"/>
</svg>
