<svg width="434" height="321" viewBox="0 0 434 321" fill="none" xmlns="http://www.w3.org/2000/svg">
<rect x="117.857" y="0.424133" width="31.4599" height="239.507" rx="5" fill="#8DC63F"/>
<rect x="117.859" y="43.4194" width="42.9952" height="254.825" transform="rotate(-90 117.859 43.4194)" fill="#8DC63F"/>
<rect x="341.223" y="0.424072" width="31.4599" height="239.507" rx="5" fill="#8DC63F"/>
<path d="M401.805 222.196C413.926 194.686 382.015 191.399 375.454 200.693L347.363 306.614C374.532 330.542 382.21 304.94 382.653 289.148C416.686 294.814 410.691 269.254 403.439 255.766C432.256 241.657 414.357 227.507 401.805 222.196Z" fill="#F9ED32"/>
<path fill-rule="evenodd" clip-rule="evenodd" d="M312.497 311.195C361.287 311.194 400.838 282.266 400.837 246.583C400.837 210.899 361.285 181.973 312.495 181.973C268.848 181.974 232.594 205.125 225.438 235.554L294.537 259.739L253.622 294.756C269.249 304.979 289.881 311.195 312.497 311.195Z" fill="#8DC63F"/>
<path d="M176.776 222.196C188.897 194.686 156.986 191.399 150.425 200.693L122.334 306.614C149.503 330.542 157.181 304.941 157.623 289.149C191.657 294.814 185.661 269.254 178.41 255.766C207.227 241.658 189.328 227.507 176.776 222.196Z" fill="#F9ED32"/>
<path fill-rule="evenodd" clip-rule="evenodd" d="M87.472 311.195C136.261 311.194 175.813 282.266 175.812 246.583C175.812 210.899 136.259 181.973 87.4699 181.974C43.8226 181.974 7.56879 205.126 0.412109 235.554L69.5111 259.739L28.5962 294.756C44.2233 304.979 64.8552 311.195 87.472 311.195Z" fill="#8DC63F"/>
<ellipse cx="279.818" cy="156.22" rx="21.7406" ry="15.299" transform="rotate(-90 279.818 156.22)" fill="#FFFDFD"/>
<ellipse cx="279.818" cy="163.467" rx="12.8833" ry="8.85729" transform="rotate(-90 279.818 163.467)" fill="#8DC73F"/>
<ellipse cx="315.248" cy="156.22" rx="21.7406" ry="15.299" transform="rotate(-90 315.248 156.22)" fill="#FFFDFD"/>
<ellipse cx="315.248" cy="163.467" rx="12.8833" ry="8.85729" transform="rotate(-90 315.248 163.467)" fill="#8DC73F"/>
<ellipse cx="55.7267" cy="156.22" rx="21.7406" ry="15.299" transform="rotate(-90 55.7267 156.22)" fill="#FFFDFD"/>
<ellipse cx="55.7264" cy="163.467" rx="12.8833" ry="8.85729" transform="rotate(-90 55.7264 163.467)" fill="#8DC73F"/>
<ellipse cx="91.1564" cy="156.22" rx="21.7406" ry="15.299" transform="rotate(-90 91.1564 156.22)" fill="#FFFDFD"/>
<ellipse cx="91.1561" cy="163.467" rx="12.8833" ry="8.85729" transform="rotate(-90 91.1561 163.467)" fill="#8DC73F"/>
</svg>
