<svg width="318" height="235" viewBox="0 0 318 235" fill="none" xmlns="http://www.w3.org/2000/svg">
<rect x="86.7031" y="0.673523" width="23.0196" height="175.251" rx="5" fill="#8DC63F"/>
<rect x="86.7031" y="32.1337" width="31.4601" height="186.459" transform="rotate(-90 86.7031 32.1337)" fill="#8DC63F"/>
<rect x="250.141" y="0.673462" width="23.0196" height="175.251" rx="5" fill="#8DC63F"/>
<path d="M294.47 162.946C303.339 142.817 279.989 140.412 275.189 147.212L254.634 224.716C274.514 242.225 280.132 223.492 280.456 211.936C305.358 216.082 300.971 197.38 295.665 187.51C316.751 177.187 303.654 166.833 294.47 162.946Z" fill="#F9ED32"/>
<path fill-rule="evenodd" clip-rule="evenodd" d="M229.123 228.068C264.822 228.068 293.763 206.901 293.762 180.791C293.762 154.681 264.821 133.515 229.121 133.515C197.184 133.516 170.657 150.456 165.42 172.721L215.981 190.417L186.043 216.04C197.477 223.52 212.574 228.069 229.123 228.068Z" fill="#8DC63F"/>
<path d="M129.813 162.947C138.683 142.818 115.333 140.412 110.532 147.213L89.9775 224.716C109.857 242.225 115.475 223.492 115.799 211.937C140.702 216.082 136.315 197.38 131.009 187.51C152.095 177.187 138.998 166.833 129.813 162.947Z" fill="#F9ED32"/>
<path fill-rule="evenodd" clip-rule="evenodd" d="M64.4684 228.068C100.168 228.068 129.108 206.901 129.108 180.791C129.108 154.681 100.167 133.515 64.4669 133.515C32.5296 133.516 6.00226 150.456 0.765625 172.721L51.3262 190.417L21.3882 216.04C32.8228 223.52 47.9194 228.069 64.4684 228.068Z" fill="#8DC63F"/>
<ellipse cx="205.21" cy="114.672" rx="15.9079" ry="11.1944" transform="rotate(-90 205.21 114.672)" fill="#FFFDFD"/>
<ellipse cx="205.21" cy="119.974" rx="9.42689" ry="6.48099" transform="rotate(-90 205.21 119.974)" fill="#8DC73F"/>
<ellipse cx="231.134" cy="114.671" rx="15.9079" ry="11.1944" transform="rotate(-90 231.134 114.671)" fill="#FFFDFD"/>
<ellipse cx="231.133" cy="119.974" rx="9.42689" ry="6.48099" transform="rotate(-90 231.133 119.974)" fill="#8DC73F"/>
<ellipse cx="41.2394" cy="114.672" rx="15.9079" ry="11.1944" transform="rotate(-90 41.2394 114.672)" fill="#FFFDFD"/>
<ellipse cx="41.2388" cy="119.974" rx="9.42689" ry="6.48099" transform="rotate(-90 41.2388 119.974)" fill="#8DC73F"/>
<ellipse cx="67.1632" cy="114.671" rx="15.9079" ry="11.1944" transform="rotate(-90 67.1632 114.671)" fill="#FFFDFD"/>
<ellipse cx="67.1626" cy="119.974" rx="9.42689" ry="6.48099" transform="rotate(-90 67.1626 119.974)" fill="#8DC73F"/>
</svg>
