<svg width="304" height="237" viewBox="0 0 304 237" fill="none" xmlns="http://www.w3.org/2000/svg">
<rect x="97.8145" y="7.68591" width="20.6455" height="157.177" rx="5" transform="rotate(5.61622 97.8145 7.68591)" fill="#8DC63F"/>
<rect x="95.0537" y="35.766" width="28.2156" height="167.229" transform="rotate(-84.3838 95.0537 35.766)" fill="#8DC63F"/>
<rect x="243.693" y="22.0309" width="20.6455" height="157.177" rx="5" transform="rotate(5.61622 243.693 22.0309)" fill="#8DC63F"/>
<path d="M269.018 170.761C278.701 153.573 258.071 149.376 253.189 155.025L228.04 222.398C244.247 239.77 250.906 223.543 252.21 213.258C274.073 219.144 271.799 202.065 267.929 192.79C287.656 185.427 276.874 175.036 269.018 170.761Z" fill="#F9ED32"/>
<path fill-rule="evenodd" clip-rule="evenodd" d="M204.976 223.151C236.84 226.283 264.529 209.931 266.82 186.626C269.112 163.321 245.138 141.889 213.273 138.756C184.767 135.953 159.603 148.745 152.975 168.158L196.551 188.391L167.58 208.633C177.129 216.314 190.205 221.698 204.976 223.151Z" fill="#8DC63F"/>
<path d="M122.05 156.309C131.733 139.121 111.103 134.924 106.221 140.573L81.0724 207.946C97.2796 225.318 103.938 209.091 105.242 198.805C127.105 204.692 124.831 187.613 120.961 178.338C140.688 170.975 129.907 160.584 122.05 156.309Z" fill="#F9ED32"/>
<path fill-rule="evenodd" clip-rule="evenodd" d="M58.0099 208.698C89.8744 211.831 117.563 195.479 119.855 172.174C122.146 148.869 98.1721 127.437 66.3076 124.304C37.8015 121.501 12.6373 134.293 6.00905 153.706L49.5838 173.939L20.6135 194.181C30.163 201.861 43.2386 207.246 58.0099 208.698Z" fill="#8DC63F"/>
<ellipse cx="193.584" cy="119.838" rx="14.2673" ry="10.0399" transform="rotate(-84.3838 193.584 119.838)" fill="#FFFDFD"/>
<ellipse cx="193.12" cy="124.571" rx="8.45469" ry="5.8126" transform="rotate(-84.3838 193.12 124.571)" fill="#8DC73F"/>
<ellipse cx="216.723" cy="122.113" rx="14.2673" ry="10.0399" transform="rotate(-84.3838 216.723 122.113)" fill="#FFFDFD"/>
<ellipse cx="216.259" cy="126.846" rx="8.45469" ry="5.8126" transform="rotate(-84.3838 216.259 126.846)" fill="#8DC73F"/>
<ellipse cx="47.2318" cy="105.446" rx="14.2673" ry="10.0399" transform="rotate(-84.3838 47.2318 105.446)" fill="#FFFDFD"/>
<ellipse cx="46.7654" cy="110.178" rx="8.45469" ry="5.8126" transform="rotate(-84.3838 46.7654 110.178)" fill="#8DC73F"/>
<ellipse cx="70.3695" cy="107.721" rx="14.2673" ry="10.0399" transform="rotate(-84.3838 70.3695 107.721)" fill="#FFFDFD"/>
<ellipse cx="69.9051" cy="112.454" rx="8.45469" ry="5.8126" transform="rotate(-84.3838 69.9051 112.454)" fill="#8DC73F"/>
</svg>
