<svg width="157" height="245" viewBox="0 0 157 245" fill="none" xmlns="http://www.w3.org/2000/svg">
<path d="M141.689 0.533482C151.689 5.7881 165.689 19.6039 141.689 32.8301C152.356 38.0848 167.289 51.8237 141.689 64.7423C152.756 70.2533 168.249 83.9665 141.689 94.7321C153.156 99.4741 169.209 112.188 141.689 125.106C153.156 130.361 169.209 144.561 141.689 159.325V125.106V94.7321V64.7423V32.8301V0.533482Z" fill="#F9ED32"/>
<path fill-rule="evenodd" clip-rule="evenodd" d="M142.082 0.467041L118.082 0.467041L118.082 154.147C105.605 146.13 89.2232 141.267 71.2824 141.267C32.1807 141.267 0.482422 164.369 0.482422 192.867C0.482422 221.365 32.1807 244.467 71.2824 244.467C110.201 244.467 141.785 221.581 142.08 193.267H142.082L142.082 192.867L142.082 0.467041Z" fill="#8DC73F"/>
<ellipse cx="44.0968" cy="113.267" rx="25.6" ry="18.0148" transform="rotate(-90 44.0968 113.267)" fill="#FFFDFD"/>
<ellipse cx="44.0956" cy="121.8" rx="15.1704" ry="10.4296" transform="rotate(-90 44.0956 121.8)" fill="#8DC73F"/>
<ellipse cx="85.8156" cy="113.267" rx="25.6" ry="18.0148" transform="rotate(-90 85.8156 113.267)" fill="#FFFDFD"/>
<ellipse cx="85.8144" cy="121.8" rx="15.1704" ry="10.4296" transform="rotate(-90 85.8144 121.8)" fill="#8DC73F"/>
</svg>
