<svg width="106" height="165" viewBox="0 0 106 165" fill="none" xmlns="http://www.w3.org/2000/svg">
<path fill-rule="evenodd" clip-rule="evenodd" d="M87.5317 0C83.0555 0 79.4269 3.62864 79.4269 8.10478V103.851C70.9991 98.4027 59.9223 95.0959 47.7894 95.0959C21.3961 95.0959 0 110.744 0 130.048C0 149.351 21.3961 165 47.7894 165C74.1828 165 95.5789 149.351 95.5789 130.048C95.5789 128.967 95.5118 127.898 95.3805 126.842C95.5476 126.194 95.6364 125.514 95.6364 124.813V8.10477C95.6364 3.62863 92.0078 0 87.5317 0Z" fill="#8DC73F"/>
<path d="M95.6367 6.75401C102.391 10.4462 111.846 20.1539 95.6367 29.4474C102.841 33.1395 112.927 42.7932 95.6367 51.8705C103.111 55.7428 113.575 65.3785 95.6367 72.9429C103.381 76.2749 114.224 85.2081 95.6367 94.2855C103.381 97.9776 114.224 107.955 95.6367 118.33V94.2855V72.9429V51.8705V29.4474V6.75401Z" fill="#F9ED32"/>
<ellipse cx="30.5001" cy="81.5002" rx="13.5002" ry="9.50014" transform="rotate(-90 30.5001 81.5002)" fill="#FFFDFD"/>
<ellipse cx="30.4996" cy="86.0004" rx="8.00011" ry="5.50008" transform="rotate(-90 30.4996 86.0004)" fill="#8DC73F"/>
<ellipse cx="52.5001" cy="81.5002" rx="13.5002" ry="9.50014" transform="rotate(-90 52.5001 81.5002)" fill="#FFFDFD"/>
<ellipse cx="52.5006" cy="86.0004" rx="8.00011" ry="5.50008" transform="rotate(-90 52.5006 86.0004)" fill="#8DC73F"/>
</svg>
