<svg width="1440" height="146" viewBox="0 0 1440 146" fill="none" xmlns="http://www.w3.org/2000/svg">
<path fill-rule="evenodd" clip-rule="evenodd" d="M472.734 3.28833H489.139V129.8C489.139 129.832 489.139 129.863 489.139 129.895C489.139 129.926 489.139 129.957 489.139 129.989V130.443H489.126C488.698 138.967 478.341 145.789 465.626 145.789C452.64 145.789 442.113 138.673 442.113 129.895C442.113 121.116 452.64 114 465.626 114C468.104 114 470.492 114.259 472.734 114.739V52.6155H424.616V129.83L424.616 129.894L424.616 129.959V130.443H424.602C424.175 138.967 413.817 145.789 401.103 145.789C388.117 145.789 377.59 138.673 377.59 129.894C377.59 121.116 388.117 114 401.103 114C403.58 114 405.969 114.259 408.211 114.739V3.28835H424.616V3.28848H472.734V3.28833ZM472.734 19.7308V36.1731H424.616V19.7308H472.734Z" fill="#8DC73F"/>
<path fill-rule="evenodd" clip-rule="evenodd" d="M637.873 3.28833H654.277V3.2885H702.396V3.28833H718.801V130.443H718.786C718.358 138.967 708.001 145.789 695.286 145.789C682.3 145.789 671.773 138.673 671.773 129.895C671.773 121.116 682.3 114 695.286 114C697.765 114 700.153 114.259 702.396 114.74V52.6155H654.277V130.443H654.262C653.835 138.967 643.477 145.789 630.763 145.789C617.777 145.789 607.25 138.673 607.25 129.894C607.25 121.116 617.777 114 630.763 114C633.241 114 635.63 114.259 637.873 114.74V3.28833ZM654.277 19.7308H702.396V36.1731H654.277V19.7308Z" fill="#8DC73F"/>
<path fill-rule="evenodd" clip-rule="evenodd" d="M959.397 3.28833H975.801V129.8C975.801 129.832 975.801 129.863 975.801 129.895C975.801 129.926 975.801 129.957 975.801 129.989V130.443H975.788C975.36 138.967 965.003 145.789 952.288 145.789C939.303 145.789 928.775 138.673 928.775 129.895C928.775 121.116 939.303 114 952.288 114C954.766 114 957.154 114.259 959.397 114.739V52.6155H911.278V129.83L911.278 129.894L911.278 129.959V130.443H911.264C910.837 138.967 900.479 145.789 887.765 145.789C874.779 145.789 864.252 138.673 864.252 129.894C864.252 121.116 874.779 114 887.765 114C890.243 114 892.631 114.259 894.873 114.739V3.28835H911.278V3.28848H959.397V3.28833ZM959.397 19.7308V36.1731H911.278V19.7308H959.397Z" fill="#8DC73F"/>
<path fill-rule="evenodd" clip-rule="evenodd" d="M1236.08 3.28833H1252.49V129.832C1252.49 129.853 1252.49 129.874 1252.49 129.894C1252.49 129.915 1252.49 129.936 1252.49 129.957V130.443H1252.48C1252.05 138.967 1241.69 145.789 1228.98 145.789C1215.99 145.789 1205.46 138.673 1205.46 129.894C1205.46 121.116 1215.99 114 1228.98 114C1231.45 114 1233.84 114.259 1236.08 114.739V52.6155H1187.97V129.83L1187.97 129.894L1187.97 129.959V130.443H1187.95C1187.52 138.967 1177.17 145.789 1164.45 145.789C1151.47 145.789 1140.94 138.673 1140.94 129.894C1140.94 121.116 1151.47 114 1164.45 114C1166.93 114 1169.32 114.259 1171.56 114.739V3.28835H1187.97V3.28848H1236.08V3.28833ZM1236.08 19.7308V36.1731H1187.97V19.7308H1236.08Z" fill="#8DC73F"/>
<path fill-rule="evenodd" clip-rule="evenodd" d="M97.6213 0H114.026V84.3021L162.145 7.11765V0H178.549V126.512C178.549 126.543 178.549 126.575 178.549 126.606C178.549 126.637 178.549 126.669 178.549 126.7V127.154H178.536C178.108 135.679 167.751 142.5 155.036 142.5C142.051 142.5 131.523 135.384 131.523 126.606C131.523 117.828 142.051 110.712 155.036 110.712C157.514 110.712 159.902 110.971 162.145 111.451V38.1457L114.026 115.33V126.542L114.026 126.606L114.026 126.67V127.154H114.012C113.585 135.679 103.227 142.5 90.5129 142.5C77.5271 142.5 67 135.384 67 126.606C67 117.828 77.5271 110.712 90.5129 110.712C92.9906 110.712 95.3787 110.971 97.6213 111.451V0Z" fill="#8DC73F"/>
<path fill-rule="evenodd" clip-rule="evenodd" d="M1097.2 3.28833H1113.6V130.443H1113.58C1113.16 138.967 1102.8 145.789 1090.09 145.789C1077.1 145.789 1066.57 138.673 1066.57 129.895C1066.57 121.116 1077.1 114 1090.09 114C1092.56 114 1094.95 114.259 1097.2 114.74V66.8653H1050.17V129.83L1050.17 129.894L1050.17 129.959V130.443H1050.15C1049.73 138.967 1039.37 145.789 1026.66 145.789C1013.67 145.789 1003.14 138.673 1003.14 129.894C1003.14 121.116 1013.67 114 1026.66 114C1029.13 114 1031.52 114.259 1033.76 114.739V3.28835H1050.17V50.423H1097.2V3.28833Z" fill="#8DC73F"/>
<path fill-rule="evenodd" clip-rule="evenodd" d="M1372.22 5.56769L1356.79 0L1339.16 49.0869L1326.77 14.5674C1325.73 6.4358 1315.64 0.0539375 1303.34 0.0539375C1290.36 0.0539375 1279.83 7.17005 1279.83 15.9482C1279.83 24.7264 1290.36 31.8425 1303.34 31.8425C1307.51 31.8425 1311.42 31.1105 1314.81 29.8266L1330.44 73.3669L1315.07 116.171C1311.62 114.825 1307.62 114.054 1303.34 114.054C1290.36 114.054 1279.83 121.17 1279.83 129.949C1279.83 138.727 1290.36 145.843 1303.34 145.843C1314.48 145.843 1323.82 140.605 1326.24 133.573L1326.26 133.579L1339.16 97.6472L1356.41 145.692L1371.84 140.125L1347.88 73.3673L1372.22 5.56769Z" fill="#8DC73F"/>
<path fill-rule="evenodd" clip-rule="evenodd" d="M564.052 62.4808C587.909 62.4808 607.25 49.2301 607.25 32.8846C607.25 16.539 587.909 3.28833 564.052 3.28833C540.73 3.28833 521.724 15.9507 520.883 31.7884H520.854V32.8094C520.854 32.8344 520.854 32.8595 520.854 32.8846C520.854 32.9096 520.854 32.9347 520.854 32.9598V145.789H537.258V56.1015C544.622 60.0959 553.93 62.4808 564.052 62.4808Z" fill="#8DC73F"/>
<path fill-rule="evenodd" clip-rule="evenodd" d="M263.854 3.28836V3.28833H328.377V19.7307H280.258V92.9756C287.622 88.9812 296.93 86.5962 307.052 86.5962C330.909 86.5962 350.25 99.8469 350.25 116.192C350.25 132.538 330.909 145.789 307.052 145.789C283.73 145.789 264.724 133.126 263.883 117.289H263.854V116.192V19.7307V3.28836Z" fill="#8DC73F"/>
<path fill-rule="evenodd" clip-rule="evenodd" d="M750.516 3.28836V3.28833H815.04V19.7307H766.92V92.9756C774.284 88.9812 783.592 86.5962 793.714 86.5962C817.572 86.5962 836.912 99.8469 836.912 116.192C836.912 132.538 817.572 145.789 793.714 145.789C770.392 145.789 751.386 133.126 750.545 117.289H750.516V116.192V19.7307V3.28836Z" fill="#8DC73F"/>
</svg>
