<svg width="1772" height="198" viewBox="0 0 1772 198" fill="none" xmlns="http://www.w3.org/2000/svg">
<path fill-rule="evenodd" clip-rule="evenodd" d="M463.237 4.46448H485.508V4.46456H550.836V4.46448H573.107V176.311C573.107 176.323 573.107 176.336 573.107 176.348C573.107 176.36 573.107 176.373 573.107 176.385V177.092H573.088C572.508 188.665 558.447 197.927 541.185 197.927C523.555 197.927 509.263 188.266 509.263 176.348C509.263 164.431 523.555 154.77 541.185 154.77C544.549 154.77 547.791 155.121 550.836 155.773V71.4321H485.508V177.092H485.489C484.909 188.665 470.847 197.927 453.586 197.927C435.956 197.927 421.664 188.266 421.664 176.348C421.664 164.431 435.956 154.77 453.586 154.77C456.95 154.77 460.192 155.121 463.237 155.773V4.46448ZM485.508 26.7871H550.836V49.1096H485.508V26.7871Z" fill="#8DC73F"/>
<path fill-rule="evenodd" clip-rule="evenodd" d="M775.032 4.46448H797.303V4.46456H862.631V4.46448H884.902V177.092H884.883C884.303 188.665 870.242 197.927 852.98 197.927C835.35 197.927 821.058 188.266 821.058 176.348C821.058 164.431 835.35 154.77 852.98 154.77C856.344 154.77 859.586 155.121 862.631 155.773V71.4321H797.303V177.092H797.284C796.704 188.665 782.642 197.927 765.381 197.927C747.751 197.927 733.459 188.266 733.459 176.348C733.459 164.431 747.751 154.77 765.381 154.77C768.745 154.77 771.987 155.121 775.032 155.773V4.46448ZM797.303 26.7871H862.631V49.1096H797.303V26.7871Z" fill="#8DC73F"/>
<path fill-rule="evenodd" clip-rule="evenodd" d="M1123.94 4.46448H1146.21V4.46456H1211.54V4.46448H1233.81V176.305C1233.81 176.32 1233.81 176.334 1233.81 176.348C1233.81 176.362 1233.81 176.377 1233.81 176.391V177.092H1233.8C1233.22 188.665 1219.15 197.927 1201.89 197.927C1184.26 197.927 1169.97 188.266 1169.97 176.348C1169.97 164.431 1184.26 154.77 1201.89 154.77C1205.26 154.77 1208.5 155.121 1211.54 155.773V71.4321H1146.21V176.283L1146.21 176.348L1146.21 176.413V177.092H1146.2C1145.62 188.665 1131.55 197.927 1114.29 197.927C1096.66 197.927 1082.37 188.266 1082.37 176.348C1082.37 164.431 1096.66 154.77 1114.29 154.77C1117.66 154.77 1120.9 155.121 1123.94 155.773V4.46448ZM1146.21 26.7871H1211.54V49.1096H1146.21V26.7871Z" fill="#8DC73F"/>
<path fill-rule="evenodd" clip-rule="evenodd" d="M1499.58 4.46448H1521.85V4.46456H1587.18V4.46448H1609.45V176.311C1609.45 176.323 1609.45 176.336 1609.45 176.348C1609.45 176.36 1609.45 176.373 1609.45 176.385V177.092H1609.43C1608.85 188.665 1594.79 197.927 1577.53 197.927C1559.9 197.927 1545.61 188.266 1545.61 176.348C1545.61 164.431 1559.9 154.77 1577.53 154.77C1580.89 154.77 1584.13 155.121 1587.18 155.773V71.4321H1521.85V176.256L1521.85 176.348L1521.85 176.44V177.092H1521.83C1521.25 188.665 1507.19 197.927 1489.93 197.927C1472.3 197.927 1458.01 188.266 1458.01 176.348C1458.01 164.431 1472.3 154.77 1489.93 154.77C1493.29 154.77 1496.54 155.121 1499.58 155.773V4.46448ZM1521.85 26.7871H1587.18V49.1096H1521.85V26.7871Z" fill="#8DC73F"/>
<path fill-rule="evenodd" clip-rule="evenodd" d="M41.5726 0H63.8436V114.452L129.172 9.66275V0H151.443V171.847C151.443 171.859 151.443 171.871 151.443 171.884C151.443 171.896 151.443 171.908 151.443 171.921V172.628H151.424C150.844 184.201 136.783 193.462 119.521 193.462C101.891 193.462 87.5993 183.801 87.5993 171.884C87.5993 159.966 101.891 150.305 119.521 150.305C122.885 150.305 126.127 150.657 129.172 151.309V51.7872L63.8436 156.576V172.628H63.8249C63.2448 184.201 49.1833 193.462 31.9218 193.462C14.2919 193.462 0 183.801 0 171.884C0 159.966 14.2919 150.305 31.9218 150.305C35.2856 150.305 38.5279 150.657 41.5726 151.309V0Z" fill="#8DC73F"/>
<path fill-rule="evenodd" clip-rule="evenodd" d="M1312.5 4.46448H1334.78V68.4557H1398.62V4.46448H1420.89V177.092H1420.87C1420.29 188.665 1406.23 197.927 1388.97 197.927C1371.34 197.927 1357.05 188.266 1357.05 176.348C1357.05 164.431 1371.34 154.77 1388.97 154.77C1392.33 154.77 1395.57 155.121 1398.62 155.773V90.7782H1334.78V176.333L1334.78 176.348L1334.78 176.363V177.092H1334.76C1334.18 188.665 1320.11 197.927 1302.85 197.927C1285.22 197.927 1270.93 188.266 1270.93 176.348C1270.93 164.431 1285.22 154.77 1302.85 154.77C1306.22 154.77 1309.46 155.121 1312.5 155.773V4.46448Z" fill="#8DC73F"/>
<path fill-rule="evenodd" clip-rule="evenodd" d="M1772 7.55883L1751.04 0L1727.12 66.6397L1710.29 19.775C1708.89 8.73635 1695.18 0.0733643 1678.49 0.0733643C1660.86 0.0733643 1646.57 9.73437 1646.57 21.6518C1646.57 33.5693 1660.86 43.2303 1678.49 43.2303C1684.14 43.2303 1689.46 42.2365 1694.06 40.4933L1715.28 99.6028L1694.42 157.716C1689.73 155.889 1684.29 154.843 1678.49 154.843C1660.86 154.843 1646.57 164.504 1646.57 176.421C1646.57 188.339 1660.86 198 1678.49 198C1693.62 198 1706.28 190.889 1709.58 181.343L1709.6 181.351L1727.12 132.566L1750.53 197.796L1771.49 190.238L1738.95 99.6034L1772 7.55883Z" fill="#8DC73F"/>
<path fill-rule="evenodd" clip-rule="evenodd" d="M674.811 84.8257C707.201 84.8257 733.458 66.8362 733.458 44.6451C733.458 22.4539 707.201 4.46448 674.811 4.46448C643.148 4.46448 617.346 21.6552 616.204 43.1569H616.164V44.5659C616.164 44.5923 616.164 44.6187 616.164 44.6451C616.164 44.6714 616.164 44.6978 616.164 44.7242V197.927H638.435V76.1649C648.432 81.5878 661.07 84.8257 674.811 84.8257Z" fill="#8DC73F"/>
<path fill-rule="evenodd" clip-rule="evenodd" d="M267.252 4.46448H289.523V4.46454H354.851V26.7871H289.523V126.226C299.52 120.803 312.158 117.565 325.899 117.565C358.289 117.565 384.546 135.555 384.546 157.746C384.546 179.937 358.289 197.927 325.899 197.927C294.236 197.927 268.434 180.736 267.291 159.234H267.252V157.808C267.252 157.787 267.252 157.767 267.252 157.746C267.252 157.725 267.252 157.705 267.252 157.684V26.7871H267.252V4.46454H267.252V4.46448Z" fill="#8DC73F"/>
<path fill-rule="evenodd" clip-rule="evenodd" d="M927.959 4.46448H950.23V4.46454H1015.56V26.7871H950.23V126.226C960.227 120.803 972.865 117.565 986.606 117.565C1019 117.565 1045.25 135.555 1045.25 157.746C1045.25 179.937 1019 197.927 986.606 197.927C954.943 197.927 929.141 180.736 927.999 159.234H927.959V4.46448Z" fill="#8DC73F"/>
</svg>
