<svg width="1280" height="135" viewBox="0 0 1280 135" fill="none" xmlns="http://www.w3.org/2000/svg">
<path fill-rule="evenodd" clip-rule="evenodd" d="M351.842 3.04395L367.027 3.04399L411.569 3.04395H426.753V120.745H426.741C426.345 128.635 416.758 134.95 404.988 134.95C392.968 134.95 383.224 128.363 383.224 120.237C383.224 112.112 392.968 105.525 404.988 105.525C407.282 105.525 409.493 105.765 411.569 106.209V48.7037H367.027V120.142C367.028 120.174 367.028 120.206 367.028 120.237C367.028 120.269 367.028 120.301 367.027 120.333V120.745H367.015C366.619 128.635 357.032 134.95 345.263 134.95C333.242 134.95 323.498 128.363 323.498 120.237C323.498 112.112 333.242 105.525 345.263 105.525C347.556 105.525 349.767 105.765 351.842 106.209V3.04395ZM367.027 18.2639H411.569V33.4838L367.027 33.4838V18.2639Z" fill="#8DC73F"/>
<path fill-rule="evenodd" clip-rule="evenodd" d="M564.431 3.04395L579.616 3.04399L624.158 3.04395H639.343V120.745H639.33C638.934 128.635 629.347 134.95 617.578 134.95C605.557 134.95 595.813 128.363 595.813 120.237C595.813 112.112 605.557 105.525 617.578 105.525C619.871 105.525 622.082 105.765 624.158 106.209V48.7037H579.616V120.745H579.603C579.207 128.635 569.62 134.95 557.851 134.95C545.83 134.95 536.086 128.363 536.086 120.237C536.086 112.112 545.83 105.525 557.851 105.525C560.144 105.525 562.355 105.765 564.431 106.209V3.04395ZM579.616 18.2639H624.158V33.4838L579.616 33.4838V18.2639Z" fill="#8DC73F"/>
<path fill-rule="evenodd" clip-rule="evenodd" d="M802.324 3.0437L817.509 3.04375L862.052 3.0437H877.236V120.744H877.223C876.828 128.635 867.24 134.95 855.471 134.95C843.451 134.95 833.706 128.363 833.706 120.237C833.706 112.112 843.451 105.525 855.471 105.525C857.765 105.525 859.975 105.764 862.052 106.209V48.7035H817.509V120.744H817.496C817.101 128.635 807.514 134.95 795.744 134.95C783.724 134.95 773.979 128.363 773.979 120.237C773.979 112.112 783.724 105.525 795.744 105.525C798.038 105.525 800.249 105.764 802.324 106.209V3.0437ZM817.509 18.2637H862.052V33.4835L817.509 33.4835V18.2637Z" fill="#8DC73F"/>
<path fill-rule="evenodd" clip-rule="evenodd" d="M1058.44 3.0437L1073.63 3.04375L1118.17 3.0437H1133.35V120.141C1133.35 120.173 1133.35 120.205 1133.35 120.237C1133.35 120.269 1133.35 120.301 1133.35 120.333V120.744H1133.34C1132.95 128.635 1123.36 134.95 1111.59 134.95C1099.57 134.95 1089.82 128.363 1089.82 120.237C1089.82 112.112 1099.57 105.525 1111.59 105.525C1113.88 105.525 1116.09 105.764 1118.17 106.209V48.7035H1073.63V120.142C1073.63 120.174 1073.63 120.205 1073.63 120.237C1073.63 120.269 1073.63 120.301 1073.63 120.332V120.744H1073.61C1073.22 128.635 1063.63 134.95 1051.86 134.95C1039.84 134.95 1030.1 128.363 1030.1 120.237C1030.1 112.112 1039.84 105.525 1051.86 105.525C1054.15 105.525 1056.37 105.764 1058.44 106.209V3.0437ZM1073.63 18.2637H1118.17V33.4835L1073.63 33.4835V18.2637Z" fill="#8DC73F"/>
<path fill-rule="evenodd" clip-rule="evenodd" d="M64.3449 0H79.5297V78.0356L124.072 6.58798V0H139.257V117.701H139.244C138.848 125.591 129.261 131.906 117.492 131.906C105.472 131.906 95.7271 125.319 95.7271 117.193C95.7271 109.068 105.472 102.481 117.492 102.481C119.785 102.481 121.996 102.721 124.072 103.165V35.3092L79.5297 106.757V117.701H79.517C79.1214 125.591 69.534 131.906 57.7648 131.906C45.7444 131.906 36 125.319 36 117.193C36 109.068 45.7444 102.481 57.7648 102.481C60.0584 102.481 62.269 102.721 64.3449 103.165V0Z" fill="#8DC73F"/>
<path fill-rule="evenodd" clip-rule="evenodd" d="M930.89 3.04395H946.075V46.6743H989.605V3.04395H1004.79V120.745H1004.78C1004.38 128.635 994.794 134.95 983.025 134.95C971.004 134.95 961.26 128.363 961.26 120.237C961.26 112.112 971.004 105.525 983.025 105.525C985.318 105.525 987.529 105.765 989.605 106.209V61.8942H946.075V120.745H946.062C945.666 128.635 936.079 134.95 924.31 134.95C912.289 134.95 902.545 128.363 902.545 120.237C902.545 112.112 912.289 105.525 924.31 105.525C926.603 105.525 928.814 105.765 930.89 106.209V3.04395Z" fill="#8DC73F"/>
<path fill-rule="evenodd" clip-rule="evenodd" d="M1244.18 5.15375L1229.9 0L1213.58 45.4365L1202.11 13.4826C1201.15 5.95661 1191.81 0.0504373 1180.43 0.0504373C1168.41 0.0504373 1158.66 6.63749 1158.66 14.763C1158.66 22.8886 1168.41 29.4756 1180.43 29.4756C1184.28 29.4756 1187.9 28.798 1191.04 27.6094L1205.51 67.9113L1191.29 107.534C1188.09 106.288 1184.38 105.575 1180.43 105.575C1168.41 105.575 1158.66 112.162 1158.66 120.287C1158.66 128.413 1168.41 135 1180.43 135C1190.74 135 1199.38 130.152 1201.62 123.643L1201.64 123.648L1213.58 90.3865L1229.55 134.861L1243.83 129.708L1221.65 67.9117L1244.18 5.15375Z" fill="#8DC73F"/>
<path fill-rule="evenodd" clip-rule="evenodd" d="M496.099 57.8357C518.183 57.8357 536.085 45.5701 536.085 30.4398C536.085 15.3095 518.183 3.04395 496.099 3.04395C474.511 3.04395 456.918 14.7649 456.139 29.4252H456.112V30.3585C456.112 30.3856 456.112 30.4127 456.112 30.4398C456.112 30.4669 456.112 30.494 456.112 30.5211V134.95H471.297V51.9307C478.113 55.6281 486.73 57.8357 496.099 57.8357Z" fill="#8DC73F"/>
<path fill-rule="evenodd" clip-rule="evenodd" d="M218.218 3.04395H233.403V3.04397H277.945V18.2639H233.403V86.0633C240.219 82.3658 248.835 80.1581 258.204 80.1581C280.288 80.1581 298.191 92.4237 298.191 107.554C298.191 122.684 280.288 134.95 258.204 134.95C236.616 134.95 219.024 123.229 218.245 108.569H218.218V3.04395Z" fill="#8DC73F"/>
<path fill-rule="evenodd" clip-rule="evenodd" d="M668.699 3.04395H683.884L728.426 3.04395V18.2639H683.884V86.0633C690.7 82.3658 699.317 80.1581 708.686 80.1581C730.77 80.1581 748.672 92.4237 748.672 107.554C748.672 122.684 730.77 134.95 708.686 134.95C687.098 134.95 669.505 123.229 668.726 108.569H668.699V3.04395Z" fill="#8DC73F"/>
</svg>
