<svg width="1013" height="1248" viewBox="0 0 1013 1248" fill="none" xmlns="http://www.w3.org/2000/svg">
<g clip-path="url(#clip0_360_2)">
<path fill-rule="evenodd" clip-rule="evenodd" d="M323.377 42V54.8832H347.551V154.514H361.496V54.8832H387.526V42H323.377Z" fill="#8DC73F"/>
<path fill-rule="evenodd" clip-rule="evenodd" d="M427.897 3H413.951V3.00007V15.8833V51.0974V63.9807V101.772V114.655V114.655H468.804V101.772H427.897V63.9807H468.804V51.0974H427.897V15.8833H468.804V3.00007H427.897V3Z" fill="#8DC73F"/>
<path fill-rule="evenodd" clip-rule="evenodd" d="M143.946 42.8691H130V154.524H143.946V154.524H184.852V154.524H198.797V42.8691H184.852V42.8692H143.946V42.8691ZM143.946 55.7524V141.641H184.852V55.7524H143.946Z" fill="#8DC73F"/>
<path fill-rule="evenodd" clip-rule="evenodd" d="M958.293 42.9999H944.348V154.655H958.293L999.199 154.655V154.655H1013.14V43H999.199V43H958.293V42.9999ZM958.293 55.8833V141.771H999.199V55.8833H958.293Z" fill="#8DC73F"/>
<path fill-rule="evenodd" clip-rule="evenodd" d="M496.303 42.8589H510.248V42.8589H551.154V42.8589H565.1V154.514H551.154V55.7422H510.248V154.514H496.303V42.8589Z" fill="#8DC73F"/>
<path fill-rule="evenodd" clip-rule="evenodd" d="M734.307 42.8589H748.252V42.859H789.16V42.8589H803.106V142.489H803.092C802.729 149.169 793.924 154.514 783.116 154.514C772.076 154.514 763.127 148.938 763.127 142.06C763.127 135.182 772.076 129.606 783.116 129.606C785.222 129.606 787.253 129.809 789.16 130.186V81.5086H748.252V141.982C748.252 142.008 748.253 142.034 748.253 142.06C748.253 142.086 748.252 142.112 748.252 142.138V142.489H748.241C747.878 149.169 739.073 154.514 728.264 154.514C717.225 154.514 708.275 148.938 708.275 142.06C708.275 135.182 717.225 129.606 728.264 129.606C730.37 129.606 732.4 129.809 734.307 130.185V42.8589ZM748.252 55.7422H789.16V68.6254H748.252V55.7422Z" fill="#8DC73F"/>
<path fill-rule="evenodd" clip-rule="evenodd" d="M614.768 3.00006H628.713V69.0557L669.621 8.57593V3.00006H683.567V102.63H683.553C683.19 109.31 674.385 114.655 663.576 114.655C652.537 114.655 643.588 109.079 643.588 102.201C643.588 95.3231 652.537 89.7473 663.576 89.7473C665.683 89.7473 667.714 89.9504 669.621 90.3269V32.8876L628.713 93.3674V102.123C628.713 102.149 628.713 102.175 628.713 102.201C628.713 102.227 628.713 102.253 628.713 102.279V102.63H628.702C628.339 109.31 619.534 114.655 608.725 114.655C597.686 114.655 588.736 109.079 588.736 102.201C588.736 95.3231 597.686 89.7473 608.725 89.7473C610.831 89.7473 612.861 89.9503 614.768 90.3265V3.00006Z" fill="#8DC73F"/>
<path fill-rule="evenodd" clip-rule="evenodd" d="M852.771 3.00007H866.717V39.9321H906.695V3.00007H920.641V102.63H920.628C920.265 109.31 911.46 114.655 900.651 114.655C889.611 114.655 880.662 109.079 880.662 102.201C880.662 95.3231 889.611 89.7473 900.651 89.7473C902.758 89.7473 904.788 89.9504 906.695 90.3268V52.8153H866.717V102.1C866.717 102.134 866.718 102.167 866.718 102.201L866.717 102.245L866.717 102.302V102.63H866.706C866.343 109.31 857.538 114.655 846.729 114.655C835.69 114.655 826.74 109.079 826.74 102.201C826.74 95.3231 835.69 89.7473 846.729 89.7473C848.835 89.7473 850.865 89.9502 852.771 90.3265V3.00007Z" fill="#8DC73F"/>
<path fill-rule="evenodd" clip-rule="evenodd" d="M262.266 49.9087C282.548 49.9087 298.989 39.5262 298.989 26.7188C298.989 13.9114 282.548 3.52899 262.266 3.52899C242.44 3.52899 226.283 13.4505 225.568 25.86H225.543V26.7188V115.184H239.488V44.9102C245.748 48.0399 253.662 49.9087 262.266 49.9087Z" fill="#8DC73F"/>
<path fill-rule="evenodd" clip-rule="evenodd" d="M46.1797 15.4051C41.5758 8.13585 34.7369 3.52894 27.1019 3.52894C13.2385 3.52894 2 18.7181 2 37.4548C2 56.1915 13.2385 71.3807 27.1019 71.3807C34.7369 71.3807 41.5758 66.7738 46.1797 59.5045V115.184H60.1252V61.2893C64.6765 67.5195 70.999 71.3807 77.9887 71.3807C91.8521 71.3807 103.091 56.1915 103.091 37.4548C103.091 18.7181 91.8521 3.52894 77.9887 3.52894C70.999 3.52894 64.6765 7.39009 60.1252 13.6203V3.52899H46.1797V15.4051Z" fill="#8DC73F"/>
<path fill-rule="evenodd" clip-rule="evenodd" d="M322.842 189.015V201.898H347.016V301.529H360.961V201.898H386.991V189.015H322.842Z" fill="#8DC73F"/>
<path fill-rule="evenodd" clip-rule="evenodd" d="M427.897 166H413.951V166V178.883V214.097V226.981V264.772V277.655V277.655H468.804V264.772H427.897V226.981H468.804V214.097H427.897V178.883H468.804V166H427.897V166Z" fill="#8DC73F"/>
<path fill-rule="evenodd" clip-rule="evenodd" d="M143.41 189.884H129.465V301.539H143.41V301.539H184.316V301.539H198.262V189.884H184.316V189.884H143.41V189.884ZM143.41 202.768V288.656H184.316V202.768H143.41Z" fill="#8DC73F"/>
<path fill-rule="evenodd" clip-rule="evenodd" d="M957.758 190.015H943.812V301.67H957.758L998.664 301.67V301.67H1012.61V190.015H998.664V190.015H957.758V190.015ZM957.758 202.898V288.787H998.664V202.898H957.758Z" fill="#8DC73F"/>
<path fill-rule="evenodd" clip-rule="evenodd" d="M495.768 189.874H509.713V189.874H550.619V189.874H564.565V301.529H550.619V202.757H509.713V301.529H495.768V189.874Z" fill="#8DC73F"/>
<path fill-rule="evenodd" clip-rule="evenodd" d="M733.771 189.874H747.717V189.874H788.625V189.874H802.571V289.505H802.557C802.194 296.184 793.389 301.529 782.58 301.529C771.541 301.529 762.592 295.953 762.592 289.075C762.592 282.197 771.541 276.621 782.58 276.621C784.687 276.621 786.718 276.824 788.625 277.201V228.524H747.717V288.997C747.717 289.023 747.717 289.049 747.717 289.075C747.717 289.101 747.717 289.127 747.717 289.153V289.505H747.706C747.343 296.184 738.538 301.529 727.729 301.529C716.689 301.529 707.74 295.953 707.74 289.075C707.74 282.197 716.689 276.621 727.729 276.621C729.835 276.621 731.865 276.824 733.771 277.201V189.874ZM747.717 202.757H788.625V215.641H747.717V202.757Z" fill="#8DC73F"/>
<path fill-rule="evenodd" clip-rule="evenodd" d="M614.768 166H628.713V232.056L669.621 171.576V166H683.567V265.63H683.553C683.19 272.31 674.385 277.655 663.576 277.655C652.537 277.655 643.588 272.079 643.588 265.201C643.588 258.323 652.537 252.747 663.576 252.747C665.683 252.747 667.714 252.95 669.621 253.327V195.888L628.713 256.367V265.123C628.713 265.149 628.713 265.175 628.713 265.201C628.713 265.227 628.713 265.253 628.713 265.279V265.63H628.702C628.339 272.31 619.534 277.655 608.725 277.655C597.686 277.655 588.736 272.079 588.736 265.201C588.736 258.323 597.686 252.747 608.725 252.747C610.831 252.747 612.861 252.95 614.768 253.326V166Z" fill="#8DC73F"/>
<path fill-rule="evenodd" clip-rule="evenodd" d="M852.771 166H866.717V202.932H906.695V166H920.641V265.63H920.628C920.265 272.31 911.46 277.655 900.651 277.655C889.611 277.655 880.662 272.079 880.662 265.201C880.662 258.323 889.611 252.747 900.651 252.747C902.758 252.747 904.788 252.95 906.695 253.327V215.815H866.717V265.1C866.717 265.134 866.718 265.167 866.718 265.201L866.717 265.245L866.717 265.302V265.63H866.706C866.343 272.31 857.538 277.655 846.729 277.655C835.69 277.655 826.74 272.079 826.74 265.201C826.74 258.323 835.69 252.747 846.729 252.747C848.835 252.747 850.865 252.95 852.771 253.326V166Z" fill="#8DC73F"/>
<path fill-rule="evenodd" clip-rule="evenodd" d="M262.266 212.909C282.548 212.909 298.989 202.526 298.989 189.719C298.989 176.911 282.548 166.529 262.266 166.529C242.44 166.529 226.283 176.45 225.568 188.86H225.543V189.719V278.184H239.488V207.91C245.748 211.04 253.662 212.909 262.266 212.909Z" fill="#8DC73F"/>
<path fill-rule="evenodd" clip-rule="evenodd" d="M46.1797 178.405C41.5758 171.136 34.7369 166.529 27.1019 166.529C13.2385 166.529 2 181.718 2 200.455C2 219.192 13.2385 234.381 27.1019 234.381C34.7369 234.381 41.5758 229.774 46.1797 222.505V278.184H60.1252V224.289C64.6765 230.52 70.999 234.381 77.9887 234.381C91.8521 234.381 103.091 219.192 103.091 200.455C103.091 181.718 91.8521 166.529 77.9887 166.529C70.999 166.529 64.6765 170.39 60.1252 176.62V166.529H46.1797V178.405Z" fill="#8DC73F"/>
<path fill-rule="evenodd" clip-rule="evenodd" d="M322.842 1125.02V1137.9H347.016V1237.53H360.961V1137.9H386.991V1125.02H322.842Z" fill="#8DC73F"/>
<path fill-rule="evenodd" clip-rule="evenodd" d="M427.897 1102H413.951V1102V1114.88V1150.1V1162.98V1200.77V1213.65V1213.65H468.804V1200.77H427.897V1162.98H468.804V1150.1H427.897V1114.88H468.804V1102H427.897V1102Z" fill="#8DC73F"/>
<path fill-rule="evenodd" clip-rule="evenodd" d="M143.41 1125.88H129.465V1237.54H143.41V1237.54H184.316V1237.54H198.262V1125.88H184.316V1125.88H143.41V1125.88ZM143.41 1138.77V1224.66H184.316V1138.77H143.41Z" fill="#8DC73F"/>
<path fill-rule="evenodd" clip-rule="evenodd" d="M957.758 1126.02H943.812V1237.67H957.758L998.664 1237.67V1237.67H1012.61V1126.02H998.664V1126.02H957.758V1126.02ZM957.758 1138.9V1224.79H998.664V1138.9H957.758Z" fill="#8DC73F"/>
<path fill-rule="evenodd" clip-rule="evenodd" d="M495.768 1125.87H509.713V1125.87H550.619V1125.87H564.565V1237.53H550.619V1138.76H509.713V1237.53H495.768V1125.87Z" fill="#8DC73F"/>
<path fill-rule="evenodd" clip-rule="evenodd" d="M733.771 1125.87H747.717V1125.87H788.625V1125.87H802.571V1225.5H802.557C802.194 1232.18 793.389 1237.53 782.58 1237.53C771.541 1237.53 762.592 1231.95 762.592 1225.08C762.592 1218.2 771.541 1212.62 782.58 1212.62C784.687 1212.62 786.718 1212.82 788.625 1213.2V1164.52H747.717V1225C747.717 1225.02 747.717 1225.05 747.717 1225.08C747.717 1225.1 747.717 1225.13 747.717 1225.15V1225.5H747.706C747.343 1232.18 738.538 1237.53 727.729 1237.53C716.689 1237.53 707.74 1231.95 707.74 1225.08C707.74 1218.2 716.689 1212.62 727.729 1212.62C729.835 1212.62 731.865 1212.82 733.771 1213.2V1125.87ZM747.717 1138.76H788.625V1151.64H747.717V1138.76Z" fill="#8DC73F"/>
<path fill-rule="evenodd" clip-rule="evenodd" d="M614.768 1102H628.713V1168.06L669.621 1107.58V1102H683.567V1201.63H683.553C683.19 1208.31 674.385 1213.65 663.576 1213.65C652.537 1213.65 643.588 1208.08 643.588 1201.2C643.588 1194.32 652.537 1188.75 663.576 1188.75C665.683 1188.75 667.714 1188.95 669.621 1189.33V1131.89L628.713 1192.37V1201.12C628.713 1201.15 628.713 1201.18 628.713 1201.2C628.713 1201.23 628.713 1201.25 628.713 1201.28V1201.63H628.702C628.339 1208.31 619.534 1213.65 608.725 1213.65C597.686 1213.65 588.736 1208.08 588.736 1201.2C588.736 1194.32 597.686 1188.75 608.725 1188.75C610.831 1188.75 612.861 1188.95 614.768 1189.33V1102Z" fill="#8DC73F"/>
<path fill-rule="evenodd" clip-rule="evenodd" d="M852.771 1102H866.717V1138.93H906.695V1102H920.641V1201.63H920.628C920.265 1208.31 911.46 1213.65 900.651 1213.65C889.611 1213.65 880.662 1208.08 880.662 1201.2C880.662 1194.32 889.611 1188.75 900.651 1188.75C902.758 1188.75 904.788 1188.95 906.695 1189.33V1151.82H866.717V1201.1C866.717 1201.13 866.718 1201.17 866.718 1201.2L866.717 1201.25L866.717 1201.3V1201.63H866.706C866.343 1208.31 857.538 1213.65 846.729 1213.65C835.69 1213.65 826.74 1208.08 826.74 1201.2C826.74 1194.32 835.69 1188.75 846.729 1188.75C848.835 1188.75 850.865 1188.95 852.771 1189.33V1102Z" fill="#8DC73F"/>
<path fill-rule="evenodd" clip-rule="evenodd" d="M262.266 1148.91C282.548 1148.91 298.989 1138.53 298.989 1125.72C298.989 1112.91 282.548 1102.53 262.266 1102.53C242.44 1102.53 226.283 1112.45 225.568 1124.86H225.543V1125.72V1214.18H239.488V1143.91C245.748 1147.04 253.662 1148.91 262.266 1148.91Z" fill="#8DC73F"/>
<path fill-rule="evenodd" clip-rule="evenodd" d="M46.1797 1114.41C41.5758 1107.14 34.7369 1102.53 27.1019 1102.53C13.2385 1102.53 2 1117.72 2 1136.45C2 1155.19 13.2385 1170.38 27.1019 1170.38C34.7369 1170.38 41.5758 1165.77 46.1797 1158.5V1214.18H60.1252V1160.29C64.6765 1166.52 70.999 1170.38 77.9887 1170.38C91.8521 1170.38 103.091 1155.19 103.091 1136.45C103.091 1117.72 91.8521 1102.53 77.9887 1102.53C70.999 1102.53 64.6765 1106.39 60.1252 1112.62V1102.53H46.1797V1114.41Z" fill="#8DC73F"/>
<path fill-rule="evenodd" clip-rule="evenodd" d="M322.842 335V347.883H347.016V447.514H360.961V347.883H386.991V335H322.842Z" fill="#8DC73F"/>
<path fill-rule="evenodd" clip-rule="evenodd" d="M427.897 335H413.951V335V347.883V383.097V395.981V433.772V446.655V446.655H468.804V433.772H427.897V395.981H468.804V383.097H427.897V347.883H468.804V335H427.897V335Z" fill="#8DC73F"/>
<path fill-rule="evenodd" clip-rule="evenodd" d="M143.41 335H129.465V446.655H143.41V446.655H184.316V446.655H198.262V335H184.316V335H143.41V335ZM143.41 347.883V433.771H184.316V347.883H143.41Z" fill="#8DC73F"/>
<path fill-rule="evenodd" clip-rule="evenodd" d="M957.758 335H943.812V446.655H957.758L998.664 446.655V446.655H1012.61V335H998.664V335H957.758V335ZM957.758 347.883V433.771H998.664V347.883H957.758Z" fill="#8DC73F"/>
<path fill-rule="evenodd" clip-rule="evenodd" d="M495.768 335H509.713V335H550.619V335H564.565V446.655H550.619V347.883H509.713V446.655H495.768V335Z" fill="#8DC73F"/>
<path fill-rule="evenodd" clip-rule="evenodd" d="M733.771 335H747.717V335H788.625V335H802.571V434.63H802.557C802.194 441.31 793.389 446.655 782.58 446.655C771.541 446.655 762.592 441.079 762.592 434.201C762.592 427.323 771.541 421.747 782.58 421.747C784.687 421.747 786.718 421.95 788.625 422.327V373.65H747.717V434.123C747.717 434.149 747.717 434.175 747.717 434.201C747.717 434.227 747.717 434.253 747.717 434.279V434.63H747.706C747.343 441.31 738.538 446.655 727.729 446.655C716.689 446.655 707.74 441.079 707.74 434.201C707.74 427.323 716.689 421.747 727.729 421.747C729.835 421.747 731.865 421.95 733.771 422.326V335ZM747.717 347.883H788.625V360.766H747.717V347.883Z" fill="#8DC73F"/>
<path fill-rule="evenodd" clip-rule="evenodd" d="M614.768 335H628.713V401.056L669.621 340.576V335H683.567V434.63H683.553C683.19 441.31 674.385 446.655 663.576 446.655C652.537 446.655 643.588 441.079 643.588 434.201C643.588 427.323 652.537 421.747 663.576 421.747C665.683 421.747 667.714 421.95 669.621 422.327V364.888L628.713 425.367V434.123C628.713 434.149 628.713 434.175 628.713 434.201C628.713 434.227 628.713 434.253 628.713 434.279V434.63H628.702C628.339 441.31 619.534 446.655 608.725 446.655C597.686 446.655 588.736 441.079 588.736 434.201C588.736 427.323 597.686 421.747 608.725 421.747C610.831 421.747 612.861 421.95 614.768 422.326V335Z" fill="#8DC73F"/>
<path fill-rule="evenodd" clip-rule="evenodd" d="M852.771 335H866.717V371.932H906.695V335H920.641V434.63H920.628C920.265 441.31 911.46 446.655 900.651 446.655C889.611 446.655 880.662 441.079 880.662 434.201C880.662 427.323 889.611 421.747 900.651 421.747C902.758 421.747 904.788 421.95 906.695 422.327V384.815H866.717V434.1C866.717 434.134 866.718 434.167 866.718 434.201L866.717 434.245L866.717 434.302V434.63H866.706C866.343 441.31 857.538 446.655 846.729 446.655C835.69 446.655 826.74 441.079 826.74 434.201C826.74 427.323 835.69 421.747 846.729 421.747C848.835 421.747 850.865 421.95 852.771 422.326V335Z" fill="#8DC73F"/>
<path fill-rule="evenodd" clip-rule="evenodd" d="M262.266 381.38C282.548 381.38 298.989 370.997 298.989 358.19C298.989 345.382 282.548 335 262.266 335C242.44 335 226.283 344.921 225.568 357.331H225.543V358.19V446.655H239.488V376.381C245.748 379.511 253.662 381.38 262.266 381.38Z" fill="#8DC73F"/>
<path fill-rule="evenodd" clip-rule="evenodd" d="M46.1797 346.876C41.5758 339.607 34.7369 335 27.1019 335C13.2385 335 2 350.189 2 368.926C2 387.663 13.2385 402.852 27.1019 402.852C34.7369 402.852 41.5758 398.245 46.1797 390.976V446.655H60.1252V392.76C64.6765 398.991 70.999 402.852 77.9887 402.852C91.8521 402.852 103.091 387.663 103.091 368.926C103.091 350.189 91.8521 335 77.9887 335C70.999 335 64.6765 338.861 60.1252 345.091V335H46.1797V346.876Z" fill="#8DC73F"/>
<path fill-rule="evenodd" clip-rule="evenodd" d="M322.842 960V972.883H347.016V1072.51H360.961V972.883H386.991V960H322.842Z" fill="#8DC73F"/>
<path fill-rule="evenodd" clip-rule="evenodd" d="M427.897 960H413.951V960V972.883V1008.1V1020.98V1058.77V1071.65V1071.65H468.804V1058.77H427.897V1020.98H468.804V1008.1H427.897V972.883H468.804V960H427.897V960Z" fill="#8DC73F"/>
<path fill-rule="evenodd" clip-rule="evenodd" d="M143.41 960H129.465V1071.65H143.41V1071.65H184.316V1071.65H198.262V960H184.316V960H143.41V960ZM143.41 972.883V1058.77H184.316V972.883H143.41Z" fill="#8DC73F"/>
<path fill-rule="evenodd" clip-rule="evenodd" d="M957.758 960H943.812V1071.65H957.758L998.664 1071.65V1071.65H1012.61V960H998.664V960H957.758V960ZM957.758 972.883V1058.77H998.664V972.883H957.758Z" fill="#8DC73F"/>
<path fill-rule="evenodd" clip-rule="evenodd" d="M495.768 960H509.713V960H550.619V960H564.565V1071.65H550.619V972.883H509.713V1071.65H495.768V960Z" fill="#8DC73F"/>
<path fill-rule="evenodd" clip-rule="evenodd" d="M733.771 960H747.717V960H788.625V960H802.571V1059.63H802.557C802.194 1066.31 793.389 1071.65 782.58 1071.65C771.541 1071.65 762.592 1066.08 762.592 1059.2C762.592 1052.32 771.541 1046.75 782.58 1046.75C784.687 1046.75 786.718 1046.95 788.625 1047.33V998.65H747.717V1059.12C747.717 1059.15 747.717 1059.18 747.717 1059.2C747.717 1059.23 747.717 1059.25 747.717 1059.28V1059.63H747.706C747.343 1066.31 738.538 1071.65 727.729 1071.65C716.689 1071.65 707.74 1066.08 707.74 1059.2C707.74 1052.32 716.689 1046.75 727.729 1046.75C729.835 1046.75 731.865 1046.95 733.771 1047.33V960ZM747.717 972.883H788.625V985.766H747.717V972.883Z" fill="#8DC73F"/>
<path fill-rule="evenodd" clip-rule="evenodd" d="M614.768 960H628.713V1026.06L669.621 965.576V960H683.567V1059.63H683.553C683.19 1066.31 674.385 1071.65 663.576 1071.65C652.537 1071.65 643.588 1066.08 643.588 1059.2C643.588 1052.32 652.537 1046.75 663.576 1046.75C665.683 1046.75 667.714 1046.95 669.621 1047.33V989.888L628.713 1050.37V1059.12C628.713 1059.15 628.713 1059.18 628.713 1059.2C628.713 1059.23 628.713 1059.25 628.713 1059.28V1059.63H628.702C628.339 1066.31 619.534 1071.65 608.725 1071.65C597.686 1071.65 588.736 1066.08 588.736 1059.2C588.736 1052.32 597.686 1046.75 608.725 1046.75C610.831 1046.75 612.861 1046.95 614.768 1047.33V960Z" fill="#8DC73F"/>
<path fill-rule="evenodd" clip-rule="evenodd" d="M852.771 960H866.717V996.932H906.695V960H920.641V1059.63H920.628C920.265 1066.31 911.46 1071.65 900.651 1071.65C889.611 1071.65 880.662 1066.08 880.662 1059.2C880.662 1052.32 889.611 1046.75 900.651 1046.75C902.758 1046.75 904.788 1046.95 906.695 1047.33V1009.82H866.717V1059.1C866.717 1059.13 866.718 1059.17 866.718 1059.2L866.717 1059.25L866.717 1059.3V1059.63H866.706C866.343 1066.31 857.538 1071.65 846.729 1071.65C835.69 1071.65 826.74 1066.08 826.74 1059.2C826.74 1052.32 835.69 1046.75 846.729 1046.75C848.835 1046.75 850.865 1046.95 852.771 1047.33V960Z" fill="#8DC73F"/>
<path fill-rule="evenodd" clip-rule="evenodd" d="M262.266 1006.38C282.548 1006.38 298.989 995.997 298.989 983.19C298.989 970.382 282.548 960 262.266 960C242.44 960 226.283 969.921 225.568 982.331H225.543V983.19V1071.65H239.488V1001.38C245.748 1004.51 253.662 1006.38 262.266 1006.38Z" fill="#8DC73F"/>
<path fill-rule="evenodd" clip-rule="evenodd" d="M46.1797 971.876C41.5758 964.607 34.7369 960 27.1019 960C13.2385 960 2 975.189 2 993.926C2 1012.66 13.2385 1027.85 27.1019 1027.85C34.7369 1027.85 41.5758 1023.24 46.1797 1015.98V1071.65H60.1252V1017.76C64.6765 1023.99 70.999 1027.85 77.9887 1027.85C91.8521 1027.85 103.091 1012.66 103.091 993.926C103.091 975.189 91.8521 960 77.9887 960C70.999 960 64.6765 963.861 60.1252 970.091V960H46.1797V971.876Z" fill="#8DC73F"/>
<path fill-rule="evenodd" clip-rule="evenodd" d="M322.842 481V493.883H347.016V593.514H360.961V493.883H386.991V481H322.842Z" fill="#8DC73F"/>
<path fill-rule="evenodd" clip-rule="evenodd" d="M427.897 501H413.951V501V513.883V549.097V561.981V599.772V612.655V612.655H468.804V599.772H427.897V561.981H468.804V549.097H427.897V513.883H468.804V501H427.897V501Z" fill="#8DC73F"/>
<path fill-rule="evenodd" clip-rule="evenodd" d="M143.41 481H129.465V592.655H143.41V592.655H184.316V592.655H198.262V481H184.316V481H143.41V481ZM143.41 493.883V579.771H184.316V493.883H143.41Z" fill="#8DC73F"/>
<path fill-rule="evenodd" clip-rule="evenodd" d="M957.758 481H943.812V592.655H957.758L998.664 592.655V592.655H1012.61V481H998.664V481H957.758V481ZM957.758 493.883V579.771H998.664V493.883H957.758Z" fill="#8DC73F"/>
<path fill-rule="evenodd" clip-rule="evenodd" d="M495.768 481H509.713V481H550.619V481H564.565V592.655H550.619V493.883H509.713V592.655H495.768V481Z" fill="#8DC73F"/>
<path fill-rule="evenodd" clip-rule="evenodd" d="M733.771 481H747.717V481H788.625V481H802.571V580.63H802.557C802.194 587.31 793.389 592.655 782.58 592.655C771.541 592.655 762.592 587.079 762.592 580.201C762.592 573.323 771.541 567.747 782.58 567.747C784.687 567.747 786.718 567.95 788.625 568.327V519.65H747.717V580.123C747.717 580.149 747.717 580.175 747.717 580.201C747.717 580.227 747.717 580.253 747.717 580.279V580.63H747.706C747.343 587.31 738.538 592.655 727.729 592.655C716.689 592.655 707.74 587.079 707.74 580.201C707.74 573.323 716.689 567.747 727.729 567.747C729.835 567.747 731.865 567.95 733.771 568.326V481ZM747.717 493.883H788.625V506.766H747.717V493.883Z" fill="#8DC73F"/>
<path fill-rule="evenodd" clip-rule="evenodd" d="M614.768 501H628.713V567.056L669.621 506.576V501H683.567V600.63H683.553C683.19 607.31 674.385 612.655 663.576 612.655C652.537 612.655 643.588 607.079 643.588 600.201C643.588 593.323 652.537 587.747 663.576 587.747C665.683 587.747 667.714 587.95 669.621 588.327V530.888L628.713 591.367V600.123C628.713 600.149 628.713 600.175 628.713 600.201C628.713 600.227 628.713 600.253 628.713 600.279V600.63H628.702C628.339 607.31 619.534 612.655 608.725 612.655C597.686 612.655 588.736 607.079 588.736 600.201C588.736 593.323 597.686 587.747 608.725 587.747C610.831 587.747 612.861 587.95 614.768 588.326V501Z" fill="#8DC73F"/>
<path fill-rule="evenodd" clip-rule="evenodd" d="M852.771 501H866.717V537.932H906.695V501H920.641V600.63H920.628C920.265 607.31 911.46 612.655 900.651 612.655C889.611 612.655 880.662 607.079 880.662 600.201C880.662 593.323 889.611 587.747 900.651 587.747C902.758 587.747 904.788 587.95 906.695 588.327V550.815H866.717V600.1C866.717 600.134 866.718 600.167 866.718 600.201L866.717 600.245L866.717 600.302V600.63H866.706C866.343 607.31 857.538 612.655 846.729 612.655C835.69 612.655 826.74 607.079 826.74 600.201C826.74 593.323 835.69 587.747 846.729 587.747C848.835 587.747 850.865 587.95 852.771 588.326V501Z" fill="#8DC73F"/>
<path fill-rule="evenodd" clip-rule="evenodd" d="M262.266 547.38C282.548 547.38 298.989 536.997 298.989 524.19C298.989 511.382 282.548 501 262.266 501C242.44 501 226.283 510.921 225.568 523.331H225.543V524.19V612.655H239.488V542.381C245.748 545.511 253.662 547.38 262.266 547.38Z" fill="#8DC73F"/>
<path fill-rule="evenodd" clip-rule="evenodd" d="M46.1797 512.876C41.5758 505.607 34.7369 501 27.1019 501C13.2385 501 2 516.189 2 534.926C2 553.663 13.2385 568.852 27.1019 568.852C34.7369 568.852 41.5758 564.245 46.1797 556.976V612.655H60.1252V558.76C64.6765 564.991 70.999 568.852 77.9887 568.852C91.8521 568.852 103.091 553.663 103.091 534.926C103.091 516.189 91.8521 501 77.9887 501C70.999 501 64.6765 504.861 60.1252 511.091V501H46.1797V512.876Z" fill="#8DC73F"/>
<path fill-rule="evenodd" clip-rule="evenodd" d="M322.842 793V805.883H347.016V905.514H360.961V805.883H386.991V793H322.842Z" fill="#8DC73F"/>
<path fill-rule="evenodd" clip-rule="evenodd" d="M427.897 813H413.951V813V825.883V861.097V873.981V911.772V924.655V924.655H468.804V911.772H427.897V873.981H468.804V861.097H427.897V825.883H468.804V813H427.897V813Z" fill="#8DC73F"/>
<path fill-rule="evenodd" clip-rule="evenodd" d="M143.41 793H129.465V904.655H143.41V904.655H184.316V904.655H198.262V793H184.316V793H143.41V793ZM143.41 805.883V891.771H184.316V805.883H143.41Z" fill="#8DC73F"/>
<path fill-rule="evenodd" clip-rule="evenodd" d="M957.758 793H943.812V904.655H957.758L998.664 904.655V904.655H1012.61V793H998.664V793H957.758V793ZM957.758 805.883V891.771H998.664V805.883H957.758Z" fill="#8DC73F"/>
<path fill-rule="evenodd" clip-rule="evenodd" d="M495.768 793H509.713V793H550.619V793H564.565V904.655H550.619V805.883H509.713V904.655H495.768V793Z" fill="#8DC73F"/>
<path fill-rule="evenodd" clip-rule="evenodd" d="M733.771 793H747.717V793H788.625V793H802.571V892.63H802.557C802.194 899.31 793.389 904.655 782.58 904.655C771.541 904.655 762.592 899.079 762.592 892.201C762.592 885.323 771.541 879.747 782.58 879.747C784.687 879.747 786.718 879.95 788.625 880.327V831.65H747.717V892.123C747.717 892.149 747.717 892.175 747.717 892.201C747.717 892.227 747.717 892.253 747.717 892.279V892.63H747.706C747.343 899.31 738.538 904.655 727.729 904.655C716.689 904.655 707.74 899.079 707.74 892.201C707.74 885.323 716.689 879.747 727.729 879.747C729.835 879.747 731.865 879.95 733.771 880.326V793ZM747.717 805.883H788.625V818.766H747.717V805.883Z" fill="#8DC73F"/>
<path fill-rule="evenodd" clip-rule="evenodd" d="M614.768 813H628.713V879.056L669.621 818.576V813H683.567V912.63H683.553C683.19 919.31 674.385 924.655 663.576 924.655C652.537 924.655 643.588 919.079 643.588 912.201C643.588 905.323 652.537 899.747 663.576 899.747C665.683 899.747 667.714 899.95 669.621 900.327V842.888L628.713 903.367V912.123C628.713 912.149 628.713 912.175 628.713 912.201C628.713 912.227 628.713 912.253 628.713 912.279V912.63H628.702C628.339 919.31 619.534 924.655 608.725 924.655C597.686 924.655 588.736 919.079 588.736 912.201C588.736 905.323 597.686 899.747 608.725 899.747C610.831 899.747 612.861 899.95 614.768 900.326V813Z" fill="#8DC73F"/>
<path fill-rule="evenodd" clip-rule="evenodd" d="M852.771 813H866.717V849.932H906.695V813H920.641V912.63H920.628C920.265 919.31 911.46 924.655 900.651 924.655C889.611 924.655 880.662 919.079 880.662 912.201C880.662 905.323 889.611 899.747 900.651 899.747C902.758 899.747 904.788 899.95 906.695 900.327V862.815H866.717V912.1C866.717 912.134 866.718 912.167 866.718 912.201L866.717 912.245L866.717 912.302V912.63H866.706C866.343 919.31 857.538 924.655 846.729 924.655C835.69 924.655 826.74 919.079 826.74 912.201C826.74 905.323 835.69 899.747 846.729 899.747C848.835 899.747 850.865 899.95 852.771 900.326V813Z" fill="#8DC73F"/>
<path fill-rule="evenodd" clip-rule="evenodd" d="M262.266 859.38C282.548 859.38 298.989 848.997 298.989 836.19C298.989 823.382 282.548 813 262.266 813C242.44 813 226.283 822.921 225.568 835.331H225.543V836.19V924.655H239.488V854.381C245.748 857.511 253.662 859.38 262.266 859.38Z" fill="#8DC73F"/>
<path fill-rule="evenodd" clip-rule="evenodd" d="M46.1797 824.876C41.5758 817.607 34.7369 813 27.1019 813C13.2385 813 2 828.189 2 846.926C2 865.663 13.2385 880.852 27.1019 880.852C34.7369 880.852 41.5758 876.245 46.1797 868.976V924.655H60.1252V870.76C64.6765 876.991 70.999 880.852 77.9887 880.852C91.8521 880.852 103.091 865.663 103.091 846.926C103.091 828.189 91.8521 813 77.9887 813C70.999 813 64.6765 816.861 60.1252 823.091V813H46.1797V824.876Z" fill="#8DC73F"/>
<path fill-rule="evenodd" clip-rule="evenodd" d="M322.842 627V639.883H347.016V739.514H360.961V639.883H386.991V627H322.842Z" fill="#8DC73F"/>
<path fill-rule="evenodd" clip-rule="evenodd" d="M427.897 666H413.951V666V678.883V714.097V726.981V764.772V777.655V777.655H468.804V764.772H427.897V726.981H468.804V714.097H427.897V678.883H468.804V666H427.897V666Z" fill="#8DC73F"/>
<path fill-rule="evenodd" clip-rule="evenodd" d="M143.41 627H129.465V738.655H143.41V738.655H184.316V738.655H198.262V627H184.316V627H143.41V627ZM143.41 639.883V725.771H184.316V639.883H143.41Z" fill="#8DC73F"/>
<path fill-rule="evenodd" clip-rule="evenodd" d="M957.758 627H943.812V738.655H957.758L998.664 738.655V738.655H1012.61V627H998.664V627H957.758V627ZM957.758 639.883V725.771H998.664V639.883H957.758Z" fill="#8DC73F"/>
<path fill-rule="evenodd" clip-rule="evenodd" d="M495.768 627H509.713V627H550.619V627H564.565V738.655H550.619V639.883H509.713V738.655H495.768V627Z" fill="#8DC73F"/>
<path fill-rule="evenodd" clip-rule="evenodd" d="M733.771 627H747.717V627H788.625V627H802.571V726.63H802.557C802.194 733.31 793.389 738.655 782.58 738.655C771.541 738.655 762.592 733.079 762.592 726.201C762.592 719.323 771.541 713.747 782.58 713.747C784.687 713.747 786.718 713.95 788.625 714.327V665.65H747.717V726.123C747.717 726.149 747.717 726.175 747.717 726.201C747.717 726.227 747.717 726.253 747.717 726.279V726.63H747.706C747.343 733.31 738.538 738.655 727.729 738.655C716.689 738.655 707.74 733.079 707.74 726.201C707.74 719.323 716.689 713.747 727.729 713.747C729.835 713.747 731.865 713.95 733.771 714.326V627ZM747.717 639.883H788.625V652.766H747.717V639.883Z" fill="#8DC73F"/>
<path fill-rule="evenodd" clip-rule="evenodd" d="M614.768 666H628.713V732.056L669.621 671.576V666H683.567V765.63H683.553C683.19 772.31 674.385 777.655 663.576 777.655C652.537 777.655 643.588 772.079 643.588 765.201C643.588 758.323 652.537 752.747 663.576 752.747C665.683 752.747 667.714 752.95 669.621 753.327V695.888L628.713 756.367V765.123C628.713 765.149 628.713 765.175 628.713 765.201C628.713 765.227 628.713 765.253 628.713 765.279V765.63H628.702C628.339 772.31 619.534 777.655 608.725 777.655C597.686 777.655 588.736 772.079 588.736 765.201C588.736 758.323 597.686 752.747 608.725 752.747C610.831 752.747 612.861 752.95 614.768 753.326V666Z" fill="#8DC73F"/>
<path fill-rule="evenodd" clip-rule="evenodd" d="M852.771 666H866.717V702.932H906.695V666H920.641V765.63H920.628C920.265 772.31 911.46 777.655 900.651 777.655C889.611 777.655 880.662 772.079 880.662 765.201C880.662 758.323 889.611 752.747 900.651 752.747C902.758 752.747 904.788 752.95 906.695 753.327V715.815H866.717V765.1C866.717 765.134 866.718 765.167 866.718 765.201L866.717 765.245L866.717 765.302V765.63H866.706C866.343 772.31 857.538 777.655 846.729 777.655C835.69 777.655 826.74 772.079 826.74 765.201C826.74 758.323 835.69 752.747 846.729 752.747C848.835 752.747 850.865 752.95 852.771 753.326V666Z" fill="#8DC73F"/>
<path fill-rule="evenodd" clip-rule="evenodd" d="M262.266 712.38C282.548 712.38 298.989 701.997 298.989 689.19C298.989 676.382 282.548 666 262.266 666C242.44 666 226.283 675.921 225.568 688.331H225.543V689.19V777.655H239.488V707.381C245.748 710.511 253.662 712.38 262.266 712.38Z" fill="#8DC73F"/>
<path fill-rule="evenodd" clip-rule="evenodd" d="M46.1797 677.876C41.5758 670.607 34.7369 666 27.1019 666C13.2385 666 2 681.189 2 699.926C2 718.663 13.2385 733.852 27.1019 733.852C34.7369 733.852 41.5758 729.245 46.1797 721.976V777.655H60.1252V723.76C64.6765 729.991 70.999 733.852 77.9887 733.852C91.8521 733.852 103.091 718.663 103.091 699.926C103.091 681.189 91.8521 666 77.9887 666C70.999 666 64.6765 669.861 60.1252 676.091V666H46.1797V677.876Z" fill="#8DC73F"/>
</g>
<defs>
<clipPath id="clip0_360_2">
<rect width="1012.61" height="1248" fill="white"/>
</clipPath>
</defs>
</svg>
