<svg width="1369" height="1768" viewBox="0 0 1369 1768" fill="none" xmlns="http://www.w3.org/2000/svg">
<g clip-path="url(#clip0_321_2179)">
<path fill-rule="evenodd" clip-rule="evenodd" d="M435.408 65.9648V83.3769H468.078V218.03H486.926V83.3769H522.108V65.9648H435.408Z" fill="#8DC73F"/>
<path fill-rule="evenodd" clip-rule="evenodd" d="M577.395 8.12573H558.547V8.12574H558.547V25.5378H558.547V73.1307H558.547V90.5428H558.547V141.618H558.547V159.03H632.681V141.618H577.395V90.5428H632.681V73.1307H577.395V25.5378H632.681V8.12574L577.395 8.12573Z" fill="#8DC73F"/>
<path fill-rule="evenodd" clip-rule="evenodd" d="M192.9 83.412V199.492H248.187V83.412H192.9ZM258.239 66L267.035 66V216.904L254.47 216.904L248.187 216.904H192.9L180.335 216.904L174.053 216.904V66L184.105 66H258.239Z" fill="#8DC73F"/>
<path fill-rule="evenodd" clip-rule="evenodd" d="M1294.87 85.3769V201.457H1350.15V85.3769H1294.87ZM1360.2 67.9648L1369 67.9648V218.869L1356.43 218.869L1350.15 218.869L1294.87 218.869H1282.3H1276.02V67.9648H1286.07V67.9648H1360.2Z" fill="#8DC73F"/>
<path fill-rule="evenodd" clip-rule="evenodd" d="M669.121 67.1257H687.969L753.308 67.1257L762.103 67.1257V218.03H743.255V84.5378H687.969V218.03H669.121V67.1257Z" fill="#8DC73F"/>
<path fill-rule="evenodd" clip-rule="evenodd" d="M1064.92 84.5378H1009.64V101.95H1064.92V84.5378ZM1009.64 119.362H1064.92V185.15C1062.35 184.641 1059.6 184.367 1056.76 184.367C1041.84 184.367 1029.74 191.903 1029.74 201.199C1029.74 210.494 1041.84 218.03 1056.76 218.03C1071.36 218.03 1083.26 210.806 1083.75 201.779H1083.77V201.235C1083.77 201.223 1083.77 201.211 1083.77 201.199C1083.77 201.186 1083.77 201.174 1083.77 201.162V67.1257L1071.2 67.1257H997.071L990.788 67.1257V185.15C988.211 184.641 985.467 184.367 982.62 184.367C967.7 184.367 955.605 191.903 955.605 201.199C955.605 210.494 967.7 218.03 982.62 218.03C997.229 218.03 1009.13 210.806 1009.62 201.779H1009.64V119.362Z" fill="#8DC73F"/>
<path fill-rule="evenodd" clip-rule="evenodd" d="M829.954 8.12574H848.802V97.4008L904.089 15.6632V8.12574H922.936V142.167C922.936 142.178 922.936 142.188 922.936 142.199C922.936 142.209 922.936 142.219 922.936 142.23V142.779H922.921C922.43 151.806 910.53 159.03 895.921 159.03C881.001 159.03 868.906 151.494 868.906 142.199C868.906 132.903 881.001 125.367 895.921 125.367C898.768 125.367 901.512 125.641 904.089 126.15V48.5212L848.802 130.259V142.779H848.786C848.295 151.806 836.395 159.03 821.787 159.03C806.867 159.03 794.772 151.494 794.772 142.199C794.772 132.903 806.867 125.367 821.787 125.367C824.633 125.367 827.377 125.641 829.954 126.15V8.12574Z" fill="#8DC73F"/>
<path fill-rule="evenodd" clip-rule="evenodd" d="M1151.62 8.12574H1170.47V58.0403H1224.5V8.12574H1243.35V142.167C1243.35 142.178 1243.35 142.188 1243.35 142.199C1243.35 142.209 1243.35 142.219 1243.35 142.23V142.779H1243.33C1242.84 151.806 1230.94 159.03 1216.33 159.03C1201.41 159.03 1189.32 151.494 1189.32 142.199C1189.32 132.903 1201.41 125.367 1216.33 125.367C1219.18 125.367 1221.93 125.641 1224.5 126.15V75.4523H1170.47V142.167L1170.47 142.199L1170.47 142.23V142.779H1170.46C1169.96 151.806 1158.06 159.03 1143.46 159.03C1128.54 159.03 1116.44 151.494 1116.44 142.199C1116.44 132.903 1128.54 125.367 1143.46 125.367C1146.3 125.367 1149.05 125.641 1151.62 126.15V8.12574Z" fill="#8DC73F"/>
<path fill-rule="evenodd" clip-rule="evenodd" d="M353.107 70.6834C380.518 70.6834 402.739 56.6512 402.739 39.3417C402.739 22.0321 380.518 8 353.107 8C326.311 8 304.475 21.4091 303.508 38.1809H303.475V158.904H322.322V63.9277C330.783 68.1577 341.478 70.6834 353.107 70.6834Z" fill="#8DC73F"/>
<path fill-rule="evenodd" clip-rule="evenodd" d="M59.7104 24.0515C53.4881 14.2266 44.245 7.99995 33.9259 7.99995C15.1892 7.99995 0 28.5285 0 53.8517C0 79.1749 15.1892 99.7034 33.9259 99.7034C44.245 99.7034 53.4881 93.4768 59.7104 83.6518V158.904H78.5582V86.0645C84.7093 94.4849 93.2543 99.7034 102.701 99.7034C121.438 99.7034 136.627 79.1749 136.627 53.8517C136.627 28.5285 121.438 7.99995 102.701 7.99995C93.2543 7.99995 84.7093 13.2184 78.5582 21.6388V8.00006H59.7104V24.0515Z" fill="#8DC73F"/>
<path fill-rule="evenodd" clip-rule="evenodd" d="M435.408 273.965V291.377H468.078V426.03H486.926V291.377H522.108V273.965H435.408Z" fill="#8DC73F"/>
<path fill-rule="evenodd" clip-rule="evenodd" d="M577.395 236.126H558.547V236.126H558.547V253.538H558.547V301.131H558.547V318.543H558.547V369.618H558.547V387.03H632.681V369.618H577.395V318.543H632.681V301.131H577.395V253.538H632.681V236.126L577.395 236.126Z" fill="#8DC73F"/>
<path fill-rule="evenodd" clip-rule="evenodd" d="M192.9 291.412V407.492H248.187V291.412H192.9ZM258.239 274L267.035 274V424.904L254.47 424.904L248.187 424.904H192.9L180.335 424.904L174.053 424.904V274L184.105 274H258.239Z" fill="#8DC73F"/>
<path fill-rule="evenodd" clip-rule="evenodd" d="M1294.87 293.377V409.457H1350.15V293.377H1294.87ZM1360.2 275.965L1369 275.965V426.869L1356.43 426.869L1350.15 426.869L1294.87 426.869H1282.3H1276.02V275.965H1286.07V275.965H1360.2Z" fill="#8DC73F"/>
<path fill-rule="evenodd" clip-rule="evenodd" d="M669.121 275.126H687.969L753.308 275.126L762.103 275.126V426.03H743.255V292.538H687.969V426.03H669.121V275.126Z" fill="#8DC73F"/>
<path fill-rule="evenodd" clip-rule="evenodd" d="M1064.92 292.538H1009.64V309.95H1064.92V292.538ZM1009.64 327.362H1064.92V393.15C1062.35 392.641 1059.6 392.367 1056.76 392.367C1041.84 392.367 1029.74 399.903 1029.74 409.199C1029.74 418.494 1041.84 426.03 1056.76 426.03C1071.36 426.03 1083.26 418.806 1083.75 409.779H1083.77V409.235C1083.77 409.223 1083.77 409.211 1083.77 409.199C1083.77 409.186 1083.77 409.174 1083.77 409.162V275.126L1071.2 275.126H997.071L990.788 275.126V393.15C988.211 392.641 985.467 392.367 982.62 392.367C967.7 392.367 955.605 399.903 955.605 409.199C955.605 418.494 967.7 426.03 982.62 426.03C997.229 426.03 1009.13 418.806 1009.62 409.779H1009.64V327.362Z" fill="#8DC73F"/>
<path fill-rule="evenodd" clip-rule="evenodd" d="M829.954 236.126H848.802V325.401L904.089 243.663V236.126H922.936V370.167C922.936 370.178 922.936 370.188 922.936 370.199C922.936 370.209 922.936 370.219 922.936 370.23V370.779H922.921C922.43 379.806 910.53 387.03 895.921 387.03C881.001 387.03 868.906 379.494 868.906 370.199C868.906 360.903 881.001 353.367 895.921 353.367C898.768 353.367 901.512 353.641 904.089 354.15V276.521L848.802 358.259V370.779H848.786C848.295 379.806 836.395 387.03 821.787 387.03C806.867 387.03 794.772 379.494 794.772 370.199C794.772 360.903 806.867 353.367 821.787 353.367C824.633 353.367 827.377 353.641 829.954 354.15V236.126Z" fill="#8DC73F"/>
<path fill-rule="evenodd" clip-rule="evenodd" d="M1151.62 236.126H1170.47V286.04H1224.5V236.126H1243.35V370.167C1243.35 370.178 1243.35 370.188 1243.35 370.199C1243.35 370.209 1243.35 370.219 1243.35 370.23V370.779H1243.33C1242.84 379.806 1230.94 387.03 1216.33 387.03C1201.41 387.03 1189.32 379.494 1189.32 370.199C1189.32 360.903 1201.41 353.367 1216.33 353.367C1219.18 353.367 1221.93 353.641 1224.5 354.15V303.452H1170.47V370.167L1170.47 370.199L1170.47 370.23V370.779H1170.46C1169.96 379.806 1158.06 387.03 1143.46 387.03C1128.54 387.03 1116.44 379.494 1116.44 370.199C1116.44 360.903 1128.54 353.367 1143.46 353.367C1146.3 353.367 1149.05 353.641 1151.62 354.15V236.126Z" fill="#8DC73F"/>
<path fill-rule="evenodd" clip-rule="evenodd" d="M353.107 298.683C380.518 298.683 402.739 284.651 402.739 267.342C402.739 250.032 380.518 236 353.107 236C326.311 236 304.475 249.409 303.508 266.181H303.475V386.904H322.322V291.928C330.783 296.158 341.478 298.683 353.107 298.683Z" fill="#8DC73F"/>
<path fill-rule="evenodd" clip-rule="evenodd" d="M59.7104 252.052C53.4881 242.227 44.245 236 33.9259 236C15.1892 236 0 256.528 0 281.852C0 307.175 15.1892 327.703 33.9259 327.703C44.245 327.703 53.4881 321.477 59.7104 311.652V386.904H78.5582V314.065C84.7093 322.485 93.2543 327.703 102.701 327.703C121.438 327.703 136.627 307.175 136.627 281.852C136.627 256.528 121.438 236 102.701 236C93.2543 236 84.7093 241.218 78.5582 249.639V236H59.7104V252.052Z" fill="#8DC73F"/>
<path fill-rule="evenodd" clip-rule="evenodd" d="M435.408 1589.96V1607.38H468.078V1742.03H486.926V1607.38H522.108V1589.96H435.408Z" fill="#8DC73F"/>
<path fill-rule="evenodd" clip-rule="evenodd" d="M577.395 1571.13H558.547V1571.13H558.547V1588.54H558.547V1636.13H558.547V1653.54H558.547V1704.62H558.547V1722.03H632.681V1704.62H577.395V1653.54H632.681V1636.13H577.395V1588.54H632.681V1571.13L577.395 1571.13Z" fill="#8DC73F"/>
<path fill-rule="evenodd" clip-rule="evenodd" d="M192.9 1607.41V1723.49H248.187V1607.41H192.9ZM258.239 1590L267.035 1590V1740.9L254.47 1740.9L248.187 1740.9H192.9L180.335 1740.9L174.053 1740.9V1590L184.105 1590H258.239Z" fill="#8DC73F"/>
<path fill-rule="evenodd" clip-rule="evenodd" d="M1294.87 1609.38V1725.46H1350.15V1609.38H1294.87ZM1360.2 1591.96L1369 1591.96V1742.87L1356.43 1742.87L1350.15 1742.87L1294.87 1742.87H1282.3H1276.02V1591.96H1286.07V1591.96H1360.2Z" fill="#8DC73F"/>
<path fill-rule="evenodd" clip-rule="evenodd" d="M669.121 1591.13H687.969L753.308 1591.13L762.103 1591.13V1742.03H743.255V1608.54H687.969V1742.03H669.121V1591.13Z" fill="#8DC73F"/>
<path fill-rule="evenodd" clip-rule="evenodd" d="M1064.92 1608.54H1009.64V1625.95H1064.92V1608.54ZM1009.64 1643.36H1064.92V1709.15C1062.35 1708.64 1059.6 1708.37 1056.76 1708.37C1041.84 1708.37 1029.74 1715.9 1029.74 1725.2C1029.74 1734.49 1041.84 1742.03 1056.76 1742.03C1071.36 1742.03 1083.26 1734.81 1083.75 1725.78H1083.77V1725.23C1083.77 1725.22 1083.77 1725.21 1083.77 1725.2C1083.77 1725.19 1083.77 1725.17 1083.77 1725.16V1591.13L1071.2 1591.13H997.071L990.788 1591.13V1709.15C988.211 1708.64 985.467 1708.37 982.62 1708.37C967.7 1708.37 955.605 1715.9 955.605 1725.2C955.605 1734.49 967.7 1742.03 982.62 1742.03C997.229 1742.03 1009.13 1734.81 1009.62 1725.78H1009.64V1643.36Z" fill="#8DC73F"/>
<path fill-rule="evenodd" clip-rule="evenodd" d="M829.954 1571.13H848.802V1660.4L904.089 1578.66V1571.13H922.936V1705.17C922.936 1705.18 922.936 1705.19 922.936 1705.2C922.936 1705.21 922.936 1705.22 922.936 1705.23V1705.78H922.921C922.43 1714.81 910.53 1722.03 895.921 1722.03C881.001 1722.03 868.906 1714.49 868.906 1705.2C868.906 1695.9 881.001 1688.37 895.921 1688.37C898.768 1688.37 901.512 1688.64 904.089 1689.15V1611.52L848.802 1693.26V1705.78H848.786C848.295 1714.81 836.395 1722.03 821.787 1722.03C806.867 1722.03 794.772 1714.49 794.772 1705.2C794.772 1695.9 806.867 1688.37 821.787 1688.37C824.633 1688.37 827.377 1688.64 829.954 1689.15V1571.13Z" fill="#8DC73F"/>
<path fill-rule="evenodd" clip-rule="evenodd" d="M1151.62 1571.13H1170.47V1621.04H1224.5V1571.13H1243.35V1705.17C1243.35 1705.18 1243.35 1705.19 1243.35 1705.2C1243.35 1705.21 1243.35 1705.22 1243.35 1705.23V1705.78H1243.33C1242.84 1714.81 1230.94 1722.03 1216.33 1722.03C1201.41 1722.03 1189.32 1714.49 1189.32 1705.2C1189.32 1695.9 1201.41 1688.37 1216.33 1688.37C1219.18 1688.37 1221.93 1688.64 1224.5 1689.15V1638.45H1170.47V1705.17L1170.47 1705.2L1170.47 1705.23V1705.78H1170.46C1169.96 1714.81 1158.06 1722.03 1143.46 1722.03C1128.54 1722.03 1116.44 1714.49 1116.44 1705.2C1116.44 1695.9 1128.54 1688.37 1143.46 1688.37C1146.3 1688.37 1149.05 1688.64 1151.62 1689.15V1571.13Z" fill="#8DC73F"/>
<path fill-rule="evenodd" clip-rule="evenodd" d="M353.107 1633.68C380.518 1633.68 402.739 1619.65 402.739 1602.34C402.739 1585.03 380.518 1571 353.107 1571C326.311 1571 304.475 1584.41 303.508 1601.18H303.475V1721.9H322.322V1626.93C330.783 1631.16 341.478 1633.68 353.107 1633.68Z" fill="#8DC73F"/>
<path fill-rule="evenodd" clip-rule="evenodd" d="M59.7104 1587.05C53.4881 1577.23 44.245 1571 33.9259 1571C15.1892 1571 0 1591.53 0 1616.85C0 1642.17 15.1892 1662.7 33.9259 1662.7C44.245 1662.7 53.4881 1656.48 59.7104 1646.65V1721.9H78.5582V1649.06C84.7093 1657.48 93.2543 1662.7 102.701 1662.7C121.438 1662.7 136.627 1642.17 136.627 1616.85C136.627 1591.53 121.438 1571 102.701 1571C93.2543 1571 84.7093 1576.22 78.5582 1584.64V1571H59.7104V1587.05Z" fill="#8DC73F"/>
<path fill-rule="evenodd" clip-rule="evenodd" d="M435.408 478V495.412H468.078V630.065H486.926V495.412H522.108V478H435.408Z" fill="#8DC73F"/>
<path fill-rule="evenodd" clip-rule="evenodd" d="M577.395 479H558.547V479H558.547V496.412H558.547V544.005H558.547V561.417H558.547V612.492H558.547V629.904H632.681V612.492H577.395V561.417H632.681V544.005H577.395V496.412H632.681V479L577.395 479Z" fill="#8DC73F"/>
<path fill-rule="evenodd" clip-rule="evenodd" d="M192.9 496.412V612.492H248.187V496.412H192.9ZM258.239 479L267.035 479V629.904L254.47 629.904L248.187 629.904H192.9L180.335 629.904L174.053 629.904V479L184.105 479H258.239Z" fill="#8DC73F"/>
<path fill-rule="evenodd" clip-rule="evenodd" d="M1294.87 496.412V612.492H1350.15V496.412H1294.87ZM1360.2 479L1369 479V629.904L1356.43 629.904L1350.15 629.904L1294.87 629.904H1282.3H1276.02V479H1286.07V479H1360.2Z" fill="#8DC73F"/>
<path fill-rule="evenodd" clip-rule="evenodd" d="M669.121 479H687.969L753.308 479L762.103 479V629.904H743.255V496.412H687.969V629.904H669.121V479Z" fill="#8DC73F"/>
<path fill-rule="evenodd" clip-rule="evenodd" d="M1064.92 496.412H1009.64V513.824H1064.92V496.412ZM1009.64 531.236H1064.92V597.024C1062.35 596.515 1059.6 596.241 1056.76 596.241C1041.84 596.241 1029.74 603.777 1029.74 613.073C1029.74 622.369 1041.84 629.904 1056.76 629.904C1071.36 629.904 1083.26 622.68 1083.75 613.653H1083.77V613.109C1083.77 613.097 1083.77 613.085 1083.77 613.073C1083.77 613.061 1083.77 613.049 1083.77 613.037V479L1071.2 479H997.071L990.788 479V597.024C988.211 596.515 985.467 596.241 982.62 596.241C967.7 596.241 955.605 603.777 955.605 613.073C955.605 622.369 967.7 629.904 982.62 629.904C997.229 629.904 1009.13 622.68 1009.62 613.653H1009.64V531.236Z" fill="#8DC73F"/>
<path fill-rule="evenodd" clip-rule="evenodd" d="M829.954 479H848.802V568.275L904.089 486.538V479H922.936V613.041C922.936 613.052 922.936 613.062 922.936 613.073C922.936 613.083 922.936 613.094 922.936 613.104V613.653H922.921C922.43 622.68 910.53 629.904 895.921 629.904C881.001 629.904 868.906 622.369 868.906 613.073C868.906 603.777 881.001 596.241 895.921 596.241C898.768 596.241 901.512 596.515 904.089 597.024V519.395L848.802 601.133V613.653H848.786C848.295 622.68 836.395 629.904 821.787 629.904C806.867 629.904 794.772 622.369 794.772 613.073C794.772 603.777 806.867 596.241 821.787 596.241C824.633 596.241 827.377 596.515 829.954 597.024V479Z" fill="#8DC73F"/>
<path fill-rule="evenodd" clip-rule="evenodd" d="M1151.62 479H1170.47V528.915H1224.5V479H1243.35V613.041C1243.35 613.052 1243.35 613.062 1243.35 613.073C1243.35 613.083 1243.35 613.094 1243.35 613.104V613.653H1243.33C1242.84 622.68 1230.94 629.904 1216.33 629.904C1201.41 629.904 1189.32 622.369 1189.32 613.073C1189.32 603.777 1201.41 596.241 1216.33 596.241C1219.18 596.241 1221.93 596.515 1224.5 597.024V546.327H1170.47V613.041L1170.47 613.073L1170.47 613.104V613.653H1170.46C1169.96 622.68 1158.06 629.904 1143.46 629.904C1128.54 629.904 1116.44 622.369 1116.44 613.073C1116.44 603.777 1128.54 596.241 1143.46 596.241C1146.3 596.241 1149.05 596.515 1151.62 597.024V479Z" fill="#8DC73F"/>
<path fill-rule="evenodd" clip-rule="evenodd" d="M353.107 541.683C380.518 541.683 402.739 527.651 402.739 510.342C402.739 493.032 380.518 479 353.107 479C326.311 479 304.475 492.409 303.508 509.181H303.475V629.904H322.322V534.928C330.783 539.158 341.478 541.683 353.107 541.683Z" fill="#8DC73F"/>
<path fill-rule="evenodd" clip-rule="evenodd" d="M59.7104 495.052C53.4881 485.227 44.245 479 33.9259 479C15.1892 479 0 499.528 0 524.852C0 550.175 15.1892 570.703 33.9259 570.703C44.245 570.703 53.4881 564.477 59.7104 554.652V629.904H78.5582V557.065C84.7093 565.485 93.2543 570.703 102.701 570.703C121.438 570.703 136.627 550.175 136.627 524.852C136.627 499.528 121.438 479 102.701 479C93.2543 479 84.7093 484.218 78.5582 492.639V479H59.7104V495.052Z" fill="#8DC73F"/>
<path fill-rule="evenodd" clip-rule="evenodd" d="M436.408 1359V1376.41H469.078V1511.07H487.926V1376.41H523.108V1359H436.408Z" fill="#8DC73F"/>
<path fill-rule="evenodd" clip-rule="evenodd" d="M578.395 1360H559.547V1360H559.547V1377.41H559.547V1425H559.547V1442.42H559.547V1493.49H559.547V1510.9H633.681V1493.49H578.395V1442.42H633.681V1425H578.395V1377.41H633.681V1360L578.395 1360Z" fill="#8DC73F"/>
<path fill-rule="evenodd" clip-rule="evenodd" d="M193.9 1377.41V1493.49H249.187V1377.41H193.9ZM259.239 1360L268.035 1360V1510.9L255.47 1510.9L249.187 1510.9H193.9L181.335 1510.9L175.053 1510.9V1360L185.105 1360H259.239Z" fill="#8DC73F"/>
<path fill-rule="evenodd" clip-rule="evenodd" d="M1295.87 1377.41V1493.49H1351.15V1377.41H1295.87ZM1361.2 1360L1370 1360V1510.9L1357.43 1510.9L1351.15 1510.9L1295.87 1510.9H1283.3H1277.02V1360H1287.07V1360H1361.2Z" fill="#8DC73F"/>
<path fill-rule="evenodd" clip-rule="evenodd" d="M670.121 1360H688.969L754.308 1360L763.103 1360V1510.9H744.255V1377.41H688.969V1510.9H670.121V1360Z" fill="#8DC73F"/>
<path fill-rule="evenodd" clip-rule="evenodd" d="M1065.92 1377.41H1010.64V1394.82H1065.92V1377.41ZM1010.64 1412.24H1065.92V1478.02C1063.35 1477.52 1060.6 1477.24 1057.76 1477.24C1042.84 1477.24 1030.74 1484.78 1030.74 1494.07C1030.74 1503.37 1042.84 1510.9 1057.76 1510.9C1072.36 1510.9 1084.26 1503.68 1084.75 1494.65H1084.77V1494.11C1084.77 1494.1 1084.77 1494.08 1084.77 1494.07C1084.77 1494.06 1084.77 1494.05 1084.77 1494.04V1360L1072.2 1360H998.071L991.788 1360V1478.02C989.211 1477.52 986.467 1477.24 983.62 1477.24C968.7 1477.24 956.605 1484.78 956.605 1494.07C956.605 1503.37 968.7 1510.9 983.62 1510.9C998.229 1510.9 1010.13 1503.68 1010.62 1494.65H1010.64V1412.24Z" fill="#8DC73F"/>
<path fill-rule="evenodd" clip-rule="evenodd" d="M830.954 1360H849.802V1449.28L905.089 1367.54V1360H923.936V1494.04C923.936 1494.05 923.936 1494.06 923.936 1494.07C923.936 1494.08 923.936 1494.09 923.936 1494.1V1494.65H923.921C923.43 1503.68 911.53 1510.9 896.921 1510.9C882.001 1510.9 869.906 1503.37 869.906 1494.07C869.906 1484.78 882.001 1477.24 896.921 1477.24C899.768 1477.24 902.512 1477.52 905.089 1478.02V1400.4L849.802 1482.13V1494.65H849.786C849.295 1503.68 837.395 1510.9 822.787 1510.9C807.867 1510.9 795.772 1503.37 795.772 1494.07C795.772 1484.78 807.867 1477.24 822.787 1477.24C825.633 1477.24 828.377 1477.52 830.954 1478.02V1360Z" fill="#8DC73F"/>
<path fill-rule="evenodd" clip-rule="evenodd" d="M1152.62 1360H1171.47V1409.91H1225.5V1360H1244.35V1494.04C1244.35 1494.05 1244.35 1494.06 1244.35 1494.07C1244.35 1494.08 1244.35 1494.09 1244.35 1494.1V1494.65H1244.33C1243.84 1503.68 1231.94 1510.9 1217.33 1510.9C1202.41 1510.9 1190.32 1503.37 1190.32 1494.07C1190.32 1484.78 1202.41 1477.24 1217.33 1477.24C1220.18 1477.24 1222.93 1477.52 1225.5 1478.02V1427.33H1171.47V1494.04L1171.47 1494.07L1171.47 1494.1V1494.65H1171.46C1170.96 1503.68 1159.06 1510.9 1144.46 1510.9C1129.54 1510.9 1117.44 1503.37 1117.44 1494.07C1117.44 1484.78 1129.54 1477.24 1144.46 1477.24C1147.3 1477.24 1150.05 1477.52 1152.62 1478.02V1360Z" fill="#8DC73F"/>
<path fill-rule="evenodd" clip-rule="evenodd" d="M354.107 1422.68C381.518 1422.68 403.739 1408.65 403.739 1391.34C403.739 1374.03 381.518 1360 354.107 1360C327.311 1360 305.475 1373.41 304.508 1390.18H304.475V1510.9H323.322V1415.93C331.783 1420.16 342.478 1422.68 354.107 1422.68Z" fill="#8DC73F"/>
<path fill-rule="evenodd" clip-rule="evenodd" d="M60.7104 1376.05C54.4881 1366.23 45.245 1360 34.9259 1360C16.1892 1360 1 1380.53 1 1405.85C1 1431.17 16.1892 1451.7 34.9259 1451.7C45.245 1451.7 54.4881 1445.48 60.7104 1435.65V1510.9H79.5582V1438.06C85.7093 1446.48 94.2543 1451.7 103.701 1451.7C122.438 1451.7 137.627 1431.17 137.627 1405.85C137.627 1380.53 122.438 1360 103.701 1360C94.2543 1360 85.7093 1365.22 79.5582 1373.64V1360H60.7104V1376.05Z" fill="#8DC73F"/>
<path fill-rule="evenodd" clip-rule="evenodd" d="M435.408 683V700.412H468.078V835.065H486.926V700.412H522.108V683H435.408Z" fill="#8DC73F"/>
<path fill-rule="evenodd" clip-rule="evenodd" d="M577.395 717H558.547V717H558.547V734.412H558.547V782.005H558.547V799.417H558.547V850.492H558.547V867.904H632.681V850.492H577.395V799.417H632.681V782.005H577.395V734.412H632.681V717L577.395 717Z" fill="#8DC73F"/>
<path fill-rule="evenodd" clip-rule="evenodd" d="M192.9 701.412V817.492H248.187V701.412H192.9ZM258.239 684L267.035 684V834.904L254.47 834.904L248.187 834.904H192.9L180.335 834.904L174.053 834.904V684L184.105 684H258.239Z" fill="#8DC73F"/>
<path fill-rule="evenodd" clip-rule="evenodd" d="M1294.87 701.412V817.492H1350.15V701.412H1294.87ZM1360.2 684L1369 684V834.904L1356.43 834.904L1350.15 834.904L1294.87 834.904H1282.3H1276.02V684H1286.07V684H1360.2Z" fill="#8DC73F"/>
<path fill-rule="evenodd" clip-rule="evenodd" d="M669.121 684H687.969L753.308 684L762.103 684V834.904H743.255V701.412H687.969V834.904H669.121V684Z" fill="#8DC73F"/>
<path fill-rule="evenodd" clip-rule="evenodd" d="M1064.92 701.412H1009.64V718.824H1064.92V701.412ZM1009.64 736.236H1064.92V802.024C1062.35 801.515 1059.6 801.241 1056.76 801.241C1041.84 801.241 1029.74 808.777 1029.74 818.073C1029.74 827.369 1041.84 834.904 1056.76 834.904C1071.36 834.904 1083.26 827.68 1083.75 818.653H1083.77V818.109C1083.77 818.097 1083.77 818.085 1083.77 818.073C1083.77 818.061 1083.77 818.049 1083.77 818.037V684L1071.2 684H997.071L990.788 684V802.024C988.211 801.515 985.467 801.241 982.62 801.241C967.7 801.241 955.605 808.777 955.605 818.073C955.605 827.369 967.7 834.904 982.62 834.904C997.229 834.904 1009.13 827.68 1009.62 818.653H1009.64V736.236Z" fill="#8DC73F"/>
<path fill-rule="evenodd" clip-rule="evenodd" d="M829.954 717H848.802V806.275L904.089 724.538V717H922.936V851.041C922.936 851.052 922.936 851.062 922.936 851.073C922.936 851.083 922.936 851.094 922.936 851.104V851.653H922.921C922.43 860.68 910.53 867.904 895.921 867.904C881.001 867.904 868.906 860.369 868.906 851.073C868.906 841.777 881.001 834.241 895.921 834.241C898.768 834.241 901.512 834.515 904.089 835.024V757.395L848.802 839.133V851.653H848.786C848.295 860.68 836.395 867.904 821.787 867.904C806.867 867.904 794.772 860.369 794.772 851.073C794.772 841.777 806.867 834.241 821.787 834.241C824.633 834.241 827.377 834.515 829.954 835.024V717Z" fill="#8DC73F"/>
<path fill-rule="evenodd" clip-rule="evenodd" d="M1151.62 717H1170.47V766.915H1224.5V717H1243.35V851.041C1243.35 851.052 1243.35 851.062 1243.35 851.073C1243.35 851.083 1243.35 851.094 1243.35 851.104V851.653H1243.33C1242.84 860.68 1230.94 867.904 1216.33 867.904C1201.41 867.904 1189.32 860.369 1189.32 851.073C1189.32 841.777 1201.41 834.241 1216.33 834.241C1219.18 834.241 1221.93 834.515 1224.5 835.024V784.327H1170.47V851.041L1170.47 851.073L1170.47 851.104V851.653H1170.46C1169.96 860.68 1158.06 867.904 1143.46 867.904C1128.54 867.904 1116.44 860.369 1116.44 851.073C1116.44 841.777 1128.54 834.241 1143.46 834.241C1146.3 834.241 1149.05 834.515 1151.62 835.024V717Z" fill="#8DC73F"/>
<path fill-rule="evenodd" clip-rule="evenodd" d="M353.107 779.683C380.518 779.683 402.739 765.651 402.739 748.342C402.739 731.032 380.518 717 353.107 717C326.311 717 304.475 730.409 303.508 747.181H303.475V867.904H322.322V772.928C330.783 777.158 341.478 779.683 353.107 779.683Z" fill="#8DC73F"/>
<path fill-rule="evenodd" clip-rule="evenodd" d="M59.7104 733.052C53.4881 723.227 44.245 717 33.9259 717C15.1892 717 0 737.528 0 762.852C0 788.175 15.1892 808.703 33.9259 808.703C44.245 808.703 53.4881 802.477 59.7104 792.652V867.904H78.5582V795.065C84.7093 803.485 93.2543 808.703 102.701 808.703C121.438 808.703 136.627 788.175 136.627 762.852C136.627 737.528 121.438 717 102.701 717C93.2543 717 84.7093 722.218 78.5582 730.639V717H59.7104V733.052Z" fill="#8DC73F"/>
<path fill-rule="evenodd" clip-rule="evenodd" d="M435.408 1123V1140.41H468.078V1275.07H486.926V1140.41H522.108V1123H435.408Z" fill="#8DC73F"/>
<path fill-rule="evenodd" clip-rule="evenodd" d="M577.395 1157H558.547V1157H558.547V1174.41H558.547V1222H558.547V1239.42H558.547V1290.49H558.547V1307.9H632.681V1290.49H577.395V1239.42H632.681V1222H577.395V1174.41H632.681V1157L577.395 1157Z" fill="#8DC73F"/>
<path fill-rule="evenodd" clip-rule="evenodd" d="M192.9 1141.41V1257.49H248.187V1141.41H192.9ZM258.239 1124L267.035 1124V1274.9L254.47 1274.9L248.187 1274.9H192.9L180.335 1274.9L174.053 1274.9V1124L184.105 1124H258.239Z" fill="#8DC73F"/>
<path fill-rule="evenodd" clip-rule="evenodd" d="M1294.87 1141.41V1257.49H1350.15V1141.41H1294.87ZM1360.2 1124L1369 1124V1274.9L1356.43 1274.9L1350.15 1274.9L1294.87 1274.9H1282.3H1276.02V1124H1286.07V1124H1360.2Z" fill="#8DC73F"/>
<path fill-rule="evenodd" clip-rule="evenodd" d="M669.121 1124H687.969L753.308 1124L762.103 1124V1274.9H743.255V1141.41H687.969V1274.9H669.121V1124Z" fill="#8DC73F"/>
<path fill-rule="evenodd" clip-rule="evenodd" d="M1064.92 1141.41H1009.64V1158.82H1064.92V1141.41ZM1009.64 1176.24H1064.92V1242.02C1062.35 1241.52 1059.6 1241.24 1056.76 1241.24C1041.84 1241.24 1029.74 1248.78 1029.74 1258.07C1029.74 1267.37 1041.84 1274.9 1056.76 1274.9C1071.36 1274.9 1083.26 1267.68 1083.75 1258.65H1083.77V1258.11C1083.77 1258.1 1083.77 1258.08 1083.77 1258.07C1083.77 1258.06 1083.77 1258.05 1083.77 1258.04V1124L1071.2 1124H997.071L990.788 1124V1242.02C988.211 1241.52 985.467 1241.24 982.62 1241.24C967.7 1241.24 955.605 1248.78 955.605 1258.07C955.605 1267.37 967.7 1274.9 982.62 1274.9C997.229 1274.9 1009.13 1267.68 1009.62 1258.65H1009.64V1176.24Z" fill="#8DC73F"/>
<path fill-rule="evenodd" clip-rule="evenodd" d="M829.954 1157H848.802V1246.28L904.089 1164.54V1157H922.936V1291.04C922.936 1291.05 922.936 1291.06 922.936 1291.07C922.936 1291.08 922.936 1291.09 922.936 1291.1V1291.65H922.921C922.43 1300.68 910.53 1307.9 895.921 1307.9C881.001 1307.9 868.906 1300.37 868.906 1291.07C868.906 1281.78 881.001 1274.24 895.921 1274.24C898.768 1274.24 901.512 1274.52 904.089 1275.02V1197.4L848.802 1279.13V1291.65H848.786C848.295 1300.68 836.395 1307.9 821.787 1307.9C806.867 1307.9 794.772 1300.37 794.772 1291.07C794.772 1281.78 806.867 1274.24 821.787 1274.24C824.633 1274.24 827.377 1274.52 829.954 1275.02V1157Z" fill="#8DC73F"/>
<path fill-rule="evenodd" clip-rule="evenodd" d="M1151.62 1157H1170.47V1206.91H1224.5V1157H1243.35V1291.04C1243.35 1291.05 1243.35 1291.06 1243.35 1291.07C1243.35 1291.08 1243.35 1291.09 1243.35 1291.1V1291.65H1243.33C1242.84 1300.68 1230.94 1307.9 1216.33 1307.9C1201.41 1307.9 1189.32 1300.37 1189.32 1291.07C1189.32 1281.78 1201.41 1274.24 1216.33 1274.24C1219.18 1274.24 1221.93 1274.52 1224.5 1275.02V1224.33H1170.47V1291.04L1170.47 1291.07L1170.47 1291.1V1291.65H1170.46C1169.96 1300.68 1158.06 1307.9 1143.46 1307.9C1128.54 1307.9 1116.44 1300.37 1116.44 1291.07C1116.44 1281.78 1128.54 1274.24 1143.46 1274.24C1146.3 1274.24 1149.05 1274.52 1151.62 1275.02V1157Z" fill="#8DC73F"/>
<path fill-rule="evenodd" clip-rule="evenodd" d="M353.107 1219.68C380.518 1219.68 402.739 1205.65 402.739 1188.34C402.739 1171.03 380.518 1157 353.107 1157C326.311 1157 304.475 1170.41 303.508 1187.18H303.475V1307.9H322.322V1212.93C330.783 1217.16 341.478 1219.68 353.107 1219.68Z" fill="#8DC73F"/>
<path fill-rule="evenodd" clip-rule="evenodd" d="M59.7104 1173.05C53.4881 1163.23 44.245 1157 33.9259 1157C15.1892 1157 0 1177.53 0 1202.85C0 1228.17 15.1892 1248.7 33.9259 1248.7C44.245 1248.7 53.4881 1242.48 59.7104 1232.65V1307.9H78.5582V1235.06C84.7093 1243.48 93.2543 1248.7 102.701 1248.7C121.438 1248.7 136.627 1228.17 136.627 1202.85C136.627 1177.53 121.438 1157 102.701 1157C93.2543 1157 84.7093 1162.22 78.5582 1170.64V1157H59.7104V1173.05Z" fill="#8DC73F"/>
<path fill-rule="evenodd" clip-rule="evenodd" d="M435.408 885V902.412H468.078V1037.07H486.926V902.412H522.108V885H435.408Z" fill="#8DC73F"/>
<path fill-rule="evenodd" clip-rule="evenodd" d="M577.395 952H558.547V952H558.547V969.412H558.547V1017H558.547V1034.42H558.547V1085.49H558.547V1102.9H632.681V1085.49H577.395V1034.42H632.681V1017H577.395V969.412H632.681V952L577.395 952Z" fill="#8DC73F"/>
<path fill-rule="evenodd" clip-rule="evenodd" d="M192.9 903.412V1019.49H248.187V903.412H192.9ZM258.239 886L267.035 886V1036.9L254.47 1036.9L248.187 1036.9H192.9L180.335 1036.9L174.053 1036.9V886L184.105 886H258.239Z" fill="#8DC73F"/>
<path fill-rule="evenodd" clip-rule="evenodd" d="M1294.87 903.412V1019.49H1350.15V903.412H1294.87ZM1360.2 886L1369 886V1036.9L1356.43 1036.9L1350.15 1036.9L1294.87 1036.9H1282.3H1276.02V886H1286.07V886H1360.2Z" fill="#8DC73F"/>
<path fill-rule="evenodd" clip-rule="evenodd" d="M669.121 886H687.969L753.308 886L762.103 886V1036.9H743.255V903.412H687.969V1036.9H669.121V886Z" fill="#8DC73F"/>
<path fill-rule="evenodd" clip-rule="evenodd" d="M1064.92 903.412H1009.64V920.824H1064.92V903.412ZM1009.64 938.236H1064.92V1004.02C1062.35 1003.52 1059.6 1003.24 1056.76 1003.24C1041.84 1003.24 1029.74 1010.78 1029.74 1020.07C1029.74 1029.37 1041.84 1036.9 1056.76 1036.9C1071.36 1036.9 1083.26 1029.68 1083.75 1020.65H1083.77V1020.11C1083.77 1020.1 1083.77 1020.08 1083.77 1020.07C1083.77 1020.06 1083.77 1020.05 1083.77 1020.04V886L1071.2 886H997.071L990.788 886V1004.02C988.211 1003.52 985.467 1003.24 982.62 1003.24C967.7 1003.24 955.605 1010.78 955.605 1020.07C955.605 1029.37 967.7 1036.9 982.62 1036.9C997.229 1036.9 1009.13 1029.68 1009.62 1020.65H1009.64V938.236Z" fill="#8DC73F"/>
<path fill-rule="evenodd" clip-rule="evenodd" d="M829.954 952H848.802V1041.28L904.089 959.538V952H922.936V1086.04C922.936 1086.05 922.936 1086.06 922.936 1086.07C922.936 1086.08 922.936 1086.09 922.936 1086.1V1086.65H922.921C922.43 1095.68 910.53 1102.9 895.921 1102.9C881.001 1102.9 868.906 1095.37 868.906 1086.07C868.906 1076.78 881.001 1069.24 895.921 1069.24C898.768 1069.24 901.512 1069.52 904.089 1070.02V992.395L848.802 1074.13V1086.65H848.786C848.295 1095.68 836.395 1102.9 821.787 1102.9C806.867 1102.9 794.772 1095.37 794.772 1086.07C794.772 1076.78 806.867 1069.24 821.787 1069.24C824.633 1069.24 827.377 1069.52 829.954 1070.02V952Z" fill="#8DC73F"/>
<path fill-rule="evenodd" clip-rule="evenodd" d="M1151.62 952H1170.47V1001.91H1224.5V952H1243.35V1086.04C1243.35 1086.05 1243.35 1086.06 1243.35 1086.07C1243.35 1086.08 1243.35 1086.09 1243.35 1086.1V1086.65H1243.33C1242.84 1095.68 1230.94 1102.9 1216.33 1102.9C1201.41 1102.9 1189.32 1095.37 1189.32 1086.07C1189.32 1076.78 1201.41 1069.24 1216.33 1069.24C1219.18 1069.24 1221.93 1069.52 1224.5 1070.02V1019.33H1170.47V1086.04L1170.47 1086.07L1170.47 1086.1V1086.65H1170.46C1169.96 1095.68 1158.06 1102.9 1143.46 1102.9C1128.54 1102.9 1116.44 1095.37 1116.44 1086.07C1116.44 1076.78 1128.54 1069.24 1143.46 1069.24C1146.3 1069.24 1149.05 1069.52 1151.62 1070.02V952Z" fill="#8DC73F"/>
<path fill-rule="evenodd" clip-rule="evenodd" d="M353.107 1014.68C380.518 1014.68 402.739 1000.65 402.739 983.342C402.739 966.032 380.518 952 353.107 952C326.311 952 304.475 965.409 303.508 982.181H303.475V1102.9H322.322V1007.93C330.783 1012.16 341.478 1014.68 353.107 1014.68Z" fill="#8DC73F"/>
<path fill-rule="evenodd" clip-rule="evenodd" d="M59.7104 968.052C53.4881 958.227 44.245 952 33.9259 952C15.1892 952 0 972.528 0 997.852C0 1023.17 15.1892 1043.7 33.9259 1043.7C44.245 1043.7 53.4881 1037.48 59.7104 1027.65V1102.9H78.5582V1030.06C84.7093 1038.48 93.2543 1043.7 102.701 1043.7C121.438 1043.7 136.627 1023.17 136.627 997.852C136.627 972.528 121.438 952 102.701 952C93.2543 952 84.7093 957.218 78.5582 965.639V952H59.7104V968.052Z" fill="#8DC73F"/>
</g>
<defs>
<clipPath id="clip0_321_2179">
<rect width="1369" height="1768" fill="white"/>
</clipPath>
</defs>
</svg>
