<svg width="930" height="1200" viewBox="0 0 930 1200" fill="none" xmlns="http://www.w3.org/2000/svg">
<g clip-path="url(#clip0_235_717)">
<path fill-rule="evenodd" clip-rule="evenodd" d="M295.486 46.8024V58.6189H317.656V150H330.447V58.6189H354.324V46.8024H295.486Z" fill="#8DC73F"/>
<path fill-rule="evenodd" clip-rule="evenodd" d="M391.844 5.51427H379.053V107.924H379.053V107.924H429.364V96.1078H391.844V61.446H429.364V49.6295H391.844V17.3309H429.364V5.51436H391.844V5.51427Z" fill="#8DC73F"/>
<path fill-rule="evenodd" clip-rule="evenodd" d="M181.222 47.0757H168.431L124.942 47.0757V47.0757H118.12V149.486H122.384V149.486H172.694V149.486H181.222V47.0757ZM130.911 58.8922V137.669H168.431V58.8922H130.911Z" fill="#8DC73F"/>
<path fill-rule="evenodd" clip-rule="evenodd" d="M878.749 46.8024H865.958V149.212L870.221 149.212L878.749 149.212L916.269 149.212H929.06V46.8024H916.269L878.749 46.8024V46.8024ZM878.749 58.6189V137.396H916.269V58.6189H878.749Z" fill="#8DC73F"/>
<path fill-rule="evenodd" clip-rule="evenodd" d="M454.092 47.5901H466.883V47.5901L504.403 47.5901H517.194V150H504.403V59.4066H466.883V150H454.092V47.5901Z" fill="#8DC73F"/>
<path fill-rule="evenodd" clip-rule="evenodd" d="M672.39 47.5901H685.181H722.701H735.492V138.971H735.481C735.148 145.097 727.072 150 717.158 150C707.033 150 698.825 144.886 698.825 138.577C698.825 132.269 707.033 127.155 717.158 127.155C719.09 127.155 720.952 127.341 722.701 127.686V83.0396H685.181V138.971H685.17C684.837 145.097 676.761 150 666.847 150C656.722 150 648.514 144.886 648.514 138.577C648.514 132.269 656.722 127.155 666.847 127.155C668.779 127.155 670.642 127.341 672.39 127.686V47.5901ZM685.181 59.4066H722.701V71.2231L685.181 71.2231V59.4066Z" fill="#8DC73F"/>
<path fill-rule="evenodd" clip-rule="evenodd" d="M563.241 5.51446H576.032V66.1004L613.551 10.6308V5.51446H626.342V96.4376C626.342 96.459 626.342 96.4803 626.342 96.5017C626.342 96.5231 626.342 96.5444 626.342 96.5658V96.8956H626.331C625.998 103.022 617.922 107.924 608.009 107.924C597.883 107.924 589.675 102.81 589.675 96.5017C589.675 90.1931 597.883 85.0791 608.009 85.0791C609.94 85.0791 611.802 85.2652 613.551 85.6103V32.9295L576.032 88.3991V96.8956H576.021C575.688 103.022 567.612 107.924 557.698 107.924C547.573 107.924 539.365 102.81 539.365 96.5017C539.365 90.1931 547.573 85.0791 557.698 85.0791C559.63 85.0791 561.492 85.2653 563.241 85.6104V5.51446Z" fill="#8DC73F"/>
<path fill-rule="evenodd" clip-rule="evenodd" d="M781.539 5.51446H794.329V39.3885H830.996V5.51446H843.787V96.3959C843.787 96.4311 843.787 96.4664 843.787 96.5017C843.787 96.537 843.787 96.5723 843.787 96.6075V96.8956H843.777C843.443 103.022 835.368 107.924 825.454 107.924C815.328 107.924 807.12 102.81 807.12 96.5017C807.12 90.1931 815.328 85.0791 825.454 85.0791C827.385 85.0791 829.247 85.2652 830.996 85.6102V51.205H794.329V96.8956H794.318C793.985 103.022 785.909 107.924 775.996 107.924C765.87 107.924 757.662 102.81 757.662 96.5017C757.662 90.1931 765.87 85.0791 775.996 85.0791C777.928 85.0791 779.79 85.2653 781.539 85.6104V5.51446Z" fill="#8DC73F"/>
<path fill-rule="evenodd" clip-rule="evenodd" d="M239.633 48.5395C258.235 48.5395 273.315 39.0167 273.315 27.2697C273.315 15.5228 258.235 6 239.633 6C221.448 6 206.629 15.1 205.973 26.482H205.95V108.41H218.741V43.9548C224.483 46.8255 231.741 48.5395 239.633 48.5395Z" fill="#8DC73F"/>
<path fill-rule="evenodd" clip-rule="evenodd" d="M40.5223 16.8939C36.2996 10.2259 30.0267 6 23.0235 6C10.308 6 0 19.9315 0 37.1168C0 54.3022 10.308 68.2337 23.0235 68.2337C30.0267 68.2337 36.2996 64.0078 40.5223 57.3398V108.41H53.3132V58.9774C57.4876 64.6921 63.2867 68.2337 69.6979 68.2337C82.4134 68.2337 92.7214 54.3022 92.7214 37.1168C92.7214 19.9315 82.4134 6 69.6979 6C63.2867 6 57.4876 9.54163 53.3132 15.2563V6.00008H40.5223V16.8939Z" fill="#8DC73F"/>
<path fill-rule="evenodd" clip-rule="evenodd" d="M295.486 187.802V199.619H317.656V291H330.447V199.619H354.324V187.802H295.486Z" fill="#8DC73F"/>
<path fill-rule="evenodd" clip-rule="evenodd" d="M391.844 165.514H379.053V267.924H379.053V267.924H429.364V256.108H391.844V221.446H429.364V209.629H391.844V177.331H429.364V165.514H391.844V165.514Z" fill="#8DC73F"/>
<path fill-rule="evenodd" clip-rule="evenodd" d="M181.222 187.076H168.431L124.942 187.076V187.076H118.12V289.486H122.384V289.486H172.694V289.486H181.222V187.076ZM130.911 198.892V277.669H168.431V198.892H130.911Z" fill="#8DC73F"/>
<path fill-rule="evenodd" clip-rule="evenodd" d="M878.749 187.802H865.958V290.212L870.221 290.212L878.749 290.212L916.269 290.212H929.06V187.802H916.269L878.749 187.802V187.802ZM878.749 199.619V278.396H916.269V199.619H878.749Z" fill="#8DC73F"/>
<path fill-rule="evenodd" clip-rule="evenodd" d="M454.092 188.59H466.883V188.59L504.403 188.59H517.194V291H504.403V200.407H466.883V291H454.092V188.59Z" fill="#8DC73F"/>
<path fill-rule="evenodd" clip-rule="evenodd" d="M672.39 188.59H685.181H722.701H735.492V279.971H735.481C735.148 286.097 727.072 291 717.158 291C707.033 291 698.825 285.886 698.825 279.577C698.825 273.269 707.033 268.155 717.158 268.155C719.09 268.155 720.952 268.341 722.701 268.686V224.04H685.181V279.971H685.17C684.837 286.097 676.761 291 666.847 291C656.722 291 648.514 285.886 648.514 279.577C648.514 273.269 656.722 268.155 666.847 268.155C668.779 268.155 670.642 268.341 672.39 268.686V188.59ZM685.181 200.407H722.701V212.223L685.181 212.223V200.407Z" fill="#8DC73F"/>
<path fill-rule="evenodd" clip-rule="evenodd" d="M563.241 165.514H576.032V226.1L613.551 170.631V165.514H626.342V256.438C626.342 256.459 626.342 256.48 626.342 256.502C626.342 256.523 626.342 256.544 626.342 256.566V256.896H626.331C625.998 263.022 617.922 267.924 608.009 267.924C597.883 267.924 589.675 262.81 589.675 256.502C589.675 250.193 597.883 245.079 608.009 245.079C609.94 245.079 611.802 245.265 613.551 245.61V192.929L576.032 248.399V256.896H576.021C575.688 263.022 567.612 267.924 557.698 267.924C547.573 267.924 539.365 262.81 539.365 256.502C539.365 250.193 547.573 245.079 557.698 245.079C559.63 245.079 561.492 245.265 563.241 245.61V165.514Z" fill="#8DC73F"/>
<path fill-rule="evenodd" clip-rule="evenodd" d="M781.539 165.514H794.329V199.389H830.996V165.514H843.787V256.396C843.787 256.431 843.787 256.466 843.787 256.502C843.787 256.537 843.787 256.572 843.787 256.608V256.896H843.777C843.443 263.022 835.368 267.924 825.454 267.924C815.328 267.924 807.12 262.81 807.12 256.502C807.12 250.193 815.328 245.079 825.454 245.079C827.385 245.079 829.247 245.265 830.996 245.61V211.205H794.329V256.896H794.318C793.985 263.022 785.909 267.924 775.996 267.924C765.87 267.924 757.662 262.81 757.662 256.502C757.662 250.193 765.87 245.079 775.996 245.079C777.928 245.079 779.79 245.265 781.539 245.61V165.514Z" fill="#8DC73F"/>
<path fill-rule="evenodd" clip-rule="evenodd" d="M239.633 208.539C258.235 208.539 273.315 199.017 273.315 187.27C273.315 175.523 258.235 166 239.633 166C221.448 166 206.629 175.1 205.973 186.482H205.95V268.41H218.741V203.955C224.483 206.825 231.741 208.539 239.633 208.539Z" fill="#8DC73F"/>
<path fill-rule="evenodd" clip-rule="evenodd" d="M40.5223 176.894C36.2996 170.226 30.0267 166 23.0235 166C10.308 166 0 179.931 0 197.117C0 214.302 10.308 228.234 23.0235 228.234C30.0267 228.234 36.2996 224.008 40.5223 217.34V268.41H53.3132V218.977C57.4876 224.692 63.2867 228.234 69.6979 228.234C82.4134 228.234 92.7214 214.302 92.7214 197.117C92.7214 179.931 82.4134 166 69.6979 166C63.2867 166 57.4876 169.542 53.3132 175.256V166H40.5223V176.894Z" fill="#8DC73F"/>
<path fill-rule="evenodd" clip-rule="evenodd" d="M295.486 324V335.817H317.656V427.198H330.447V335.817H354.324V324H295.486Z" fill="#8DC73F"/>
<path fill-rule="evenodd" clip-rule="evenodd" d="M391.844 324H379.053V426.41H379.053V426.41H429.364V414.593H391.844V379.932H429.364V368.115H391.844V335.817H429.364V324H391.844V324Z" fill="#8DC73F"/>
<path fill-rule="evenodd" clip-rule="evenodd" d="M181.222 324H168.431L124.942 324V324H118.12V426.41H122.384V426.41H172.694V426.41H181.222V324ZM130.911 335.816V414.593H168.431V335.816H130.911Z" fill="#8DC73F"/>
<path fill-rule="evenodd" clip-rule="evenodd" d="M878.749 324H865.958V426.41L870.221 426.41L878.749 426.41L916.269 426.41H929.06V324H916.269L878.749 324V324ZM878.749 335.817V414.593H916.269V335.817H878.749Z" fill="#8DC73F"/>
<path fill-rule="evenodd" clip-rule="evenodd" d="M454.092 324H466.883V324L504.403 324H517.194V426.41H504.403V335.817H466.883V426.41H454.092V324Z" fill="#8DC73F"/>
<path fill-rule="evenodd" clip-rule="evenodd" d="M672.39 324H685.181H722.701H735.492V415.381H735.481C735.148 421.507 727.072 426.41 717.158 426.41C707.033 426.41 698.825 421.296 698.825 414.987C698.825 408.679 707.033 403.565 717.158 403.565C719.09 403.565 720.952 403.751 722.701 404.096V359.45H685.181V415.381H685.17C684.837 421.507 676.761 426.41 666.847 426.41C656.722 426.41 648.514 421.296 648.514 414.987C648.514 408.679 656.722 403.565 666.847 403.565C668.779 403.565 670.642 403.751 672.39 404.096V324ZM685.181 335.817H722.701V347.633L685.181 347.633V335.817Z" fill="#8DC73F"/>
<path fill-rule="evenodd" clip-rule="evenodd" d="M563.241 324H576.032V384.586L613.551 329.116V324H626.342V414.923C626.342 414.945 626.342 414.966 626.342 414.987C626.342 415.009 626.342 415.03 626.342 415.051V415.381H626.331C625.998 421.507 617.922 426.41 608.009 426.41C597.883 426.41 589.675 421.296 589.675 414.987C589.675 408.679 597.883 403.565 608.009 403.565C609.94 403.565 611.802 403.751 613.551 404.096V351.415L576.032 406.885V415.381H576.021C575.688 421.507 567.612 426.41 557.698 426.41C547.573 426.41 539.365 421.296 539.365 414.987C539.365 408.679 547.573 403.565 557.698 403.565C559.63 403.565 561.492 403.751 563.241 404.096V324Z" fill="#8DC73F"/>
<path fill-rule="evenodd" clip-rule="evenodd" d="M781.539 324H794.329V357.874H830.996V324H843.787V414.881C843.787 414.917 843.787 414.952 843.787 414.987C843.787 415.023 843.787 415.058 843.787 415.093V415.381H843.777C843.443 421.507 835.368 426.41 825.454 426.41C815.328 426.41 807.12 421.296 807.12 414.987C807.12 408.679 815.328 403.565 825.454 403.565C827.385 403.565 829.247 403.751 830.996 404.096V369.691H794.329V415.381H794.318C793.985 421.507 785.909 426.41 775.996 426.41C765.87 426.41 757.662 421.296 757.662 414.987C757.662 408.679 765.87 403.565 775.996 403.565C777.928 403.565 779.79 403.751 781.539 404.096V324Z" fill="#8DC73F"/>
<path fill-rule="evenodd" clip-rule="evenodd" d="M239.633 366.539C258.235 366.539 273.315 357.017 273.315 345.27C273.315 333.523 258.235 324 239.633 324C221.448 324 206.629 333.1 205.973 344.482H205.95V426.41H218.741V361.955C224.483 364.825 231.741 366.539 239.633 366.539Z" fill="#8DC73F"/>
<path fill-rule="evenodd" clip-rule="evenodd" d="M40.5223 334.894C36.2996 328.226 30.0267 324 23.0235 324C10.308 324 0 337.931 0 355.117C0 372.302 10.308 386.234 23.0235 386.234C30.0267 386.234 36.2996 382.008 40.5223 375.34V426.41H53.3132V376.977C57.4876 382.692 63.2867 386.234 69.6979 386.234C82.4134 386.234 92.7214 372.302 92.7214 355.117C92.7214 337.931 82.4134 324 69.6979 324C63.2867 324 57.4876 327.542 53.3132 333.256V324H40.5223V334.894Z" fill="#8DC73F"/>
<path fill-rule="evenodd" clip-rule="evenodd" d="M295.486 923V934.817H317.656V1026.2H330.447V934.817H354.324V923H295.486Z" fill="#8DC73F"/>
<path fill-rule="evenodd" clip-rule="evenodd" d="M391.844 923H379.053V1025.41H379.053V1025.41H429.364V1013.59H391.844V978.932H429.364V967.115H391.844V934.817H429.364V923H391.844V923Z" fill="#8DC73F"/>
<path fill-rule="evenodd" clip-rule="evenodd" d="M181.222 923H168.431L124.942 923V923H118.12V1025.41H122.384V1025.41H172.694V1025.41H181.222V923ZM130.911 934.816V1013.59H168.431V934.816H130.911Z" fill="#8DC73F"/>
<path fill-rule="evenodd" clip-rule="evenodd" d="M878.749 923H865.958V1025.41L870.221 1025.41L878.749 1025.41L916.269 1025.41H929.06V923H916.269L878.749 923V923ZM878.749 934.817V1013.59H916.269V934.817H878.749Z" fill="#8DC73F"/>
<path fill-rule="evenodd" clip-rule="evenodd" d="M454.092 923H466.883V923L504.403 923H517.194V1025.41H504.403V934.817H466.883V1025.41H454.092V923Z" fill="#8DC73F"/>
<path fill-rule="evenodd" clip-rule="evenodd" d="M672.39 923H685.181H722.701H735.492V1014.38H735.481C735.148 1020.51 727.072 1025.41 717.158 1025.41C707.033 1025.41 698.825 1020.3 698.825 1013.99C698.825 1007.68 707.033 1002.56 717.158 1002.56C719.09 1002.56 720.952 1002.75 722.701 1003.1V958.45H685.181V1014.38H685.17C684.837 1020.51 676.761 1025.41 666.847 1025.41C656.722 1025.41 648.514 1020.3 648.514 1013.99C648.514 1007.68 656.722 1002.56 666.847 1002.56C668.779 1002.56 670.642 1002.75 672.39 1003.1V923ZM685.181 934.817H722.701V946.633L685.181 946.633V934.817Z" fill="#8DC73F"/>
<path fill-rule="evenodd" clip-rule="evenodd" d="M563.241 923H576.032V983.586L613.551 928.116V923H626.342V1013.92C626.342 1013.94 626.342 1013.97 626.342 1013.99C626.342 1014.01 626.342 1014.03 626.342 1014.05V1014.38H626.331C625.998 1020.51 617.922 1025.41 608.009 1025.41C597.883 1025.41 589.675 1020.3 589.675 1013.99C589.675 1007.68 597.883 1002.56 608.009 1002.56C609.94 1002.56 611.802 1002.75 613.551 1003.1V950.415L576.032 1005.88V1014.38H576.021C575.688 1020.51 567.612 1025.41 557.698 1025.41C547.573 1025.41 539.365 1020.3 539.365 1013.99C539.365 1007.68 547.573 1002.56 557.698 1002.56C559.63 1002.56 561.492 1002.75 563.241 1003.1V923Z" fill="#8DC73F"/>
<path fill-rule="evenodd" clip-rule="evenodd" d="M781.539 923H794.329V956.874H830.996V923H843.787V1013.88C843.787 1013.92 843.787 1013.95 843.787 1013.99C843.787 1014.02 843.787 1014.06 843.787 1014.09V1014.38H843.777C843.443 1020.51 835.368 1025.41 825.454 1025.41C815.328 1025.41 807.12 1020.3 807.12 1013.99C807.12 1007.68 815.328 1002.56 825.454 1002.56C827.385 1002.56 829.247 1002.75 830.996 1003.1V968.691H794.329V1014.38H794.318C793.985 1020.51 785.909 1025.41 775.996 1025.41C765.87 1025.41 757.662 1020.3 757.662 1013.99C757.662 1007.68 765.87 1002.56 775.996 1002.56C777.928 1002.56 779.79 1002.75 781.539 1003.1V923Z" fill="#8DC73F"/>
<path fill-rule="evenodd" clip-rule="evenodd" d="M239.633 965.539C258.235 965.539 273.315 956.017 273.315 944.27C273.315 932.523 258.235 923 239.633 923C221.448 923 206.629 932.1 205.973 943.482H205.95V1025.41H218.741V960.955C224.483 963.825 231.741 965.539 239.633 965.539Z" fill="#8DC73F"/>
<path fill-rule="evenodd" clip-rule="evenodd" d="M40.5223 933.894C36.2996 927.226 30.0267 923 23.0235 923C10.308 923 0 936.931 0 954.117C0 971.302 10.308 985.234 23.0235 985.234C30.0267 985.234 36.2996 981.008 40.5223 974.34V1025.41H53.3132V975.977C57.4876 981.692 63.2867 985.234 69.6979 985.234C82.4134 985.234 92.7214 971.302 92.7214 954.117C92.7214 936.931 82.4134 923 69.6979 923C63.2867 923 57.4876 926.542 53.3132 932.256V923H40.5223V933.894Z" fill="#8DC73F"/>
<path fill-rule="evenodd" clip-rule="evenodd" d="M295.486 463V474.817H317.656V566.198H330.447V474.817H354.324V463H295.486Z" fill="#8DC73F"/>
<path fill-rule="evenodd" clip-rule="evenodd" d="M391.844 483H379.053V585.41H379.053V585.41H429.364V573.593H391.844V538.932H429.364V527.115H391.844V494.817H429.364V483H391.844V483Z" fill="#8DC73F"/>
<path fill-rule="evenodd" clip-rule="evenodd" d="M181.222 463H168.431L124.942 463V463H118.12V565.41H122.384V565.41H172.694V565.41H181.222V463ZM130.911 474.816V553.593H168.431V474.816H130.911Z" fill="#8DC73F"/>
<path fill-rule="evenodd" clip-rule="evenodd" d="M878.749 463H865.958V565.41L870.221 565.41L878.749 565.41L916.269 565.41H929.06V463H916.269L878.749 463V463ZM878.749 474.817V553.593H916.269V474.817H878.749Z" fill="#8DC73F"/>
<path fill-rule="evenodd" clip-rule="evenodd" d="M454.092 463H466.883V463L504.403 463H517.194V565.41H504.403V474.817H466.883V565.41H454.092V463Z" fill="#8DC73F"/>
<path fill-rule="evenodd" clip-rule="evenodd" d="M672.39 463H685.181H722.701H735.492V554.381H735.481C735.148 560.507 727.072 565.41 717.158 565.41C707.033 565.41 698.825 560.296 698.825 553.987C698.825 547.679 707.033 542.565 717.158 542.565C719.09 542.565 720.952 542.751 722.701 543.096V498.45H685.181V554.381H685.17C684.837 560.507 676.761 565.41 666.847 565.41C656.722 565.41 648.514 560.296 648.514 553.987C648.514 547.679 656.722 542.565 666.847 542.565C668.779 542.565 670.642 542.751 672.39 543.096V463ZM685.181 474.817H722.701V486.633L685.181 486.633V474.817Z" fill="#8DC73F"/>
<path fill-rule="evenodd" clip-rule="evenodd" d="M563.241 483H576.032V543.586L613.551 488.116V483H626.342V573.923C626.342 573.945 626.342 573.966 626.342 573.987C626.342 574.009 626.342 574.03 626.342 574.051V574.381H626.331C625.998 580.507 617.922 585.41 608.009 585.41C597.883 585.41 589.675 580.296 589.675 573.987C589.675 567.679 597.883 562.565 608.009 562.565C609.94 562.565 611.802 562.751 613.551 563.096V510.415L576.032 565.885V574.381H576.021C575.688 580.507 567.612 585.41 557.698 585.41C547.573 585.41 539.365 580.296 539.365 573.987C539.365 567.679 547.573 562.565 557.698 562.565C559.63 562.565 561.492 562.751 563.241 563.096V483Z" fill="#8DC73F"/>
<path fill-rule="evenodd" clip-rule="evenodd" d="M781.539 483H794.329V516.874H830.996V483H843.787V573.881C843.787 573.917 843.787 573.952 843.787 573.987C843.787 574.023 843.787 574.058 843.787 574.093V574.381H843.777C843.443 580.507 835.368 585.41 825.454 585.41C815.328 585.41 807.12 580.296 807.12 573.987C807.12 567.679 815.328 562.565 825.454 562.565C827.385 562.565 829.247 562.751 830.996 563.096V528.691H794.329V574.381H794.318C793.985 580.507 785.909 585.41 775.996 585.41C765.87 585.41 757.662 580.296 757.662 573.987C757.662 567.679 765.87 562.565 775.996 562.565C777.928 562.565 779.79 562.751 781.539 563.096V483Z" fill="#8DC73F"/>
<path fill-rule="evenodd" clip-rule="evenodd" d="M239.633 525.539C258.235 525.539 273.315 516.017 273.315 504.27C273.315 492.523 258.235 483 239.633 483C221.448 483 206.629 492.1 205.973 503.482H205.95V585.41H218.741V520.955C224.483 523.825 231.741 525.539 239.633 525.539Z" fill="#8DC73F"/>
<path fill-rule="evenodd" clip-rule="evenodd" d="M40.5223 493.894C36.2996 487.226 30.0267 483 23.0235 483C10.308 483 0 496.931 0 514.117C0 531.302 10.308 545.234 23.0235 545.234C30.0267 545.234 36.2996 541.008 40.5223 534.34V585.41H53.3132V535.977C57.4876 541.692 63.2867 545.234 69.6979 545.234C82.4134 545.234 92.7214 531.302 92.7214 514.117C92.7214 496.931 82.4134 483 69.6979 483C63.2867 483 57.4876 486.542 53.3132 492.256V483H40.5223V493.894Z" fill="#8DC73F"/>
<path fill-rule="evenodd" clip-rule="evenodd" d="M295.486 763V774.817H317.656V866.198H330.447V774.817H354.324V763H295.486Z" fill="#8DC73F"/>
<path fill-rule="evenodd" clip-rule="evenodd" d="M391.844 783H379.053V885.41H379.053V885.41H429.364V873.593H391.844V838.932H429.364V827.115H391.844V794.817H429.364V783H391.844V783Z" fill="#8DC73F"/>
<path fill-rule="evenodd" clip-rule="evenodd" d="M181.222 763H168.431L124.942 763V763H118.12V865.41H122.384V865.41H172.694V865.41H181.222V763ZM130.911 774.816V853.593H168.431V774.816H130.911Z" fill="#8DC73F"/>
<path fill-rule="evenodd" clip-rule="evenodd" d="M878.749 763H865.958V865.41L870.221 865.41L878.749 865.41L916.269 865.41H929.06V763H916.269L878.749 763V763ZM878.749 774.817V853.593H916.269V774.817H878.749Z" fill="#8DC73F"/>
<path fill-rule="evenodd" clip-rule="evenodd" d="M454.092 763H466.883V763L504.403 763H517.194V865.41H504.403V774.817H466.883V865.41H454.092V763Z" fill="#8DC73F"/>
<path fill-rule="evenodd" clip-rule="evenodd" d="M672.39 763H685.181H722.701H735.492V854.381H735.481C735.148 860.507 727.072 865.41 717.158 865.41C707.033 865.41 698.825 860.296 698.825 853.987C698.825 847.679 707.033 842.565 717.158 842.565C719.09 842.565 720.952 842.751 722.701 843.096V798.45H685.181V854.381H685.17C684.837 860.507 676.761 865.41 666.847 865.41C656.722 865.41 648.514 860.296 648.514 853.987C648.514 847.679 656.722 842.565 666.847 842.565C668.779 842.565 670.642 842.751 672.39 843.096V763ZM685.181 774.817H722.701V786.633L685.181 786.633V774.817Z" fill="#8DC73F"/>
<path fill-rule="evenodd" clip-rule="evenodd" d="M563.241 783H576.032V843.586L613.551 788.116V783H626.342V873.923C626.342 873.945 626.342 873.966 626.342 873.987C626.342 874.009 626.342 874.03 626.342 874.051V874.381H626.331C625.998 880.507 617.922 885.41 608.009 885.41C597.883 885.41 589.675 880.296 589.675 873.987C589.675 867.679 597.883 862.565 608.009 862.565C609.94 862.565 611.802 862.751 613.551 863.096V810.415L576.032 865.885V874.381H576.021C575.688 880.507 567.612 885.41 557.698 885.41C547.573 885.41 539.365 880.296 539.365 873.987C539.365 867.679 547.573 862.565 557.698 862.565C559.63 862.565 561.492 862.751 563.241 863.096V783Z" fill="#8DC73F"/>
<path fill-rule="evenodd" clip-rule="evenodd" d="M781.539 783H794.329V816.874H830.996V783H843.787V873.881C843.787 873.917 843.787 873.952 843.787 873.987C843.787 874.023 843.787 874.058 843.787 874.093V874.381H843.777C843.443 880.507 835.368 885.41 825.454 885.41C815.328 885.41 807.12 880.296 807.12 873.987C807.12 867.679 815.328 862.565 825.454 862.565C827.385 862.565 829.247 862.751 830.996 863.096V828.691H794.329V874.381H794.318C793.985 880.507 785.909 885.41 775.996 885.41C765.87 885.41 757.662 880.296 757.662 873.987C757.662 867.679 765.87 862.565 775.996 862.565C777.928 862.565 779.79 862.751 781.539 863.096V783Z" fill="#8DC73F"/>
<path fill-rule="evenodd" clip-rule="evenodd" d="M239.633 825.539C258.235 825.539 273.315 816.017 273.315 804.27C273.315 792.523 258.235 783 239.633 783C221.448 783 206.629 792.1 205.973 803.482H205.95V885.41H218.741V820.955C224.483 823.825 231.741 825.539 239.633 825.539Z" fill="#8DC73F"/>
<path fill-rule="evenodd" clip-rule="evenodd" d="M40.5223 793.894C36.2996 787.226 30.0267 783 23.0235 783C10.308 783 0 796.931 0 814.117C0 831.302 10.308 845.234 23.0235 845.234C30.0267 845.234 36.2996 841.008 40.5223 834.34V885.41H53.3132V835.977C57.4876 841.692 63.2867 845.234 69.6979 845.234C82.4134 845.234 92.7214 831.302 92.7214 814.117C92.7214 796.931 82.4134 783 69.6979 783C63.2867 783 57.4876 786.542 53.3132 792.256V783H40.5223V793.894Z" fill="#8DC73F"/>
<path fill-rule="evenodd" clip-rule="evenodd" d="M295.486 607V618.817H317.656V710.198H330.447V618.817H354.324V607H295.486Z" fill="#8DC73F"/>
<path fill-rule="evenodd" clip-rule="evenodd" d="M391.844 647H379.053V749.41H379.053V749.41H429.364V737.593H391.844V702.932H429.364V691.115H391.844V658.817H429.364V647H391.844V647Z" fill="#8DC73F"/>
<path fill-rule="evenodd" clip-rule="evenodd" d="M181.222 607H168.431L124.942 607V607H118.12V709.41H122.384V709.41H172.694V709.41H181.222V607ZM130.911 618.816V697.593H168.431V618.816H130.911Z" fill="#8DC73F"/>
<path fill-rule="evenodd" clip-rule="evenodd" d="M878.749 607H865.958V709.41L870.221 709.41L878.749 709.41L916.269 709.41H929.06V607H916.269L878.749 607V607ZM878.749 618.817V697.593H916.269V618.817H878.749Z" fill="#8DC73F"/>
<path fill-rule="evenodd" clip-rule="evenodd" d="M454.092 607H466.883V607L504.403 607H517.194V709.41H504.403V618.817H466.883V709.41H454.092V607Z" fill="#8DC73F"/>
<path fill-rule="evenodd" clip-rule="evenodd" d="M672.39 607H685.181H722.701H735.492V698.381H735.481C735.148 704.507 727.072 709.41 717.158 709.41C707.033 709.41 698.825 704.296 698.825 697.987C698.825 691.679 707.033 686.565 717.158 686.565C719.09 686.565 720.952 686.751 722.701 687.096V642.45H685.181V698.381H685.17C684.837 704.507 676.761 709.41 666.847 709.41C656.722 709.41 648.514 704.296 648.514 697.987C648.514 691.679 656.722 686.565 666.847 686.565C668.779 686.565 670.642 686.751 672.39 687.096V607ZM685.181 618.817H722.701V630.633L685.181 630.633V618.817Z" fill="#8DC73F"/>
<path fill-rule="evenodd" clip-rule="evenodd" d="M563.241 647H576.032V707.586L613.551 652.116V647H626.342V737.923C626.342 737.945 626.342 737.966 626.342 737.987C626.342 738.009 626.342 738.03 626.342 738.051V738.381H626.331C625.998 744.507 617.922 749.41 608.009 749.41C597.883 749.41 589.675 744.296 589.675 737.987C589.675 731.679 597.883 726.565 608.009 726.565C609.94 726.565 611.802 726.751 613.551 727.096V674.415L576.032 729.885V738.381H576.021C575.688 744.507 567.612 749.41 557.698 749.41C547.573 749.41 539.365 744.296 539.365 737.987C539.365 731.679 547.573 726.565 557.698 726.565C559.63 726.565 561.492 726.751 563.241 727.096V647Z" fill="#8DC73F"/>
<path fill-rule="evenodd" clip-rule="evenodd" d="M781.539 647H794.329V680.874H830.996V647H843.787V737.881C843.787 737.917 843.787 737.952 843.787 737.987C843.787 738.023 843.787 738.058 843.787 738.093V738.381H843.777C843.443 744.507 835.368 749.41 825.454 749.41C815.328 749.41 807.12 744.296 807.12 737.987C807.12 731.679 815.328 726.565 825.454 726.565C827.385 726.565 829.247 726.751 830.996 727.096V692.691H794.329V738.381H794.318C793.985 744.507 785.909 749.41 775.996 749.41C765.87 749.41 757.662 744.296 757.662 737.987C757.662 731.679 765.87 726.565 775.996 726.565C777.928 726.565 779.79 726.751 781.539 727.096V647Z" fill="#8DC73F"/>
<path fill-rule="evenodd" clip-rule="evenodd" d="M239.633 689.539C258.235 689.539 273.315 680.017 273.315 668.27C273.315 656.523 258.235 647 239.633 647C221.448 647 206.629 656.1 205.973 667.482H205.95V749.41H218.741V684.955C224.483 687.825 231.741 689.539 239.633 689.539Z" fill="#8DC73F"/>
<path fill-rule="evenodd" clip-rule="evenodd" d="M40.5223 657.894C36.2996 651.226 30.0267 647 23.0235 647C10.308 647 0 660.931 0 678.117C0 695.302 10.308 709.234 23.0235 709.234C30.0267 709.234 36.2996 705.008 40.5223 698.34V749.41H53.3132V699.977C57.4876 705.692 63.2867 709.234 69.6979 709.234C82.4134 709.234 92.7214 695.302 92.7214 678.117C92.7214 660.931 82.4134 647 69.6979 647C63.2867 647 57.4876 650.542 53.3132 656.256V647H40.5223V657.894Z" fill="#8DC73F"/>
<path fill-rule="evenodd" clip-rule="evenodd" d="M295.486 1096.8V1108.62H317.656V1200H330.447V1108.62H354.324V1096.8H295.486Z" fill="#8DC73F"/>
<path fill-rule="evenodd" clip-rule="evenodd" d="M391.844 1055.51H379.053V1157.92H379.053V1157.92H429.364V1146.11H391.844V1111.45H429.364V1099.63H391.844V1067.33H429.364V1055.51H391.844V1055.51Z" fill="#8DC73F"/>
<path fill-rule="evenodd" clip-rule="evenodd" d="M178 1097.08H165.862V1097.08H124.593V1097.08H118.12V1199.49H122.166V1199.49H169.908V1199.49H178V1097.08ZM130.258 1108.89V1187.67H165.862V1108.89H130.258Z" fill="#8DC73F"/>
<path fill-rule="evenodd" clip-rule="evenodd" d="M878.749 1096.8H865.958V1199.21L870.221 1199.21L878.749 1199.21L916.269 1199.21H929.06V1096.8H916.269L878.749 1096.8V1096.8ZM878.749 1108.62V1187.4H916.269V1108.62H878.749Z" fill="#8DC73F"/>
<path fill-rule="evenodd" clip-rule="evenodd" d="M454.092 1097.59H466.883V1097.59L504.403 1097.59H517.194V1200H504.403V1109.41H466.883V1200H454.092V1097.59Z" fill="#8DC73F"/>
<path fill-rule="evenodd" clip-rule="evenodd" d="M672.39 1097.59H685.181H722.701H735.492V1188.97H735.481C735.148 1195.1 727.072 1200 717.158 1200C707.033 1200 698.825 1194.89 698.825 1188.58C698.825 1182.27 707.033 1177.15 717.158 1177.15C719.09 1177.15 720.952 1177.34 722.701 1177.69V1133.04H685.181V1188.97H685.17C684.837 1195.1 676.761 1200 666.847 1200C656.722 1200 648.514 1194.89 648.514 1188.58C648.514 1182.27 656.722 1177.15 666.847 1177.15C668.779 1177.15 670.642 1177.34 672.39 1177.69V1097.59ZM685.181 1109.41H722.701V1121.22L685.181 1121.22V1109.41Z" fill="#8DC73F"/>
<path fill-rule="evenodd" clip-rule="evenodd" d="M563.241 1055.51H576.032V1116.1L613.551 1060.63V1055.51H626.342V1146.44C626.342 1146.46 626.342 1146.48 626.342 1146.5C626.342 1146.52 626.342 1146.54 626.342 1146.57V1146.9H626.331C625.998 1153.02 617.922 1157.92 608.009 1157.92C597.883 1157.92 589.675 1152.81 589.675 1146.5C589.675 1140.19 597.883 1135.08 608.009 1135.08C609.94 1135.08 611.802 1135.27 613.551 1135.61V1082.93L576.032 1138.4V1146.9H576.021C575.688 1153.02 567.612 1157.92 557.698 1157.92C547.573 1157.92 539.365 1152.81 539.365 1146.5C539.365 1140.19 547.573 1135.08 557.698 1135.08C559.63 1135.08 561.492 1135.27 563.241 1135.61V1055.51Z" fill="#8DC73F"/>
<path fill-rule="evenodd" clip-rule="evenodd" d="M781.539 1055.51H794.329V1089.39H830.996V1055.51H843.787V1146.4C843.787 1146.43 843.787 1146.47 843.787 1146.5C843.787 1146.54 843.787 1146.57 843.787 1146.61V1146.9H843.777C843.443 1153.02 835.368 1157.92 825.454 1157.92C815.328 1157.92 807.12 1152.81 807.12 1146.5C807.12 1140.19 815.328 1135.08 825.454 1135.08C827.385 1135.08 829.247 1135.27 830.996 1135.61V1101.21H794.329V1146.9H794.318C793.985 1153.02 785.909 1157.92 775.996 1157.92C765.87 1157.92 757.662 1152.81 757.662 1146.5C757.662 1140.19 765.87 1135.08 775.996 1135.08C777.928 1135.08 779.79 1135.27 781.539 1135.61V1055.51Z" fill="#8DC73F"/>
<path fill-rule="evenodd" clip-rule="evenodd" d="M239.633 1099.54C258.235 1099.54 273.315 1090.02 273.315 1078.27C273.315 1066.52 258.235 1057 239.633 1057C221.448 1057 206.629 1066.1 205.973 1077.48H205.95V1159.41H218.741V1094.95C224.483 1097.83 231.741 1099.54 239.633 1099.54Z" fill="#8DC73F"/>
<path fill-rule="evenodd" clip-rule="evenodd" d="M40.5223 1067.89C36.2996 1061.23 30.0267 1057 23.0235 1057C10.308 1057 0 1070.93 0 1088.12C0 1105.3 10.308 1119.23 23.0235 1119.23C30.0267 1119.23 36.2996 1115.01 40.5223 1108.34V1159.41H53.3132V1109.98C57.4876 1115.69 63.2867 1119.23 69.6979 1119.23C82.4134 1119.23 92.7214 1105.3 92.7214 1088.12C92.7214 1070.93 82.4134 1057 69.6979 1057C63.2867 1057 57.4876 1060.54 53.3132 1066.26V1057H40.5223V1067.89Z" fill="#8DC73F"/>
</g>
<defs>
<clipPath id="clip0_235_717">
<rect width="929.06" height="1200" fill="white"/>
</clipPath>
</defs>
</svg>
