<svg width="373" height="489" viewBox="0 0 373 489" fill="none" xmlns="http://www.w3.org/2000/svg">
<rect x="234.703" y="174.397" width="112.658" height="37.2228" transform="rotate(-79.5983 234.703 174.397)" fill="#F9ED32"/>
<rect x="240.864" y="84.0635" width="61.189" height="58.319" rx="10" transform="rotate(-79.5983 240.864 84.0635)" fill="#F9ED32"/>
<circle cx="224.072" cy="348.217" r="99.6971" transform="rotate(-40.724 224.072 348.217)" fill="#8DC73F"/>
<circle cx="242.768" cy="240.034" r="77.0386" transform="rotate(-40.724 242.768 240.034)" fill="#8DC73F"/>
<circle cx="232.949" cy="288.357" r="38.5193" transform="rotate(-40.724 232.949 288.357)" fill="#F9ED32"/>
<rect x="192.762" y="370.177" width="12.9833" height="47.3492" rx="6.49163" transform="rotate(-79.594 192.762 370.177)" fill="#F9ED32"/>
<line x1="212.809" y1="363.863" x2="269.17" y2="57.0271" stroke="white" stroke-width="2"/>
<line x1="224.313" y1="364.724" x2="280.674" y2="57.8874" stroke="white" stroke-width="2"/>
<circle cx="223.828" cy="367.365" r="3.62535" transform="rotate(-130.724 223.828 367.365)" fill="black"/>
<circle cx="223.828" cy="367.365" r="3.62535" transform="rotate(-130.724 223.828 367.365)" fill="black"/>
<circle cx="223.828" cy="367.365" r="3.62535" transform="rotate(-130.724 223.828 367.365)" fill="black"/>
<circle cx="223.828" cy="367.365" r="3.62535" transform="rotate(-130.724 223.828 367.365)" fill="black"/>
<circle cx="223.828" cy="367.365" r="3.62535" transform="rotate(-130.724 223.828 367.365)" fill="white"/>
<circle cx="212.419" cy="365.227" r="3.62535" transform="rotate(-130.724 212.419 365.227)" fill="black"/>
<circle cx="212.419" cy="365.227" r="3.62535" transform="rotate(-130.724 212.419 365.227)" fill="black"/>
<circle cx="212.419" cy="365.227" r="3.62535" transform="rotate(-130.724 212.419 365.227)" fill="black"/>
<circle cx="212.419" cy="365.227" r="3.62535" transform="rotate(-130.724 212.419 365.227)" fill="black"/>
<circle cx="212.419" cy="365.227" r="3.62535" transform="rotate(-130.724 212.419 365.227)" fill="white"/>
<circle cx="280.875" cy="59.9375" r="3.62535" transform="rotate(-130.724 280.875 59.9375)" fill="black"/>
<circle cx="280.875" cy="59.9375" r="3.62535" transform="rotate(-130.724 280.875 59.9375)" fill="black"/>
<circle cx="280.875" cy="59.9375" r="3.62535" transform="rotate(-130.724 280.875 59.9375)" fill="black"/>
<circle cx="280.875" cy="59.9375" r="3.62535" transform="rotate(-130.724 280.875 59.9375)" fill="black"/>
<circle cx="280.875" cy="59.9375" r="3.62535" transform="rotate(-130.724 280.875 59.9375)" fill="white"/>
<circle cx="268.78" cy="58.3912" r="3.62535" transform="rotate(-130.724 268.78 58.3912)" fill="black"/>
<circle cx="268.78" cy="58.3912" r="3.62535" transform="rotate(-130.724 268.78 58.3912)" fill="black"/>
<circle cx="268.78" cy="58.3912" r="3.62535" transform="rotate(-130.724 268.78 58.3912)" fill="black"/>
<circle cx="268.78" cy="58.3912" r="3.62535" transform="rotate(-130.724 268.78 58.3912)" fill="black"/>
<circle cx="268.78" cy="58.3912" r="3.62535" transform="rotate(-130.724 268.78 58.3912)" fill="white"/>
</svg>
