<svg width="607" height="715" viewBox="0 0 607 715" fill="none" xmlns="http://www.w3.org/2000/svg">
<rect x="351.443" y="253.04" width="166.238" height="54.9258" transform="rotate(-76.2593 351.443 253.04)" fill="#F9ED32"/>
<rect x="368.281" y="120.499" width="90.2905" height="86.0555" rx="10" transform="rotate(-76.2593 368.281 120.499)" fill="#F9ED32"/>
<circle cx="320.841" cy="508.178" r="147.113" transform="rotate(-37.385 320.841 508.178)" fill="#8DC73F"/>
<circle cx="357.681" cy="350.422" r="113.678" transform="rotate(-37.385 357.681 350.422)" fill="#8DC73F"/>
<circle cx="339.062" cy="420.762" r="56.8391" transform="rotate(-37.385 339.062 420.762)" fill="#F9ED32"/>
<rect x="272.834" y="537.838" width="19.1581" height="69.8684" rx="9.57904" transform="rotate(-76.255 272.834 537.838)" fill="#F9ED32"/>
<line x1="303.37" y1="530.373" x2="412.766" y2="83.2186" stroke="white" stroke-width="2"/>
<line x1="320.242" y1="532.629" x2="429.637" y2="85.4742" stroke="white" stroke-width="2"/>
<circle cx="318.837" cy="536.365" r="5.34956" transform="rotate(-127.385 318.837 536.365)" fill="black"/>
<circle cx="318.837" cy="536.365" r="5.34956" transform="rotate(-127.385 318.837 536.365)" fill="black"/>
<circle cx="318.837" cy="536.365" r="5.34956" transform="rotate(-127.385 318.837 536.365)" fill="black"/>
<circle cx="318.837" cy="536.365" r="5.34956" transform="rotate(-127.385 318.837 536.365)" fill="black"/>
<circle cx="318.837" cy="536.365" r="5.34956" transform="rotate(-127.385 318.837 536.365)" fill="white"/>
<circle cx="302.215" cy="532.235" r="5.34956" transform="rotate(-127.385 302.215 532.235)" fill="black"/>
<circle cx="302.215" cy="532.235" r="5.34956" transform="rotate(-127.385 302.215 532.235)" fill="black"/>
<circle cx="302.215" cy="532.235" r="5.34956" transform="rotate(-127.385 302.215 532.235)" fill="black"/>
<circle cx="302.215" cy="532.235" r="5.34956" transform="rotate(-127.385 302.215 532.235)" fill="black"/>
<circle cx="302.215" cy="532.235" r="5.34956" transform="rotate(-127.385 302.215 532.235)" fill="white"/>
<circle cx="429.296" cy="88.3986" r="5.34956" transform="rotate(-127.385 429.296 88.3986)" fill="black"/>
<circle cx="429.296" cy="88.3986" r="5.34956" transform="rotate(-127.385 429.296 88.3986)" fill="black"/>
<circle cx="429.296" cy="88.3986" r="5.34956" transform="rotate(-127.385 429.296 88.3986)" fill="black"/>
<circle cx="429.296" cy="88.3986" r="5.34956" transform="rotate(-127.385 429.296 88.3986)" fill="black"/>
<circle cx="429.296" cy="88.3986" r="5.34956" transform="rotate(-127.385 429.296 88.3986)" fill="white"/>
<circle cx="411.61" cy="85.0802" r="5.34956" transform="rotate(-127.385 411.61 85.0802)" fill="black"/>
<circle cx="411.61" cy="85.0802" r="5.34956" transform="rotate(-127.385 411.61 85.0802)" fill="black"/>
<circle cx="411.61" cy="85.0802" r="5.34956" transform="rotate(-127.385 411.61 85.0802)" fill="black"/>
<circle cx="411.61" cy="85.0802" r="5.34956" transform="rotate(-127.385 411.61 85.0802)" fill="black"/>
<circle cx="411.61" cy="85.0802" r="5.34956" transform="rotate(-127.385 411.61 85.0802)" fill="white"/>
</svg>
