<svg width="369" height="488" viewBox="0 0 369 488" fill="none" xmlns="http://www.w3.org/2000/svg">
<rect x="240.324" y="173.286" width="113.287" height="37.4304" transform="rotate(-76.2593 240.324 173.286)" fill="#F9ED32"/>
<rect x="251.799" y="82.9629" width="61.5305" height="58.6444" rx="9.75922" transform="rotate(-76.2593 251.799 82.9629)" fill="#F9ED32"/>
<circle cx="219.471" cy="347.155" r="100.253" transform="rotate(-37.385 219.471 347.155)" fill="#8DC73F"/>
<circle cx="244.576" cy="239.649" r="77.4685" transform="rotate(-37.385 244.576 239.649)" fill="#8DC73F"/>
<circle cx="231.887" cy="287.584" r="38.7343" transform="rotate(-37.385 231.887 287.584)" fill="#F9ED32"/>
<rect x="186.754" y="367.368" width="13.0557" height="47.6134" rx="6.52785" transform="rotate(-76.255 186.754 367.368)" fill="#F9ED32"/>
<line x1="207.277" y1="362.211" x2="281.827" y2="57.4872" stroke="white" stroke-width="1.95184"/>
<line x1="218.775" y1="363.748" x2="293.325" y2="59.0244" stroke="white" stroke-width="1.95184"/>
<circle cx="218.104" cy="366.364" r="3.64558" transform="rotate(-127.385 218.104 366.364)" fill="black"/>
<circle cx="218.104" cy="366.364" r="3.64558" transform="rotate(-127.385 218.104 366.364)" fill="black"/>
<circle cx="218.104" cy="366.364" r="3.64558" transform="rotate(-127.385 218.104 366.364)" fill="black"/>
<circle cx="218.104" cy="366.364" r="3.64558" transform="rotate(-127.385 218.104 366.364)" fill="black"/>
<circle cx="218.104" cy="366.364" r="3.64558" transform="rotate(-127.385 218.104 366.364)" fill="white"/>
<circle cx="206.777" cy="363.549" r="3.64558" transform="rotate(-127.385 206.777 363.549)" fill="black"/>
<circle cx="206.777" cy="363.549" r="3.64558" transform="rotate(-127.385 206.777 363.549)" fill="black"/>
<circle cx="206.777" cy="363.549" r="3.64558" transform="rotate(-127.385 206.777 363.549)" fill="black"/>
<circle cx="206.777" cy="363.549" r="3.64558" transform="rotate(-127.385 206.777 363.549)" fill="black"/>
<circle cx="206.777" cy="363.549" r="3.64558" transform="rotate(-127.385 206.777 363.549)" fill="white"/>
<circle cx="293.378" cy="61.0872" r="3.64558" transform="rotate(-127.385 293.378 61.0872)" fill="black"/>
<circle cx="293.378" cy="61.0872" r="3.64558" transform="rotate(-127.385 293.378 61.0872)" fill="black"/>
<circle cx="293.378" cy="61.0872" r="3.64558" transform="rotate(-127.385 293.378 61.0872)" fill="black"/>
<circle cx="293.378" cy="61.0872" r="3.64558" transform="rotate(-127.385 293.378 61.0872)" fill="black"/>
<circle cx="293.378" cy="61.0872" r="3.64558" transform="rotate(-127.385 293.378 61.0872)" fill="white"/>
<circle cx="281.327" cy="58.8258" r="3.64558" transform="rotate(-127.385 281.327 58.8258)" fill="black"/>
<circle cx="281.327" cy="58.8258" r="3.64558" transform="rotate(-127.385 281.327 58.8258)" fill="black"/>
<circle cx="281.327" cy="58.8258" r="3.64558" transform="rotate(-127.385 281.327 58.8258)" fill="black"/>
<circle cx="281.327" cy="58.8258" r="3.64558" transform="rotate(-127.385 281.327 58.8258)" fill="black"/>
<circle cx="281.327" cy="58.8258" r="3.64558" transform="rotate(-127.385 281.327 58.8258)" fill="white"/>
</svg>
