<svg width="462" height="528" viewBox="0 0 462 528" fill="none" xmlns="http://www.w3.org/2000/svg">
<rect x="259.174" y="187.207" width="122.448" height="40.4573" transform="rotate(-76.2593 259.174 187.207)" fill="#F9ED32"/>
<rect x="271.578" y="89.5801" width="66.5062" height="63.3868" rx="10" transform="rotate(-76.2593 271.578 89.5801)" fill="#F9ED32"/>
<circle cx="236.634" cy="375.137" r="108.36" transform="rotate(-37.385 236.634 375.137)" fill="#8DC73F"/>
<circle cx="263.769" cy="258.937" r="83.7331" transform="rotate(-37.385 263.769 258.937)" fill="#8DC73F"/>
<circle cx="250.055" cy="310.748" r="41.8665" transform="rotate(-37.385 250.055 310.748)" fill="#F9ED32"/>
<rect x="201.271" y="396.984" width="14.1115" height="51.4637" rx="7.05573" transform="rotate(-76.255 201.271 396.984)" fill="#F9ED32"/>
<line x1="223.509" y1="391.423" x2="304.088" y2="62.0572" stroke="white" stroke-width="2"/>
<line x1="235.937" y1="393.084" x2="316.515" y2="63.7187" stroke="white" stroke-width="2"/>
<circle cx="235.156" cy="395.899" r="3.94038" transform="rotate(-127.385 235.156 395.899)" fill="black"/>
<circle cx="235.156" cy="395.899" r="3.94038" transform="rotate(-127.385 235.156 395.899)" fill="black"/>
<circle cx="235.156" cy="395.899" r="3.94038" transform="rotate(-127.385 235.156 395.899)" fill="black"/>
<circle cx="235.156" cy="395.899" r="3.94038" transform="rotate(-127.385 235.156 395.899)" fill="black"/>
<circle cx="235.156" cy="395.899" r="3.94038" transform="rotate(-127.385 235.156 395.899)" fill="white"/>
<circle cx="222.914" cy="392.857" r="3.94038" transform="rotate(-127.385 222.914 392.857)" fill="black"/>
<circle cx="222.914" cy="392.857" r="3.94038" transform="rotate(-127.385 222.914 392.857)" fill="black"/>
<circle cx="222.914" cy="392.857" r="3.94038" transform="rotate(-127.385 222.914 392.857)" fill="black"/>
<circle cx="222.914" cy="392.857" r="3.94038" transform="rotate(-127.385 222.914 392.857)" fill="black"/>
<circle cx="222.914" cy="392.857" r="3.94038" transform="rotate(-127.385 222.914 392.857)" fill="white"/>
<circle cx="316.518" cy="65.9353" r="3.94038" transform="rotate(-127.385 316.518 65.9353)" fill="black"/>
<circle cx="316.518" cy="65.9353" r="3.94038" transform="rotate(-127.385 316.518 65.9353)" fill="black"/>
<circle cx="316.518" cy="65.9353" r="3.94038" transform="rotate(-127.385 316.518 65.9353)" fill="black"/>
<circle cx="316.518" cy="65.9353" r="3.94038" transform="rotate(-127.385 316.518 65.9353)" fill="black"/>
<circle cx="316.518" cy="65.9353" r="3.94038" transform="rotate(-127.385 316.518 65.9353)" fill="white"/>
<circle cx="303.492" cy="63.4911" r="3.94038" transform="rotate(-127.385 303.492 63.4911)" fill="black"/>
<circle cx="303.492" cy="63.4911" r="3.94038" transform="rotate(-127.385 303.492 63.4911)" fill="black"/>
<circle cx="303.492" cy="63.4911" r="3.94038" transform="rotate(-127.385 303.492 63.4911)" fill="black"/>
<circle cx="303.492" cy="63.4911" r="3.94038" transform="rotate(-127.385 303.492 63.4911)" fill="black"/>
<circle cx="303.492" cy="63.4911" r="3.94038" transform="rotate(-127.385 303.492 63.4911)" fill="white"/>
</svg>
