<svg width="1137" height="160" viewBox="0 0 1137 160" fill="none" xmlns="http://www.w3.org/2000/svg">
<path fill-rule="evenodd" clip-rule="evenodd" d="M439.573 0H421.252V158.779H439.573V18.3206H493.313V1.90735e-06L439.573 0Z" fill="#8DC73F"/>
<path fill-rule="evenodd" clip-rule="evenodd" d="M672.855 0V18.3206H704.611V160H722.932V18.3206H757.13V0H672.855Z" fill="#8DC73F"/>
<path fill-rule="evenodd" clip-rule="evenodd" d="M1083.24 0H1064.92V1.90735e-06H1064.92V18.3206H1064.92V68.3969H1064.92V86.7175H1064.92V140.458H1064.92V158.779L1064.92 158.779H1083.24L1136.98 158.779V140.458H1083.24V86.7175H1136.98V68.3969H1083.24V18.3206H1136.98V1.90735e-06L1083.24 0Z" fill="#8DC73F"/>
<path fill-rule="evenodd" clip-rule="evenodd" d="M188.091 0H206.412H260.152H278.473V141.033C278.473 141.045 278.473 141.057 278.473 141.069C278.473 141.081 278.473 141.093 278.473 141.105V141.679H278.457C277.98 151.178 266.413 158.779 252.213 158.779C237.71 158.779 225.954 150.85 225.954 141.069C225.954 131.288 237.71 123.359 252.213 123.359C254.98 123.359 257.647 123.647 260.152 124.183V54.9618H206.412V141.03L206.412 141.069L206.412 141.107V141.679H206.396C205.919 151.178 194.352 158.779 180.152 158.779C165.649 158.779 153.893 150.85 153.893 141.069C153.893 131.288 165.649 123.359 180.152 123.359C182.919 123.359 185.586 123.647 188.091 124.183V0ZM206.412 18.3206H260.152V36.6412H206.412V18.3206Z" fill="#8DC73F"/>
<path fill-rule="evenodd" clip-rule="evenodd" d="M802.321 0H820.642H874.383H892.703V141.679H892.688C892.211 151.178 880.643 158.779 866.444 158.779C851.941 158.779 840.184 150.85 840.184 141.069C840.184 131.288 851.941 123.359 866.444 123.359C869.211 123.359 871.878 123.647 874.383 124.183V54.9618H820.642V141.03L820.642 141.069L820.642 141.107V141.679H820.627C820.15 151.178 808.582 158.779 794.383 158.779C779.88 158.779 768.123 150.85 768.123 141.069C768.123 131.288 779.88 123.359 794.383 123.359C797.15 123.359 799.817 123.647 802.321 124.183V0ZM820.642 18.3206H874.383V36.6412H820.642V18.3206Z" fill="#8DC73F"/>
<path fill-rule="evenodd" clip-rule="evenodd" d="M544.199 1H562.519V94.9331L616.26 8.93043V1H634.58V142.03C634.58 142.043 634.58 142.056 634.58 142.069C634.58 142.082 634.58 142.094 634.58 142.107V142.679H634.565C634.088 152.178 622.52 159.779 608.321 159.779C593.818 159.779 582.061 151.85 582.061 142.069C582.061 132.288 593.818 124.359 608.321 124.359C611.088 124.359 613.755 124.647 616.26 125.183V43.5029L562.519 129.506V142.679H562.504C562.027 152.178 550.459 159.779 536.26 159.779C521.757 159.779 510 151.85 510 142.069C510 132.288 521.757 124.359 536.26 124.359C539.027 124.359 541.694 124.647 544.199 125.183V1Z" fill="#8DC73F"/>
<path fill-rule="evenodd" clip-rule="evenodd" d="M34.1984 0H52.519V52.5191H105.038V0H123.359V141.679H123.343C122.866 151.178 111.299 158.779 97.0992 158.779C82.5964 158.779 70.8396 150.85 70.8396 141.069C70.8396 131.288 82.5964 123.359 97.0992 123.359C99.8664 123.359 102.534 123.647 105.038 124.183V70.8397H52.519V141.03L52.5191 141.069L52.519 141.107V141.679H52.5038C52.0265 151.178 40.4592 158.779 26.2595 158.779C11.7568 158.779 0 150.85 0 141.069C0 131.288 11.7568 123.359 26.2595 123.359C29.0267 123.359 31.6938 123.647 34.1984 124.183V0Z" fill="#8DC73F"/>
<path fill-rule="evenodd" clip-rule="evenodd" d="M978.809 65.9542C1005.45 65.9542 1027.05 51.1898 1027.05 32.9771C1027.05 14.7644 1005.45 0 978.809 0C952.762 0 931.537 14.1088 930.597 31.7557H930.564V32.9334C930.564 32.9479 930.564 32.9625 930.564 32.9771C930.564 32.9917 930.564 33.0063 930.564 33.0208V158.779H948.885V58.8461C957.109 63.2968 967.505 65.9542 978.809 65.9542Z" fill="#8DC73F"/>
</svg>
