<svg width="1920" height="2880" viewBox="0 0 1920 2880" fill="none" xmlns="http://www.w3.org/2000/svg">
<path fill-rule="evenodd" clip-rule="evenodd" d="M74 4.38084V4.38086V37.2362V289.127H106.855V37.2362H203.231V4.38084H74Z" fill="#8DC73F"/>
<path fill-rule="evenodd" clip-rule="evenodd" d="M481.406 2.19041V35.0458H538.355V289.127H571.211V35.0458H632.541V2.19041H481.406Z" fill="#8DC73F"/>
<path fill-rule="evenodd" clip-rule="evenodd" d="M722.346 70.3806H755.201H851.577H884.432V323.309C884.432 323.328 884.432 323.348 884.432 323.367C884.432 323.386 884.432 323.406 884.432 323.425V324.462H884.405C883.549 341.496 862.804 355.127 837.339 355.127C811.331 355.127 790.247 340.908 790.247 323.367C790.247 305.826 811.331 291.607 837.339 291.607C842.302 291.607 847.085 292.124 851.577 293.084V168.947H755.201V323.312L755.201 323.367L755.201 323.422V324.462H755.174C754.318 341.496 733.573 355.127 708.108 355.127C682.1 355.127 661.016 340.908 661.016 323.367C661.016 305.826 682.1 291.607 708.108 291.607C713.071 291.607 717.854 292.124 722.346 293.084V70.3806ZM755.201 103.236H851.577V136.091H755.201V103.236Z" fill="#8DC73F"/>
<path fill-rule="evenodd" clip-rule="evenodd" d="M1228.32 70.3806H1261.17H1357.55H1390.4V323.309C1390.4 323.328 1390.4 323.348 1390.4 323.367C1390.4 323.386 1390.4 323.406 1390.4 323.425V324.462H1390.38C1389.52 341.496 1368.78 355.127 1343.31 355.127C1317.3 355.127 1296.22 340.908 1296.22 323.367C1296.22 305.826 1317.3 291.607 1343.31 291.607C1348.27 291.607 1353.06 292.124 1357.55 293.084V168.947H1261.17V323.312L1261.17 323.367L1261.17 323.422V324.462H1261.15C1260.29 341.496 1239.55 355.127 1214.08 355.127C1188.07 355.127 1166.99 340.908 1166.99 323.367C1166.99 305.826 1188.07 291.607 1214.08 291.607C1219.04 291.607 1223.83 292.124 1228.32 293.084V70.3806ZM1261.17 103.236H1357.55V136.091H1261.17V103.236Z" fill="#8DC73F"/>
<path fill-rule="evenodd" clip-rule="evenodd" d="M264.561 70.3806H297.416V238.836L393.792 84.6031V70.3806H426.647V323.315C426.647 323.333 426.647 323.35 426.647 323.367C426.647 323.384 426.647 323.401 426.647 323.419V324.462H426.62C425.764 341.496 405.02 355.127 379.554 355.127C353.546 355.127 332.462 340.908 332.462 323.367C332.462 305.826 353.546 291.607 379.554 291.607C384.517 291.607 389.3 292.124 393.792 293.084V146.604L297.416 300.837V324.462H297.388C296.533 341.496 275.788 355.127 250.323 355.127C224.315 355.127 203.23 340.908 203.23 323.367C203.23 305.826 224.315 291.607 250.323 291.607C255.286 291.607 260.069 292.124 264.561 293.084V70.3806Z" fill="#8DC73F"/>
<path fill-rule="evenodd" clip-rule="evenodd" d="M1445.16 0H1478.02V35.4908C1486.66 28.5248 1499.64 24.094 1514.16 24.094C1540.17 24.094 1561.25 38.3135 1561.25 55.8541C1561.25 73.3948 1540.17 87.6143 1514.16 87.6143C1499.64 87.6143 1486.66 83.1835 1478.02 76.2175V179.215C1492.77 171.233 1511.41 166.467 1531.68 166.467C1579.47 166.467 1618.2 192.945 1618.2 225.607C1618.2 258.269 1579.47 284.747 1531.68 284.747C1484.97 284.747 1446.91 259.444 1445.22 227.797H1445.16V225.646C1445.16 225.633 1445.16 225.62 1445.16 225.607C1445.16 225.594 1445.16 225.581 1445.16 225.567V0Z" fill="#8DC73F"/>
<path fill-rule="evenodd" clip-rule="evenodd" d="M1759.48 188.279C1807.26 188.279 1846 161.802 1846 129.14C1846 96.4777 1807.26 70 1759.48 70C1712.77 70 1674.7 95.3021 1673.02 126.949H1672.96V354.747H1705.82V175.532C1720.56 183.514 1739.21 188.279 1759.48 188.279Z" fill="#8DC73F"/>
<path fill-rule="evenodd" clip-rule="evenodd" d="M1098.59 60.0062C1097.99 61.1414 1097.3 62.2077 1096.52 63.2043L1063.28 120.088L1105.23 203.155C1106.88 205.789 1108.27 208.521 1109.36 211.337L1110.01 212.624L1109.86 212.699C1111.41 217.127 1112.23 221.748 1112.23 226.5C1112.23 259.162 1073.49 285.64 1025.71 285.64C977.927 285.64 939.192 259.162 939.192 226.5C939.192 193.838 977.927 167.361 1025.71 167.361C1034.77 167.361 1043.51 168.313 1051.72 170.079L1025.98 119.113L1025.84 119.033L1053.96 70.9045C1050.01 69.677 1046.02 68.0269 1042.1 65.9442C1019.14 53.7356 1007.2 31.283 1015.43 15.7949C1023.66 0.306819 1048.96 -2.35173 1071.92 9.85689C1094.89 22.0655 1106.83 44.5181 1098.59 60.0062Z" fill="#8DC73F"/>
<path fill-rule="evenodd" clip-rule="evenodd" d="M74 387.381V387.381V420.236V672.127H106.855V420.236H203.231V387.381H74Z" fill="#8DC73F"/>
<path fill-rule="evenodd" clip-rule="evenodd" d="M481.406 385.19V418.046H538.355V672.127H571.211V418.046H632.541V385.19H481.406Z" fill="#8DC73F"/>
<path fill-rule="evenodd" clip-rule="evenodd" d="M722.346 415.381H755.201H851.577H884.432V668.309C884.432 668.328 884.432 668.348 884.432 668.367C884.432 668.386 884.432 668.406 884.432 668.425V669.462H884.405C883.549 686.496 862.804 700.127 837.339 700.127C811.331 700.127 790.247 685.908 790.247 668.367C790.247 650.826 811.331 636.607 837.339 636.607C842.302 636.607 847.085 637.124 851.577 638.084V513.947H755.201V668.312L755.201 668.367L755.201 668.422V669.462H755.174C754.318 686.496 733.573 700.127 708.108 700.127C682.1 700.127 661.016 685.908 661.016 668.367C661.016 650.826 682.1 636.607 708.108 636.607C713.071 636.607 717.854 637.124 722.346 638.084V415.381ZM755.201 448.236H851.577V481.091H755.201V448.236Z" fill="#8DC73F"/>
<path fill-rule="evenodd" clip-rule="evenodd" d="M1228.32 415.381H1261.17H1357.55H1390.4V668.309C1390.4 668.328 1390.4 668.348 1390.4 668.367C1390.4 668.386 1390.4 668.406 1390.4 668.425V669.462H1390.38C1389.52 686.496 1368.78 700.127 1343.31 700.127C1317.3 700.127 1296.22 685.908 1296.22 668.367C1296.22 650.826 1317.3 636.607 1343.31 636.607C1348.27 636.607 1353.06 637.124 1357.55 638.084V513.947H1261.17V668.312L1261.17 668.367L1261.17 668.422V669.462H1261.15C1260.29 686.496 1239.55 700.127 1214.08 700.127C1188.07 700.127 1166.99 685.908 1166.99 668.367C1166.99 650.826 1188.07 636.607 1214.08 636.607C1219.04 636.607 1223.83 637.124 1228.32 638.084V415.381ZM1261.17 448.236H1357.55V481.091H1261.17V448.236Z" fill="#8DC73F"/>
<path fill-rule="evenodd" clip-rule="evenodd" d="M264.561 415.381H297.416V583.836L393.792 429.603V415.381H426.647V668.315C426.647 668.333 426.647 668.35 426.647 668.367C426.647 668.384 426.647 668.401 426.647 668.419V669.462H426.62C425.764 686.496 405.02 700.127 379.555 700.127C353.546 700.127 332.462 685.908 332.462 668.367C332.462 650.826 353.546 636.607 379.555 636.607C384.517 636.607 389.3 637.124 393.792 638.084V491.604L297.416 645.837V669.462H297.388C296.533 686.496 275.788 700.127 250.323 700.127C224.315 700.127 203.231 685.908 203.231 668.367C203.231 650.826 224.315 636.607 250.323 636.607C255.286 636.607 260.069 637.124 264.561 638.084V415.381Z" fill="#8DC73F"/>
<path fill-rule="evenodd" clip-rule="evenodd" d="M1445.16 386H1478.02V421.491C1486.66 414.525 1499.64 410.094 1514.16 410.094C1540.17 410.094 1561.25 424.313 1561.25 441.854C1561.25 459.395 1540.17 473.614 1514.16 473.614C1499.64 473.614 1486.66 469.184 1478.02 462.217V565.215C1492.77 557.233 1511.41 552.467 1531.68 552.467C1579.47 552.467 1618.2 578.945 1618.2 611.607C1618.2 644.269 1579.47 670.747 1531.68 670.747C1484.97 670.747 1446.91 645.444 1445.22 613.797H1445.16V611.646C1445.16 611.633 1445.16 611.62 1445.16 611.607C1445.16 611.594 1445.16 611.581 1445.16 611.567V386Z" fill="#8DC73F"/>
<path fill-rule="evenodd" clip-rule="evenodd" d="M1759.48 532.279C1807.26 532.279 1846 505.802 1846 473.14C1846 440.478 1807.26 414 1759.48 414C1712.77 414 1674.7 439.302 1673.02 470.949H1672.96V698.747H1705.82V519.532C1720.56 527.514 1739.21 532.279 1759.48 532.279Z" fill="#8DC73F"/>
<path fill-rule="evenodd" clip-rule="evenodd" d="M1098.59 443.006C1097.99 444.141 1097.3 445.208 1096.52 446.204L1063.28 503.088L1105.23 586.155C1106.88 588.789 1108.27 591.521 1109.36 594.337L1110.01 595.624L1109.86 595.699C1111.41 600.127 1112.23 604.748 1112.23 609.5C1112.23 642.162 1073.49 668.64 1025.71 668.64C977.927 668.64 939.192 642.162 939.192 609.5C939.192 576.838 977.927 550.361 1025.71 550.361C1034.77 550.361 1043.51 551.313 1051.72 553.079L1025.98 502.113L1025.84 502.033L1053.96 453.904C1050.01 452.677 1046.02 451.027 1042.1 448.944C1019.14 436.736 1007.2 414.283 1015.43 398.795C1023.66 383.307 1048.96 380.648 1071.92 392.857C1094.89 405.066 1106.83 427.518 1098.59 443.006Z" fill="#8DC73F"/>
<path fill-rule="evenodd" clip-rule="evenodd" d="M74 2543.19V2543.19V2576.05V2827.94H106.855V2576.05H203.231V2543.19H74Z" fill="#8DC73F"/>
<path fill-rule="evenodd" clip-rule="evenodd" d="M481.406 2541V2573.86H538.355V2827.94H571.211V2573.86H632.541V2541H481.406Z" fill="#8DC73F"/>
<path fill-rule="evenodd" clip-rule="evenodd" d="M722.346 2568.19H755.201H851.577H884.432V2821.12C884.432 2821.14 884.432 2821.16 884.432 2821.18C884.432 2821.2 884.432 2821.22 884.432 2821.23V2822.27H884.405C883.549 2839.31 862.804 2852.94 837.339 2852.94C811.331 2852.94 790.247 2838.72 790.247 2821.18C790.247 2803.64 811.331 2789.42 837.339 2789.42C842.302 2789.42 847.085 2789.93 851.577 2790.89V2666.76H755.201V2821.12L755.201 2821.18L755.201 2821.23V2822.27H755.174C754.318 2839.31 733.573 2852.94 708.108 2852.94C682.1 2852.94 661.016 2838.72 661.016 2821.18C661.016 2803.64 682.1 2789.42 708.108 2789.42C713.071 2789.42 717.854 2789.93 722.346 2790.89V2568.19ZM755.201 2601.05H851.577V2633.9H755.201V2601.05Z" fill="#8DC73F"/>
<path fill-rule="evenodd" clip-rule="evenodd" d="M1228.32 2568.19H1261.17H1357.55H1390.4V2821.12C1390.4 2821.14 1390.4 2821.16 1390.4 2821.18C1390.4 2821.2 1390.4 2821.22 1390.4 2821.23V2822.27H1390.38C1389.52 2839.31 1368.78 2852.94 1343.31 2852.94C1317.3 2852.94 1296.22 2838.72 1296.22 2821.18C1296.22 2803.64 1317.3 2789.42 1343.31 2789.42C1348.27 2789.42 1353.06 2789.93 1357.55 2790.89V2666.76H1261.17V2821.12L1261.17 2821.18L1261.17 2821.23V2822.27H1261.15C1260.29 2839.31 1239.55 2852.94 1214.08 2852.94C1188.07 2852.94 1166.99 2838.72 1166.99 2821.18C1166.99 2803.64 1188.07 2789.42 1214.08 2789.42C1219.04 2789.42 1223.83 2789.93 1228.32 2790.89V2568.19ZM1261.17 2601.05H1357.55V2633.9H1261.17V2601.05Z" fill="#8DC73F"/>
<path fill-rule="evenodd" clip-rule="evenodd" d="M264.561 2568.19H297.416V2736.65L393.792 2582.41V2568.19H426.647V2821.12C426.647 2821.14 426.647 2821.16 426.647 2821.18C426.647 2821.19 426.647 2821.21 426.647 2821.23V2822.27H426.62C425.764 2839.31 405.02 2852.94 379.554 2852.94C353.546 2852.94 332.462 2838.72 332.462 2821.18C332.462 2803.64 353.546 2789.42 379.554 2789.42C384.517 2789.42 389.3 2789.93 393.792 2790.89V2644.41L297.416 2798.65V2822.27H297.388C296.533 2839.31 275.788 2852.94 250.323 2852.94C224.315 2852.94 203.23 2838.72 203.23 2821.18C203.23 2803.64 224.315 2789.42 250.323 2789.42C255.286 2789.42 260.069 2789.93 264.561 2790.89V2568.19Z" fill="#8DC73F"/>
<path fill-rule="evenodd" clip-rule="evenodd" d="M1445.16 2541.81H1478.02V2577.3C1486.66 2570.33 1499.64 2565.9 1514.16 2565.9C1540.17 2565.9 1561.25 2580.12 1561.25 2597.66C1561.25 2615.2 1540.17 2629.42 1514.16 2629.42C1499.64 2629.42 1486.66 2624.99 1478.02 2618.03V2721.02C1492.77 2713.04 1511.41 2708.28 1531.68 2708.28C1579.47 2708.28 1618.2 2734.75 1618.2 2767.42C1618.2 2800.08 1579.47 2826.56 1531.68 2826.56C1484.97 2826.56 1446.91 2801.25 1445.22 2769.61H1445.16V2767.46C1445.16 2767.44 1445.16 2767.43 1445.16 2767.42C1445.16 2767.4 1445.16 2767.39 1445.16 2767.38V2541.81Z" fill="#8DC73F"/>
<path fill-rule="evenodd" clip-rule="evenodd" d="M1759.48 2686.09C1807.26 2686.09 1846 2659.61 1846 2626.95C1846 2594.29 1807.26 2567.81 1759.48 2567.81C1712.77 2567.81 1674.7 2593.11 1673.02 2624.76H1672.96V2852.56H1705.82V2673.34C1720.56 2681.32 1739.21 2686.09 1759.48 2686.09Z" fill="#8DC73F"/>
<path fill-rule="evenodd" clip-rule="evenodd" d="M1098.59 2598.82C1097.99 2599.95 1097.3 2601.02 1096.52 2602.01L1063.28 2658.9L1105.23 2741.96C1106.88 2744.6 1108.27 2747.33 1109.36 2750.15L1110.01 2751.43L1109.86 2751.51C1111.41 2755.94 1112.23 2760.56 1112.23 2765.31C1112.23 2797.97 1073.49 2824.45 1025.71 2824.45C977.927 2824.45 939.192 2797.97 939.192 2765.31C939.192 2732.65 977.927 2706.17 1025.71 2706.17C1034.77 2706.17 1043.51 2707.12 1051.72 2708.89L1025.98 2657.92L1025.84 2657.84L1053.96 2609.71C1050.01 2608.49 1046.02 2606.84 1042.1 2604.75C1019.14 2592.55 1007.2 2570.09 1015.43 2554.6C1023.66 2539.12 1048.96 2536.46 1071.92 2548.67C1094.89 2560.88 1106.83 2583.33 1098.59 2598.82Z" fill="#8DC73F"/>
<path fill-rule="evenodd" clip-rule="evenodd" d="M74 757V757V789.855V1041.75H106.855V789.855H203.231V757H74Z" fill="#8DC73F"/>
<path fill-rule="evenodd" clip-rule="evenodd" d="M481.406 756V788.855H538.355V1042.94H571.211V788.855H632.541V756H481.406Z" fill="#8DC73F"/>
<path fill-rule="evenodd" clip-rule="evenodd" d="M722.346 757H755.201H851.577H884.432V1009.93C884.432 1009.95 884.432 1009.97 884.432 1009.99C884.432 1010.01 884.432 1010.02 884.432 1010.04V1011.08H884.405C883.549 1028.12 862.804 1041.75 837.339 1041.75C811.331 1041.75 790.247 1027.53 790.247 1009.99C790.247 992.446 811.331 978.226 837.339 978.226C842.302 978.226 847.085 978.744 851.577 979.703V855.566H755.201V1009.93L755.201 1009.99L755.201 1010.04V1011.08H755.174C754.318 1028.12 733.573 1041.75 708.108 1041.75C682.1 1041.75 661.016 1027.53 661.016 1009.99C661.016 992.446 682.1 978.226 708.108 978.226C713.071 978.226 717.854 978.744 722.346 979.703V757ZM755.201 789.855H851.577V822.711H755.201V789.855Z" fill="#8DC73F"/>
<path fill-rule="evenodd" clip-rule="evenodd" d="M1228.32 757H1261.17H1357.55H1390.4V1009.93C1390.4 1009.95 1390.4 1009.97 1390.4 1009.99C1390.4 1010.01 1390.4 1010.02 1390.4 1010.04V1011.08H1390.38C1389.52 1028.12 1368.78 1041.75 1343.31 1041.75C1317.3 1041.75 1296.22 1027.53 1296.22 1009.99C1296.22 992.446 1317.3 978.226 1343.31 978.226C1348.27 978.226 1353.06 978.744 1357.55 979.703V855.566H1261.17V1009.93L1261.17 1009.99L1261.17 1010.04V1011.08H1261.15C1260.29 1028.12 1239.55 1041.75 1214.08 1041.75C1188.07 1041.75 1166.99 1027.53 1166.99 1009.99C1166.99 992.446 1188.07 978.226 1214.08 978.226C1219.04 978.226 1223.83 978.744 1228.32 979.703V757ZM1261.17 789.855H1357.55V822.711H1261.17V789.855Z" fill="#8DC73F"/>
<path fill-rule="evenodd" clip-rule="evenodd" d="M264.561 757H297.416V925.456L393.792 771.222V757H426.647V1009.93C426.647 1009.95 426.647 1009.97 426.647 1009.99C426.647 1010 426.647 1010.02 426.647 1010.04V1011.08H426.62C425.764 1028.12 405.02 1041.75 379.555 1041.75C353.546 1041.75 332.462 1027.53 332.462 1009.99C332.462 992.446 353.546 978.226 379.555 978.226C384.517 978.226 389.3 978.744 393.792 979.703V833.223L297.416 987.457V1011.08H297.388C296.533 1028.12 275.788 1041.75 250.323 1041.75C224.315 1041.75 203.231 1027.53 203.231 1009.99C203.231 992.446 224.315 978.226 250.323 978.226C255.286 978.226 260.069 978.744 264.561 979.703V757Z" fill="#8DC73F"/>
<path fill-rule="evenodd" clip-rule="evenodd" d="M1445.16 757H1478.02V792.491C1486.66 785.525 1499.64 781.094 1514.16 781.094C1540.17 781.094 1561.25 795.313 1561.25 812.854C1561.25 830.395 1540.17 844.614 1514.16 844.614C1499.64 844.614 1486.66 840.184 1478.02 833.217V936.215C1492.77 928.233 1511.41 923.467 1531.68 923.467C1579.47 923.467 1618.2 949.945 1618.2 982.607C1618.2 1015.27 1579.47 1041.75 1531.68 1041.75C1484.97 1041.75 1446.91 1016.44 1445.22 984.797H1445.16V982.646C1445.16 982.633 1445.16 982.62 1445.16 982.607C1445.16 982.594 1445.16 982.581 1445.16 982.567V757Z" fill="#8DC73F"/>
<path fill-rule="evenodd" clip-rule="evenodd" d="M1759.48 875.279C1807.26 875.279 1846 848.802 1846 816.14C1846 783.478 1807.26 757 1759.48 757C1712.77 757 1674.7 782.302 1673.02 813.949H1672.96V1041.75H1705.82V862.532C1720.56 870.514 1739.21 875.279 1759.48 875.279Z" fill="#8DC73F"/>
<path fill-rule="evenodd" clip-rule="evenodd" d="M1098.59 815.816C1097.99 816.951 1097.3 818.017 1096.52 819.014L1063.28 875.898L1105.23 958.964C1106.88 961.598 1108.27 964.331 1109.36 967.146L1110.01 968.434L1109.86 968.509C1111.41 972.937 1112.23 977.558 1112.23 982.31C1112.23 1014.97 1073.49 1041.45 1025.71 1041.45C977.927 1041.45 939.192 1014.97 939.192 982.31C939.192 949.648 977.927 923.17 1025.71 923.17C1034.77 923.17 1043.51 924.122 1051.72 925.888L1025.98 874.922L1025.84 874.843L1053.96 826.714C1050.01 825.487 1046.02 823.837 1042.1 821.754C1019.14 809.545 1007.2 787.093 1015.43 771.604C1023.66 756.116 1048.96 753.458 1071.92 765.666C1094.89 777.875 1106.83 800.328 1098.59 815.816Z" fill="#8DC73F"/>
<path fill-rule="evenodd" clip-rule="evenodd" d="M74 2199V2199V2231.86V2483.75H106.855V2231.86H203.231V2199H74Z" fill="#8DC73F"/>
<path fill-rule="evenodd" clip-rule="evenodd" d="M481.406 2198V2230.86H538.355V2484.94H571.211V2230.86H632.541V2198H481.406Z" fill="#8DC73F"/>
<path fill-rule="evenodd" clip-rule="evenodd" d="M722.346 2199H755.201H851.577H884.432V2451.93C884.432 2451.95 884.432 2451.97 884.432 2451.99C884.432 2452.01 884.432 2452.02 884.432 2452.04V2453.08H884.405C883.549 2470.12 862.804 2483.75 837.339 2483.75C811.331 2483.75 790.247 2469.53 790.247 2451.99C790.247 2434.45 811.331 2420.23 837.339 2420.23C842.302 2420.23 847.085 2420.74 851.577 2421.7V2297.57H755.201V2451.93L755.201 2451.99L755.201 2452.04V2453.08H755.174C754.318 2470.12 733.573 2483.75 708.108 2483.75C682.1 2483.75 661.016 2469.53 661.016 2451.99C661.016 2434.45 682.1 2420.23 708.108 2420.23C713.071 2420.23 717.854 2420.74 722.346 2421.7V2199ZM755.201 2231.86H851.577V2264.71H755.201V2231.86Z" fill="#8DC73F"/>
<path fill-rule="evenodd" clip-rule="evenodd" d="M1228.32 2199H1261.17H1357.55H1390.4V2451.93C1390.4 2451.95 1390.4 2451.97 1390.4 2451.99C1390.4 2452.01 1390.4 2452.02 1390.4 2452.04V2453.08H1390.38C1389.52 2470.12 1368.78 2483.75 1343.31 2483.75C1317.3 2483.75 1296.22 2469.53 1296.22 2451.99C1296.22 2434.45 1317.3 2420.23 1343.31 2420.23C1348.27 2420.23 1353.06 2420.74 1357.55 2421.7V2297.57H1261.17V2451.93L1261.17 2451.99L1261.17 2452.04V2453.08H1261.15C1260.29 2470.12 1239.55 2483.75 1214.08 2483.75C1188.07 2483.75 1166.99 2469.53 1166.99 2451.99C1166.99 2434.45 1188.07 2420.23 1214.08 2420.23C1219.04 2420.23 1223.83 2420.74 1228.32 2421.7V2199ZM1261.17 2231.86H1357.55V2264.71H1261.17V2231.86Z" fill="#8DC73F"/>
<path fill-rule="evenodd" clip-rule="evenodd" d="M264.561 2199H297.416V2367.46L393.792 2213.22V2199H426.647V2451.93C426.647 2451.95 426.647 2451.97 426.647 2451.99C426.647 2452 426.647 2452.02 426.647 2452.04V2453.08H426.62C425.764 2470.12 405.02 2483.75 379.555 2483.75C353.546 2483.75 332.462 2469.53 332.462 2451.99C332.462 2434.45 353.546 2420.23 379.555 2420.23C384.517 2420.23 389.3 2420.74 393.792 2421.7V2275.22L297.416 2429.46V2453.08H297.388C296.533 2470.12 275.788 2483.75 250.323 2483.75C224.315 2483.75 203.231 2469.53 203.231 2451.99C203.231 2434.45 224.315 2420.23 250.323 2420.23C255.286 2420.23 260.069 2420.74 264.561 2421.7V2199Z" fill="#8DC73F"/>
<path fill-rule="evenodd" clip-rule="evenodd" d="M1445.16 2199H1478.02V2234.49C1486.66 2227.52 1499.64 2223.09 1514.16 2223.09C1540.17 2223.09 1561.25 2237.31 1561.25 2254.85C1561.25 2272.39 1540.17 2286.61 1514.16 2286.61C1499.64 2286.61 1486.66 2282.18 1478.02 2275.22V2378.21C1492.77 2370.23 1511.41 2365.47 1531.68 2365.47C1579.47 2365.47 1618.2 2391.94 1618.2 2424.61C1618.2 2457.27 1579.47 2483.75 1531.68 2483.75C1484.97 2483.75 1446.91 2458.44 1445.22 2426.8H1445.16V2424.65C1445.16 2424.63 1445.16 2424.62 1445.16 2424.61C1445.16 2424.59 1445.16 2424.58 1445.16 2424.57V2199Z" fill="#8DC73F"/>
<path fill-rule="evenodd" clip-rule="evenodd" d="M1759.48 2317.28C1807.26 2317.28 1846 2290.8 1846 2258.14C1846 2225.48 1807.26 2199 1759.48 2199C1712.77 2199 1674.7 2224.3 1673.02 2255.95H1672.96V2483.75H1705.82V2304.53C1720.56 2312.51 1739.21 2317.28 1759.48 2317.28Z" fill="#8DC73F"/>
<path fill-rule="evenodd" clip-rule="evenodd" d="M1098.59 2257.82C1097.99 2258.95 1097.3 2260.02 1096.52 2261.01L1063.28 2317.9L1105.23 2400.96C1106.88 2403.6 1108.27 2406.33 1109.36 2409.15L1110.01 2410.43L1109.86 2410.51C1111.41 2414.94 1112.23 2419.56 1112.23 2424.31C1112.23 2456.97 1073.49 2483.45 1025.71 2483.45C977.927 2483.45 939.192 2456.97 939.192 2424.31C939.192 2391.65 977.927 2365.17 1025.71 2365.17C1034.77 2365.17 1043.51 2366.12 1051.72 2367.89L1025.98 2316.92L1025.84 2316.84L1053.96 2268.71C1050.01 2267.49 1046.02 2265.84 1042.1 2263.75C1019.14 2251.55 1007.2 2229.09 1015.43 2213.6C1023.66 2198.12 1048.96 2195.46 1071.92 2207.67C1094.89 2219.88 1106.83 2242.33 1098.59 2257.82Z" fill="#8DC73F"/>
<path fill-rule="evenodd" clip-rule="evenodd" d="M74 1128V1128V1160.86V1412.75H106.855V1160.86H203.231V1128H74Z" fill="#8DC73F"/>
<path fill-rule="evenodd" clip-rule="evenodd" d="M481.406 1127V1159.86H538.355V1413.94H571.211V1159.86H632.541V1127H481.406Z" fill="#8DC73F"/>
<path fill-rule="evenodd" clip-rule="evenodd" d="M722.346 1108H755.201H851.577H884.432V1360.93C884.432 1360.95 884.432 1360.97 884.432 1360.99C884.432 1361.01 884.432 1361.02 884.432 1361.04V1362.08H884.405C883.549 1379.12 862.804 1392.75 837.339 1392.75C811.331 1392.75 790.247 1378.53 790.247 1360.99C790.247 1343.45 811.331 1329.23 837.339 1329.23C842.302 1329.23 847.085 1329.74 851.577 1330.7V1206.57H755.201V1360.93L755.201 1360.99L755.201 1361.04V1362.08H755.174C754.318 1379.12 733.573 1392.75 708.108 1392.75C682.1 1392.75 661.016 1378.53 661.016 1360.99C661.016 1343.45 682.1 1329.23 708.108 1329.23C713.071 1329.23 717.854 1329.74 722.346 1330.7V1108ZM755.201 1140.86H851.577V1173.71H755.201V1140.86Z" fill="#8DC73F"/>
<path fill-rule="evenodd" clip-rule="evenodd" d="M1228.32 1108H1261.17H1357.55H1390.4V1360.93C1390.4 1360.95 1390.4 1360.97 1390.4 1360.99C1390.4 1361.01 1390.4 1361.02 1390.4 1361.04V1362.08H1390.38C1389.52 1379.12 1368.78 1392.75 1343.31 1392.75C1317.3 1392.75 1296.22 1378.53 1296.22 1360.99C1296.22 1343.45 1317.3 1329.23 1343.31 1329.23C1348.27 1329.23 1353.06 1329.74 1357.55 1330.7V1206.57H1261.17V1360.93L1261.17 1360.99L1261.17 1361.04V1362.08H1261.15C1260.29 1379.12 1239.55 1392.75 1214.08 1392.75C1188.07 1392.75 1166.99 1378.53 1166.99 1360.99C1166.99 1343.45 1188.07 1329.23 1214.08 1329.23C1219.04 1329.23 1223.83 1329.74 1228.32 1330.7V1108ZM1261.17 1140.86H1357.55V1173.71H1261.17V1140.86Z" fill="#8DC73F"/>
<path fill-rule="evenodd" clip-rule="evenodd" d="M264.561 1108H297.416V1276.46L393.792 1122.22V1108H426.647V1360.93C426.647 1360.95 426.647 1360.97 426.647 1360.99C426.647 1361 426.647 1361.02 426.647 1361.04V1362.08H426.62C425.764 1379.12 405.02 1392.75 379.555 1392.75C353.546 1392.75 332.462 1378.53 332.462 1360.99C332.462 1343.45 353.546 1329.23 379.555 1329.23C384.517 1329.23 389.3 1329.74 393.792 1330.7V1184.22L297.416 1338.46V1362.08H297.388C296.533 1379.12 275.788 1392.75 250.323 1392.75C224.315 1392.75 203.231 1378.53 203.231 1360.99C203.231 1343.45 224.315 1329.23 250.323 1329.23C255.286 1329.23 260.069 1329.74 264.561 1330.7V1108Z" fill="#8DC73F"/>
<path fill-rule="evenodd" clip-rule="evenodd" d="M1445.16 1128H1478.02V1163.49C1486.66 1156.52 1499.64 1152.09 1514.16 1152.09C1540.17 1152.09 1561.25 1166.31 1561.25 1183.85C1561.25 1201.39 1540.17 1215.61 1514.16 1215.61C1499.64 1215.61 1486.66 1211.18 1478.02 1204.22V1307.21C1492.77 1299.23 1511.41 1294.47 1531.68 1294.47C1579.47 1294.47 1618.2 1320.94 1618.2 1353.61C1618.2 1386.27 1579.47 1412.75 1531.68 1412.75C1484.97 1412.75 1446.91 1387.44 1445.22 1355.8H1445.16V1353.65C1445.16 1353.63 1445.16 1353.62 1445.16 1353.61C1445.16 1353.59 1445.16 1353.58 1445.16 1353.57V1128Z" fill="#8DC73F"/>
<path fill-rule="evenodd" clip-rule="evenodd" d="M1759.48 1226.28C1807.26 1226.28 1846 1199.8 1846 1167.14C1846 1134.48 1807.26 1108 1759.48 1108C1712.77 1108 1674.7 1133.3 1673.02 1164.95H1672.96V1392.75H1705.82V1213.53C1720.56 1221.51 1739.21 1226.28 1759.48 1226.28Z" fill="#8DC73F"/>
<path fill-rule="evenodd" clip-rule="evenodd" d="M1098.59 1186.82C1097.99 1187.95 1097.3 1189.02 1096.52 1190.01L1063.28 1246.9L1105.23 1329.96C1106.88 1332.6 1108.27 1335.33 1109.36 1338.15L1110.01 1339.43L1109.86 1339.51C1111.41 1343.94 1112.23 1348.56 1112.23 1353.31C1112.23 1385.97 1073.49 1412.45 1025.71 1412.45C977.927 1412.45 939.192 1385.97 939.192 1353.31C939.192 1320.65 977.927 1294.17 1025.71 1294.17C1034.77 1294.17 1043.51 1295.12 1051.72 1296.89L1025.98 1245.92L1025.84 1245.84L1053.96 1197.71C1050.01 1196.49 1046.02 1194.84 1042.1 1192.75C1019.14 1180.55 1007.2 1158.09 1015.43 1142.6C1023.66 1127.12 1048.96 1124.46 1071.92 1136.67C1094.89 1148.88 1106.83 1171.33 1098.59 1186.82Z" fill="#8DC73F"/>
<path fill-rule="evenodd" clip-rule="evenodd" d="M74 1847V1847V1879.86V2131.75H106.855V1879.86H203.231V1847H74Z" fill="#8DC73F"/>
<path fill-rule="evenodd" clip-rule="evenodd" d="M481.406 1846V1878.86H538.355V2132.94H571.211V1878.86H632.541V1846H481.406Z" fill="#8DC73F"/>
<path fill-rule="evenodd" clip-rule="evenodd" d="M722.346 1827H755.201H851.577H884.432V2079.93C884.432 2079.95 884.432 2079.97 884.432 2079.99C884.432 2080.01 884.432 2080.02 884.432 2080.04V2081.08H884.405C883.549 2098.12 862.804 2111.75 837.339 2111.75C811.331 2111.75 790.247 2097.53 790.247 2079.99C790.247 2062.45 811.331 2048.23 837.339 2048.23C842.302 2048.23 847.085 2048.74 851.577 2049.7V1925.57H755.201V2079.93L755.201 2079.99L755.201 2080.04V2081.08H755.174C754.318 2098.12 733.573 2111.75 708.108 2111.75C682.1 2111.75 661.016 2097.53 661.016 2079.99C661.016 2062.45 682.1 2048.23 708.108 2048.23C713.071 2048.23 717.854 2048.74 722.346 2049.7V1827ZM755.201 1859.86H851.577V1892.71H755.201V1859.86Z" fill="#8DC73F"/>
<path fill-rule="evenodd" clip-rule="evenodd" d="M1228.32 1827H1261.17H1357.55H1390.4V2079.93C1390.4 2079.95 1390.4 2079.97 1390.4 2079.99C1390.4 2080.01 1390.4 2080.02 1390.4 2080.04V2081.08H1390.38C1389.52 2098.12 1368.78 2111.75 1343.31 2111.75C1317.3 2111.75 1296.22 2097.53 1296.22 2079.99C1296.22 2062.45 1317.3 2048.23 1343.31 2048.23C1348.27 2048.23 1353.06 2048.74 1357.55 2049.7V1925.57H1261.17V2079.93L1261.17 2079.99L1261.17 2080.04V2081.08H1261.15C1260.29 2098.12 1239.55 2111.75 1214.08 2111.75C1188.07 2111.75 1166.99 2097.53 1166.99 2079.99C1166.99 2062.45 1188.07 2048.23 1214.08 2048.23C1219.04 2048.23 1223.83 2048.74 1228.32 2049.7V1827ZM1261.17 1859.86H1357.55V1892.71H1261.17V1859.86Z" fill="#8DC73F"/>
<path fill-rule="evenodd" clip-rule="evenodd" d="M264.561 1827H297.416V1995.46L393.792 1841.22V1827H426.647V2079.93C426.647 2079.95 426.647 2079.97 426.647 2079.99C426.647 2080 426.647 2080.02 426.647 2080.04V2081.08H426.62C425.764 2098.12 405.02 2111.75 379.555 2111.75C353.546 2111.75 332.462 2097.53 332.462 2079.99C332.462 2062.45 353.546 2048.23 379.555 2048.23C384.517 2048.23 389.3 2048.74 393.792 2049.7V1903.22L297.416 2057.46V2081.08H297.388C296.533 2098.12 275.788 2111.75 250.323 2111.75C224.315 2111.75 203.231 2097.53 203.231 2079.99C203.231 2062.45 224.315 2048.23 250.323 2048.23C255.286 2048.23 260.069 2048.74 264.561 2049.7V1827Z" fill="#8DC73F"/>
<path fill-rule="evenodd" clip-rule="evenodd" d="M1445.16 1847H1478.02V1882.49C1486.66 1875.52 1499.64 1871.09 1514.16 1871.09C1540.17 1871.09 1561.25 1885.31 1561.25 1902.85C1561.25 1920.39 1540.17 1934.61 1514.16 1934.61C1499.64 1934.61 1486.66 1930.18 1478.02 1923.22V2026.21C1492.77 2018.23 1511.41 2013.47 1531.68 2013.47C1579.47 2013.47 1618.2 2039.94 1618.2 2072.61C1618.2 2105.27 1579.47 2131.75 1531.68 2131.75C1484.97 2131.75 1446.91 2106.44 1445.22 2074.8H1445.16V2072.65C1445.16 2072.63 1445.16 2072.62 1445.16 2072.61C1445.16 2072.59 1445.16 2072.58 1445.16 2072.57V1847Z" fill="#8DC73F"/>
<path fill-rule="evenodd" clip-rule="evenodd" d="M1759.48 1945.28C1807.26 1945.28 1846 1918.8 1846 1886.14C1846 1853.48 1807.26 1827 1759.48 1827C1712.77 1827 1674.7 1852.3 1673.02 1883.95H1672.96V2111.75H1705.82V1932.53C1720.56 1940.51 1739.21 1945.28 1759.48 1945.28Z" fill="#8DC73F"/>
<path fill-rule="evenodd" clip-rule="evenodd" d="M1098.59 1905.82C1097.99 1906.95 1097.3 1908.02 1096.52 1909.01L1063.28 1965.9L1105.23 2048.96C1106.88 2051.6 1108.27 2054.33 1109.36 2057.15L1110.01 2058.43L1109.86 2058.51C1111.41 2062.94 1112.23 2067.56 1112.23 2072.31C1112.23 2104.97 1073.49 2131.45 1025.71 2131.45C977.927 2131.45 939.192 2104.97 939.192 2072.31C939.192 2039.65 977.927 2013.17 1025.71 2013.17C1034.77 2013.17 1043.51 2014.12 1051.72 2015.89L1025.98 1964.92L1025.84 1964.84L1053.96 1916.71C1050.01 1915.49 1046.02 1913.84 1042.1 1911.75C1019.14 1899.55 1007.2 1877.09 1015.43 1861.6C1023.66 1846.12 1048.96 1843.46 1071.92 1855.67C1094.89 1867.88 1106.83 1890.33 1098.59 1905.82Z" fill="#8DC73F"/>
<path fill-rule="evenodd" clip-rule="evenodd" d="M74 1497V1497V1529.86V1781.75H106.855V1529.86H203.231V1497H74Z" fill="#8DC73F"/>
<path fill-rule="evenodd" clip-rule="evenodd" d="M481.406 1496V1528.86H538.355V1782.94H571.211V1528.86H632.541V1496H481.406Z" fill="#8DC73F"/>
<path fill-rule="evenodd" clip-rule="evenodd" d="M722.346 1433H755.201H851.577H884.432V1685.93C884.432 1685.95 884.432 1685.97 884.432 1685.99C884.432 1686.01 884.432 1686.02 884.432 1686.04V1687.08H884.405C883.549 1704.12 862.804 1717.75 837.339 1717.75C811.331 1717.75 790.247 1703.53 790.247 1685.99C790.247 1668.45 811.331 1654.23 837.339 1654.23C842.302 1654.23 847.085 1654.74 851.577 1655.7V1531.57H755.201V1685.93L755.201 1685.99L755.201 1686.04V1687.08H755.174C754.318 1704.12 733.573 1717.75 708.108 1717.75C682.1 1717.75 661.016 1703.53 661.016 1685.99C661.016 1668.45 682.1 1654.23 708.108 1654.23C713.071 1654.23 717.854 1654.74 722.346 1655.7V1433ZM755.201 1465.86H851.577V1498.71H755.201V1465.86Z" fill="#8DC73F"/>
<path fill-rule="evenodd" clip-rule="evenodd" d="M1228.32 1433H1261.17H1357.55H1390.4V1685.93C1390.4 1685.95 1390.4 1685.97 1390.4 1685.99C1390.4 1686.01 1390.4 1686.02 1390.4 1686.04V1687.08H1390.38C1389.52 1704.12 1368.78 1717.75 1343.31 1717.75C1317.3 1717.75 1296.22 1703.53 1296.22 1685.99C1296.22 1668.45 1317.3 1654.23 1343.31 1654.23C1348.27 1654.23 1353.06 1654.74 1357.55 1655.7V1531.57H1261.17V1685.93L1261.17 1685.99L1261.17 1686.04V1687.08H1261.15C1260.29 1704.12 1239.55 1717.75 1214.08 1717.75C1188.07 1717.75 1166.99 1703.53 1166.99 1685.99C1166.99 1668.45 1188.07 1654.23 1214.08 1654.23C1219.04 1654.23 1223.83 1654.74 1228.32 1655.7V1433ZM1261.17 1465.86H1357.55V1498.71H1261.17V1465.86Z" fill="#8DC73F"/>
<path fill-rule="evenodd" clip-rule="evenodd" d="M264.561 1433H297.416V1601.46L393.792 1447.22V1433H426.647V1685.93C426.647 1685.95 426.647 1685.97 426.647 1685.99C426.647 1686 426.647 1686.02 426.647 1686.04V1687.08H426.62C425.764 1704.12 405.02 1717.75 379.555 1717.75C353.546 1717.75 332.462 1703.53 332.462 1685.99C332.462 1668.45 353.546 1654.23 379.555 1654.23C384.517 1654.23 389.3 1654.74 393.792 1655.7V1509.22L297.416 1663.46V1687.08H297.388C296.533 1704.12 275.788 1717.75 250.323 1717.75C224.315 1717.75 203.231 1703.53 203.231 1685.99C203.231 1668.45 224.315 1654.23 250.323 1654.23C255.286 1654.23 260.069 1654.74 264.561 1655.7V1433Z" fill="#8DC73F"/>
<path fill-rule="evenodd" clip-rule="evenodd" d="M1445.16 1497H1478.02V1532.49C1486.66 1525.52 1499.64 1521.09 1514.16 1521.09C1540.17 1521.09 1561.25 1535.31 1561.25 1552.85C1561.25 1570.39 1540.17 1584.61 1514.16 1584.61C1499.64 1584.61 1486.66 1580.18 1478.02 1573.22V1676.21C1492.77 1668.23 1511.41 1663.47 1531.68 1663.47C1579.47 1663.47 1618.2 1689.94 1618.2 1722.61C1618.2 1755.27 1579.47 1781.75 1531.68 1781.75C1484.97 1781.75 1446.91 1756.44 1445.22 1724.8H1445.16V1722.65C1445.16 1722.63 1445.16 1722.62 1445.16 1722.61C1445.16 1722.59 1445.16 1722.58 1445.16 1722.57V1497Z" fill="#8DC73F"/>
<path fill-rule="evenodd" clip-rule="evenodd" d="M1759.48 1551.28C1807.26 1551.28 1846 1524.8 1846 1492.14C1846 1459.48 1807.26 1433 1759.48 1433C1712.77 1433 1674.7 1458.3 1673.02 1489.95H1672.96V1717.75H1705.82V1538.53C1720.56 1546.51 1739.21 1551.28 1759.48 1551.28Z" fill="#8DC73F"/>
<path fill-rule="evenodd" clip-rule="evenodd" d="M1098.59 1555.82C1097.99 1556.95 1097.3 1558.02 1096.52 1559.01L1063.28 1615.9L1105.23 1698.96C1106.88 1701.6 1108.27 1704.33 1109.36 1707.15L1110.01 1708.43L1109.86 1708.51C1111.41 1712.94 1112.23 1717.56 1112.23 1722.31C1112.23 1754.97 1073.49 1781.45 1025.71 1781.45C977.927 1781.45 939.191 1754.97 939.191 1722.31C939.191 1689.65 977.927 1663.17 1025.71 1663.17C1034.77 1663.17 1043.51 1664.12 1051.72 1665.89L1025.98 1614.92L1025.84 1614.84L1053.96 1566.71C1050.01 1565.49 1046.02 1563.84 1042.1 1561.75C1019.14 1549.55 1007.2 1527.09 1015.43 1511.6C1023.66 1496.12 1048.96 1493.46 1071.92 1505.67C1094.89 1517.88 1106.83 1540.33 1098.59 1555.82Z" fill="#8DC73F"/>
</svg>
