<svg width="1440" height="2120" viewBox="0 0 1440 2120" fill="none" xmlns="http://www.w3.org/2000/svg">
<path fill-rule="evenodd" clip-rule="evenodd" d="M92.1767 6.22365H68V6.22367V30.4003V215.755H92.1767V30.4003H163.095V6.22367H92.1767V6.22365Z" fill="#8DC73F"/>
<path fill-rule="evenodd" clip-rule="evenodd" d="M367.789 4.61182V28.7885H409.695V215.754H433.871V28.7885H479.002V4.61182H367.789Z" fill="#8DC73F"/>
<path fill-rule="evenodd" clip-rule="evenodd" d="M545.086 53.4688L569.263 53.4688L640.18 53.4688H664.357V239.482C664.357 239.531 664.358 239.58 664.358 239.629C664.358 239.678 664.357 239.727 664.357 239.776V240.435H664.337C663.708 252.969 648.443 263 629.704 263C610.566 263 595.051 252.536 595.051 239.629C595.051 226.722 610.566 216.258 629.704 216.258C633.356 216.258 636.875 216.639 640.18 217.345V125.999H569.263V240.435H569.242C568.613 252.969 553.348 263 534.609 263C515.471 263 499.956 252.536 499.956 239.629C499.956 226.722 515.471 216.258 534.609 216.258C538.261 216.258 541.781 216.639 545.086 217.345V53.4688ZM569.263 77.6455H640.18V101.822H569.263V77.6455Z" fill="#8DC73F"/>
<path fill-rule="evenodd" clip-rule="evenodd" d="M917.406 53.4688L941.583 53.4688L1012.5 53.4688H1036.68V240.435H1036.66C1036.03 252.969 1020.76 263 1002.02 263C982.886 263 967.372 252.536 967.372 239.629C967.372 226.722 982.886 216.258 1002.02 216.258C1005.68 216.258 1009.2 216.639 1012.5 217.345V125.999H941.583V240.435H941.563C940.933 252.969 925.668 263 906.93 263C887.791 263 872.276 252.536 872.276 239.629C872.276 226.722 887.791 216.258 906.93 216.258C910.581 216.258 914.101 216.639 917.406 217.345V53.4688ZM941.583 77.6455H1012.5V101.822H941.583V77.6455Z" fill="#8DC73F"/>
<path fill-rule="evenodd" clip-rule="evenodd" d="M208.226 53.4688H232.402V177.427L303.321 63.9341V53.4688H327.498V240.435H327.477C326.847 252.969 311.583 263 292.844 263C273.706 263 258.191 252.536 258.191 239.629C258.191 226.722 273.706 216.258 292.844 216.258C296.496 216.258 300.016 216.639 303.321 217.345V109.557L232.402 223.051V240.435H232.382C231.752 252.969 216.487 263 197.749 263C178.61 263 163.096 252.536 163.096 239.629C163.096 226.722 178.61 216.258 197.749 216.258C201.401 216.258 204.92 216.639 208.226 217.345V53.4688Z" fill="#8DC73F"/>
<path fill-rule="evenodd" clip-rule="evenodd" d="M1076.97 3H1101.15V29.1152C1107.51 23.9896 1117.06 20.7295 1127.74 20.7295C1146.88 20.7295 1162.4 31.1929 1162.4 44.1003C1162.4 57.0076 1146.88 67.471 1127.74 67.471C1117.06 67.471 1107.51 64.2109 1101.15 59.0853V134.875C1112 129.002 1125.72 125.495 1140.64 125.495C1175.8 125.495 1204.3 144.979 1204.3 169.013C1204.3 193.047 1175.8 212.531 1140.64 212.531C1106.27 212.531 1078.26 193.912 1077.02 170.625H1076.97V169.013V3Z" fill="#8DC73F"/>
<path fill-rule="evenodd" clip-rule="evenodd" d="M1308.26 140.281C1343.42 140.281 1371.93 120.798 1371.93 96.7633C1371.93 72.729 1343.42 53.2454 1308.26 53.2454C1273.89 53.2454 1245.88 71.864 1244.64 95.1516H1244.6V96.7633V262.776H1268.77V130.901C1279.63 136.775 1293.35 140.281 1308.26 140.281Z" fill="#8DC73F"/>
<path fill-rule="evenodd" clip-rule="evenodd" d="M821.948 47.1554C821.504 47.9919 820.991 48.7775 820.417 49.5117L795.96 91.3665L826.831 152.495C828.049 154.431 829.067 156.439 829.868 158.508L830.349 159.46L830.239 159.515C831.378 162.773 831.982 166.174 831.982 169.67C831.982 193.705 803.478 213.188 768.317 213.188C733.155 213.188 704.651 193.705 704.651 169.67C704.651 145.636 733.155 126.152 768.317 126.152C774.984 126.152 781.413 126.853 787.453 128.153L768.513 90.6496L768.412 90.5904L789.106 55.1747C786.195 54.2715 783.263 53.0573 780.38 51.5249C763.481 42.5411 754.693 26.0194 760.752 14.6224C766.811 3.22551 785.422 1.26922 802.321 10.2529C819.22 19.2367 828.007 35.7584 821.948 47.1554Z" fill="#8DC73F"/>
<path fill-rule="evenodd" clip-rule="evenodd" d="M92.1767 281.224H68V281.224V305.4V490.755H92.1767V305.4H163.095V281.224H92.1767V281.224Z" fill="#8DC73F"/>
<path fill-rule="evenodd" clip-rule="evenodd" d="M367.789 279.612V303.788H409.695V490.754H433.871V303.788H479.002V279.612H367.789Z" fill="#8DC73F"/>
<path fill-rule="evenodd" clip-rule="evenodd" d="M545.086 308.469L569.263 308.469L640.18 308.469H664.357V494.482C664.357 494.531 664.358 494.58 664.358 494.629C664.358 494.678 664.357 494.727 664.357 494.776V495.435H664.337C663.708 507.969 648.443 518 629.704 518C610.566 518 595.051 507.536 595.051 494.629C595.051 481.722 610.566 471.258 629.704 471.258C633.356 471.258 636.875 471.639 640.18 472.345V380.999H569.263V495.435H569.242C568.613 507.969 553.348 518 534.609 518C515.471 518 499.956 507.536 499.956 494.629C499.956 481.722 515.471 471.258 534.609 471.258C538.261 471.258 541.781 471.639 545.086 472.345V308.469ZM569.263 332.645H640.18V356.822H569.263V332.645Z" fill="#8DC73F"/>
<path fill-rule="evenodd" clip-rule="evenodd" d="M917.406 308.469L941.583 308.469L1012.5 308.469H1036.68V495.435H1036.66C1036.03 507.969 1020.76 518 1002.02 518C982.886 518 967.372 507.536 967.372 494.629C967.372 481.722 982.886 471.258 1002.02 471.258C1005.68 471.258 1009.2 471.639 1012.5 472.345V380.999H941.583V495.435H941.563C940.933 507.969 925.668 518 906.93 518C887.791 518 872.276 507.536 872.276 494.629C872.276 481.722 887.791 471.258 906.93 471.258C910.581 471.258 914.101 471.639 917.406 472.345V308.469ZM941.583 332.645H1012.5V356.822H941.583V332.645Z" fill="#8DC73F"/>
<path fill-rule="evenodd" clip-rule="evenodd" d="M208.226 308.469H232.402V432.427L303.321 318.934V308.469H327.498V495.435H327.477C326.847 507.969 311.583 518 292.844 518C273.706 518 258.191 507.536 258.191 494.629C258.191 481.722 273.706 471.258 292.844 471.258C296.496 471.258 300.016 471.639 303.321 472.345V364.557L232.402 478.051V495.435H232.382C231.752 507.969 216.487 518 197.749 518C178.61 518 163.096 507.536 163.096 494.629C163.096 481.722 178.61 471.258 197.749 471.258C201.401 471.258 204.92 471.639 208.226 472.345V308.469Z" fill="#8DC73F"/>
<path fill-rule="evenodd" clip-rule="evenodd" d="M1076.97 278H1101.15V304.115C1107.51 298.99 1117.06 295.729 1127.74 295.729C1146.88 295.729 1162.4 306.193 1162.4 319.1C1162.4 332.008 1146.88 342.471 1127.74 342.471C1117.06 342.471 1107.51 339.211 1101.15 334.085V409.875C1112 404.002 1125.72 400.495 1140.64 400.495C1175.8 400.495 1204.3 419.979 1204.3 444.013C1204.3 468.047 1175.8 487.531 1140.64 487.531C1106.27 487.531 1078.26 468.912 1077.02 445.625H1076.97V444.013V278Z" fill="#8DC73F"/>
<path fill-rule="evenodd" clip-rule="evenodd" d="M1308.26 395.281C1343.42 395.281 1371.93 375.798 1371.93 351.763C1371.93 327.729 1343.42 308.245 1308.26 308.245C1273.89 308.245 1245.88 326.864 1244.64 350.152H1244.6V351.763V517.776H1268.77V385.901C1279.63 391.775 1293.35 395.281 1308.26 395.281Z" fill="#8DC73F"/>
<path fill-rule="evenodd" clip-rule="evenodd" d="M822.297 322.544C821.852 323.38 821.34 324.166 820.766 324.9L796.309 366.755L827.18 427.883C828.398 429.819 829.416 431.828 830.217 433.897L830.697 434.848L830.588 434.903C831.727 438.161 832.33 441.562 832.33 445.059C832.33 469.093 803.826 488.577 768.665 488.577C733.504 488.577 705 469.093 705 445.059C705 421.024 733.504 401.541 768.665 401.541C775.333 401.541 781.762 402.241 787.802 403.541L768.862 366.038L768.761 365.979L789.455 330.563C786.544 329.66 783.611 328.446 780.729 326.913C763.83 317.93 755.042 301.408 761.101 290.011C767.16 278.614 785.77 276.658 802.669 285.641C819.568 294.625 828.356 311.147 822.297 322.544Z" fill="#8DC73F"/>
<path fill-rule="evenodd" clip-rule="evenodd" d="M92.1767 1866.22H68V1866.22V1890.4V2075.75H92.1767V1890.4H163.095V1866.22H92.1767V1866.22Z" fill="#8DC73F"/>
<path fill-rule="evenodd" clip-rule="evenodd" d="M367.789 1864.61V1888.79H409.695V2075.75H433.871V1888.79H479.002V1864.61H367.789Z" fill="#8DC73F"/>
<path fill-rule="evenodd" clip-rule="evenodd" d="M545.086 1893.47L569.263 1893.47L640.18 1893.47H664.357V2079.48C664.357 2079.53 664.358 2079.58 664.358 2079.63C664.358 2079.68 664.357 2079.73 664.357 2079.78V2080.43H664.337C663.708 2092.97 648.443 2103 629.704 2103C610.566 2103 595.051 2092.54 595.051 2079.63C595.051 2066.72 610.566 2056.26 629.704 2056.26C633.356 2056.26 636.875 2056.64 640.18 2057.35V1966H569.263V2080.43H569.242C568.613 2092.97 553.348 2103 534.609 2103C515.471 2103 499.956 2092.54 499.956 2079.63C499.956 2066.72 515.471 2056.26 534.609 2056.26C538.261 2056.26 541.781 2056.64 545.086 2057.35V1893.47ZM569.263 1917.65H640.18V1941.82H569.263V1917.65Z" fill="#8DC73F"/>
<path fill-rule="evenodd" clip-rule="evenodd" d="M917.406 1893.47L941.583 1893.47L1012.5 1893.47H1036.68V2080.43H1036.66C1036.03 2092.97 1020.76 2103 1002.02 2103C982.886 2103 967.372 2092.54 967.372 2079.63C967.372 2066.72 982.886 2056.26 1002.02 2056.26C1005.68 2056.26 1009.2 2056.64 1012.5 2057.35V1966H941.583V2080.43H941.563C940.933 2092.97 925.668 2103 906.93 2103C887.791 2103 872.276 2092.54 872.276 2079.63C872.276 2066.72 887.791 2056.26 906.93 2056.26C910.581 2056.26 914.101 2056.64 917.406 2057.35V1893.47ZM941.583 1917.65H1012.5V1941.82H941.583V1917.65Z" fill="#8DC73F"/>
<path fill-rule="evenodd" clip-rule="evenodd" d="M208.226 1893.47H232.402V2017.43L303.321 1903.93V1893.47H327.498V2080.43H327.477C326.847 2092.97 311.583 2103 292.844 2103C273.706 2103 258.191 2092.54 258.191 2079.63C258.191 2066.72 273.706 2056.26 292.844 2056.26C296.496 2056.26 300.016 2056.64 303.321 2057.35V1949.56L232.402 2063.05V2080.43H232.382C231.752 2092.97 216.487 2103 197.749 2103C178.61 2103 163.096 2092.54 163.096 2079.63C163.096 2066.72 178.61 2056.26 197.749 2056.26C201.401 2056.26 204.92 2056.64 208.226 2057.35V1893.47Z" fill="#8DC73F"/>
<path fill-rule="evenodd" clip-rule="evenodd" d="M1076.97 1863H1101.15V1889.12C1107.51 1883.99 1117.06 1880.73 1127.74 1880.73C1146.88 1880.73 1162.4 1891.19 1162.4 1904.1C1162.4 1917.01 1146.88 1927.47 1127.74 1927.47C1117.06 1927.47 1107.51 1924.21 1101.15 1919.09V1994.88C1112 1989 1125.72 1985.5 1140.64 1985.5C1175.8 1985.5 1204.3 2004.98 1204.3 2029.01C1204.3 2053.05 1175.8 2072.53 1140.64 2072.53C1106.27 2072.53 1078.26 2053.91 1077.02 2030.62H1076.97V2029.01V1863Z" fill="#8DC73F"/>
<path fill-rule="evenodd" clip-rule="evenodd" d="M1308.26 1980.28C1343.42 1980.28 1371.93 1960.8 1371.93 1936.76C1371.93 1912.73 1343.42 1893.25 1308.26 1893.25C1273.89 1893.25 1245.88 1911.86 1244.64 1935.15H1244.6V1936.76V2102.78H1268.77V1970.9C1279.63 1976.77 1293.35 1980.28 1308.26 1980.28Z" fill="#8DC73F"/>
<path fill-rule="evenodd" clip-rule="evenodd" d="M822.297 1907.54C821.852 1908.38 821.34 1909.17 820.766 1909.9L796.309 1951.75L827.18 2012.88C828.398 2014.82 829.416 2016.83 830.217 2018.9L830.697 2019.85L830.588 2019.9C831.727 2023.16 832.33 2026.56 832.33 2030.06C832.33 2054.09 803.826 2073.58 768.665 2073.58C733.504 2073.58 705 2054.09 705 2030.06C705 2006.02 733.504 1986.54 768.665 1986.54C775.333 1986.54 781.762 1987.24 787.802 1988.54L768.862 1951.04L768.761 1950.98L789.455 1915.56C786.544 1914.66 783.611 1913.45 780.729 1911.91C763.83 1902.93 755.042 1886.41 761.101 1875.01C767.16 1863.61 785.77 1861.66 802.669 1870.64C819.568 1879.63 828.356 1896.15 822.297 1907.54Z" fill="#8DC73F"/>
<path fill-rule="evenodd" clip-rule="evenodd" d="M92.1767 557H68V557V581.177V766.531H92.1767V581.177H163.095V557H92.1767V557Z" fill="#8DC73F"/>
<path fill-rule="evenodd" clip-rule="evenodd" d="M367.789 556V580.177H409.695V767.143H433.871V580.177H479.002V556H367.789Z" fill="#8DC73F"/>
<path fill-rule="evenodd" clip-rule="evenodd" d="M545.086 557L569.263 557L640.18 557H664.357V743.013C664.357 743.062 664.358 743.111 664.358 743.16C664.358 743.209 664.357 743.258 664.357 743.307V743.966H664.337C663.708 756.5 648.443 766.531 629.704 766.531C610.566 766.531 595.051 756.068 595.051 743.16C595.051 730.253 610.566 719.79 629.704 719.79C633.356 719.79 636.875 720.17 640.18 720.876V629.53H569.263V743.966H569.242C568.613 756.5 553.348 766.531 534.609 766.531C515.471 766.531 499.956 756.068 499.956 743.16C499.956 730.253 515.471 719.79 534.609 719.79C538.261 719.79 541.781 720.17 545.086 720.877V557ZM569.263 581.177H640.18V605.353H569.263V581.177Z" fill="#8DC73F"/>
<path fill-rule="evenodd" clip-rule="evenodd" d="M917.406 557L941.583 557L1012.5 557H1036.68V743.966H1036.66C1036.03 756.5 1020.76 766.531 1002.02 766.531C982.886 766.531 967.372 756.068 967.372 743.16C967.372 730.253 982.886 719.79 1002.02 719.79C1005.68 719.79 1009.2 720.17 1012.5 720.877V629.53H941.583V743.966H941.563C940.933 756.5 925.668 766.531 906.93 766.531C887.791 766.531 872.276 756.068 872.276 743.16C872.276 730.253 887.791 719.79 906.93 719.79C910.581 719.79 914.101 720.17 917.406 720.877V557ZM941.583 581.177H1012.5V605.353H941.583V581.177Z" fill="#8DC73F"/>
<path fill-rule="evenodd" clip-rule="evenodd" d="M208.226 557H232.402V680.959L303.321 567.465V557H327.498V743.966H327.477C326.847 756.5 311.583 766.531 292.844 766.531C273.706 766.531 258.191 756.068 258.191 743.16C258.191 730.253 273.706 719.79 292.844 719.79C296.496 719.79 300.016 720.17 303.321 720.877V613.089L232.402 726.582V743.966H232.382C231.752 756.5 216.487 766.531 197.749 766.531C178.61 766.531 163.096 756.068 163.096 743.16C163.096 730.253 178.61 719.79 197.749 719.79C201.401 719.79 204.92 720.17 208.226 720.877V557Z" fill="#8DC73F"/>
<path fill-rule="evenodd" clip-rule="evenodd" d="M1076.97 557H1101.15V583.115C1107.51 577.99 1117.06 574.729 1127.74 574.729C1146.88 574.729 1162.4 585.193 1162.4 598.1C1162.4 611.008 1146.88 621.471 1127.74 621.471C1117.06 621.471 1107.51 618.211 1101.15 613.085V688.875C1112 683.002 1125.72 679.495 1140.64 679.495C1175.8 679.495 1204.3 698.979 1204.3 723.013C1204.3 747.047 1175.8 766.531 1140.64 766.531C1106.27 766.531 1078.26 747.912 1077.02 724.625H1076.97V723.013V557Z" fill="#8DC73F"/>
<path fill-rule="evenodd" clip-rule="evenodd" d="M1308.26 644.036C1343.42 644.036 1371.93 624.552 1371.93 600.518C1371.93 576.484 1343.42 557 1308.26 557C1273.89 557 1245.88 575.619 1244.64 598.906H1244.6V600.518V766.531H1268.77V634.656C1279.63 640.529 1293.35 644.036 1308.26 644.036Z" fill="#8DC73F"/>
<path fill-rule="evenodd" clip-rule="evenodd" d="M822.297 600.544C821.852 601.38 821.34 602.166 820.766 602.9L796.309 644.755L827.18 705.883C828.398 707.819 829.416 709.828 830.217 711.897L830.697 712.848L830.588 712.903C831.727 716.161 832.33 719.562 832.33 723.059C832.33 747.093 803.826 766.577 768.665 766.577C733.504 766.577 705 747.093 705 723.059C705 699.024 733.504 679.541 768.665 679.541C775.333 679.541 781.762 680.241 787.802 681.541L768.862 644.038L768.761 643.979L789.455 608.563C786.544 607.66 783.611 606.446 780.729 604.913C763.83 595.93 755.042 579.408 761.101 568.011C767.16 556.614 785.77 554.658 802.669 563.641C819.568 572.625 828.356 589.147 822.297 600.544Z" fill="#8DC73F"/>
<path fill-rule="evenodd" clip-rule="evenodd" d="M92.1767 1615H68V1615V1639.18V1824.53H92.1767V1639.18H163.095V1615H92.1767V1615Z" fill="#8DC73F"/>
<path fill-rule="evenodd" clip-rule="evenodd" d="M367.789 1614V1638.18H409.695V1825.14H433.871V1638.18H479.002V1614H367.789Z" fill="#8DC73F"/>
<path fill-rule="evenodd" clip-rule="evenodd" d="M545.086 1615L569.263 1615L640.18 1615H664.357V1801.01C664.357 1801.06 664.358 1801.11 664.358 1801.16C664.358 1801.21 664.357 1801.26 664.357 1801.31V1801.97H664.337C663.708 1814.5 648.443 1824.53 629.704 1824.53C610.566 1824.53 595.051 1814.07 595.051 1801.16C595.051 1788.25 610.566 1777.79 629.704 1777.79C633.356 1777.79 636.875 1778.17 640.18 1778.88V1687.53H569.263V1801.97H569.242C568.613 1814.5 553.348 1824.53 534.609 1824.53C515.471 1824.53 499.956 1814.07 499.956 1801.16C499.956 1788.25 515.471 1777.79 534.609 1777.79C538.261 1777.79 541.781 1778.17 545.086 1778.88V1615ZM569.263 1639.18H640.18V1663.35H569.263V1639.18Z" fill="#8DC73F"/>
<path fill-rule="evenodd" clip-rule="evenodd" d="M917.406 1615L941.583 1615L1012.5 1615H1036.68V1801.97H1036.66C1036.03 1814.5 1020.76 1824.53 1002.02 1824.53C982.886 1824.53 967.372 1814.07 967.372 1801.16C967.372 1788.25 982.886 1777.79 1002.02 1777.79C1005.68 1777.79 1009.2 1778.17 1012.5 1778.88V1687.53H941.583V1801.97H941.563C940.933 1814.5 925.668 1824.53 906.93 1824.53C887.791 1824.53 872.276 1814.07 872.276 1801.16C872.276 1788.25 887.791 1777.79 906.93 1777.79C910.581 1777.79 914.101 1778.17 917.406 1778.88V1615ZM941.583 1639.18H1012.5V1663.35H941.583V1639.18Z" fill="#8DC73F"/>
<path fill-rule="evenodd" clip-rule="evenodd" d="M208.226 1615H232.402V1738.96L303.321 1625.47V1615H327.498V1801.97H327.477C326.847 1814.5 311.583 1824.53 292.844 1824.53C273.706 1824.53 258.191 1814.07 258.191 1801.16C258.191 1788.25 273.706 1777.79 292.844 1777.79C296.496 1777.79 300.016 1778.17 303.321 1778.88V1671.09L232.402 1784.58V1801.97H232.382C231.752 1814.5 216.487 1824.53 197.749 1824.53C178.61 1824.53 163.096 1814.07 163.096 1801.16C163.096 1788.25 178.61 1777.79 197.749 1777.79C201.401 1777.79 204.92 1778.17 208.226 1778.88V1615Z" fill="#8DC73F"/>
<path fill-rule="evenodd" clip-rule="evenodd" d="M1076.97 1615H1101.15V1641.12C1107.51 1635.99 1117.06 1632.73 1127.74 1632.73C1146.88 1632.73 1162.4 1643.19 1162.4 1656.1C1162.4 1669.01 1146.88 1679.47 1127.74 1679.47C1117.06 1679.47 1107.51 1676.21 1101.15 1671.09V1746.88C1112 1741 1125.72 1737.5 1140.64 1737.5C1175.8 1737.5 1204.3 1756.98 1204.3 1781.01C1204.3 1805.05 1175.8 1824.53 1140.64 1824.53C1106.27 1824.53 1078.26 1805.91 1077.02 1782.62H1076.97V1781.01V1615Z" fill="#8DC73F"/>
<path fill-rule="evenodd" clip-rule="evenodd" d="M1308.26 1702.04C1343.42 1702.04 1371.93 1682.55 1371.93 1658.52C1371.93 1634.48 1343.42 1615 1308.26 1615C1273.89 1615 1245.88 1633.62 1244.64 1656.91H1244.6V1658.52V1824.53H1268.77V1692.66C1279.63 1698.53 1293.35 1702.04 1308.26 1702.04Z" fill="#8DC73F"/>
<path fill-rule="evenodd" clip-rule="evenodd" d="M822.297 1658.54C821.852 1659.38 821.34 1660.17 820.766 1660.9L796.309 1702.75L827.18 1763.88C828.398 1765.82 829.416 1767.83 830.217 1769.9L830.697 1770.85L830.588 1770.9C831.727 1774.16 832.33 1777.56 832.33 1781.06C832.33 1805.09 803.826 1824.58 768.665 1824.58C733.504 1824.58 705 1805.09 705 1781.06C705 1757.02 733.504 1737.54 768.665 1737.54C775.333 1737.54 781.762 1738.24 787.802 1739.54L768.862 1702.04L768.761 1701.98L789.455 1666.56C786.544 1665.66 783.611 1664.45 780.729 1662.91C763.83 1653.93 755.042 1637.41 761.101 1626.01C767.16 1614.61 785.77 1612.66 802.669 1621.64C819.568 1630.63 828.356 1647.15 822.297 1658.54Z" fill="#8DC73F"/>
<path fill-rule="evenodd" clip-rule="evenodd" d="M92.1767 832H68V832V856.177V1041.53H92.1767V856.177H163.095V832H92.1767V832Z" fill="#8DC73F"/>
<path fill-rule="evenodd" clip-rule="evenodd" d="M367.789 831V855.177H409.695V1042.14H433.871V855.177H479.002V831H367.789Z" fill="#8DC73F"/>
<path fill-rule="evenodd" clip-rule="evenodd" d="M545.086 812L569.263 812L640.18 812H664.357V998.013C664.357 998.062 664.358 998.111 664.358 998.16C664.358 998.209 664.357 998.258 664.357 998.307V998.966H664.337C663.708 1011.5 648.443 1021.53 629.704 1021.53C610.566 1021.53 595.051 1011.07 595.051 998.16C595.051 985.253 610.566 974.79 629.704 974.79C633.356 974.79 636.875 975.17 640.18 975.876V884.53H569.263V998.966H569.242C568.613 1011.5 553.348 1021.53 534.609 1021.53C515.471 1021.53 499.956 1011.07 499.956 998.16C499.956 985.253 515.471 974.79 534.609 974.79C538.261 974.79 541.781 975.17 545.086 975.877V812ZM569.263 836.177H640.18V860.353H569.263V836.177Z" fill="#8DC73F"/>
<path fill-rule="evenodd" clip-rule="evenodd" d="M917.406 812L941.583 812L1012.5 812H1036.68V998.966H1036.66C1036.03 1011.5 1020.76 1021.53 1002.02 1021.53C982.886 1021.53 967.372 1011.07 967.372 998.16C967.372 985.253 982.886 974.79 1002.02 974.79C1005.68 974.79 1009.2 975.17 1012.5 975.877V884.53H941.583V998.966H941.563C940.933 1011.5 925.668 1021.53 906.93 1021.53C887.791 1021.53 872.276 1011.07 872.276 998.16C872.276 985.253 887.791 974.79 906.93 974.79C910.581 974.79 914.101 975.17 917.406 975.877V812ZM941.583 836.177H1012.5V860.353H941.583V836.177Z" fill="#8DC73F"/>
<path fill-rule="evenodd" clip-rule="evenodd" d="M208.226 812H232.402V935.959L303.321 822.465V812H327.498V998.966H327.477C326.847 1011.5 311.583 1021.53 292.844 1021.53C273.706 1021.53 258.191 1011.07 258.191 998.16C258.191 985.253 273.706 974.79 292.844 974.79C296.496 974.79 300.016 975.17 303.321 975.877V868.089L232.402 981.582V998.966H232.382C231.752 1011.5 216.487 1021.53 197.749 1021.53C178.61 1021.53 163.096 1011.07 163.096 998.16C163.096 985.253 178.61 974.79 197.749 974.79C201.401 974.79 204.92 975.17 208.226 975.877V812Z" fill="#8DC73F"/>
<path fill-rule="evenodd" clip-rule="evenodd" d="M1076.97 832H1101.15V858.115C1107.51 852.99 1117.06 849.729 1127.74 849.729C1146.88 849.729 1162.4 860.193 1162.4 873.1C1162.4 886.008 1146.88 896.471 1127.74 896.471C1117.06 896.471 1107.51 893.211 1101.15 888.085V963.875C1112 958.002 1125.72 954.495 1140.64 954.495C1175.8 954.495 1204.3 973.979 1204.3 998.013C1204.3 1022.05 1175.8 1041.53 1140.64 1041.53C1106.27 1041.53 1078.26 1022.91 1077.02 999.625H1076.97V998.013V832Z" fill="#8DC73F"/>
<path fill-rule="evenodd" clip-rule="evenodd" d="M1308.26 899.036C1343.42 899.036 1371.93 879.552 1371.93 855.518C1371.93 831.484 1343.42 812 1308.26 812C1273.89 812 1245.88 830.619 1244.64 853.906H1244.6V855.518V1021.53H1268.77V889.656C1279.63 895.529 1293.35 899.036 1308.26 899.036Z" fill="#8DC73F"/>
<path fill-rule="evenodd" clip-rule="evenodd" d="M822.297 875.544C821.852 876.38 821.34 877.166 820.766 877.9L796.309 919.755L827.18 980.883C828.398 982.819 829.416 984.828 830.217 986.897L830.697 987.848L830.588 987.903C831.727 991.161 832.33 994.562 832.33 998.059C832.33 1022.09 803.826 1041.58 768.665 1041.58C733.504 1041.58 705 1022.09 705 998.059C705 974.024 733.504 954.541 768.665 954.541C775.333 954.541 781.762 955.241 787.802 956.541L768.862 919.038L768.761 918.979L789.455 883.563C786.544 882.66 783.611 881.446 780.729 879.913C763.83 870.93 755.042 854.408 761.101 843.011C767.16 831.614 785.77 829.658 802.669 838.641C819.568 847.625 828.356 864.147 822.297 875.544Z" fill="#8DC73F"/>
<path fill-rule="evenodd" clip-rule="evenodd" d="M92.1767 1362H68V1362V1386.18V1571.53H92.1767V1386.18H163.095V1362H92.1767V1362Z" fill="#8DC73F"/>
<path fill-rule="evenodd" clip-rule="evenodd" d="M367.789 1361V1385.18H409.695V1572.14H433.871V1385.18H479.002V1361H367.789Z" fill="#8DC73F"/>
<path fill-rule="evenodd" clip-rule="evenodd" d="M545.086 1342L569.263 1342L640.18 1342H664.357V1528.01C664.357 1528.06 664.358 1528.11 664.358 1528.16C664.358 1528.21 664.357 1528.26 664.357 1528.31V1528.97H664.337C663.708 1541.5 648.443 1551.53 629.704 1551.53C610.566 1551.53 595.051 1541.07 595.051 1528.16C595.051 1515.25 610.566 1504.79 629.704 1504.79C633.356 1504.79 636.875 1505.17 640.18 1505.88V1414.53H569.263V1528.97H569.242C568.613 1541.5 553.348 1551.53 534.609 1551.53C515.471 1551.53 499.956 1541.07 499.956 1528.16C499.956 1515.25 515.471 1504.79 534.609 1504.79C538.261 1504.79 541.781 1505.17 545.086 1505.88V1342ZM569.263 1366.18H640.18V1390.35H569.263V1366.18Z" fill="#8DC73F"/>
<path fill-rule="evenodd" clip-rule="evenodd" d="M917.406 1342L941.583 1342L1012.5 1342H1036.68V1528.97H1036.66C1036.03 1541.5 1020.76 1551.53 1002.02 1551.53C982.886 1551.53 967.372 1541.07 967.372 1528.16C967.372 1515.25 982.886 1504.79 1002.02 1504.79C1005.68 1504.79 1009.2 1505.17 1012.5 1505.88V1414.53H941.583V1528.97H941.563C940.933 1541.5 925.668 1551.53 906.93 1551.53C887.791 1551.53 872.276 1541.07 872.276 1528.16C872.276 1515.25 887.791 1504.79 906.93 1504.79C910.581 1504.79 914.101 1505.17 917.406 1505.88V1342ZM941.583 1366.18H1012.5V1390.35H941.583V1366.18Z" fill="#8DC73F"/>
<path fill-rule="evenodd" clip-rule="evenodd" d="M208.226 1342H232.402V1465.96L303.321 1352.47V1342H327.498V1528.97H327.477C326.847 1541.5 311.583 1551.53 292.844 1551.53C273.706 1551.53 258.191 1541.07 258.191 1528.16C258.191 1515.25 273.706 1504.79 292.844 1504.79C296.496 1504.79 300.016 1505.17 303.321 1505.88V1398.09L232.402 1511.58V1528.97H232.382C231.752 1541.5 216.487 1551.53 197.749 1551.53C178.61 1551.53 163.096 1541.07 163.096 1528.16C163.096 1515.25 178.61 1504.79 197.749 1504.79C201.401 1504.79 204.92 1505.17 208.226 1505.88V1342Z" fill="#8DC73F"/>
<path fill-rule="evenodd" clip-rule="evenodd" d="M1076.97 1362H1101.15V1388.12C1107.51 1382.99 1117.06 1379.73 1127.74 1379.73C1146.88 1379.73 1162.4 1390.19 1162.4 1403.1C1162.4 1416.01 1146.88 1426.47 1127.74 1426.47C1117.06 1426.47 1107.51 1423.21 1101.15 1418.09V1493.88C1112 1488 1125.72 1484.5 1140.64 1484.5C1175.8 1484.5 1204.3 1503.98 1204.3 1528.01C1204.3 1552.05 1175.8 1571.53 1140.64 1571.53C1106.27 1571.53 1078.26 1552.91 1077.02 1529.62H1076.97V1528.01V1362Z" fill="#8DC73F"/>
<path fill-rule="evenodd" clip-rule="evenodd" d="M1308.26 1429.04C1343.42 1429.04 1371.93 1409.55 1371.93 1385.52C1371.93 1361.48 1343.42 1342 1308.26 1342C1273.89 1342 1245.88 1360.62 1244.64 1383.91H1244.6V1385.52V1551.53H1268.77V1419.66C1279.63 1425.53 1293.35 1429.04 1308.26 1429.04Z" fill="#8DC73F"/>
<path fill-rule="evenodd" clip-rule="evenodd" d="M822.297 1405.54C821.852 1406.38 821.34 1407.17 820.766 1407.9L796.309 1449.75L827.18 1510.88C828.398 1512.82 829.416 1514.83 830.217 1516.9L830.697 1517.85L830.588 1517.9C831.727 1521.16 832.33 1524.56 832.33 1528.06C832.33 1552.09 803.826 1571.58 768.665 1571.58C733.504 1571.58 705 1552.09 705 1528.06C705 1504.02 733.504 1484.54 768.665 1484.54C775.333 1484.54 781.762 1485.24 787.802 1486.54L768.862 1449.04L768.761 1448.98L789.455 1413.56C786.544 1412.66 783.611 1411.45 780.729 1409.91C763.83 1400.93 755.042 1384.41 761.101 1373.01C767.16 1361.61 785.77 1359.66 802.669 1368.64C819.568 1377.63 828.356 1394.15 822.297 1405.54Z" fill="#8DC73F"/>
<path fill-rule="evenodd" clip-rule="evenodd" d="M92.1767 1110H68V1110V1134.18V1319.53H92.1767V1134.18H163.095V1110H92.1767V1110Z" fill="#8DC73F"/>
<path fill-rule="evenodd" clip-rule="evenodd" d="M367.789 1109V1133.18H409.695V1320.14H433.871V1133.18H479.002V1109H367.789Z" fill="#8DC73F"/>
<path fill-rule="evenodd" clip-rule="evenodd" d="M545.086 1064L569.263 1064L640.18 1064H664.357V1250.01C664.357 1250.06 664.358 1250.11 664.358 1250.16C664.358 1250.21 664.357 1250.26 664.357 1250.31V1250.97H664.337C663.708 1263.5 648.443 1273.53 629.704 1273.53C610.566 1273.53 595.051 1263.07 595.051 1250.16C595.051 1237.25 610.566 1226.79 629.704 1226.79C633.356 1226.79 636.875 1227.17 640.18 1227.88V1136.53H569.263V1250.97H569.242C568.613 1263.5 553.348 1273.53 534.609 1273.53C515.471 1273.53 499.956 1263.07 499.956 1250.16C499.956 1237.25 515.471 1226.79 534.609 1226.79C538.261 1226.79 541.781 1227.17 545.086 1227.88V1064ZM569.263 1088.18H640.18V1112.35H569.263V1088.18Z" fill="#8DC73F"/>
<path fill-rule="evenodd" clip-rule="evenodd" d="M917.406 1064L941.583 1064L1012.5 1064H1036.68V1250.97H1036.66C1036.03 1263.5 1020.76 1273.53 1002.02 1273.53C982.886 1273.53 967.372 1263.07 967.372 1250.16C967.372 1237.25 982.886 1226.79 1002.02 1226.79C1005.68 1226.79 1009.2 1227.17 1012.5 1227.88V1136.53H941.583V1250.97H941.563C940.933 1263.5 925.668 1273.53 906.93 1273.53C887.791 1273.53 872.276 1263.07 872.276 1250.16C872.276 1237.25 887.791 1226.79 906.93 1226.79C910.581 1226.79 914.101 1227.17 917.406 1227.88V1064ZM941.583 1088.18H1012.5V1112.35H941.583V1088.18Z" fill="#8DC73F"/>
<path fill-rule="evenodd" clip-rule="evenodd" d="M208.226 1064H232.402V1187.96L303.321 1074.47V1064H327.498V1250.97H327.477C326.847 1263.5 311.583 1273.53 292.844 1273.53C273.706 1273.53 258.191 1263.07 258.191 1250.16C258.191 1237.25 273.706 1226.79 292.844 1226.79C296.496 1226.79 300.016 1227.17 303.321 1227.88V1120.09L232.402 1233.58V1250.97H232.382C231.752 1263.5 216.487 1273.53 197.749 1273.53C178.61 1273.53 163.096 1263.07 163.096 1250.16C163.096 1237.25 178.61 1226.79 197.749 1226.79C201.401 1226.79 204.92 1227.17 208.226 1227.88V1064Z" fill="#8DC73F"/>
<path fill-rule="evenodd" clip-rule="evenodd" d="M1076.97 1110H1101.15V1136.12C1107.51 1130.99 1117.06 1127.73 1127.74 1127.73C1146.88 1127.73 1162.4 1138.19 1162.4 1151.1C1162.4 1164.01 1146.88 1174.47 1127.74 1174.47C1117.06 1174.47 1107.51 1171.21 1101.15 1166.09V1241.88C1112 1236 1125.72 1232.5 1140.64 1232.5C1175.8 1232.5 1204.3 1251.98 1204.3 1276.01C1204.3 1300.05 1175.8 1319.53 1140.64 1319.53C1106.27 1319.53 1078.26 1300.91 1077.02 1277.62H1076.97V1276.01V1110Z" fill="#8DC73F"/>
<path fill-rule="evenodd" clip-rule="evenodd" d="M1308.26 1151.04C1343.42 1151.04 1371.93 1131.55 1371.93 1107.52C1371.93 1083.48 1343.42 1064 1308.26 1064C1273.89 1064 1245.88 1082.62 1244.64 1105.91H1244.6V1107.52V1273.53H1268.77V1141.66C1279.63 1147.53 1293.35 1151.04 1308.26 1151.04Z" fill="#8DC73F"/>
<path fill-rule="evenodd" clip-rule="evenodd" d="M822.297 1153.54C821.852 1154.38 821.34 1155.17 820.766 1155.9L796.309 1197.75L827.18 1258.88C828.398 1260.82 829.416 1262.83 830.217 1264.9L830.697 1265.85L830.588 1265.9C831.727 1269.16 832.33 1272.56 832.33 1276.06C832.33 1300.09 803.826 1319.58 768.665 1319.58C733.504 1319.58 705 1300.09 705 1276.06C705 1252.02 733.504 1232.54 768.665 1232.54C775.333 1232.54 781.762 1233.24 787.802 1234.54L768.862 1197.04L768.761 1196.98L789.455 1161.56C786.544 1160.66 783.611 1159.45 780.729 1157.91C763.83 1148.93 755.042 1132.41 761.101 1121.01C767.16 1109.61 785.77 1107.66 802.669 1116.64C819.568 1125.63 828.356 1142.15 822.297 1153.54Z" fill="#8DC73F"/>
</svg>
