<svg width="839" height="119" viewBox="0 0 839 119" fill="none" xmlns="http://www.w3.org/2000/svg">
<path fill-rule="evenodd" clip-rule="evenodd" d="M311.158 0.928955V0.928996V14.4236V117.882H324.653V14.4236H364.237V0.928955H311.158Z" fill="#8DC73F"/>
<path fill-rule="evenodd" clip-rule="evenodd" d="M496.482 0.928955V14.4236H519.873V118.782H533.368V14.4236H558.558V0.928955H496.482Z" fill="#8DC73F"/>
<path fill-rule="evenodd" clip-rule="evenodd" d="M785.268 0.928955V0.928996V14.4236V51.3088V64.8034V104.388V117.882H798.762L838.346 117.882V104.388H798.762V64.8034H838.346V51.3088H798.762V14.4236H838.346V0.928955H785.268Z" fill="#8DC73F"/>
<path fill-rule="evenodd" clip-rule="evenodd" d="M143.914 0.928955V0.928996H139.416V92.3995C137.572 92.0053 135.607 91.7927 133.569 91.7927C122.886 91.7927 114.227 97.6331 114.227 104.838C114.227 112.042 122.886 117.882 133.569 117.882C144.028 117.882 152.548 112.283 152.9 105.287H152.911V104.892L152.911 104.838L152.911 104.783V41.4129H192.495V92.3996C190.65 92.0054 188.686 91.7927 186.647 91.7927C175.965 91.7927 167.305 97.6331 167.305 104.838C167.305 112.042 175.965 117.882 186.647 117.882C197.106 117.882 205.627 112.283 205.978 105.287H205.99V0.928996L196.993 0.928955H143.914ZM192.495 14.4236V27.9183H152.911V14.4236H192.495Z" fill="#8DC73F"/>
<path fill-rule="evenodd" clip-rule="evenodd" d="M596.343 0.929077V0.929118H591.844V92.3996C589.999 92.0055 588.035 91.7929 585.997 91.7929C575.314 91.7929 566.654 97.6332 566.654 104.838C566.654 112.042 575.314 117.882 585.997 117.882C596.456 117.882 604.976 112.284 605.328 105.287H605.339V104.893L605.339 104.838L605.339 104.783V41.413H644.923V92.3997C643.078 92.0055 641.113 91.7929 639.075 91.7929C628.393 91.7929 619.733 97.6332 619.733 104.838C619.733 112.042 628.393 117.882 639.075 117.882C649.534 117.882 658.054 112.284 658.406 105.287H658.418V0.929118H649.421V0.929077H596.343ZM644.923 14.4237V27.9184H605.339V14.4237H644.923Z" fill="#8DC73F"/>
<path fill-rule="evenodd" clip-rule="evenodd" d="M401.717 1.66559H415.212V70.8552L454.796 7.50674V1.66559H468.291V105.52C468.291 105.538 468.291 105.556 468.291 105.574C468.291 105.592 468.291 105.61 468.291 105.628V106.024H468.28C467.928 113.02 459.408 118.619 448.949 118.619C438.266 118.619 429.606 112.779 429.606 105.574C429.606 98.3697 438.266 92.5293 448.949 92.5293C450.987 92.5293 452.951 92.7419 454.796 93.136V32.9721L415.212 96.3206V105.519L415.212 105.574L415.212 105.629V106.024H415.201C414.849 113.02 406.329 118.619 395.87 118.619C385.187 118.619 376.527 112.779 376.527 105.574C376.527 98.3697 385.187 92.5293 395.87 92.5293C397.908 92.5293 399.872 92.7419 401.717 93.136V1.66559Z" fill="#8DC73F"/>
<path fill-rule="evenodd" clip-rule="evenodd" d="M26.0608 0.929016H39.5555V39.6135H78.2401V0.929016H91.7347V104.784C91.7348 104.802 91.7349 104.82 91.7349 104.838C91.7349 104.855 91.7348 104.873 91.7347 104.891V105.287H91.7236C91.3721 112.283 82.8518 117.882 72.3926 117.882C61.7102 117.882 53.0503 112.042 53.0503 104.838C53.0503 97.6331 61.7102 91.7927 72.3926 91.7927C74.4308 91.7927 76.3953 92.0054 78.2401 92.3995V53.1081H39.5555V104.783L39.5556 104.838L39.5555 104.892V105.287H39.5443C39.1929 112.283 30.6726 117.882 20.2134 117.882C9.53092 117.882 0.871094 112.042 0.871094 104.838C0.871094 97.6331 9.53092 91.7927 20.2134 91.7927C22.2515 91.7927 24.216 92.0054 26.0608 92.3995V0.929016Z" fill="#8DC73F"/>
<path fill-rule="evenodd" clip-rule="evenodd" d="M721.842 49.5096C741.468 49.5096 757.378 38.6345 757.378 25.2193C757.378 11.8041 741.468 0.929016 721.842 0.929016C702.657 0.929016 687.023 11.3214 686.331 24.3198H686.307V25.2193V117.882H699.801V44.2739C705.859 47.5522 713.516 49.5096 721.842 49.5096Z" fill="#8DC73F"/>
</svg>
