<svg width="776" height="110" viewBox="0 0 776 110" fill="none" xmlns="http://www.w3.org/2000/svg">
<path fill-rule="evenodd" clip-rule="evenodd" d="M287.683 0.0960236H287.683V108.299H300.168V12.581H336.791V0.0960236H300.168H287.683Z" fill="#8DC73F"/>
<path fill-rule="evenodd" clip-rule="evenodd" d="M459.144 0.0960236V12.581H480.785V109.132H493.27V12.581H516.575V0.0960236H459.144Z" fill="#8DC73F"/>
<path fill-rule="evenodd" clip-rule="evenodd" d="M726.323 0.0960236L726.323 12.581L726.323 46.7066V59.1916V95.8143L726.323 108.299H738.808H775.43V95.8143H738.808V59.1916H775.43V46.7066H738.808V12.581H775.43V0.0960236H738.808H726.323H726.323Z" fill="#8DC73F"/>
<path fill-rule="evenodd" clip-rule="evenodd" d="M128.79 0.0960236H141.275H177.898H190.383V96.1688C190.383 96.1893 190.383 96.2099 190.383 96.2304C190.383 96.251 190.383 96.2716 190.383 96.2921V96.6466H190.373C190.047 103.119 182.165 108.299 172.488 108.299C162.605 108.299 154.593 102.896 154.593 96.2304C154.593 89.565 162.605 84.1616 172.488 84.1616C174.374 84.1616 176.191 84.3583 177.898 84.7229V37.551H141.275V96.1682L141.276 96.2304L141.275 96.2926V96.6466H141.265C140.94 103.119 133.057 108.299 123.381 108.299C113.497 108.299 105.485 102.896 105.485 96.2304C105.485 89.565 113.497 84.1616 123.381 84.1616C125.266 84.1616 127.084 84.3583 128.79 84.7229V0.0960236ZM141.275 12.581H177.898V25.066L141.275 25.066V12.581Z" fill="#8DC73F"/>
<path fill-rule="evenodd" clip-rule="evenodd" d="M547.371 0.0960236H559.856H596.479H608.964V96.1688C608.965 96.1893 608.965 96.2099 608.965 96.2304C608.965 96.251 608.965 96.2716 608.964 96.2921V96.6466H608.954C608.629 103.119 600.746 108.299 591.07 108.299C581.186 108.299 573.174 102.896 573.174 96.2304C573.174 89.565 581.186 84.1616 591.07 84.1616C592.955 84.1616 594.773 84.3583 596.479 84.7229V37.551H559.856V96.6466H559.846C559.521 103.119 551.638 108.299 541.961 108.299C532.078 108.299 524.066 102.896 524.066 96.2304C524.066 89.565 532.078 84.1616 541.961 84.1616C543.847 84.1616 545.665 84.3583 547.371 84.723V0.0960236ZM559.856 12.581H596.479V25.066L559.856 25.066V12.581Z" fill="#8DC73F"/>
<path fill-rule="evenodd" clip-rule="evenodd" d="M371.468 0.777466H383.953V64.79L420.576 6.1817V0.777466H433.061V97.328H433.05C432.725 103.801 424.842 108.981 415.165 108.981C405.282 108.981 397.27 103.577 397.27 96.9119C397.27 90.2465 405.282 84.8431 415.165 84.8431C417.051 84.8431 418.869 85.0398 420.576 85.4045V29.7419L383.953 88.3501V97.328H383.942C383.617 103.801 375.734 108.981 366.058 108.981C356.175 108.981 348.163 103.577 348.163 96.9119C348.163 90.2465 356.175 84.8431 366.058 84.8431C367.944 84.8431 369.761 85.0398 371.468 85.4045V0.777466Z" fill="#8DC73F"/>
<path fill-rule="evenodd" clip-rule="evenodd" d="M23.9169 0.0960693H36.4019V35.8864H72.1923V0.0960693H84.6773V96.1688C84.6774 96.1894 84.6775 96.2099 84.6775 96.2305C84.6775 96.2511 84.6774 96.2716 84.6773 96.2922V96.6467H84.6671C84.3418 103.119 76.459 108.299 66.7823 108.299C56.8991 108.299 48.8872 102.896 48.8872 96.2305C48.8872 89.5651 56.8991 84.1617 66.7823 84.1617C68.668 84.1617 70.4855 84.3584 72.1923 84.723V48.3714H36.4019V96.1683L36.4021 96.2305L36.4019 96.2927V96.6467H36.3917C36.0665 103.119 28.1837 108.299 18.507 108.299C8.62375 108.299 0.611816 102.896 0.611816 96.2305C0.611816 89.5651 8.62375 84.1617 18.507 84.1617C20.3926 84.1617 22.2101 84.3584 23.9169 84.723V0.0960693Z" fill="#8DC73F"/>
<path fill-rule="evenodd" clip-rule="evenodd" d="M667.643 45.042C685.801 45.042 700.52 34.9805 700.52 22.569C700.52 10.1575 685.801 0.0960236 667.643 0.0960236C649.893 0.0960236 635.429 9.71079 634.788 21.7367H634.766V22.5451C634.766 22.553 634.766 22.561 634.766 22.569C634.766 22.577 634.766 22.585 634.766 22.5929V108.299H647.251V40.198C652.855 43.231 659.94 45.042 667.643 45.042Z" fill="#8DC73F"/>
</svg>
