<svg width="1280" height="1960" viewBox="0 0 1280 1960" fill="none" xmlns="http://www.w3.org/2000/svg">
<path fill-rule="evenodd" clip-rule="evenodd" d="M56.4684 4H34V4.00001V26.005V194.71H56.4684V26.005H122.376V4.00001L56.4684 4Z" fill="#8DC73F"/>
<path fill-rule="evenodd" clip-rule="evenodd" d="M312.606 4.50195V26.5069H351.551V196.678H374.02V26.5069H415.961V4.50195H312.606Z" fill="#8DC73F"/>
<path fill-rule="evenodd" clip-rule="evenodd" d="M484.866 48.5991V48.5992H477.375V197.755C474.304 197.112 471.033 196.766 467.64 196.766C449.854 196.766 435.436 206.289 435.436 218.037C435.436 229.785 449.854 239.309 467.64 239.309C485.055 239.309 499.241 230.179 499.826 218.771H499.844V218.235C499.844 218.211 499.844 218.187 499.844 218.163C499.845 218.121 499.845 218.079 499.845 218.037C499.845 217.971 499.845 217.905 499.844 217.839V114.614H565.753V197.755C562.681 197.113 559.409 196.766 556.015 196.766C538.229 196.766 523.811 206.289 523.811 218.037C523.811 229.785 538.229 239.309 556.015 239.309C573.43 239.309 587.616 230.179 588.201 218.771H588.221V48.5992H573.242V48.5991H484.866ZM565.753 70.6041V92.609H499.844V70.6041H565.753Z" fill="#8DC73F"/>
<path fill-rule="evenodd" clip-rule="evenodd" d="M830.877 48.5989V48.5991H823.387V197.755C820.316 197.112 817.045 196.766 813.652 196.766C795.866 196.766 781.447 206.289 781.447 218.037C781.447 229.785 795.866 239.308 813.652 239.308C831.066 239.308 845.252 230.179 845.838 218.771H845.856V218.223C845.856 218.161 845.857 218.099 845.857 218.037C845.857 217.975 845.856 217.913 845.856 217.851V114.614H911.763V197.755C908.692 197.112 905.421 196.766 902.027 196.766C884.241 196.766 869.823 206.289 869.823 218.037C869.823 229.785 884.241 239.308 902.027 239.308C919.442 239.308 933.628 230.179 934.213 218.771H934.232V218.115C934.232 218.089 934.232 218.063 934.232 218.037C934.232 218.011 934.232 217.985 934.232 217.959V48.5991H919.253V48.5989H830.877ZM911.763 70.6038V92.609H845.856V70.6038H911.763Z" fill="#8DC73F"/>
<path fill-rule="evenodd" clip-rule="evenodd" d="M164.318 48.599H186.786V161.426L252.695 58.1252V48.599H275.163V218.771H275.144C274.559 230.179 260.372 239.309 242.958 239.309C225.172 239.309 210.753 229.785 210.753 218.037C210.753 206.289 225.172 196.766 242.958 196.766C246.352 196.766 249.623 197.112 252.695 197.755V99.6503L186.786 202.951V217.851C186.787 217.913 186.787 217.975 186.787 218.037C186.787 218.099 186.787 218.161 186.786 218.223V218.771H186.769C186.183 230.179 171.997 239.309 154.583 239.309C136.796 239.309 122.378 229.785 122.378 218.037C122.378 206.289 136.796 196.766 154.583 196.766C157.976 196.766 161.246 197.112 164.318 197.755V48.599Z" fill="#8DC73F"/>
<path fill-rule="evenodd" clip-rule="evenodd" d="M971.681 4.01953H994.149V27.7902C1000.06 23.1244 1008.94 20.1566 1018.86 20.1566C1036.65 20.1566 1051.07 29.6802 1051.07 41.4281C1051.07 53.176 1036.65 62.6995 1018.86 62.6995C1008.94 62.6995 1000.06 59.7317 994.149 55.0659V124.049C1004.23 118.703 1016.98 115.511 1030.85 115.511C1063.52 115.511 1090.01 133.245 1090.01 155.12C1090.01 176.996 1063.52 194.729 1030.85 194.729C998.904 194.729 972.873 177.783 971.72 156.587H971.681V155.12V4.01953Z" fill="#8DC73F"/>
<path fill-rule="evenodd" clip-rule="evenodd" d="M1186.63 124.883C1219.31 124.883 1245.8 107.149 1245.8 85.274C1245.8 63.3986 1219.31 45.665 1186.63 45.665C1154.69 45.665 1128.66 62.6111 1127.5 83.8068H1127.46V85.274V236.374H1149.93V116.345C1160.02 121.691 1172.77 124.883 1186.63 124.883Z" fill="#8DC73F"/>
<path fill-rule="evenodd" clip-rule="evenodd" d="M734.677 43.2243C734.265 43.9842 733.79 44.698 733.257 45.3652L710.526 83.465L739.215 139.101C740.347 140.863 741.293 142.692 742.037 144.575L742.484 145.441L742.382 145.491C743.441 148.457 744.002 151.551 744.002 154.734C744.002 176.609 717.512 194.343 684.835 194.343C652.158 194.343 625.668 176.609 625.668 154.734C625.668 132.859 652.158 115.125 684.835 115.125C691.032 115.125 697.006 115.763 702.619 116.946L685.017 82.8108L684.924 82.7578L704.157 50.5235C701.451 49.7014 698.725 48.5962 696.046 47.2013C680.341 39.0246 672.174 23.9869 677.805 13.6137C683.436 3.24052 700.732 1.45995 716.437 9.6367C732.141 17.8134 740.308 32.8511 734.677 43.2243Z" fill="#8DC73F"/>
<path fill-rule="evenodd" clip-rule="evenodd" d="M56.4684 1729.2H34V1729.2V1751.21V1919.91H56.4684V1751.21H122.376V1729.2H56.4684V1729.2Z" fill="#8DC73F"/>
<path fill-rule="evenodd" clip-rule="evenodd" d="M312.606 1727.73V1749.74H351.551V1919.91H374.02V1749.74H415.961V1727.73H312.606Z" fill="#8DC73F"/>
<path fill-rule="evenodd" clip-rule="evenodd" d="M484.866 1757.06V1757.06H477.375V1906.22C474.304 1905.58 471.033 1905.23 467.64 1905.23C449.854 1905.23 435.436 1914.75 435.436 1926.5C435.436 1938.25 449.854 1947.77 467.64 1947.77C485.055 1947.77 499.241 1938.64 499.826 1927.24H499.844V1926.7C499.844 1926.68 499.844 1926.65 499.844 1926.63C499.845 1926.59 499.845 1926.54 499.845 1926.5C499.845 1926.44 499.845 1926.37 499.844 1926.3V1823.08H565.753V1906.22C562.681 1905.58 559.409 1905.23 556.015 1905.23C538.229 1905.23 523.811 1914.75 523.811 1926.5C523.811 1938.25 538.229 1947.77 556.015 1947.77C573.43 1947.77 587.616 1938.64 588.201 1927.24H588.221V1757.06H573.242V1757.06H484.866ZM565.753 1779.07V1801.07H499.844V1779.07H565.753Z" fill="#8DC73F"/>
<path fill-rule="evenodd" clip-rule="evenodd" d="M830.877 1757.06V1757.06H823.387V1906.22C820.316 1905.58 817.045 1905.23 813.652 1905.23C795.866 1905.23 781.447 1914.75 781.447 1926.5C781.447 1938.25 795.866 1947.77 813.652 1947.77C831.066 1947.77 845.253 1938.64 845.838 1927.24H845.856V1926.69C845.856 1926.63 845.857 1926.56 845.857 1926.5C845.857 1926.44 845.856 1926.38 845.856 1926.32V1823.08H911.763V1906.22C908.692 1905.58 905.421 1905.23 902.027 1905.23C884.241 1905.23 869.823 1914.75 869.823 1926.5C869.823 1938.25 884.241 1947.77 902.027 1947.77C919.442 1947.77 933.628 1938.64 934.213 1927.24H934.232V1926.58C934.232 1926.55 934.232 1926.53 934.232 1926.5C934.232 1926.48 934.232 1926.45 934.232 1926.42V1757.06H919.253V1757.06H830.877ZM911.763 1779.07V1801.07H845.856V1779.07H911.763Z" fill="#8DC73F"/>
<path fill-rule="evenodd" clip-rule="evenodd" d="M164.318 1757.06H186.786V1869.89L252.695 1766.59V1757.06H275.163V1927.24H275.144C274.559 1938.64 260.372 1947.77 242.958 1947.77C225.172 1947.77 210.753 1938.25 210.753 1926.5C210.753 1914.75 225.172 1905.23 242.958 1905.23C246.352 1905.23 249.623 1905.58 252.695 1906.22V1808.12L186.786 1911.42V1926.32C186.787 1926.38 186.787 1926.44 186.787 1926.5C186.787 1926.56 186.787 1926.63 186.786 1926.69V1927.24H186.769C186.183 1938.64 171.997 1947.77 154.583 1947.77C136.796 1947.77 122.378 1938.25 122.378 1926.5C122.378 1914.75 136.796 1905.23 154.583 1905.23C157.976 1905.23 161.246 1905.58 164.318 1906.22V1757.06Z" fill="#8DC73F"/>
<path fill-rule="evenodd" clip-rule="evenodd" d="M971.681 1726.27H994.149V1750.04C1000.06 1745.37 1008.94 1742.4 1018.86 1742.4C1036.65 1742.4 1051.07 1751.93 1051.07 1763.68C1051.07 1775.42 1036.65 1784.95 1018.86 1784.95C1008.94 1784.95 1000.06 1781.98 994.149 1777.31V1846.3C1004.23 1840.95 1016.98 1837.76 1030.85 1837.76C1063.52 1837.76 1090.01 1855.49 1090.01 1877.37C1090.01 1899.24 1063.52 1916.98 1030.85 1916.98C998.904 1916.98 972.873 1900.03 971.72 1878.84H971.681V1877.37V1726.27Z" fill="#8DC73F"/>
<path fill-rule="evenodd" clip-rule="evenodd" d="M1186.63 1833.35C1219.31 1833.35 1245.8 1815.61 1245.8 1793.74C1245.8 1771.86 1219.31 1754.13 1186.63 1754.13C1154.69 1754.13 1128.66 1771.08 1127.5 1792.27H1127.46V1793.74V1944.84H1149.93V1824.81C1160.02 1830.16 1172.77 1833.35 1186.63 1833.35Z" fill="#8DC73F"/>
<path fill-rule="evenodd" clip-rule="evenodd" d="M734.677 1766.46C734.265 1767.22 733.79 1767.93 733.257 1768.6L710.526 1806.7L739.215 1862.33C740.347 1864.1 741.293 1865.92 742.037 1867.81L742.484 1868.67L742.382 1868.72C743.441 1871.69 744.002 1874.78 744.002 1877.97C744.002 1899.84 717.512 1917.58 684.835 1917.58C652.158 1917.58 625.668 1899.84 625.668 1877.97C625.668 1856.09 652.158 1838.36 684.835 1838.36C691.032 1838.36 697.006 1839 702.619 1840.18L685.017 1806.04L684.924 1805.99L704.157 1773.76C701.451 1772.93 698.725 1771.83 696.046 1770.43C680.341 1762.26 672.174 1747.22 677.805 1736.85C683.436 1726.47 700.732 1724.69 716.437 1732.87C732.141 1741.05 740.308 1756.08 734.677 1766.46Z" fill="#8DC73F"/>
<path fill-rule="evenodd" clip-rule="evenodd" d="M56.4684 256.934H34V256.934V278.939V447.643H56.4684V278.939H122.376V256.934H56.4684V256.934Z" fill="#8DC73F"/>
<path fill-rule="evenodd" clip-rule="evenodd" d="M312.606 255.467V277.472H351.551V447.643H374.02V277.472H415.961V255.467H312.606Z" fill="#8DC73F"/>
<path fill-rule="evenodd" clip-rule="evenodd" d="M484.866 284.797V284.797H477.375V433.952C474.304 433.31 471.033 432.963 467.64 432.963C449.854 432.963 435.436 442.487 435.436 454.235C435.436 465.983 449.854 475.506 467.64 475.506C485.055 475.506 499.241 466.377 499.826 454.968H499.844V454.433C499.844 454.409 499.844 454.385 499.844 454.361C499.845 454.319 499.845 454.277 499.845 454.235C499.845 454.169 499.845 454.103 499.844 454.037V350.812H565.753V433.953C562.681 433.31 559.409 432.963 556.015 432.963C538.229 432.963 523.811 442.487 523.811 454.235C523.811 465.983 538.229 475.506 556.015 475.506C573.43 475.506 587.616 466.377 588.201 454.968H588.221V284.797H573.242V284.797H484.866ZM565.753 306.802V328.807H499.844V306.802H565.753Z" fill="#8DC73F"/>
<path fill-rule="evenodd" clip-rule="evenodd" d="M830.877 284.797V284.797H823.387V433.952C820.316 433.31 817.045 432.963 813.652 432.963C795.866 432.963 781.447 442.487 781.447 454.235C781.447 465.983 795.866 475.506 813.652 475.506C831.066 475.506 845.252 466.377 845.838 454.968H845.856V454.421C845.856 454.359 845.857 454.297 845.857 454.235C845.857 454.173 845.856 454.111 845.856 454.049V350.812H911.763V433.953C908.692 433.31 905.421 432.963 902.027 432.963C884.241 432.963 869.823 442.487 869.823 454.235C869.823 465.983 884.241 475.506 902.027 475.506C919.442 475.506 933.628 466.377 934.213 454.968H934.232V454.313C934.232 454.287 934.232 454.261 934.232 454.235C934.232 454.209 934.232 454.183 934.232 454.156V284.797H919.253V284.797H830.877ZM911.763 306.802V328.807H845.856V306.802H911.763Z" fill="#8DC73F"/>
<path fill-rule="evenodd" clip-rule="evenodd" d="M164.318 284.797H186.786V397.624L252.695 294.323V284.797H275.163V454.968H275.144C274.559 466.377 260.372 475.506 242.958 475.506C225.172 475.506 210.753 465.983 210.753 454.235C210.753 442.487 225.172 432.963 242.958 432.963C246.352 432.963 249.623 433.31 252.695 433.953V335.848L186.786 439.149V454.049C186.787 454.111 186.787 454.173 186.787 454.235C186.787 454.297 186.787 454.359 186.786 454.421V454.968H186.769C186.183 466.377 171.997 475.506 154.583 475.506C136.796 475.506 122.378 465.983 122.378 454.235C122.378 442.487 136.796 432.963 154.583 432.963C157.976 432.963 161.246 433.31 164.318 433.953V284.797Z" fill="#8DC73F"/>
<path fill-rule="evenodd" clip-rule="evenodd" d="M971.681 254H994.149V277.771C1000.06 273.105 1008.94 270.137 1018.86 270.137C1036.65 270.137 1051.07 279.661 1051.07 291.408C1051.07 303.156 1036.65 312.68 1018.86 312.68C1008.94 312.68 1000.06 309.712 994.149 305.046V374.029C1004.23 368.684 1016.98 365.492 1030.85 365.492C1063.52 365.492 1090.01 383.225 1090.01 405.101C1090.01 426.976 1063.52 444.71 1030.85 444.71C998.904 444.71 972.873 427.763 971.72 406.568H971.681V405.101V254Z" fill="#8DC73F"/>
<path fill-rule="evenodd" clip-rule="evenodd" d="M1186.63 361.081C1219.31 361.081 1245.8 343.347 1245.8 321.472C1245.8 299.596 1219.31 281.863 1186.63 281.863C1154.69 281.863 1128.66 298.809 1127.5 320.005H1127.46V321.472V472.572H1149.93V352.543C1160.02 357.889 1172.77 361.081 1186.63 361.081Z" fill="#8DC73F"/>
<path fill-rule="evenodd" clip-rule="evenodd" d="M734.677 294.189C734.265 294.949 733.79 295.663 733.257 296.33L710.526 334.43L739.215 390.066C740.347 391.828 741.293 393.657 742.038 395.54L742.484 396.406L742.382 396.456C743.441 399.421 744.002 402.516 744.002 405.699C744.002 427.574 717.512 445.308 684.835 445.308C652.158 445.308 625.668 427.574 625.668 405.699C625.668 383.823 652.158 366.09 684.835 366.09C691.032 366.09 697.006 366.728 702.619 367.91L685.017 333.776L684.924 333.723L704.157 301.488C701.451 300.666 698.725 299.561 696.046 298.166C680.341 289.989 672.174 274.952 677.805 264.579C683.436 254.205 700.732 252.425 716.437 260.602C732.141 268.778 740.308 283.816 734.677 294.189Z" fill="#8DC73F"/>
<path fill-rule="evenodd" clip-rule="evenodd" d="M56.4684 516.984H34V516.985V538.99V707.694H56.4684V538.99H122.376V516.985H56.4684V516.984Z" fill="#8DC73F"/>
<path fill-rule="evenodd" clip-rule="evenodd" d="M312.606 516V538.005H351.551V708.177H374.02V538.005H415.961V516H312.606Z" fill="#8DC73F"/>
<path fill-rule="evenodd" clip-rule="evenodd" d="M484.866 516.985V516.985H477.375V666.14C474.304 665.498 471.033 665.151 467.64 665.151C449.854 665.151 435.436 674.675 435.436 686.423C435.436 698.171 449.854 707.694 467.64 707.694C485.055 707.694 499.241 698.565 499.826 687.156H499.844V686.621C499.844 686.597 499.844 686.573 499.844 686.549C499.845 686.507 499.845 686.465 499.845 686.423C499.845 686.357 499.845 686.291 499.844 686.225V582.999H565.753V666.141C562.681 665.498 559.409 665.151 556.015 665.151C538.229 665.151 523.811 674.675 523.811 686.423C523.811 698.171 538.229 707.694 556.015 707.694C573.43 707.694 587.616 698.565 588.201 687.156H588.221V516.985H573.242V516.985H484.866ZM565.753 538.99V560.995H499.844V538.99H565.753Z" fill="#8DC73F"/>
<path fill-rule="evenodd" clip-rule="evenodd" d="M830.877 516.984V516.985H823.387V666.14C820.316 665.498 817.045 665.151 813.652 665.151C795.866 665.151 781.447 674.675 781.447 686.423C781.447 698.171 795.866 707.694 813.652 707.694C831.067 707.694 845.253 698.565 845.838 687.156H845.856V686.609C845.856 686.547 845.857 686.485 845.857 686.423C845.857 686.361 845.856 686.299 845.856 686.237V582.999H911.763V666.141C908.692 665.498 905.421 665.151 902.027 665.151C884.241 665.151 869.823 674.675 869.823 686.423C869.823 698.171 884.241 707.694 902.027 707.694C919.442 707.694 933.628 698.565 934.213 687.156H934.232V686.501C934.232 686.475 934.232 686.449 934.232 686.423C934.232 686.397 934.232 686.371 934.232 686.344V516.985H919.253V516.984H830.877ZM911.763 538.989V560.994H845.856V538.989H911.763Z" fill="#8DC73F"/>
<path fill-rule="evenodd" clip-rule="evenodd" d="M164.318 516.985H186.786V629.811L252.695 526.511V516.985H275.163V687.156H275.144C274.559 698.565 260.373 707.694 242.958 707.694C225.172 707.694 210.753 698.171 210.753 686.423C210.753 674.675 225.172 665.151 242.958 665.151C246.352 665.151 249.623 665.498 252.695 666.141V568.036L186.786 671.337V686.237C186.787 686.299 186.787 686.361 186.787 686.423C186.787 686.485 186.787 686.547 186.786 686.609V687.156H186.769C186.183 698.565 171.997 707.694 154.583 707.694C136.796 707.694 122.378 698.171 122.378 686.423C122.378 674.675 136.796 665.151 154.583 665.151C157.976 665.151 161.246 665.498 164.318 666.141V516.985Z" fill="#8DC73F"/>
<path fill-rule="evenodd" clip-rule="evenodd" d="M971.681 516.985H994.149V540.755C1000.06 536.089 1008.94 533.122 1018.86 533.122C1036.65 533.122 1051.07 542.645 1051.07 554.393C1051.07 566.141 1036.65 575.664 1018.86 575.664C1008.94 575.664 1000.06 572.697 994.149 568.031V637.014C1004.23 631.668 1016.98 628.476 1030.85 628.476C1063.52 628.476 1090.01 646.21 1090.01 668.085C1090.01 689.961 1063.52 707.694 1030.85 707.694C998.904 707.694 972.873 690.748 971.72 669.552H971.681V668.085V516.985Z" fill="#8DC73F"/>
<path fill-rule="evenodd" clip-rule="evenodd" d="M1186.63 596.202C1219.31 596.202 1245.8 578.469 1245.8 556.593C1245.8 534.718 1219.31 516.984 1186.63 516.984C1154.69 516.984 1128.66 533.931 1127.5 555.126H1127.46V556.593V707.694H1149.93V587.665C1160.02 593.011 1172.77 596.202 1186.63 596.202Z" fill="#8DC73F"/>
<path fill-rule="evenodd" clip-rule="evenodd" d="M734.677 555.707C734.265 556.467 733.79 557.181 733.257 557.848L710.526 595.947L739.215 651.583C740.347 653.346 741.293 655.174 742.038 657.057L742.484 657.923L742.382 657.973C743.441 660.939 744.002 664.034 744.002 667.216C744.002 689.092 717.512 706.825 684.835 706.825C652.158 706.825 625.668 689.092 625.668 667.216C625.668 645.341 652.158 627.607 684.835 627.607C691.032 627.607 697.006 628.245 702.619 629.428L685.017 595.293L684.924 595.24L704.157 563.006C701.451 562.184 698.725 561.079 696.046 559.684C680.341 551.507 672.174 536.469 677.805 526.096C683.436 515.723 700.732 513.942 716.437 522.119C732.141 530.296 740.308 545.333 734.677 555.707Z" fill="#8DC73F"/>
<path fill-rule="evenodd" clip-rule="evenodd" d="M56.4684 1496.98H34V1496.98V1518.99V1687.69H56.4684V1518.99H122.376V1496.98H56.4684V1496.98Z" fill="#8DC73F"/>
<path fill-rule="evenodd" clip-rule="evenodd" d="M312.606 1496V1518H351.551V1688.18H374.02V1518H415.961V1496H312.606Z" fill="#8DC73F"/>
<path fill-rule="evenodd" clip-rule="evenodd" d="M484.866 1496.98V1496.98H477.375V1646.14C474.304 1645.5 471.033 1645.15 467.64 1645.15C449.854 1645.15 435.436 1654.67 435.436 1666.42C435.436 1678.17 449.854 1687.69 467.64 1687.69C485.055 1687.69 499.241 1678.56 499.826 1667.16H499.844V1666.62C499.844 1666.6 499.844 1666.57 499.844 1666.55C499.845 1666.51 499.845 1666.46 499.845 1666.42C499.845 1666.36 499.845 1666.29 499.844 1666.22V1563H565.753V1646.14C562.681 1645.5 559.409 1645.15 556.015 1645.15C538.229 1645.15 523.811 1654.67 523.811 1666.42C523.811 1678.17 538.229 1687.69 556.015 1687.69C573.43 1687.69 587.616 1678.56 588.201 1667.16H588.221V1496.98H573.242V1496.98H484.866ZM565.753 1518.99V1540.99H499.844V1518.99H565.753Z" fill="#8DC73F"/>
<path fill-rule="evenodd" clip-rule="evenodd" d="M830.877 1496.98V1496.98H823.387V1646.14C820.316 1645.5 817.045 1645.15 813.652 1645.15C795.866 1645.15 781.447 1654.67 781.447 1666.42C781.447 1678.17 795.866 1687.69 813.652 1687.69C831.066 1687.69 845.253 1678.56 845.838 1667.16H845.856V1666.61C845.856 1666.55 845.857 1666.48 845.857 1666.42C845.857 1666.36 845.856 1666.3 845.856 1666.24V1563H911.763V1646.14C908.692 1645.5 905.421 1645.15 902.027 1645.15C884.241 1645.15 869.823 1654.67 869.823 1666.42C869.823 1678.17 884.241 1687.69 902.027 1687.69C919.442 1687.69 933.628 1678.56 934.213 1667.16H934.232V1666.5C934.232 1666.47 934.232 1666.45 934.232 1666.42C934.232 1666.4 934.232 1666.37 934.232 1666.34V1496.98H919.253V1496.98H830.877ZM911.763 1518.99V1540.99H845.856V1518.99H911.763Z" fill="#8DC73F"/>
<path fill-rule="evenodd" clip-rule="evenodd" d="M164.318 1496.98H186.786V1609.81L252.695 1506.51V1496.98H275.163V1667.16H275.144C274.559 1678.56 260.372 1687.69 242.958 1687.69C225.172 1687.69 210.753 1678.17 210.753 1666.42C210.753 1654.67 225.172 1645.15 242.958 1645.15C246.352 1645.15 249.623 1645.5 252.695 1646.14V1548.04L186.786 1651.34V1666.24C186.787 1666.3 186.787 1666.36 186.787 1666.42C186.787 1666.48 186.787 1666.55 186.786 1666.61V1667.16H186.769C186.183 1678.56 171.997 1687.69 154.583 1687.69C136.796 1687.69 122.378 1678.17 122.378 1666.42C122.378 1654.67 136.796 1645.15 154.583 1645.15C157.976 1645.15 161.246 1645.5 164.318 1646.14V1496.98Z" fill="#8DC73F"/>
<path fill-rule="evenodd" clip-rule="evenodd" d="M971.681 1496.98H994.149V1520.75C1000.06 1516.09 1008.94 1513.12 1018.86 1513.12C1036.65 1513.12 1051.07 1522.64 1051.07 1534.39C1051.07 1546.14 1036.65 1555.66 1018.86 1555.66C1008.94 1555.66 1000.06 1552.7 994.149 1548.03V1617.01C1004.23 1611.67 1016.98 1608.48 1030.85 1608.48C1063.52 1608.48 1090.01 1626.21 1090.01 1648.09C1090.01 1669.96 1063.52 1687.69 1030.85 1687.69C998.904 1687.69 972.873 1670.75 971.72 1649.55H971.681V1648.09V1496.98Z" fill="#8DC73F"/>
<path fill-rule="evenodd" clip-rule="evenodd" d="M1186.63 1576.2C1219.31 1576.2 1245.8 1558.47 1245.8 1536.59C1245.8 1514.72 1219.31 1496.98 1186.63 1496.98C1154.69 1496.98 1128.66 1513.93 1127.5 1535.13H1127.46V1536.59V1687.69H1149.93V1567.66C1160.02 1573.01 1172.77 1576.2 1186.63 1576.2Z" fill="#8DC73F"/>
<path fill-rule="evenodd" clip-rule="evenodd" d="M734.677 1535.71C734.265 1536.47 733.79 1537.18 733.257 1537.85L710.526 1575.95L739.215 1631.58C740.347 1633.35 741.293 1635.17 742.037 1637.06L742.484 1637.92L742.382 1637.97C743.441 1640.94 744.002 1644.03 744.002 1647.22C744.002 1669.09 717.512 1686.83 684.835 1686.83C652.158 1686.83 625.668 1669.09 625.668 1647.22C625.668 1625.34 652.158 1607.61 684.835 1607.61C691.032 1607.61 697.006 1608.25 702.619 1609.43L685.017 1575.29L684.924 1575.24L704.157 1543.01C701.451 1542.18 698.725 1541.08 696.046 1539.68C680.341 1531.51 672.174 1516.47 677.805 1506.1C683.436 1495.72 700.732 1493.94 716.437 1502.12C732.141 1510.3 740.308 1525.33 734.677 1535.71Z" fill="#8DC73F"/>
<path fill-rule="evenodd" clip-rule="evenodd" d="M56.4684 774.69H34V774.69V796.695V965.399H56.4684V796.695H122.376V774.69H56.4684V774.69Z" fill="#8DC73F"/>
<path fill-rule="evenodd" clip-rule="evenodd" d="M312.606 773.705V795.71H351.551V965.882H374.02V795.71H415.961V773.705H312.606Z" fill="#8DC73F"/>
<path fill-rule="evenodd" clip-rule="evenodd" d="M484.866 755V755H477.375V904.156C474.304 903.513 471.033 903.167 467.64 903.167C449.854 903.167 435.436 912.69 435.436 924.438C435.436 936.186 449.854 945.71 467.64 945.71C485.055 945.71 499.241 936.58 499.826 925.172H499.844V924.636C499.844 924.612 499.844 924.588 499.844 924.564C499.845 924.522 499.845 924.48 499.845 924.438C499.845 924.372 499.845 924.306 499.844 924.24V821.015H565.753V904.156C562.681 903.513 559.409 903.167 556.015 903.167C538.229 903.167 523.811 912.69 523.811 924.438C523.811 936.186 538.229 945.71 556.015 945.71C573.43 945.71 587.616 936.58 588.201 925.172H588.221V755H573.242V755H484.866ZM565.753 777.005V799.01H499.844V777.005H565.753Z" fill="#8DC73F"/>
<path fill-rule="evenodd" clip-rule="evenodd" d="M830.877 755V755H823.387V904.156C820.316 903.513 817.045 903.167 813.652 903.167C795.866 903.167 781.447 912.69 781.447 924.438C781.447 936.186 795.866 945.71 813.652 945.71C831.066 945.71 845.252 936.58 845.838 925.172H845.856V924.624C845.856 924.562 845.857 924.5 845.857 924.438C845.857 924.376 845.856 924.314 845.856 924.252V821.015H911.763V904.156C908.692 903.514 905.421 903.167 902.027 903.167C884.241 903.167 869.823 912.69 869.823 924.438C869.823 936.186 884.241 945.71 902.027 945.71C919.442 945.71 933.628 936.58 934.213 925.172H934.232V924.517C934.232 924.49 934.232 924.464 934.232 924.438C934.232 924.412 934.232 924.386 934.232 924.36V755H919.253V755H830.877ZM911.763 777.005V799.01H845.856V777.005H911.763Z" fill="#8DC73F"/>
<path fill-rule="evenodd" clip-rule="evenodd" d="M164.318 755H186.786V867.827L252.695 764.526V755H275.163V925.172H275.144C274.559 936.58 260.373 945.71 242.958 945.71C225.172 945.71 210.753 936.186 210.753 924.438C210.753 912.69 225.172 903.167 242.958 903.167C246.352 903.167 249.623 903.514 252.695 904.156V806.051L186.786 909.352V924.252C186.787 924.314 186.787 924.376 186.787 924.438C186.787 924.5 186.787 924.562 186.786 924.624V925.172H186.769C186.183 936.58 171.997 945.71 154.583 945.71C136.796 945.71 122.378 936.186 122.378 924.438C122.378 912.69 136.796 903.167 154.583 903.167C157.976 903.167 161.246 903.513 164.318 904.156V755Z" fill="#8DC73F"/>
<path fill-rule="evenodd" clip-rule="evenodd" d="M971.681 774.69H994.149V798.46C1000.06 793.794 1008.94 790.827 1018.86 790.827C1036.65 790.827 1051.07 800.35 1051.07 812.098C1051.07 823.846 1036.65 833.37 1018.86 833.37C1008.94 833.37 1000.06 830.402 994.149 825.736V894.719C1004.23 889.373 1016.98 886.182 1030.85 886.182C1063.52 886.182 1090.01 903.915 1090.01 925.79C1090.01 947.666 1063.52 965.399 1030.85 965.399C998.904 965.399 972.873 948.453 971.72 927.257H971.681V925.79V774.69Z" fill="#8DC73F"/>
<path fill-rule="evenodd" clip-rule="evenodd" d="M1186.63 834.218C1219.31 834.218 1245.8 816.484 1245.8 794.609C1245.8 772.734 1219.31 755 1186.63 755C1154.69 755 1128.66 771.946 1127.5 793.142H1127.46V794.609V945.71H1149.93V825.68C1160.02 831.026 1172.77 834.218 1186.63 834.218Z" fill="#8DC73F"/>
<path fill-rule="evenodd" clip-rule="evenodd" d="M734.677 813.412C734.265 814.172 733.79 814.886 733.257 815.553L710.526 853.652L739.215 909.289C740.347 911.051 741.293 912.879 742.037 914.762L742.484 915.628L742.382 915.678C743.441 918.644 744.002 921.739 744.002 924.921C744.002 946.797 717.512 964.53 684.835 964.53C652.158 964.53 625.668 946.797 625.668 924.921C625.668 903.046 652.158 885.312 684.835 885.312C691.032 885.312 697.006 885.95 702.619 887.133L685.017 852.998L684.924 852.945L704.157 820.711C701.451 819.889 698.725 818.784 696.046 817.389C680.341 809.212 672.174 794.174 677.805 783.801C683.436 773.428 700.732 771.647 716.437 779.824C732.141 788.001 740.308 803.039 734.677 813.412Z" fill="#8DC73F"/>
<path fill-rule="evenodd" clip-rule="evenodd" d="M56.4684 1029.1H34V1029.1V1051.11V1219.81H56.4684V1051.11H122.376V1029.1H56.4684V1029.1Z" fill="#8DC73F"/>
<path fill-rule="evenodd" clip-rule="evenodd" d="M312.443 1028.12V1050.13H351.388V1220.3H373.856V1050.13H415.798V1028.12H312.443Z" fill="#8DC73F"/>
<path fill-rule="evenodd" clip-rule="evenodd" d="M484.509 985.788V985.788H477.018V1134.94C473.947 1134.3 470.676 1133.95 467.283 1133.95C449.497 1133.95 435.078 1143.48 435.078 1155.23C435.078 1166.97 449.497 1176.5 467.283 1176.5C484.697 1176.5 498.883 1167.37 499.469 1155.96H499.486V1155.41C499.487 1155.35 499.488 1155.29 499.488 1155.23C499.488 1155.16 499.487 1155.1 499.486 1155.04V1051.8H565.395V1134.94C562.323 1134.3 559.052 1133.95 555.658 1133.95C537.872 1133.95 523.453 1143.48 523.453 1155.23C523.453 1166.97 537.872 1176.5 555.658 1176.5C573.073 1176.5 587.259 1167.37 587.844 1155.96H587.864V985.788H572.885V985.788H484.509ZM565.395 1007.79V1029.8H499.486V1007.79H565.395Z" fill="#8DC73F"/>
<path fill-rule="evenodd" clip-rule="evenodd" d="M831.305 985.788V985.788H823.814V1134.94C820.743 1134.3 817.473 1133.95 814.08 1133.95C796.294 1133.95 781.875 1143.48 781.875 1155.23C781.875 1166.97 796.294 1176.5 814.08 1176.5C831.494 1176.5 845.68 1167.37 846.266 1155.96H846.282V1155.48C846.284 1155.39 846.284 1155.31 846.284 1155.23C846.284 1155.18 846.284 1155.13 846.284 1155.08C846.283 1155.05 846.283 1155.01 846.282 1154.98V1051.8H912.191V1134.94C909.12 1134.3 905.849 1133.95 902.455 1133.95C884.669 1133.95 870.25 1143.48 870.25 1155.23C870.25 1166.97 884.669 1176.5 902.455 1176.5C919.869 1176.5 934.056 1167.37 934.641 1155.96H934.66V1155.31C934.66 1155.28 934.66 1155.25 934.66 1155.23C934.66 1155.2 934.66 1155.17 934.66 1155.15V985.788H919.68V985.788H831.305ZM912.191 1007.79V1029.8H846.282V1007.79H912.191Z" fill="#8DC73F"/>
<path fill-rule="evenodd" clip-rule="evenodd" d="M164.397 985.788H186.865V1098.61L252.774 995.313V985.788H275.243V1155.96H275.223C274.638 1167.37 260.452 1176.5 243.037 1176.5C225.251 1176.5 210.832 1166.97 210.832 1155.23C210.832 1143.48 225.251 1133.95 243.037 1133.95C246.431 1133.95 249.702 1134.3 252.774 1134.94V1036.84L186.865 1140.14V1155.04C186.866 1155.1 186.866 1155.16 186.866 1155.23C186.866 1155.29 186.866 1155.35 186.865 1155.41V1155.96H186.848C186.262 1167.37 172.076 1176.5 154.662 1176.5C136.876 1176.5 122.457 1166.97 122.457 1155.23C122.457 1143.48 136.876 1133.95 154.662 1133.95C158.055 1133.95 161.326 1134.3 164.397 1134.94V985.788Z" fill="#8DC73F"/>
<path fill-rule="evenodd" clip-rule="evenodd" d="M971.858 1029.1H994.327V1052.88C1000.23 1048.21 1009.11 1045.24 1019.04 1045.24C1036.83 1045.24 1051.25 1054.77 1051.25 1066.51C1051.25 1078.26 1036.83 1087.78 1019.04 1087.78C1009.11 1087.78 1000.23 1084.82 994.327 1080.15V1149.13C1004.41 1143.79 1017.16 1140.6 1031.03 1140.6C1063.7 1140.6 1090.19 1158.33 1090.19 1180.21C1090.19 1202.08 1063.7 1219.81 1031.03 1219.81C999.082 1219.81 973.051 1202.87 971.898 1181.67H971.858V1180.21V1029.1Z" fill="#8DC73F"/>
<path fill-rule="evenodd" clip-rule="evenodd" d="M1186.83 1065.01C1219.51 1065.01 1246 1047.27 1246 1025.4C1246 1003.52 1219.51 985.788 1186.83 985.788C1154.89 985.788 1128.86 1002.73 1127.71 1023.93H1127.67V1025.4V1176.5H1150.13V1056.47C1160.22 1061.81 1172.97 1065.01 1186.83 1065.01Z" fill="#8DC73F"/>
<path fill-rule="evenodd" clip-rule="evenodd" d="M735.076 1068.81C734.662 1069.57 734.186 1070.29 733.651 1070.96L710.923 1109.05L739.612 1164.69C740.745 1166.45 741.692 1168.28 742.437 1170.16L742.882 1171.03L742.78 1171.08C743.839 1174.04 744.4 1177.14 744.4 1180.32C744.4 1202.2 717.91 1219.93 685.233 1219.93C652.556 1219.93 626.066 1202.2 626.066 1180.32C626.066 1158.45 652.556 1140.71 685.233 1140.71C691.43 1140.71 697.404 1141.35 703.017 1142.53L685.416 1108.4L685.322 1108.34L704.554 1076.11C701.848 1075.29 699.123 1074.18 696.444 1072.79C680.739 1064.61 672.573 1049.57 678.203 1039.2C683.834 1028.83 701.13 1027.05 716.835 1035.22C732.54 1043.4 740.706 1058.44 735.076 1068.81Z" fill="#8DC73F"/>
<path fill-rule="evenodd" clip-rule="evenodd" d="M56.4684 1267.52H34V1267.52V1289.52V1458.23H56.4684V1289.52H122.376V1267.52H56.4684V1267.52Z" fill="#8DC73F"/>
<path fill-rule="evenodd" clip-rule="evenodd" d="M312.443 1266.53V1288.54H351.388V1458.71H373.856V1288.54H415.798V1266.53H312.443Z" fill="#8DC73F"/>
<path fill-rule="evenodd" clip-rule="evenodd" d="M484.509 1237.98V1237.98H477.018V1387.14C473.947 1386.5 470.676 1386.15 467.283 1386.15C449.497 1386.15 435.078 1395.68 435.078 1407.42C435.078 1419.17 449.497 1428.69 467.283 1428.69C484.697 1428.69 498.884 1419.56 499.469 1408.16H499.486V1407.61C499.487 1407.55 499.488 1407.48 499.488 1407.42C499.488 1407.36 499.487 1407.3 499.486 1407.24V1304H565.395V1387.14C562.323 1386.5 559.052 1386.15 555.658 1386.15C537.872 1386.15 523.453 1395.68 523.453 1407.42C523.453 1419.17 537.872 1428.69 555.658 1428.69C573.073 1428.69 587.259 1419.56 587.844 1408.16H587.864V1237.98H572.885V1237.98H484.509ZM565.395 1259.99V1281.99H499.486V1259.99H565.395Z" fill="#8DC73F"/>
<path fill-rule="evenodd" clip-rule="evenodd" d="M831.305 1237.98V1237.98H823.814V1387.14C820.743 1386.5 817.473 1386.15 814.08 1386.15C796.294 1386.15 781.875 1395.67 781.875 1407.42C781.875 1419.17 796.294 1428.69 814.08 1428.69C831.494 1428.69 845.68 1419.56 846.266 1408.16H846.282V1407.67C846.284 1407.59 846.284 1407.51 846.284 1407.42C846.284 1407.38 846.284 1407.33 846.284 1407.28C846.283 1407.24 846.283 1407.21 846.282 1407.17V1304H912.191V1387.14C909.12 1386.5 905.849 1386.15 902.455 1386.15C884.669 1386.15 870.25 1395.67 870.25 1407.42C870.25 1419.17 884.669 1428.69 902.455 1428.69C919.87 1428.69 934.056 1419.56 934.641 1408.16H934.66V1407.5C934.66 1407.48 934.66 1407.45 934.66 1407.42C934.66 1407.4 934.66 1407.37 934.66 1407.34V1237.98H919.68V1237.98H831.305ZM912.191 1259.99V1281.99H846.282V1259.99H912.191Z" fill="#8DC73F"/>
<path fill-rule="evenodd" clip-rule="evenodd" d="M164.397 1237.98H186.865V1350.81L252.774 1247.51V1237.98H275.243V1408.16H275.223C274.638 1419.56 260.452 1428.69 243.037 1428.69C225.251 1428.69 210.832 1419.17 210.832 1407.42C210.832 1395.67 225.251 1386.15 243.037 1386.15C246.431 1386.15 249.702 1386.5 252.774 1387.14V1289.03L186.865 1392.34V1407.24C186.866 1407.3 186.866 1407.36 186.866 1407.42C186.866 1407.48 186.866 1407.55 186.865 1407.61V1408.16H186.848C186.262 1419.56 172.076 1428.69 154.662 1428.69C136.876 1428.69 122.457 1419.17 122.457 1407.42C122.457 1395.67 136.876 1386.15 154.662 1386.15C158.055 1386.15 161.326 1386.5 164.397 1387.14V1237.98Z" fill="#8DC73F"/>
<path fill-rule="evenodd" clip-rule="evenodd" d="M971.858 1267.52H994.327V1291.29C1000.23 1286.62 1009.11 1283.66 1019.04 1283.66C1036.83 1283.66 1051.25 1293.18 1051.25 1304.93C1051.25 1316.67 1036.83 1326.2 1019.04 1326.2C1009.11 1326.2 1000.23 1323.23 994.327 1318.56V1387.55C1004.41 1382.2 1017.16 1379.01 1031.03 1379.01C1063.7 1379.01 1090.19 1396.74 1090.19 1418.62C1090.19 1440.49 1063.7 1458.23 1031.03 1458.23C999.082 1458.23 973.051 1441.28 971.898 1420.09H971.858V1418.62V1267.52Z" fill="#8DC73F"/>
<path fill-rule="evenodd" clip-rule="evenodd" d="M1186.83 1316.22C1219.51 1316.22 1246 1298.48 1246 1276.61C1246 1254.73 1219.51 1237 1186.83 1237C1154.89 1237 1128.86 1253.95 1127.71 1275.14H1127.67V1276.61V1427.71H1150.13V1307.68C1160.22 1313.03 1172.97 1316.22 1186.83 1316.22Z" fill="#8DC73F"/>
<path fill-rule="evenodd" clip-rule="evenodd" d="M735.076 1307.23C734.662 1307.99 734.186 1308.7 733.651 1309.37L710.923 1347.47L739.612 1403.1C740.745 1404.86 741.692 1406.69 742.437 1408.58L742.882 1409.44L742.78 1409.49C743.839 1412.46 744.4 1415.55 744.4 1418.74C744.4 1440.61 717.91 1458.34 685.233 1458.34C652.556 1458.34 626.066 1440.61 626.066 1418.74C626.066 1396.86 652.556 1379.13 685.233 1379.13C691.43 1379.13 697.404 1379.76 703.017 1380.95L685.416 1346.81L685.322 1346.76L704.554 1314.52C701.848 1313.7 699.123 1312.6 696.444 1311.2C680.739 1303.03 672.573 1287.99 678.203 1277.61C683.834 1267.24 701.13 1265.46 716.835 1273.64C732.54 1281.81 740.706 1296.85 735.076 1307.23Z" fill="#8DC73F"/>
</svg>
