<svg width="1280" height="1936" viewBox="0 0 1280 1936" fill="none" xmlns="http://www.w3.org/2000/svg">
<path fill-rule="evenodd" clip-rule="evenodd" d="M1050 1020V1041.63H1087.48V1208.89H1109.11V1041.63H1149.47V1020H1050Z" fill="#8DC73F"/>
<path fill-rule="evenodd" clip-rule="evenodd" d="M922 976L922 997.629L922 1056.75V1078.38V1141.82V1163.45L922 1163.45H943.625V1163.45H1007.06V1141.82H943.625V1078.38H1007.06V1056.75H943.625V997.629H1007.06V976H922Z" fill="#8DC73F"/>
<path fill-rule="evenodd" clip-rule="evenodd" d="M289.624 997.629V1163.45H268V976H279.533V976H364.59V976H374.681V1163.45H353.056V997.629H289.624Z" fill="#8DC73F"/>
<path fill-rule="evenodd" clip-rule="evenodd" d="M601.366 976H622.99V1086.89L686.422 985.363V976H708.047V1143.26H708.028C707.465 1154.47 693.811 1163.45 677.051 1163.45C659.933 1163.45 646.056 1154.09 646.056 1142.54C646.056 1130.99 659.933 1121.63 677.051 1121.63C680.317 1121.63 683.466 1121.97 686.422 1122.61V1026.18L622.99 1127.71V1143.26H622.972C622.409 1154.47 608.755 1163.45 591.995 1163.45C574.877 1163.45 561 1154.09 561 1142.54C561 1130.99 574.877 1121.63 591.995 1121.63C595.261 1121.63 598.409 1121.97 601.366 1122.61V976Z" fill="#8DC73F"/>
<path fill-rule="evenodd" clip-rule="evenodd" d="M753 1020H774.624V1043.36C780.31 1038.78 788.856 1035.86 798.411 1035.86C815.529 1035.86 829.406 1045.22 829.406 1056.77C829.406 1068.32 815.529 1077.68 798.411 1077.68C788.856 1077.68 780.31 1074.76 774.624 1070.17V1137.98C784.331 1132.72 796.602 1129.58 809.944 1129.58C841.394 1129.58 866.889 1147.02 866.889 1168.52C866.889 1190.02 841.394 1207.45 809.944 1207.45C779.201 1207.45 754.148 1190.79 753.038 1169.96H753V1020Z" fill="#8DC73F"/>
<path fill-rule="evenodd" clip-rule="evenodd" d="M485.944 1097.86C517.394 1097.86 542.889 1080.43 542.889 1058.93C542.889 1037.43 517.394 1020 485.944 1020C455.201 1020 430.148 1036.66 429.038 1057.49H429V1058.86C429 1058.88 429 1058.91 429 1058.93C429 1058.96 429 1058.98 429 1059V1207.45H450.625V1089.47C460.331 1094.73 472.602 1097.86 485.944 1097.86Z" fill="#8DC73F"/>
<rect x="1198.8" y="976" width="23.1586" height="114.431" fill="#8DC73F"/>
<ellipse cx="1210.3" cy="1144.4" rx="33.2963" ry="22.46" fill="#8DC73F"/>
<path d="M124.494 1055.77C99.7597 1044.76 113.945 1035.38 124.163 1032.05L124.494 1055.77C124.564 1055.8 124.634 1055.83 124.705 1055.87C124.636 1055.9 124.566 1055.93 124.496 1055.97L124.848 1081.21C124.97 1081.25 125.093 1081.29 125.217 1081.33C125.096 1081.38 124.974 1081.43 124.852 1081.48L125.2 1106.5C125.48 1106.6 125.765 1106.7 126.054 1106.81C125.775 1106.9 125.493 1107 125.209 1107.1L125.573 1133.25C99.6663 1121.41 114.064 1111.09 125.209 1107.1L125.2 1106.5C99.2777 1096.9 113.871 1085.95 124.852 1081.48L124.848 1081.21C99.926 1073.12 114.069 1061.09 124.496 1055.97L124.494 1055.77Z" fill="#F9ED32"/>
<path fill-rule="evenodd" clip-rule="evenodd" d="M169.532 1025.14L123.879 1025.2L123.907 1049.28L123.933 1049.28L123.933 1136.29C114.925 1130.37 103.085 1126.77 90.1158 1126.77C61.9038 1126.77 39.0334 1143.78 39.0334 1164.77C39.0334 1185.75 61.9038 1202.76 90.1158 1202.76C117.982 1202.76 140.636 1186.17 141.188 1165.54L141.26 1165.54L141.26 1049.26L169.56 1049.23L169.532 1025.14Z" fill="#8DC73F"/>
<ellipse cx="139.511" cy="1014.2" rx="9.19532" ry="6.47078" transform="rotate(-90 139.511 1014.2)" fill="#FFFDFD"/>
<ellipse cx="139.51" cy="1017.26" rx="5.44908" ry="3.74624" transform="rotate(-90 139.51 1017.26)" fill="#8DC73F"/>
<ellipse cx="154.495" cy="1014.2" rx="9.19532" ry="6.47078" transform="rotate(-90 154.495 1014.2)" fill="#FFFDFD"/>
<ellipse cx="154.495" cy="1017.26" rx="5.44908" ry="3.74624" transform="rotate(-90 154.495 1017.26)" fill="#8DC73F"/>
<path fill-rule="evenodd" clip-rule="evenodd" d="M1050 1483.02V1504.65H1087.48V1671.91H1109.11V1504.65H1149.47V1483.02H1050Z" fill="#8DC73F"/>
<path fill-rule="evenodd" clip-rule="evenodd" d="M922.302 1487.02L922.302 1508.65L922.302 1567.77V1589.4V1652.84V1674.47L922.302 1674.47H943.926V1674.47H1007.36V1652.84H943.926V1589.4H1007.36V1567.77H943.926V1508.65H1007.36V1487.02H922.302Z" fill="#8DC73F"/>
<path fill-rule="evenodd" clip-rule="evenodd" d="M290.211 1508.65V1674.47H268.587V1487.02H280.12V1487.02H365.176V1487.02H375.267V1674.47H353.643V1508.65H290.211Z" fill="#8DC73F"/>
<path fill-rule="evenodd" clip-rule="evenodd" d="M601.254 1483.02H622.879V1593.91L686.311 1492.38V1483.02H707.935V1650.28H707.917C707.353 1661.49 693.7 1670.47 676.94 1670.47C659.822 1670.47 645.945 1661.11 645.945 1649.56C645.945 1638.01 659.822 1628.65 676.94 1628.65C680.206 1628.65 683.354 1628.99 686.311 1629.62V1533.2L622.879 1634.73V1650.28H622.861C622.297 1661.49 608.644 1670.47 591.884 1670.47C574.766 1670.47 560.889 1661.11 560.889 1649.56C560.889 1638.01 574.766 1628.65 591.884 1628.65C595.15 1628.65 598.298 1628.99 601.254 1629.62V1483.02Z" fill="#8DC73F"/>
<path fill-rule="evenodd" clip-rule="evenodd" d="M752.613 1483.02H774.238V1506.38C779.923 1501.8 788.469 1498.88 798.024 1498.88C815.142 1498.88 829.019 1508.24 829.019 1519.79C829.019 1531.34 815.142 1540.7 798.024 1540.7C788.469 1540.7 779.923 1537.78 774.238 1533.19V1601C783.945 1595.74 796.215 1592.6 809.558 1592.6C841.007 1592.6 866.502 1610.03 866.502 1631.54C866.502 1653.04 841.007 1670.47 809.558 1670.47C778.814 1670.47 753.761 1653.81 752.652 1632.98H752.613V1483.02Z" fill="#8DC73F"/>
<path fill-rule="evenodd" clip-rule="evenodd" d="M486.079 1560.88C517.529 1560.88 543.024 1543.45 543.024 1521.95C543.024 1500.45 517.529 1483.02 486.079 1483.02C455.336 1483.02 430.283 1499.68 429.173 1520.51H429.135V1521.88C429.135 1521.9 429.135 1521.93 429.135 1521.95C429.135 1521.98 429.135 1522 429.135 1522.02V1670.47H450.759V1552.49C460.466 1557.75 472.737 1560.88 486.079 1560.88Z" fill="#8DC73F"/>
<rect x="1199.02" y="1483.02" width="23.1586" height="114.431" fill="#8DC73F"/>
<ellipse cx="1210.52" cy="1651.42" rx="33.2963" ry="22.46" fill="#8DC73F"/>
<path d="M124.494 1527.77C99.7597 1516.76 113.945 1507.38 124.163 1504.05L124.494 1527.77C124.564 1527.8 124.634 1527.83 124.705 1527.87C124.636 1527.9 124.566 1527.93 124.496 1527.97L124.848 1553.21C124.97 1553.25 125.093 1553.29 125.217 1553.33C125.096 1553.38 124.974 1553.43 124.852 1553.48L125.2 1578.5C125.48 1578.6 125.765 1578.7 126.054 1578.81C125.775 1578.9 125.493 1579 125.209 1579.1L125.573 1605.25C99.6663 1593.41 114.064 1583.09 125.209 1579.1L125.2 1578.5C99.2777 1568.9 113.871 1557.95 124.852 1553.48L124.848 1553.21C99.926 1545.12 114.069 1533.09 124.496 1527.97L124.494 1527.77Z" fill="#F9ED32"/>
<path fill-rule="evenodd" clip-rule="evenodd" d="M169.532 1497.14L123.879 1497.2L123.907 1521.28L123.933 1521.28L123.933 1608.29C114.925 1602.37 103.085 1598.77 90.1158 1598.77C61.9038 1598.77 39.0334 1615.78 39.0334 1636.77C39.0334 1657.75 61.9038 1674.76 90.1158 1674.76C117.982 1674.76 140.636 1658.17 141.188 1637.54L141.26 1637.54L141.26 1521.26L169.56 1521.23L169.532 1497.14Z" fill="#8DC73F"/>
<ellipse cx="139.511" cy="1486.2" rx="9.19532" ry="6.47078" transform="rotate(-90 139.511 1486.2)" fill="#FFFDFD"/>
<ellipse cx="139.51" cy="1489.26" rx="5.44908" ry="3.74624" transform="rotate(-90 139.51 1489.26)" fill="#8DC73F"/>
<ellipse cx="154.495" cy="1486.2" rx="9.19532" ry="6.47078" transform="rotate(-90 154.495 1486.2)" fill="#FFFDFD"/>
<ellipse cx="154.495" cy="1489.26" rx="5.44908" ry="3.74624" transform="rotate(-90 154.495 1489.26)" fill="#8DC73F"/>
<path fill-rule="evenodd" clip-rule="evenodd" d="M1050 509.02V530.648H1087.48V697.91H1109.11V530.648H1149.47V509.02H1050Z" fill="#8DC73F"/>
<path fill-rule="evenodd" clip-rule="evenodd" d="M922.302 513.02L922.302 534.648L922.302 593.767V615.395V678.839V700.468L922.302 700.468H943.926V700.468H1007.36V678.839H943.926V615.395H1007.36V593.767H943.926V534.648H1007.36V513.02H922.302Z" fill="#8DC73F"/>
<path fill-rule="evenodd" clip-rule="evenodd" d="M290.211 534.648V700.468H268.587V513.02H280.12V513.02H365.176V513.02H375.267V700.468H353.643V534.648H290.211Z" fill="#8DC73F"/>
<path fill-rule="evenodd" clip-rule="evenodd" d="M601.254 509.02H622.879V619.914L686.311 518.382V509.02H707.935V676.281H707.917C707.353 687.494 693.7 696.468 676.94 696.468C659.822 696.468 645.945 687.107 645.945 675.56C645.945 664.013 659.822 654.652 676.94 654.652C680.206 654.652 683.354 654.993 686.311 655.625V559.197L622.879 660.729V676.281H622.861C622.297 687.494 608.644 696.468 591.884 696.468C574.766 696.468 560.889 687.107 560.889 675.56C560.889 664.013 574.766 654.652 591.884 654.652C595.15 654.652 598.298 654.993 601.254 655.625V509.02Z" fill="#8DC73F"/>
<path fill-rule="evenodd" clip-rule="evenodd" d="M752.613 509.02H774.238V532.383C779.923 527.797 788.469 524.881 798.024 524.881C815.142 524.881 829.019 534.241 829.019 545.788C829.019 557.335 815.142 566.696 798.024 566.696C788.469 566.696 779.923 563.779 774.238 559.194V626.996C783.945 621.742 796.215 618.605 809.558 618.605C841.007 618.605 866.502 636.035 866.502 657.536C866.502 679.037 841.007 696.468 809.558 696.468C778.814 696.468 753.761 679.811 752.652 658.978H752.613V509.02Z" fill="#8DC73F"/>
<path fill-rule="evenodd" clip-rule="evenodd" d="M486.079 586.883C517.529 586.883 543.024 569.453 543.024 547.951C543.024 526.45 517.529 509.02 486.079 509.02C455.336 509.02 430.283 525.676 429.173 546.509H429.135V547.879C429.135 547.903 429.135 547.927 429.135 547.951C429.135 547.975 429.135 547.999 429.135 548.023V696.468H450.759V578.491C460.466 583.746 472.737 586.883 486.079 586.883Z" fill="#8DC73F"/>
<rect x="1199.02" y="509.02" width="23.1586" height="114.431" fill="#8DC73F"/>
<ellipse cx="1210.52" cy="677.416" rx="33.2963" ry="22.46" fill="#8DC73F"/>
<path d="M124.494 553.772C99.7597 542.761 113.945 533.375 124.163 530.051L124.494 553.772C124.564 553.803 124.634 553.834 124.705 553.866C124.636 553.899 124.566 553.933 124.496 553.968L124.848 579.214C124.97 579.254 125.093 579.293 125.217 579.333C125.096 579.381 124.974 579.43 124.852 579.479L125.2 604.496C125.48 604.599 125.765 604.703 126.054 604.806C125.775 604.899 125.493 604.997 125.209 605.098L125.573 631.246C99.6663 619.41 114.064 609.087 125.209 605.098L125.2 604.496C99.2777 594.902 113.871 583.949 124.852 579.479L124.848 579.214C99.926 571.116 114.069 559.094 124.496 553.968L124.494 553.772Z" fill="#F9ED32"/>
<path fill-rule="evenodd" clip-rule="evenodd" d="M169.532 523.144L123.879 523.198L123.907 547.28L123.933 547.28L123.933 634.289C114.925 628.366 103.085 624.771 90.1158 624.771C61.9038 624.771 39.0334 641.782 39.0334 662.766C39.0334 683.75 61.9038 700.761 90.1158 700.761C117.982 700.761 140.636 684.165 141.188 663.537L141.26 663.537L141.26 547.259L169.56 547.225L169.532 523.144Z" fill="#8DC73F"/>
<ellipse cx="139.511" cy="512.195" rx="9.19532" ry="6.47078" transform="rotate(-90 139.511 512.195)" fill="#FFFDFD"/>
<ellipse cx="139.51" cy="515.26" rx="5.44908" ry="3.74624" transform="rotate(-90 139.51 515.26)" fill="#8DC73F"/>
<ellipse cx="154.495" cy="512.195" rx="9.19532" ry="6.47078" transform="rotate(-90 154.495 512.195)" fill="#FFFDFD"/>
<ellipse cx="154.495" cy="515.26" rx="5.44908" ry="3.74624" transform="rotate(-90 154.495 515.26)" fill="#8DC73F"/>
<path fill-rule="evenodd" clip-rule="evenodd" d="M1050 757.02V778.648H1087.48V945.91H1109.11V778.648H1149.47V757.02H1050Z" fill="#8DC73F"/>
<path fill-rule="evenodd" clip-rule="evenodd" d="M922.302 741.02L922.302 762.648L922.302 821.767V843.395V906.839V928.468L922.302 928.468H943.926V928.468H1007.36V906.839H943.926V843.395H1007.36V821.767H943.926V762.648H1007.36V741.02H922.302Z" fill="#8DC73F"/>
<path fill-rule="evenodd" clip-rule="evenodd" d="M290.211 762.648V928.468H268.587V741.02H280.12V741.02H365.176V741.02H375.267V928.468H353.643V762.648H290.211Z" fill="#8DC73F"/>
<path fill-rule="evenodd" clip-rule="evenodd" d="M601.254 737.02H622.879V847.914L686.311 746.382V737.02H707.935V904.281H707.917C707.353 915.494 693.7 924.468 676.94 924.468C659.822 924.468 645.945 915.107 645.945 903.56C645.945 892.013 659.822 882.652 676.94 882.652C680.206 882.652 683.354 882.993 686.311 883.625V787.197L622.879 888.729V904.281H622.861C622.297 915.494 608.644 924.468 591.884 924.468C574.766 924.468 560.889 915.107 560.889 903.56C560.889 892.013 574.766 882.652 591.884 882.652C595.15 882.652 598.298 882.993 601.254 883.625V737.02Z" fill="#8DC73F"/>
<path fill-rule="evenodd" clip-rule="evenodd" d="M752.613 757.02H774.238V780.383C779.923 775.797 788.469 772.881 798.024 772.881C815.142 772.881 829.019 782.241 829.019 793.788C829.019 805.335 815.142 814.696 798.024 814.696C788.469 814.696 779.923 811.779 774.238 807.194V874.996C783.945 869.742 796.215 866.605 809.558 866.605C841.007 866.605 866.502 884.035 866.502 905.536C866.502 927.037 841.007 944.468 809.558 944.468C778.814 944.468 753.761 927.811 752.652 906.978H752.613V757.02Z" fill="#8DC73F"/>
<path fill-rule="evenodd" clip-rule="evenodd" d="M486.079 834.883C517.529 834.883 543.024 817.453 543.024 795.951C543.024 774.45 517.529 757.02 486.079 757.02C455.336 757.02 430.283 773.676 429.173 794.509H429.135V795.879C429.135 795.903 429.135 795.927 429.135 795.951C429.135 795.975 429.135 795.999 429.135 796.023V944.468H450.759V826.491C460.466 831.746 472.737 834.883 486.079 834.883Z" fill="#8DC73F"/>
<rect x="1199.02" y="737.02" width="23.1586" height="114.431" fill="#8DC73F"/>
<ellipse cx="1210.52" cy="905.416" rx="33.2963" ry="22.46" fill="#8DC73F"/>
<path d="M124.494 801.772C99.7597 790.761 113.945 781.375 124.163 778.051L124.494 801.772C124.564 801.803 124.634 801.834 124.705 801.866C124.636 801.899 124.566 801.933 124.496 801.968L124.848 827.214C124.97 827.254 125.093 827.293 125.217 827.333C125.096 827.381 124.974 827.43 124.852 827.479L125.2 852.496C125.48 852.599 125.765 852.703 126.054 852.806C125.775 852.899 125.493 852.997 125.209 853.098L125.573 879.246C99.6663 867.41 114.064 857.087 125.209 853.098L125.2 852.496C99.2777 842.902 113.871 831.949 124.852 827.479L124.848 827.214C99.926 819.116 114.069 807.094 124.496 801.968L124.494 801.772Z" fill="#F9ED32"/>
<path fill-rule="evenodd" clip-rule="evenodd" d="M169.532 771.144L123.879 771.198L123.907 795.28L123.933 795.28L123.933 882.289C114.925 876.366 103.085 872.771 90.1158 872.771C61.9038 872.771 39.0334 889.782 39.0334 910.766C39.0334 931.75 61.9038 948.761 90.1158 948.761C117.982 948.761 140.636 932.165 141.188 911.537L141.26 911.537L141.26 795.259L169.56 795.225L169.532 771.144Z" fill="#8DC73F"/>
<ellipse cx="139.511" cy="760.195" rx="9.19532" ry="6.47078" transform="rotate(-90 139.511 760.195)" fill="#FFFDFD"/>
<ellipse cx="139.51" cy="763.26" rx="5.44908" ry="3.74624" transform="rotate(-90 139.51 763.26)" fill="#8DC73F"/>
<ellipse cx="154.495" cy="760.195" rx="9.19532" ry="6.47078" transform="rotate(-90 154.495 760.195)" fill="#FFFDFD"/>
<ellipse cx="154.495" cy="763.26" rx="5.44908" ry="3.74624" transform="rotate(-90 154.495 763.26)" fill="#8DC73F"/>
<path fill-rule="evenodd" clip-rule="evenodd" d="M1050 1246V1267.63H1087.48V1434.89H1109.11V1267.63H1149.47V1246H1050Z" fill="#8DC73F"/>
<path fill-rule="evenodd" clip-rule="evenodd" d="M922.302 1230L922.302 1251.63L922.302 1310.75V1332.38V1395.82V1417.45L922.302 1417.45H943.926V1417.45H1007.36V1395.82H943.926V1332.38H1007.36V1310.75H943.926V1251.63H1007.36V1230H922.302Z" fill="#8DC73F"/>
<path fill-rule="evenodd" clip-rule="evenodd" d="M290.211 1251.63V1417.45H268.587V1230H280.12V1230H365.176V1230H375.267V1417.45H353.643V1251.63H290.211Z" fill="#8DC73F"/>
<path fill-rule="evenodd" clip-rule="evenodd" d="M601.254 1226H622.879V1336.89L686.311 1235.36V1226H707.935V1393.26H707.917C707.353 1404.47 693.7 1413.45 676.94 1413.45C659.822 1413.45 645.945 1404.09 645.945 1392.54C645.945 1380.99 659.822 1371.63 676.94 1371.63C680.206 1371.63 683.354 1371.97 686.311 1372.61V1276.18L622.879 1377.71V1393.26H622.861C622.297 1404.47 608.644 1413.45 591.884 1413.45C574.766 1413.45 560.889 1404.09 560.889 1392.54C560.889 1380.99 574.766 1371.63 591.884 1371.63C595.15 1371.63 598.298 1371.97 601.254 1372.61V1226Z" fill="#8DC73F"/>
<path fill-rule="evenodd" clip-rule="evenodd" d="M752.613 1246H774.238V1269.36C779.923 1264.78 788.469 1261.86 798.024 1261.86C815.142 1261.86 829.019 1271.22 829.019 1282.77C829.019 1294.32 815.142 1303.68 798.024 1303.68C788.469 1303.68 779.923 1300.76 774.238 1296.17V1363.98C783.945 1358.72 796.215 1355.58 809.558 1355.58C841.007 1355.58 866.502 1373.02 866.502 1394.52C866.502 1416.02 841.007 1433.45 809.558 1433.45C778.814 1433.45 753.761 1416.79 752.652 1395.96H752.613V1246Z" fill="#8DC73F"/>
<path fill-rule="evenodd" clip-rule="evenodd" d="M486.079 1323.86C517.529 1323.86 543.024 1306.43 543.024 1284.93C543.024 1263.43 517.529 1246 486.079 1246C455.336 1246 430.283 1262.66 429.173 1283.49H429.135V1284.86C429.135 1284.88 429.135 1284.91 429.135 1284.93C429.135 1284.96 429.135 1284.98 429.135 1285V1433.45H450.759V1315.47C460.466 1320.73 472.737 1323.86 486.079 1323.86Z" fill="#8DC73F"/>
<rect x="1199.02" y="1226" width="23.1586" height="114.431" fill="#8DC73F"/>
<ellipse cx="1210.52" cy="1394.4" rx="33.2963" ry="22.46" fill="#8DC73F"/>
<path d="M124.494 1290.75C99.7597 1279.74 113.945 1270.36 124.163 1267.03L124.494 1290.75C124.564 1290.78 124.634 1290.81 124.705 1290.85C124.636 1290.88 124.566 1290.91 124.496 1290.95L124.848 1316.19C124.97 1316.23 125.093 1316.27 125.217 1316.31C125.096 1316.36 124.974 1316.41 124.852 1316.46L125.2 1341.48C125.48 1341.58 125.765 1341.68 126.054 1341.79C125.775 1341.88 125.493 1341.98 125.209 1342.08L125.573 1368.23C99.6663 1356.39 114.064 1346.07 125.209 1342.08L125.2 1341.48C99.2777 1331.88 113.871 1320.93 124.852 1316.46L124.848 1316.19C99.926 1308.1 114.069 1296.07 124.496 1290.95L124.494 1290.75Z" fill="#F9ED32"/>
<path fill-rule="evenodd" clip-rule="evenodd" d="M169.532 1260.12L123.879 1260.18L123.907 1284.26L123.933 1284.26L123.933 1371.27C114.925 1365.35 103.085 1361.75 90.1158 1361.75C61.9038 1361.75 39.0334 1378.76 39.0334 1399.75C39.0334 1420.73 61.9038 1437.74 90.1158 1437.74C117.982 1437.74 140.636 1421.15 141.188 1400.52L141.26 1400.52L141.26 1284.24L169.56 1284.21L169.532 1260.12Z" fill="#8DC73F"/>
<ellipse cx="139.511" cy="1249.18" rx="9.19532" ry="6.47078" transform="rotate(-90 139.511 1249.18)" fill="#FFFDFD"/>
<ellipse cx="139.51" cy="1252.24" rx="5.44908" ry="3.74624" transform="rotate(-90 139.51 1252.24)" fill="#8DC73F"/>
<ellipse cx="154.495" cy="1249.18" rx="9.19532" ry="6.47078" transform="rotate(-90 154.495 1249.18)" fill="#FFFDFD"/>
<ellipse cx="154.495" cy="1252.24" rx="5.44908" ry="3.74624" transform="rotate(-90 154.495 1252.24)" fill="#8DC73F"/>
<path fill-rule="evenodd" clip-rule="evenodd" d="M1049.92 3V24.6307H1087.4V191.908H1109.03V24.6307H1149.4V3H1049.92Z" fill="#8DC73F"/>
<path fill-rule="evenodd" clip-rule="evenodd" d="M922.385 52.5343V74.165H922.385V133.289H922.385V154.919H922.385V218.369H922.385V240H922.385V240H944.011V240H1007.45V218.369H944.011V154.919H1007.45V133.289H944.011V74.165H1007.45V52.5343H922.385Z" fill="#8DC73F"/>
<path fill-rule="evenodd" clip-rule="evenodd" d="M290.235 74.165V240H268.608V52.5344H280.143V52.5343H365.207V52.5344H375.299V240H353.672V74.165H290.235Z" fill="#8DC73F"/>
<path fill-rule="evenodd" clip-rule="evenodd" d="M601.306 52.5343H622.933V163.439L686.371 61.8977V52.5343H707.997V219.811H707.978C707.415 231.026 693.76 240 676.999 240C659.879 240 646.001 230.638 646.001 219.09C646.001 207.542 659.879 198.181 676.999 198.181C680.265 198.181 683.414 198.521 686.371 199.153V102.717L622.933 204.258V219.811H622.914C622.351 231.026 608.696 240 591.934 240C574.815 240 560.937 230.638 560.937 219.09C560.937 207.542 574.815 198.181 591.934 198.181C595.201 198.181 598.349 198.521 601.306 199.153V52.5343Z" fill="#8DC73F"/>
<path fill-rule="evenodd" clip-rule="evenodd" d="M752.681 4.50159H774.307V27.8669C779.993 23.281 788.54 20.364 798.096 20.364C815.216 20.364 829.094 29.7256 829.094 41.2737C829.094 52.8217 815.216 62.1833 798.096 62.1833C788.54 62.1833 779.993 59.2663 774.307 54.6804V122.489C784.015 117.234 796.287 114.097 809.631 114.097C841.083 114.097 866.58 131.529 866.58 153.032C866.58 174.535 841.083 191.967 809.631 191.967C778.884 191.967 753.829 175.309 752.719 154.474H752.681V4.50159Z" fill="#8DC73F"/>
<path fill-rule="evenodd" clip-rule="evenodd" d="M486.121 82.372C517.573 82.372 543.07 64.9401 543.07 43.4368C543.07 21.9335 517.573 4.50159 486.121 4.50159C455.374 4.50159 430.319 21.1595 429.209 41.9947H429.171V191.967H450.797V73.9796C460.505 79.2345 472.777 82.372 486.121 82.372Z" fill="#8DC73F"/>
<rect x="1199.13" y="40.9156" width="23.1608" height="114.441" fill="#8DC73F"/>
<ellipse cx="1210.63" cy="209.329" rx="33.2994" ry="22.4621" fill="#8DC73F"/>
<path d="M124.502 56.5014C99.7654 45.49 113.953 36.1029 124.171 32.7784L124.502 56.5014C124.572 56.5326 124.643 56.5639 124.713 56.5952C124.644 56.6288 124.574 56.6628 124.505 56.6971L124.856 81.9459C124.978 81.9855 125.101 82.0251 125.225 82.0646C125.104 82.1127 124.982 82.1617 124.86 82.2115L125.208 107.23C125.488 107.334 125.773 107.437 126.062 107.54C125.783 107.634 125.501 107.731 125.217 107.833L125.581 133.983C99.6721 122.146 114.071 111.822 125.217 107.833L125.208 107.23C99.2834 97.6357 113.878 86.6815 124.86 82.2115L124.856 81.9459C99.9318 73.8477 114.077 61.8243 124.505 56.6971L124.502 56.5014Z" fill="#F9ED32"/>
<path fill-rule="evenodd" clip-rule="evenodd" d="M169.545 25.8702L123.887 25.925L123.915 50.009L123.941 50.009L123.941 137.026C114.932 131.102 103.091 127.507 90.1208 127.507C61.9061 127.507 39.0336 144.52 39.0336 165.506C39.0336 186.492 61.9061 203.505 90.1208 203.505C117.989 203.505 140.646 186.907 141.198 166.276L141.27 166.276L141.27 49.9882L169.572 49.9542L169.545 25.8702Z" fill="#8DC73F"/>
<ellipse cx="139.52" cy="14.921" rx="9.19619" ry="6.47139" transform="rotate(-90 139.52 14.921)" fill="#FFFDFD"/>
<ellipse cx="139.52" cy="17.9864" rx="5.44959" ry="3.7466" transform="rotate(-90 139.52 17.9864)" fill="#8DC73F"/>
<ellipse cx="154.507" cy="14.921" rx="9.19619" ry="6.47139" transform="rotate(-90 154.507 14.921)" fill="#FFFDFD"/>
<ellipse cx="154.506" cy="17.9864" rx="5.44959" ry="3.7466" transform="rotate(-90 154.506 17.9864)" fill="#8DC73F"/>
<path fill-rule="evenodd" clip-rule="evenodd" d="M1049.92 255V276.631H1087.4V443.908H1109.03V276.631H1149.4V255H1049.92Z" fill="#8DC73F"/>
<path fill-rule="evenodd" clip-rule="evenodd" d="M922.385 289.534V311.165H922.385V370.289H922.385V391.919H922.385V455.369H922.385V477H922.385V477H944.011V477H1007.45V455.369H944.011V391.919H1007.45V370.289H944.011V311.165H1007.45V289.534H922.385Z" fill="#8DC73F"/>
<path fill-rule="evenodd" clip-rule="evenodd" d="M290.235 311.165V477H268.608V289.534H280.143V289.534H365.207V289.534H375.299V477H353.672V311.165H290.235Z" fill="#8DC73F"/>
<path fill-rule="evenodd" clip-rule="evenodd" d="M601.306 289.534H622.933V400.439L686.371 298.898V289.534H707.997V456.811H707.978C707.415 468.026 693.76 477 676.999 477C659.879 477 646.001 467.638 646.001 456.09C646.001 444.542 659.879 435.181 676.999 435.181C680.265 435.181 683.414 435.521 686.371 436.153V339.717L622.933 441.258V456.811H622.914C622.351 468.026 608.696 477 591.934 477C574.815 477 560.937 467.638 560.937 456.09C560.937 444.542 574.815 435.181 591.934 435.181C595.201 435.181 598.349 435.521 601.306 436.153V289.534Z" fill="#8DC73F"/>
<path fill-rule="evenodd" clip-rule="evenodd" d="M752.681 256.502H774.307V279.867C779.993 275.281 788.54 272.364 798.096 272.364C815.216 272.364 829.094 281.726 829.094 293.274C829.094 304.822 815.216 314.183 798.096 314.183C788.54 314.183 779.993 311.266 774.307 306.68V374.489C784.015 369.234 796.287 366.097 809.631 366.097C841.083 366.097 866.58 383.529 866.58 405.032C866.58 426.535 841.083 443.967 809.631 443.967C778.884 443.967 753.829 427.309 752.719 406.474H752.681V256.502Z" fill="#8DC73F"/>
<path fill-rule="evenodd" clip-rule="evenodd" d="M486.121 334.372C517.573 334.372 543.07 316.94 543.07 295.437C543.07 273.933 517.573 256.502 486.121 256.502C455.374 256.502 430.319 273.16 429.209 293.995H429.171V443.967H450.797V325.98C460.505 331.234 472.777 334.372 486.121 334.372Z" fill="#8DC73F"/>
<rect x="1199.13" y="277.916" width="23.1608" height="114.441" fill="#8DC73F"/>
<ellipse cx="1210.63" cy="446.329" rx="33.2994" ry="22.4621" fill="#8DC73F"/>
<path d="M124.502 308.501C99.7654 297.49 113.953 288.103 124.171 284.778L124.502 308.501C124.572 308.533 124.643 308.564 124.713 308.595C124.644 308.629 124.574 308.663 124.505 308.697L124.856 333.946C124.978 333.986 125.101 334.025 125.225 334.065C125.104 334.113 124.982 334.162 124.86 334.211L125.208 359.23C125.488 359.334 125.773 359.437 126.062 359.54C125.783 359.634 125.501 359.731 125.217 359.833L125.581 385.983C99.6721 374.146 114.071 363.822 125.217 359.833L125.208 359.23C99.2834 349.636 113.878 338.681 124.86 334.211L124.856 333.946C99.9318 325.848 114.077 313.824 124.505 308.697L124.502 308.501Z" fill="#F9ED32"/>
<path fill-rule="evenodd" clip-rule="evenodd" d="M169.545 277.87L123.887 277.925L123.915 302.009L123.941 302.009L123.941 389.026C114.932 383.102 103.091 379.507 90.1208 379.507C61.9061 379.507 39.0336 396.52 39.0336 417.506C39.0336 438.492 61.9061 455.505 90.1208 455.505C117.989 455.505 140.646 438.907 141.198 418.276L141.27 418.276L141.27 301.988L169.572 301.954L169.545 277.87Z" fill="#8DC73F"/>
<ellipse cx="139.52" cy="266.921" rx="9.19619" ry="6.47139" transform="rotate(-90 139.52 266.921)" fill="#FFFDFD"/>
<ellipse cx="139.52" cy="269.986" rx="5.44959" ry="3.7466" transform="rotate(-90 139.52 269.986)" fill="#8DC73F"/>
<ellipse cx="154.507" cy="266.921" rx="9.19619" ry="6.47139" transform="rotate(-90 154.507 266.921)" fill="#FFFDFD"/>
<ellipse cx="154.506" cy="269.986" rx="5.44959" ry="3.7466" transform="rotate(-90 154.506 269.986)" fill="#8DC73F"/>
<path fill-rule="evenodd" clip-rule="evenodd" d="M1049.92 1710V1731.63H1087.4V1898.91H1109.03V1731.63H1149.4V1710H1049.92Z" fill="#8DC73F"/>
<path fill-rule="evenodd" clip-rule="evenodd" d="M922.385 1744.53V1766.16H922.385V1825.29H922.385V1846.92H922.385V1910.37H922.385V1932H922.385V1932H944.011V1932H1007.45V1910.37H944.011V1846.92H1007.45V1825.29H944.011V1766.16H1007.45V1744.53H922.385Z" fill="#8DC73F"/>
<path fill-rule="evenodd" clip-rule="evenodd" d="M290.235 1766.16V1932H268.608V1744.53H280.143V1744.53H365.207V1744.53H375.299V1932H353.672V1766.16H290.235Z" fill="#8DC73F"/>
<path fill-rule="evenodd" clip-rule="evenodd" d="M601.306 1744.53H622.933V1855.44L686.371 1753.9V1744.53H707.997V1911.81H707.978C707.415 1923.03 693.76 1932 676.999 1932C659.879 1932 646.001 1922.64 646.001 1911.09C646.001 1899.54 659.879 1890.18 676.999 1890.18C680.265 1890.18 683.414 1890.52 686.371 1891.15V1794.72L622.933 1896.26V1911.81H622.914C622.351 1923.03 608.696 1932 591.934 1932C574.815 1932 560.937 1922.64 560.937 1911.09C560.937 1899.54 574.815 1890.18 591.934 1890.18C595.201 1890.18 598.349 1890.52 601.306 1891.15V1744.53Z" fill="#8DC73F"/>
<path fill-rule="evenodd" clip-rule="evenodd" d="M752.681 1711.5H774.307V1734.87C779.993 1730.28 788.54 1727.36 798.096 1727.36C815.216 1727.36 829.094 1736.73 829.094 1748.27C829.094 1759.82 815.216 1769.18 798.096 1769.18C788.54 1769.18 779.993 1766.27 774.307 1761.68V1829.49C784.015 1824.23 796.287 1821.1 809.631 1821.1C841.083 1821.1 866.58 1838.53 866.58 1860.03C866.58 1881.54 841.083 1898.97 809.631 1898.97C778.884 1898.97 753.829 1882.31 752.719 1861.47H752.681V1711.5Z" fill="#8DC73F"/>
<path fill-rule="evenodd" clip-rule="evenodd" d="M486.121 1789.37C517.573 1789.37 543.07 1771.94 543.07 1750.44C543.07 1728.93 517.573 1711.5 486.121 1711.5C455.374 1711.5 430.319 1728.16 429.209 1748.99H429.171V1898.97H450.797V1780.98C460.505 1786.23 472.777 1789.37 486.121 1789.37Z" fill="#8DC73F"/>
<rect x="1199.13" y="1732.92" width="23.1608" height="114.441" fill="#8DC73F"/>
<ellipse cx="1210.63" cy="1901.33" rx="33.2994" ry="22.4621" fill="#8DC73F"/>
<path d="M124.502 1763.5C99.7654 1752.49 113.953 1743.1 124.171 1739.78L124.502 1763.5C124.572 1763.53 124.643 1763.56 124.713 1763.6C124.644 1763.63 124.574 1763.66 124.505 1763.7L124.856 1788.95C124.978 1788.99 125.101 1789.03 125.225 1789.06C125.104 1789.11 124.982 1789.16 124.86 1789.21L125.208 1814.23C125.488 1814.33 125.773 1814.44 126.062 1814.54C125.783 1814.63 125.501 1814.73 125.217 1814.83L125.581 1840.98C99.6721 1829.15 114.071 1818.82 125.217 1814.83L125.208 1814.23C99.2834 1804.64 113.878 1793.68 124.86 1789.21L124.856 1788.95C99.9318 1780.85 114.077 1768.82 124.505 1763.7L124.502 1763.5Z" fill="#F9ED32"/>
<path fill-rule="evenodd" clip-rule="evenodd" d="M169.545 1732.87L123.887 1732.93L123.915 1757.01L123.941 1757.01L123.941 1844.03C114.932 1838.1 103.091 1834.51 90.1208 1834.51C61.9061 1834.51 39.0336 1851.52 39.0336 1872.51C39.0336 1893.49 61.9061 1910.5 90.1208 1910.5C117.989 1910.5 140.646 1893.91 141.198 1873.28L141.27 1873.28L141.27 1756.99L169.572 1756.95L169.545 1732.87Z" fill="#8DC73F"/>
<ellipse cx="139.52" cy="1721.92" rx="9.19619" ry="6.47139" transform="rotate(-90 139.52 1721.92)" fill="#FFFDFD"/>
<ellipse cx="139.52" cy="1724.99" rx="5.44959" ry="3.7466" transform="rotate(-90 139.52 1724.99)" fill="#8DC73F"/>
<ellipse cx="154.507" cy="1721.92" rx="9.19619" ry="6.47139" transform="rotate(-90 154.507 1721.92)" fill="#FFFDFD"/>
<ellipse cx="154.506" cy="1724.99" rx="5.44959" ry="3.7466" transform="rotate(-90 154.506 1724.99)" fill="#8DC73F"/>
</svg>
