<svg width="1440" height="2144" viewBox="0 0 1440 2144" fill="none" xmlns="http://www.w3.org/2000/svg">
<path fill-rule="evenodd" clip-rule="evenodd" d="M1162.27 2.99995V26.3892H1202.8V207.266H1226.18V26.3892H1269.84V2.99995H1162.27Z" fill="#8DC73F"/>
<path fill-rule="evenodd" clip-rule="evenodd" d="M1024.37 61.9678V61.9678V85.357V149.288V172.677V241.285V264.674H1047.75L1116.35 264.674V241.285H1047.75V172.677H1116.35V149.288H1047.75V85.357H1116.35V61.9678H1024.37Z" fill="#8DC73F"/>
<path fill-rule="evenodd" clip-rule="evenodd" d="M340.822 85.357V264.674H317.438V61.9678H329.909V61.9677H421.889L432.802 61.9678V264.674H409.417V85.357H340.822Z" fill="#8DC73F"/>
<path fill-rule="evenodd" clip-rule="evenodd" d="M677.184 61.9678H700.569V181.889L769.165 72.0921V61.9678H792.549V242.844H792.53C791.92 254.97 777.156 264.674 759.031 264.674C740.52 264.674 725.513 254.552 725.513 242.065C725.513 229.578 740.52 219.455 759.031 219.455C762.563 219.455 765.968 219.824 769.165 220.507V116.229L700.569 226.027V241.946C700.569 241.986 700.569 242.025 700.569 242.065C700.569 242.085 700.569 242.105 700.569 242.125C700.569 242.144 700.569 242.164 700.569 242.183V242.844H700.55C699.941 254.97 685.176 264.674 667.051 264.674C648.54 264.674 633.533 254.552 633.533 242.065C633.533 229.578 648.54 219.455 667.051 219.455C670.583 219.455 673.987 219.824 677.184 220.507V61.9678Z" fill="#8DC73F"/>
<path fill-rule="evenodd" clip-rule="evenodd" d="M840.864 4.62354H864.249V29.8888C870.397 24.9298 879.639 21.7756 889.972 21.7756C908.484 21.7756 923.49 31.8982 923.49 44.3852C923.49 56.8721 908.484 66.9947 889.972 66.9947C879.639 66.9947 870.397 63.8405 864.249 58.8815V132.204C874.746 126.521 888.015 123.129 902.444 123.129C936.454 123.129 964.024 141.978 964.024 165.229C964.024 188.481 936.454 207.33 902.444 207.33C869.198 207.33 842.106 189.318 840.906 166.789H840.864V4.62354Z" fill="#8DC73F"/>
<path fill-rule="evenodd" clip-rule="evenodd" d="M552.634 88.8247C586.644 88.8247 614.214 69.9757 614.214 46.7241C614.214 23.4726 586.644 4.62354 552.634 4.62354C519.388 4.62354 492.296 22.6357 491.096 45.1648H491.055V46.6527C491.055 46.6765 491.055 46.7003 491.055 46.7241C491.055 46.7479 491.055 46.7718 491.055 46.7956V207.33H514.439V79.7501C524.936 85.4322 538.206 88.8247 552.634 88.8247Z" fill="#8DC73F"/>
<rect x="1323.61" y="49.4045" width="25.0437" height="123.745" fill="#8DC73F"/>
<ellipse cx="1336.04" cy="240.16" rx="36.0067" ry="24.2883" fill="#8DC73F"/>
<path d="M161.615 60.8513C134.867 48.9447 150.208 38.7945 161.257 35.1996L161.615 60.8513C161.691 60.885 161.767 60.9188 161.843 60.9527C161.768 60.9891 161.693 61.0259 161.618 61.0629L161.998 88.3644C162.13 88.4073 162.263 88.4501 162.397 88.4928C162.266 88.5448 162.134 88.5978 162.002 88.6516L162.379 115.704C162.681 115.816 162.989 115.928 163.302 116.039C163 116.14 162.695 116.246 162.388 116.356L162.781 144.632C134.766 131.832 150.336 120.669 162.388 116.356L162.379 115.704C134.346 105.33 150.127 93.485 162.002 88.6516L161.998 88.3644C135.047 79.6078 150.342 66.607 161.618 61.0629L161.615 60.8513Z" fill="#F9ED32"/>
<path fill-rule="evenodd" clip-rule="evenodd" d="M210.319 27.7298L160.95 27.7891L160.98 53.8311L161.009 53.831L161.009 147.922C151.268 141.517 138.464 137.63 124.439 137.63C93.9308 137.63 69.1987 156.025 69.1987 178.718C69.1987 201.41 93.9308 219.806 124.439 219.806C154.573 219.806 179.072 201.859 179.669 179.551L179.746 179.551L179.746 53.8085L210.35 53.7718L210.319 27.7298Z" fill="#8DC73F"/>
<ellipse cx="177.854" cy="15.8901" rx="9.94384" ry="6.99751" transform="rotate(-90 177.854 15.8901)" fill="#FFFDFD"/>
<ellipse cx="177.854" cy="19.2048" rx="5.89264" ry="4.05119" transform="rotate(-90 177.854 19.2048)" fill="#8DC73F"/>
<ellipse cx="194.059" cy="15.8901" rx="9.94384" ry="6.99751" transform="rotate(-90 194.059 15.8901)" fill="#FFFDFD"/>
<ellipse cx="194.059" cy="19.2048" rx="5.89264" ry="4.05119" transform="rotate(-90 194.059 19.2048)" fill="#8DC73F"/>
<path fill-rule="evenodd" clip-rule="evenodd" d="M1162.27 281V304.389H1202.8V485.266H1226.18V304.389H1269.84V281H1162.27Z" fill="#8DC73F"/>
<path fill-rule="evenodd" clip-rule="evenodd" d="M1024.37 319.968V319.968V343.357V407.288V430.677V499.285V522.674H1047.75L1116.35 522.674V499.285H1047.75V430.677H1116.35V407.288H1047.75V343.357H1116.35V319.968H1024.37Z" fill="#8DC73F"/>
<path fill-rule="evenodd" clip-rule="evenodd" d="M340.822 343.357V522.674H317.438V319.968H329.909V319.968H421.889L432.802 319.968V522.674H409.417V343.357H340.822Z" fill="#8DC73F"/>
<path fill-rule="evenodd" clip-rule="evenodd" d="M677.184 319.968H700.569V439.889L769.165 330.092V319.968H792.549V500.844H792.53C791.92 512.97 777.156 522.674 759.031 522.674C740.52 522.674 725.513 512.552 725.513 500.065C725.513 487.578 740.52 477.455 759.031 477.455C762.563 477.455 765.968 477.824 769.165 478.507V374.229L700.569 484.027V499.946C700.569 499.986 700.569 500.025 700.569 500.065C700.569 500.085 700.569 500.105 700.569 500.125C700.569 500.144 700.569 500.164 700.569 500.183V500.844H700.55C699.941 512.97 685.176 522.674 667.051 522.674C648.54 522.674 633.533 512.552 633.533 500.065C633.533 487.578 648.54 477.455 667.051 477.455C670.583 477.455 673.987 477.824 677.184 478.507V319.968Z" fill="#8DC73F"/>
<path fill-rule="evenodd" clip-rule="evenodd" d="M840.864 282.624H864.249V307.889C870.397 302.93 879.639 299.776 889.972 299.776C908.484 299.776 923.49 309.898 923.49 322.385C923.49 334.872 908.484 344.995 889.972 344.995C879.639 344.995 870.397 341.84 864.249 336.881V410.204C874.746 404.521 888.015 401.129 902.444 401.129C936.454 401.129 964.024 419.978 964.024 443.229C964.024 466.481 936.454 485.33 902.444 485.33C869.198 485.33 842.106 467.318 840.906 444.789H840.864V282.624Z" fill="#8DC73F"/>
<path fill-rule="evenodd" clip-rule="evenodd" d="M552.634 366.825C586.644 366.825 614.214 347.976 614.214 324.724C614.214 301.473 586.644 282.624 552.634 282.624C519.388 282.624 492.296 300.636 491.096 323.165H491.055V324.653C491.055 324.677 491.055 324.7 491.055 324.724C491.055 324.748 491.055 324.772 491.055 324.796V485.33H514.439V357.75C524.936 363.432 538.206 366.825 552.634 366.825Z" fill="#8DC73F"/>
<rect x="1323.61" y="307.405" width="25.0437" height="123.745" fill="#8DC73F"/>
<ellipse cx="1336.04" cy="498.16" rx="36.0067" ry="24.2883" fill="#8DC73F"/>
<path d="M161.615 338.851C134.867 326.945 150.208 316.794 161.257 313.2L161.615 338.851C161.691 338.885 161.767 338.919 161.843 338.953C161.768 338.989 161.693 339.026 161.618 339.063L161.998 366.364C162.13 366.407 162.263 366.45 162.397 366.493C162.266 366.545 162.134 366.598 162.002 366.652L162.379 393.704C162.681 393.816 162.989 393.928 163.302 394.039C163 394.14 162.695 394.246 162.388 394.356L162.781 422.632C134.766 409.832 150.336 398.669 162.388 394.356L162.379 393.704C134.346 383.33 150.127 371.485 162.002 366.652L161.998 366.364C135.047 357.608 150.342 344.607 161.618 339.063L161.615 338.851Z" fill="#F9ED32"/>
<path fill-rule="evenodd" clip-rule="evenodd" d="M210.319 305.73L160.95 305.789L160.98 331.831L161.009 331.831L161.009 425.922C151.268 419.517 138.464 415.63 124.439 415.63C93.9308 415.63 69.1987 434.025 69.1987 456.718C69.1987 479.41 93.9308 497.806 124.439 497.806C154.573 497.806 179.072 479.859 179.669 457.551L179.746 457.551L179.746 331.809L210.35 331.772L210.319 305.73Z" fill="#8DC73F"/>
<ellipse cx="177.854" cy="293.89" rx="9.94384" ry="6.99751" transform="rotate(-90 177.854 293.89)" fill="#FFFDFD"/>
<ellipse cx="177.854" cy="297.205" rx="5.89264" ry="4.05119" transform="rotate(-90 177.854 297.205)" fill="#8DC73F"/>
<ellipse cx="194.059" cy="293.89" rx="9.94384" ry="6.99751" transform="rotate(-90 194.059 293.89)" fill="#FFFDFD"/>
<ellipse cx="194.059" cy="297.205" rx="5.89264" ry="4.05119" transform="rotate(-90 194.059 297.205)" fill="#8DC73F"/>
<path fill-rule="evenodd" clip-rule="evenodd" d="M1162.27 1889V1912.39H1202.8V2093.27H1226.18V1912.39H1269.84V1889H1162.27Z" fill="#8DC73F"/>
<path fill-rule="evenodd" clip-rule="evenodd" d="M1024.37 1927.97V1927.97V1951.36V2015.29V2038.68V2107.29V2130.67H1047.75L1116.35 2130.67V2107.29H1047.75V2038.68H1116.35V2015.29H1047.75V1951.36H1116.35V1927.97H1024.37Z" fill="#8DC73F"/>
<path fill-rule="evenodd" clip-rule="evenodd" d="M340.822 1951.36V2130.67H317.438V1927.97H329.909V1927.97H421.889L432.802 1927.97V2130.67H409.417V1951.36H340.822Z" fill="#8DC73F"/>
<path fill-rule="evenodd" clip-rule="evenodd" d="M677.184 1927.97H700.569V2047.89L769.165 1938.09V1927.97H792.549V2108.84H792.53C791.92 2120.97 777.156 2130.67 759.031 2130.67C740.52 2130.67 725.513 2120.55 725.513 2108.06C725.513 2095.58 740.52 2085.46 759.031 2085.46C762.563 2085.46 765.968 2085.82 769.165 2086.51V1982.23L700.569 2092.03V2107.95C700.569 2107.99 700.569 2108.03 700.569 2108.06C700.569 2108.08 700.569 2108.1 700.569 2108.12C700.569 2108.14 700.569 2108.16 700.569 2108.18V2108.84H700.55C699.941 2120.97 685.176 2130.67 667.051 2130.67C648.54 2130.67 633.533 2120.55 633.533 2108.06C633.533 2095.58 648.54 2085.46 667.051 2085.46C670.583 2085.46 673.987 2085.82 677.184 2086.51V1927.97Z" fill="#8DC73F"/>
<path fill-rule="evenodd" clip-rule="evenodd" d="M840.864 1890.62H864.249V1915.89C870.397 1910.93 879.639 1907.78 889.972 1907.78C908.484 1907.78 923.49 1917.9 923.49 1930.39C923.49 1942.87 908.484 1952.99 889.972 1952.99C879.639 1952.99 870.397 1949.84 864.249 1944.88V2018.2C874.746 2012.52 888.015 2009.13 902.444 2009.13C936.454 2009.13 964.024 2027.98 964.024 2051.23C964.024 2074.48 936.454 2093.33 902.444 2093.33C869.198 2093.33 842.106 2075.32 840.906 2052.79H840.864V1890.62Z" fill="#8DC73F"/>
<path fill-rule="evenodd" clip-rule="evenodd" d="M552.634 1974.82C586.644 1974.82 614.214 1955.98 614.214 1932.72C614.214 1909.47 586.644 1890.62 552.634 1890.62C519.388 1890.62 492.296 1908.64 491.096 1931.16H491.055V1932.65C491.055 1932.68 491.055 1932.7 491.055 1932.72C491.055 1932.75 491.055 1932.77 491.055 1932.8V2093.33H514.439V1965.75C524.936 1971.43 538.206 1974.82 552.634 1974.82Z" fill="#8DC73F"/>
<rect x="1323.61" y="1915.4" width="25.0437" height="123.745" fill="#8DC73F"/>
<ellipse cx="1336.04" cy="2106.16" rx="36.0067" ry="24.2883" fill="#8DC73F"/>
<path d="M161.615 1946.85C134.867 1934.94 150.208 1924.79 161.257 1921.2L161.615 1946.85C161.691 1946.88 161.767 1946.92 161.843 1946.95C161.768 1946.99 161.693 1947.03 161.618 1947.06L161.998 1974.36C162.13 1974.41 162.263 1974.45 162.397 1974.49C162.266 1974.54 162.134 1974.6 162.002 1974.65L162.379 2001.7C162.681 2001.82 162.989 2001.93 163.302 2002.04C163 2002.14 162.695 2002.25 162.388 2002.36L162.781 2030.63C134.766 2017.83 150.336 2006.67 162.388 2002.36L162.379 2001.7C134.346 1991.33 150.127 1979.48 162.002 1974.65L161.998 1974.36C135.047 1965.61 150.342 1952.61 161.618 1947.06L161.615 1946.85Z" fill="#F9ED32"/>
<path fill-rule="evenodd" clip-rule="evenodd" d="M210.319 1913.73L160.95 1913.79L160.98 1939.83L161.009 1939.83L161.009 2033.92C151.268 2027.52 138.464 2023.63 124.439 2023.63C93.9308 2023.63 69.1987 2042.03 69.1987 2064.72C69.1987 2087.41 93.9308 2105.81 124.439 2105.81C154.573 2105.81 179.072 2087.86 179.669 2065.55L179.746 2065.55L179.746 1939.81L210.35 1939.77L210.319 1913.73Z" fill="#8DC73F"/>
<ellipse cx="177.854" cy="1901.89" rx="9.94384" ry="6.99751" transform="rotate(-90 177.854 1901.89)" fill="#FFFDFD"/>
<ellipse cx="177.854" cy="1905.2" rx="5.89264" ry="4.05119" transform="rotate(-90 177.854 1905.2)" fill="#8DC73F"/>
<ellipse cx="194.059" cy="1901.89" rx="9.94384" ry="6.99751" transform="rotate(-90 194.059 1901.89)" fill="#FFFDFD"/>
<ellipse cx="194.059" cy="1905.2" rx="5.89264" ry="4.05119" transform="rotate(-90 194.059 1905.2)" fill="#8DC73F"/>
<path fill-rule="evenodd" clip-rule="evenodd" d="M1162.27 565V588.389H1202.8V769.266H1226.18V588.389H1269.84V565H1162.27Z" fill="#8DC73F"/>
<path fill-rule="evenodd" clip-rule="evenodd" d="M1024.37 565V565V588.389V652.32V675.709V744.317V767.707H1047.75L1116.35 767.707V744.317H1047.75V675.709H1116.35V652.32H1047.75V588.389H1116.35V565H1024.37Z" fill="#8DC73F"/>
<path fill-rule="evenodd" clip-rule="evenodd" d="M340.822 588.389V767.707H317.438V565H329.909V565H421.889L432.802 565V767.707H409.417V588.389H340.822Z" fill="#8DC73F"/>
<path fill-rule="evenodd" clip-rule="evenodd" d="M677.184 565H700.569V684.922L769.165 575.124V565H792.549V745.877H792.53C791.92 758.003 777.156 767.707 759.031 767.707C740.52 767.707 725.513 757.584 725.513 745.097C725.513 732.61 740.52 722.487 759.031 722.487C762.563 722.487 765.968 722.856 769.165 723.539V619.262L700.569 729.059V744.979C700.569 745.018 700.569 745.057 700.569 745.097C700.569 745.117 700.569 745.137 700.569 745.157C700.569 745.176 700.569 745.196 700.569 745.215V745.877H700.55C699.941 758.003 685.176 767.707 667.051 767.707C648.54 767.707 633.533 757.584 633.533 745.097C633.533 732.61 648.54 722.487 667.051 722.487C670.583 722.487 673.987 722.856 677.184 723.539V565Z" fill="#8DC73F"/>
<path fill-rule="evenodd" clip-rule="evenodd" d="M840.864 565H864.249V590.265C870.397 585.306 879.639 582.152 889.972 582.152C908.484 582.152 923.49 592.275 923.49 604.762C923.49 617.249 908.484 627.371 889.972 627.371C879.639 627.371 870.397 624.217 864.249 619.258V692.58C874.746 686.898 888.015 683.505 902.444 683.505C936.454 683.505 964.024 702.354 964.024 725.606C964.024 748.857 936.454 767.707 902.444 767.707C869.198 767.707 842.106 749.694 840.906 727.165H840.864V565Z" fill="#8DC73F"/>
<path fill-rule="evenodd" clip-rule="evenodd" d="M552.634 649.201C586.644 649.201 614.214 630.352 614.214 607.101C614.214 583.849 586.644 565 552.634 565C519.388 565 492.296 583.012 491.096 605.541H491.055V607.029C491.055 607.053 491.055 607.077 491.055 607.101C491.055 607.124 491.055 607.148 491.055 607.172V767.707H514.439V640.127C524.936 645.809 538.206 649.201 552.634 649.201Z" fill="#8DC73F"/>
<rect x="1323.61" y="559" width="25.0437" height="123.745" fill="#8DC73F"/>
<ellipse cx="1336.04" cy="749.755" rx="36.0067" ry="24.2883" fill="#8DC73F"/>
<path d="M161.615 612.905C134.867 600.998 150.208 590.848 161.257 587.253L161.615 612.905C161.691 612.939 161.767 612.972 161.843 613.006C161.768 613.043 161.693 613.079 161.618 613.117L161.998 640.418C162.13 640.461 162.263 640.504 162.397 640.546C162.266 640.598 162.134 640.651 162.002 640.705L162.379 667.758C162.681 667.87 162.989 667.981 163.302 668.093C163 668.194 162.695 668.3 162.388 668.41L162.781 696.686C134.766 683.886 150.336 672.723 162.388 668.41L162.379 667.758C134.346 657.383 150.127 645.539 162.002 640.705L161.998 640.418C135.047 631.661 150.342 618.661 161.618 613.117L161.615 612.905Z" fill="#F9ED32"/>
<path fill-rule="evenodd" clip-rule="evenodd" d="M210.319 579.783L160.95 579.843L160.98 605.885L161.009 605.885L161.009 699.976C151.268 693.571 138.464 689.683 124.439 689.683C93.9308 689.683 69.1987 708.079 69.1987 730.771C69.1987 753.464 93.9308 771.859 124.439 771.859C154.573 771.859 179.072 753.912 179.669 731.605L179.746 731.605L179.746 605.862L210.35 605.825L210.319 579.783Z" fill="#8DC73F"/>
<ellipse cx="177.854" cy="567.944" rx="9.94384" ry="6.99751" transform="rotate(-90 177.854 567.944)" fill="#FFFDFD"/>
<ellipse cx="177.854" cy="571.258" rx="5.89264" ry="4.05119" transform="rotate(-90 177.854 571.258)" fill="#8DC73F"/>
<ellipse cx="194.059" cy="567.944" rx="9.94384" ry="6.99751" transform="rotate(-90 194.059 567.944)" fill="#FFFDFD"/>
<ellipse cx="194.059" cy="571.258" rx="5.89264" ry="4.05119" transform="rotate(-90 194.059 571.258)" fill="#8DC73F"/>
<path fill-rule="evenodd" clip-rule="evenodd" d="M1162.27 1640V1663.39H1202.8V1844.27H1226.18V1663.39H1269.84V1640H1162.27Z" fill="#8DC73F"/>
<path fill-rule="evenodd" clip-rule="evenodd" d="M1024.37 1640V1640V1663.39V1727.32V1750.71V1819.32V1842.71H1047.75L1116.35 1842.71V1819.32H1047.75V1750.71H1116.35V1727.32H1047.75V1663.39H1116.35V1640H1024.37Z" fill="#8DC73F"/>
<path fill-rule="evenodd" clip-rule="evenodd" d="M340.822 1663.39V1842.71H317.438V1640H329.909V1640H421.889L432.802 1640V1842.71H409.417V1663.39H340.822Z" fill="#8DC73F"/>
<path fill-rule="evenodd" clip-rule="evenodd" d="M677.184 1640H700.569V1759.92L769.165 1650.12V1640H792.549V1820.88H792.53C791.92 1833 777.156 1842.71 759.031 1842.71C740.52 1842.71 725.513 1832.58 725.513 1820.1C725.513 1807.61 740.52 1797.49 759.031 1797.49C762.563 1797.49 765.968 1797.86 769.165 1798.54V1694.26L700.569 1804.06V1819.98C700.569 1820.02 700.569 1820.06 700.569 1820.1C700.569 1820.12 700.569 1820.14 700.569 1820.16C700.569 1820.18 700.569 1820.2 700.569 1820.22V1820.88H700.55C699.941 1833 685.176 1842.71 667.051 1842.71C648.54 1842.71 633.533 1832.58 633.533 1820.1C633.533 1807.61 648.54 1797.49 667.051 1797.49C670.583 1797.49 673.987 1797.86 677.184 1798.54V1640Z" fill="#8DC73F"/>
<path fill-rule="evenodd" clip-rule="evenodd" d="M840.864 1640H864.249V1665.27C870.397 1660.31 879.639 1657.15 889.972 1657.15C908.484 1657.15 923.49 1667.27 923.49 1679.76C923.49 1692.25 908.484 1702.37 889.972 1702.37C879.639 1702.37 870.397 1699.22 864.249 1694.26V1767.58C874.746 1761.9 888.015 1758.51 902.444 1758.51C936.454 1758.51 964.024 1777.35 964.024 1800.61C964.024 1823.86 936.454 1842.71 902.444 1842.71C869.198 1842.71 842.106 1824.69 840.906 1802.17H840.864V1640Z" fill="#8DC73F"/>
<path fill-rule="evenodd" clip-rule="evenodd" d="M552.634 1724.2C586.644 1724.2 614.214 1705.35 614.214 1682.1C614.214 1658.85 586.644 1640 552.634 1640C519.388 1640 492.296 1658.01 491.096 1680.54H491.055V1682.03C491.055 1682.05 491.055 1682.08 491.055 1682.1C491.055 1682.12 491.055 1682.15 491.055 1682.17V1842.71H514.439V1715.13C524.936 1720.81 538.206 1724.2 552.634 1724.2Z" fill="#8DC73F"/>
<rect x="1323.61" y="1634" width="25.0437" height="123.745" fill="#8DC73F"/>
<ellipse cx="1336.04" cy="1824.76" rx="36.0067" ry="24.2883" fill="#8DC73F"/>
<path d="M161.615 1687.9C134.867 1676 150.208 1665.85 161.257 1662.25L161.615 1687.9C161.691 1687.94 161.767 1687.97 161.843 1688.01C161.768 1688.04 161.693 1688.08 161.618 1688.12L161.998 1715.42C162.13 1715.46 162.263 1715.5 162.397 1715.55C162.266 1715.6 162.134 1715.65 162.002 1715.71L162.379 1742.76C162.681 1742.87 162.989 1742.98 163.302 1743.09C163 1743.19 162.695 1743.3 162.388 1743.41L162.781 1771.69C134.766 1758.89 150.336 1747.72 162.388 1743.41L162.379 1742.76C134.346 1732.38 150.127 1720.54 162.002 1715.71L161.998 1715.42C135.047 1706.66 150.342 1693.66 161.618 1688.12L161.615 1687.9Z" fill="#F9ED32"/>
<path fill-rule="evenodd" clip-rule="evenodd" d="M210.319 1654.78L160.95 1654.84L160.98 1680.88L161.009 1680.88L161.009 1774.98C151.268 1768.57 138.464 1764.68 124.439 1764.68C93.9308 1764.68 69.1987 1783.08 69.1987 1805.77C69.1987 1828.46 93.9308 1846.86 124.439 1846.86C154.573 1846.86 179.072 1828.91 179.669 1806.6L179.746 1806.6L179.746 1680.86L210.35 1680.83L210.319 1654.78Z" fill="#8DC73F"/>
<ellipse cx="177.854" cy="1642.94" rx="9.94384" ry="6.99751" transform="rotate(-90 177.854 1642.94)" fill="#FFFDFD"/>
<ellipse cx="177.854" cy="1646.26" rx="5.89264" ry="4.05119" transform="rotate(-90 177.854 1646.26)" fill="#8DC73F"/>
<ellipse cx="194.059" cy="1642.94" rx="9.94384" ry="6.99751" transform="rotate(-90 194.059 1642.94)" fill="#FFFDFD"/>
<ellipse cx="194.059" cy="1646.26" rx="5.89264" ry="4.05119" transform="rotate(-90 194.059 1646.26)" fill="#8DC73F"/>
<path fill-rule="evenodd" clip-rule="evenodd" d="M1162.27 846V869.389H1202.8V1050.27H1226.18V869.389H1269.84V846H1162.27Z" fill="#8DC73F"/>
<path fill-rule="evenodd" clip-rule="evenodd" d="M1024.37 826V826V849.389V913.32V936.709V1005.32V1028.71H1047.75L1116.35 1028.71V1005.32H1047.75V936.709H1116.35V913.32H1047.75V849.389H1116.35V826H1024.37Z" fill="#8DC73F"/>
<path fill-rule="evenodd" clip-rule="evenodd" d="M340.822 849.389V1028.71H317.438V826H329.909V826H421.889L432.802 826V1028.71H409.417V849.389H340.822Z" fill="#8DC73F"/>
<path fill-rule="evenodd" clip-rule="evenodd" d="M677.184 826H700.569V945.922L769.165 836.124V826H792.549V1006.88H792.53C791.92 1019 777.156 1028.71 759.031 1028.71C740.52 1028.71 725.513 1018.58 725.513 1006.1C725.513 993.61 740.52 983.487 759.031 983.487C762.563 983.487 765.968 983.856 769.165 984.539V880.262L700.569 990.059V1005.98C700.569 1006.02 700.569 1006.06 700.569 1006.1C700.569 1006.12 700.569 1006.14 700.569 1006.16C700.569 1006.18 700.569 1006.2 700.569 1006.22V1006.88H700.55C699.941 1019 685.176 1028.71 667.051 1028.71C648.54 1028.71 633.533 1018.58 633.533 1006.1C633.533 993.61 648.54 983.487 667.051 983.487C670.583 983.487 673.987 983.856 677.184 984.539V826Z" fill="#8DC73F"/>
<path fill-rule="evenodd" clip-rule="evenodd" d="M840.864 846H864.249V871.265C870.397 866.306 879.639 863.152 889.972 863.152C908.484 863.152 923.49 873.275 923.49 885.762C923.49 898.249 908.484 908.371 889.972 908.371C879.639 908.371 870.397 905.217 864.249 900.258V973.58C874.746 967.898 888.015 964.505 902.444 964.505C936.454 964.505 964.024 983.354 964.024 1006.61C964.024 1029.86 936.454 1048.71 902.444 1048.71C869.198 1048.71 842.106 1030.69 840.906 1008.17H840.864V846Z" fill="#8DC73F"/>
<path fill-rule="evenodd" clip-rule="evenodd" d="M552.634 930.201C586.644 930.201 614.214 911.352 614.214 888.101C614.214 864.849 586.644 846 552.634 846C519.388 846 492.296 864.012 491.096 886.541H491.055V888.029C491.055 888.053 491.055 888.077 491.055 888.101C491.055 888.124 491.055 888.148 491.055 888.172V1048.71H514.439V921.127C524.936 926.809 538.206 930.201 552.634 930.201Z" fill="#8DC73F"/>
<rect x="1323.61" y="820" width="25.0437" height="123.745" fill="#8DC73F"/>
<ellipse cx="1336.04" cy="1010.76" rx="36.0067" ry="24.2883" fill="#8DC73F"/>
<path d="M161.615 893.905C134.867 881.998 150.208 871.848 161.257 868.253L161.615 893.905C161.691 893.939 161.767 893.972 161.843 894.006C161.768 894.043 161.693 894.079 161.618 894.117L161.998 921.418C162.13 921.461 162.263 921.504 162.397 921.546C162.266 921.598 162.134 921.651 162.002 921.705L162.379 948.758C162.681 948.87 162.989 948.981 163.302 949.093C163 949.194 162.695 949.3 162.388 949.41L162.781 977.686C134.766 964.886 150.336 953.723 162.388 949.41L162.379 948.758C134.346 938.383 150.127 926.539 162.002 921.705L161.998 921.418C135.047 912.661 150.342 899.661 161.618 894.117L161.615 893.905Z" fill="#F9ED32"/>
<path fill-rule="evenodd" clip-rule="evenodd" d="M210.319 860.783L160.95 860.843L160.98 886.885L161.009 886.885L161.009 980.976C151.268 974.571 138.464 970.683 124.439 970.683C93.9308 970.683 69.1987 989.079 69.1987 1011.77C69.1987 1034.46 93.9308 1052.86 124.439 1052.86C154.573 1052.86 179.072 1034.91 179.669 1012.6L179.746 1012.6L179.746 886.862L210.35 886.825L210.319 860.783Z" fill="#8DC73F"/>
<ellipse cx="177.854" cy="848.944" rx="9.94384" ry="6.99751" transform="rotate(-90 177.854 848.944)" fill="#FFFDFD"/>
<ellipse cx="177.854" cy="852.258" rx="5.89264" ry="4.05119" transform="rotate(-90 177.854 852.258)" fill="#8DC73F"/>
<ellipse cx="194.059" cy="848.944" rx="9.94384" ry="6.99751" transform="rotate(-90 194.059 848.944)" fill="#FFFDFD"/>
<ellipse cx="194.059" cy="852.258" rx="5.89264" ry="4.05119" transform="rotate(-90 194.059 852.258)" fill="#8DC73F"/>
<path fill-rule="evenodd" clip-rule="evenodd" d="M1162.27 1385V1408.39H1202.8V1589.27H1226.18V1408.39H1269.84V1385H1162.27Z" fill="#8DC73F"/>
<path fill-rule="evenodd" clip-rule="evenodd" d="M1024.37 1365V1365V1388.39V1452.32V1475.71V1544.32V1567.71H1047.75L1116.35 1567.71V1544.32H1047.75V1475.71H1116.35V1452.32H1047.75V1388.39H1116.35V1365H1024.37Z" fill="#8DC73F"/>
<path fill-rule="evenodd" clip-rule="evenodd" d="M340.822 1388.39V1567.71H317.438V1365H329.909V1365H421.889L432.802 1365V1567.71H409.417V1388.39H340.822Z" fill="#8DC73F"/>
<path fill-rule="evenodd" clip-rule="evenodd" d="M677.184 1365H700.569V1484.92L769.165 1375.12V1365H792.549V1545.88H792.53C791.92 1558 777.156 1567.71 759.031 1567.71C740.52 1567.71 725.513 1557.58 725.513 1545.1C725.513 1532.61 740.52 1522.49 759.031 1522.49C762.563 1522.49 765.968 1522.86 769.165 1523.54V1419.26L700.569 1529.06V1544.98C700.569 1545.02 700.569 1545.06 700.569 1545.1C700.569 1545.12 700.569 1545.14 700.569 1545.16C700.569 1545.18 700.569 1545.2 700.569 1545.22V1545.88H700.55C699.941 1558 685.176 1567.71 667.051 1567.71C648.54 1567.71 633.533 1557.58 633.533 1545.1C633.533 1532.61 648.54 1522.49 667.051 1522.49C670.583 1522.49 673.987 1522.86 677.184 1523.54V1365Z" fill="#8DC73F"/>
<path fill-rule="evenodd" clip-rule="evenodd" d="M840.864 1385H864.249V1410.27C870.397 1405.31 879.639 1402.15 889.972 1402.15C908.484 1402.15 923.49 1412.27 923.49 1424.76C923.49 1437.25 908.484 1447.37 889.972 1447.37C879.639 1447.37 870.397 1444.22 864.249 1439.26V1512.58C874.746 1506.9 888.015 1503.51 902.444 1503.51C936.454 1503.51 964.024 1522.35 964.024 1545.61C964.024 1568.86 936.454 1587.71 902.444 1587.71C869.198 1587.71 842.106 1569.69 840.906 1547.17H840.864V1385Z" fill="#8DC73F"/>
<path fill-rule="evenodd" clip-rule="evenodd" d="M552.634 1469.2C586.644 1469.2 614.214 1450.35 614.214 1427.1C614.214 1403.85 586.644 1385 552.634 1385C519.388 1385 492.296 1403.01 491.096 1425.54H491.055V1427.03C491.055 1427.05 491.055 1427.08 491.055 1427.1C491.055 1427.12 491.055 1427.15 491.055 1427.17V1587.71H514.439V1460.13C524.936 1465.81 538.206 1469.2 552.634 1469.2Z" fill="#8DC73F"/>
<rect x="1323.61" y="1359" width="25.0437" height="123.745" fill="#8DC73F"/>
<ellipse cx="1336.04" cy="1549.76" rx="36.0067" ry="24.2883" fill="#8DC73F"/>
<path d="M161.615 1432.9C134.867 1421 150.208 1410.85 161.257 1407.25L161.615 1432.9C161.691 1432.94 161.767 1432.97 161.843 1433.01C161.768 1433.04 161.693 1433.08 161.618 1433.12L161.998 1460.42C162.13 1460.46 162.263 1460.5 162.397 1460.55C162.266 1460.6 162.134 1460.65 162.002 1460.71L162.379 1487.76C162.681 1487.87 162.989 1487.98 163.302 1488.09C163 1488.19 162.695 1488.3 162.388 1488.41L162.781 1516.69C134.766 1503.89 150.336 1492.72 162.388 1488.41L162.379 1487.76C134.346 1477.38 150.127 1465.54 162.002 1460.71L161.998 1460.42C135.047 1451.66 150.342 1438.66 161.618 1433.12L161.615 1432.9Z" fill="#F9ED32"/>
<path fill-rule="evenodd" clip-rule="evenodd" d="M210.319 1399.78L160.95 1399.84L160.98 1425.88L161.009 1425.88L161.009 1519.98C151.268 1513.57 138.464 1509.68 124.439 1509.68C93.9308 1509.68 69.1987 1528.08 69.1987 1550.77C69.1987 1573.46 93.9308 1591.86 124.439 1591.86C154.573 1591.86 179.072 1573.91 179.669 1551.6L179.746 1551.6L179.746 1425.86L210.35 1425.83L210.319 1399.78Z" fill="#8DC73F"/>
<ellipse cx="177.854" cy="1387.94" rx="9.94384" ry="6.99751" transform="rotate(-90 177.854 1387.94)" fill="#FFFDFD"/>
<ellipse cx="177.854" cy="1391.26" rx="5.89264" ry="4.05119" transform="rotate(-90 177.854 1391.26)" fill="#8DC73F"/>
<ellipse cx="194.059" cy="1387.94" rx="9.94384" ry="6.99751" transform="rotate(-90 194.059 1387.94)" fill="#FFFDFD"/>
<ellipse cx="194.059" cy="1391.26" rx="5.89264" ry="4.05119" transform="rotate(-90 194.059 1391.26)" fill="#8DC73F"/>
<path fill-rule="evenodd" clip-rule="evenodd" d="M1162.27 1132V1155.39H1202.8V1336.27H1226.18V1155.39H1269.84V1132H1162.27Z" fill="#8DC73F"/>
<path fill-rule="evenodd" clip-rule="evenodd" d="M1024.37 1075V1075V1098.39V1162.32V1185.71V1254.32V1277.71H1047.75L1116.35 1277.71V1254.32H1047.75V1185.71H1116.35V1162.32H1047.75V1098.39H1116.35V1075H1024.37Z" fill="#8DC73F"/>
<path fill-rule="evenodd" clip-rule="evenodd" d="M340.822 1098.39V1277.71H317.438V1075H329.909V1075H421.889L432.802 1075V1277.71H409.417V1098.39H340.822Z" fill="#8DC73F"/>
<path fill-rule="evenodd" clip-rule="evenodd" d="M677.184 1075H700.569V1194.92L769.165 1085.12V1075H792.549V1255.88H792.53C791.92 1268 777.156 1277.71 759.031 1277.71C740.52 1277.71 725.513 1267.58 725.513 1255.1C725.513 1242.61 740.52 1232.49 759.031 1232.49C762.563 1232.49 765.968 1232.86 769.165 1233.54V1129.26L700.569 1239.06V1254.98C700.569 1255.02 700.569 1255.06 700.569 1255.1C700.569 1255.12 700.569 1255.14 700.569 1255.16C700.569 1255.18 700.569 1255.2 700.569 1255.22V1255.88H700.55C699.941 1268 685.176 1277.71 667.051 1277.71C648.54 1277.71 633.533 1267.58 633.533 1255.1C633.533 1242.61 648.54 1232.49 667.051 1232.49C670.583 1232.49 673.987 1232.86 677.184 1233.54V1075Z" fill="#8DC73F"/>
<path fill-rule="evenodd" clip-rule="evenodd" d="M840.864 1132H864.249V1157.27C870.397 1152.31 879.639 1149.15 889.972 1149.15C908.484 1149.15 923.49 1159.27 923.49 1171.76C923.49 1184.25 908.484 1194.37 889.972 1194.37C879.639 1194.37 870.397 1191.22 864.249 1186.26V1259.58C874.746 1253.9 888.015 1250.51 902.444 1250.51C936.454 1250.51 964.024 1269.35 964.024 1292.61C964.024 1315.86 936.454 1334.71 902.444 1334.71C869.198 1334.71 842.106 1316.69 840.906 1294.17H840.864V1132Z" fill="#8DC73F"/>
<path fill-rule="evenodd" clip-rule="evenodd" d="M552.634 1216.2C586.644 1216.2 614.214 1197.35 614.214 1174.1C614.214 1150.85 586.644 1132 552.634 1132C519.388 1132 492.296 1150.01 491.096 1172.54H491.055V1174.03C491.055 1174.05 491.055 1174.08 491.055 1174.1C491.055 1174.12 491.055 1174.15 491.055 1174.17V1334.71H514.439V1207.13C524.936 1212.81 538.206 1216.2 552.634 1216.2Z" fill="#8DC73F"/>
<rect x="1323.61" y="1075" width="25.0437" height="123.745" fill="#8DC73F"/>
<ellipse cx="1336.04" cy="1265.76" rx="36.0067" ry="24.2883" fill="#8DC73F"/>
<path d="M161.615 1175.9C134.867 1164 150.208 1153.85 161.257 1150.25L161.615 1175.9C161.691 1175.94 161.767 1175.97 161.843 1176.01C161.768 1176.04 161.693 1176.08 161.618 1176.12L161.998 1203.42C162.13 1203.46 162.263 1203.5 162.397 1203.55C162.266 1203.6 162.134 1203.65 162.002 1203.71L162.379 1230.76C162.681 1230.87 162.989 1230.98 163.302 1231.09C163 1231.19 162.695 1231.3 162.388 1231.41L162.781 1259.69C134.766 1246.89 150.336 1235.72 162.388 1231.41L162.379 1230.76C134.346 1220.38 150.127 1208.54 162.002 1203.71L161.998 1203.42C135.047 1194.66 150.342 1181.66 161.618 1176.12L161.615 1175.9Z" fill="#F9ED32"/>
<path fill-rule="evenodd" clip-rule="evenodd" d="M210.319 1142.78L160.95 1142.84L160.98 1168.88L161.009 1168.88L161.009 1262.98C151.268 1256.57 138.464 1252.68 124.439 1252.68C93.9308 1252.68 69.1987 1271.08 69.1987 1293.77C69.1987 1316.46 93.9308 1334.86 124.439 1334.86C154.573 1334.86 179.072 1316.91 179.669 1294.6L179.746 1294.6L179.746 1168.86L210.35 1168.83L210.319 1142.78Z" fill="#8DC73F"/>
<ellipse cx="177.854" cy="1130.94" rx="9.94384" ry="6.99751" transform="rotate(-90 177.854 1130.94)" fill="#FFFDFD"/>
<ellipse cx="177.854" cy="1134.26" rx="5.89264" ry="4.05119" transform="rotate(-90 177.854 1134.26)" fill="#8DC73F"/>
<ellipse cx="194.059" cy="1130.94" rx="9.94384" ry="6.99751" transform="rotate(-90 194.059 1130.94)" fill="#FFFDFD"/>
<ellipse cx="194.059" cy="1134.26" rx="5.89264" ry="4.05119" transform="rotate(-90 194.059 1134.26)" fill="#8DC73F"/>
</svg>
