<svg width="1024" height="1504" viewBox="0 0 1024 1504" fill="none" xmlns="http://www.w3.org/2000/svg">
<path fill-rule="evenodd" clip-rule="evenodd" d="M829.894 2V18.804H859.014V148.755H875.815V18.804H907.177V2H829.894Z" fill="#8DC73F"/>
<path fill-rule="evenodd" clip-rule="evenodd" d="M730.819 40.3654L730.819 57.1694L730.819 103.1V119.904V169.196L730.819 186H747.62L796.902 186V169.196H747.62V119.904H796.902V103.1H747.62V57.1694H796.902V40.3654H730.819Z" fill="#8DC73F"/>
<path fill-rule="evenodd" clip-rule="evenodd" d="M239.728 57.1694V186H222.927V40.3654H231.887V40.3654H297.97L305.81 40.3654V186H289.009V57.1694H239.728Z" fill="#8DC73F"/>
<path fill-rule="evenodd" clip-rule="evenodd" d="M481.387 40.3654H498.188V126.523L547.471 47.639V40.3654H564.271V170.316H564.256C563.819 179.028 553.211 186 540.189 186C526.89 186 516.108 178.727 516.108 169.756C516.108 160.785 526.89 153.512 540.189 153.512C542.727 153.512 545.173 153.777 547.471 154.268V79.3495L498.188 158.234V170.316H498.173C497.736 179.028 487.128 186 474.106 186C460.807 186 450.025 178.727 450.025 169.756C450.025 160.785 460.807 153.512 474.106 153.512C476.644 153.512 479.09 153.777 481.387 154.268V40.3654Z" fill="#8DC73F"/>
<path fill-rule="evenodd" clip-rule="evenodd" d="M598.982 3.16653H615.783V21.3182C620.201 17.7555 626.84 15.4894 634.264 15.4894C647.563 15.4894 658.345 22.762 658.345 31.7333C658.345 40.7045 647.563 47.9771 634.264 47.9771C626.84 47.9771 620.201 45.7111 615.783 42.1484V94.8264C623.325 90.7441 632.858 88.3067 643.224 88.3067C667.659 88.3067 687.466 101.849 687.466 118.554C687.466 135.259 667.659 148.801 643.224 148.801C619.339 148.801 599.874 135.86 599.012 119.674H598.982V3.16653Z" fill="#8DC73F"/>
<path fill-rule="evenodd" clip-rule="evenodd" d="M391.904 63.6609C416.338 63.6609 436.146 50.1188 436.146 33.4137C436.146 16.7087 416.338 3.16653 391.904 3.16653C368.019 3.16653 348.554 16.1074 347.692 32.2934H347.662V148.801H364.463V57.1411C372.004 61.2234 381.538 63.6609 391.904 63.6609Z" fill="#8DC73F"/>
<rect x="945.808" y="31.3394" width="17.9927" height="88.905" fill="#8DC73F"/>
<ellipse cx="954.743" cy="168.388" rx="25.869" ry="17.4499" fill="#8DC73F"/>
<path d="M110.976 41.5632C91.759 33.0089 102.78 25.7165 110.719 23.1338L110.976 41.5632C111.03 41.5875 111.085 41.6118 111.14 41.6361C111.086 41.6622 111.032 41.6886 110.978 41.7153L111.251 61.33C111.346 61.3608 111.441 61.3916 111.538 61.4222C111.444 61.4596 111.349 61.4977 111.254 61.5363L111.525 80.9722C111.742 81.0526 111.963 81.133 112.188 81.2132C111.971 81.2857 111.752 81.3615 111.531 81.4405L111.814 101.755C91.6865 92.5597 102.872 84.5395 111.531 81.4405L111.525 80.9722C91.3846 73.5188 102.723 65.0089 111.254 61.5363L111.251 61.33C91.8883 55.0388 102.877 45.6984 110.978 41.7153L110.976 41.5632Z" fill="#F9ED32"/>
<path fill-rule="evenodd" clip-rule="evenodd" d="M145.967 17.767L110.498 17.8096L110.519 36.5195L110.541 36.5195L110.541 104.119C103.542 99.5176 94.3428 96.7247 84.2668 96.7247C62.348 96.7247 44.5792 109.941 44.5792 126.244C44.5792 142.548 62.348 155.764 84.2668 155.764C105.917 155.764 123.518 142.87 123.946 126.843L124.002 126.843L124.002 36.5033L145.989 36.4769L145.967 17.767Z" fill="#8DC73F"/>
<ellipse cx="122.645" cy="9.261" rx="7.14415" ry="5.02736" transform="rotate(-90 122.645 9.261)" fill="#FFFDFD"/>
<ellipse cx="122.644" cy="11.6424" rx="4.23357" ry="2.91058" transform="rotate(-90 122.644 11.6424)" fill="#8DC73F"/>
<ellipse cx="134.286" cy="9.261" rx="7.14415" ry="5.02736" transform="rotate(-90 134.286 9.261)" fill="#FFFDFD"/>
<ellipse cx="134.286" cy="11.6424" rx="4.23357" ry="2.91058" transform="rotate(-90 134.286 11.6424)" fill="#8DC73F"/>
<path fill-rule="evenodd" clip-rule="evenodd" d="M829.894 199V215.804H859.014V345.755H875.815V215.804H907.177V199H829.894Z" fill="#8DC73F"/>
<path fill-rule="evenodd" clip-rule="evenodd" d="M730.819 217.365L730.819 234.169L730.819 280.1V296.904V346.196L730.819 363H747.62L796.902 363V346.196H747.62V296.904H796.902V280.1H747.62V234.169H796.902V217.365H730.819Z" fill="#8DC73F"/>
<path fill-rule="evenodd" clip-rule="evenodd" d="M239.728 234.169V363H222.927V217.365H231.887V217.365H297.97L305.81 217.365V363H289.009V234.169H239.728Z" fill="#8DC73F"/>
<path fill-rule="evenodd" clip-rule="evenodd" d="M481.387 217.365H498.188V303.523L547.471 224.639V217.365H564.271V347.316H564.256C563.819 356.028 553.211 363 540.189 363C526.89 363 516.108 355.727 516.108 346.756C516.108 337.785 526.89 330.512 540.189 330.512C542.727 330.512 545.173 330.777 547.471 331.268V256.349L498.188 335.234V347.316H498.173C497.736 356.028 487.128 363 474.106 363C460.807 363 450.025 355.727 450.025 346.756C450.025 337.785 460.807 330.512 474.106 330.512C476.644 330.512 479.09 330.777 481.387 331.268V217.365Z" fill="#8DC73F"/>
<path fill-rule="evenodd" clip-rule="evenodd" d="M598.982 200.167H615.783V218.318C620.201 214.756 626.84 212.489 634.264 212.489C647.563 212.489 658.345 219.762 658.345 228.733C658.345 237.705 647.563 244.977 634.264 244.977C626.84 244.977 620.201 242.711 615.783 239.148V291.826C623.325 287.744 632.858 285.307 643.224 285.307C667.659 285.307 687.466 298.849 687.466 315.554C687.466 332.259 667.659 345.801 643.224 345.801C619.339 345.801 599.874 332.86 599.012 316.674H598.982V200.167Z" fill="#8DC73F"/>
<path fill-rule="evenodd" clip-rule="evenodd" d="M391.904 260.661C416.338 260.661 436.146 247.119 436.146 230.414C436.146 213.709 416.338 200.167 391.904 200.167C368.019 200.167 348.554 213.107 347.692 229.293H347.662V345.801H364.463V254.141C372.004 258.223 381.538 260.661 391.904 260.661Z" fill="#8DC73F"/>
<rect x="945.807" y="208.339" width="17.9927" height="88.905" fill="#8DC73F"/>
<ellipse cx="954.742" cy="345.388" rx="25.869" ry="17.4499" fill="#8DC73F"/>
<path d="M110.976 238.563C91.759 230.009 102.78 222.717 110.719 220.134L110.976 238.563C111.03 238.587 111.085 238.612 111.14 238.636C111.086 238.662 111.032 238.689 110.978 238.715L111.251 258.33C111.346 258.361 111.441 258.392 111.538 258.422C111.444 258.46 111.349 258.498 111.254 258.536L111.525 277.972C111.742 278.053 111.963 278.133 112.188 278.213C111.971 278.286 111.752 278.362 111.531 278.441L111.814 298.755C91.6865 289.56 102.872 281.54 111.531 278.441L111.525 277.972C91.3846 270.519 102.723 262.009 111.254 258.536L111.251 258.33C91.8883 252.039 102.877 242.698 110.978 238.715L110.976 238.563Z" fill="#F9ED32"/>
<path fill-rule="evenodd" clip-rule="evenodd" d="M145.967 214.767L110.498 214.81L110.519 233.52L110.541 233.52L110.541 301.119C103.542 296.518 94.3428 293.725 84.2668 293.725C62.348 293.725 44.5792 306.941 44.5792 323.244C44.5792 339.548 62.348 352.764 84.2668 352.764C105.917 352.764 123.518 339.87 123.946 323.843L124.002 323.843L124.002 233.503L145.989 233.477L145.967 214.767Z" fill="#8DC73F"/>
<ellipse cx="122.645" cy="206.261" rx="7.14415" ry="5.02736" transform="rotate(-90 122.645 206.261)" fill="#FFFDFD"/>
<ellipse cx="122.644" cy="208.642" rx="4.23357" ry="2.91058" transform="rotate(-90 122.644 208.642)" fill="#8DC73F"/>
<ellipse cx="134.286" cy="206.261" rx="7.14415" ry="5.02736" transform="rotate(-90 134.286 206.261)" fill="#FFFDFD"/>
<ellipse cx="134.286" cy="208.642" rx="4.23357" ry="2.91058" transform="rotate(-90 134.286 208.642)" fill="#8DC73F"/>
<path fill-rule="evenodd" clip-rule="evenodd" d="M829.894 1328V1344.8H859.014V1474.75H875.815V1344.8H907.177V1328H829.894Z" fill="#8DC73F"/>
<path fill-rule="evenodd" clip-rule="evenodd" d="M730.819 1346.37L730.819 1363.17L730.819 1409.1V1425.9V1475.2L730.819 1492H747.62L796.902 1492V1475.2H747.62V1425.9H796.902V1409.1H747.62V1363.17H796.902V1346.37H730.819Z" fill="#8DC73F"/>
<path fill-rule="evenodd" clip-rule="evenodd" d="M239.728 1363.17V1492H222.927V1346.37H231.887V1346.37H297.97L305.81 1346.37V1492H289.009V1363.17H239.728Z" fill="#8DC73F"/>
<path fill-rule="evenodd" clip-rule="evenodd" d="M481.387 1346.37H498.188V1432.52L547.471 1353.64V1346.37H564.271V1476.32H564.256C563.819 1485.03 553.211 1492 540.189 1492C526.89 1492 516.108 1484.73 516.108 1475.76C516.108 1466.78 526.89 1459.51 540.189 1459.51C542.727 1459.51 545.173 1459.78 547.471 1460.27V1385.35L498.188 1464.23V1476.32H498.173C497.736 1485.03 487.128 1492 474.106 1492C460.807 1492 450.025 1484.73 450.025 1475.76C450.025 1466.78 460.807 1459.51 474.106 1459.51C476.644 1459.51 479.09 1459.78 481.387 1460.27V1346.37Z" fill="#8DC73F"/>
<path fill-rule="evenodd" clip-rule="evenodd" d="M598.982 1329.17H615.783V1347.32C620.201 1343.76 626.84 1341.49 634.264 1341.49C647.563 1341.49 658.345 1348.76 658.345 1357.73C658.345 1366.7 647.563 1373.98 634.264 1373.98C626.84 1373.98 620.201 1371.71 615.783 1368.15V1420.83C623.325 1416.74 632.858 1414.31 643.224 1414.31C667.659 1414.31 687.466 1427.85 687.466 1444.55C687.466 1461.26 667.659 1474.8 643.224 1474.8C619.339 1474.8 599.874 1461.86 599.012 1445.67H598.982V1329.17Z" fill="#8DC73F"/>
<path fill-rule="evenodd" clip-rule="evenodd" d="M391.904 1389.66C416.338 1389.66 436.146 1376.12 436.146 1359.41C436.146 1342.71 416.338 1329.17 391.904 1329.17C368.019 1329.17 348.554 1342.11 347.692 1358.29H347.662V1474.8H364.463V1383.14C372.004 1387.22 381.538 1389.66 391.904 1389.66Z" fill="#8DC73F"/>
<rect x="945.807" y="1337.34" width="17.9927" height="88.905" fill="#8DC73F"/>
<ellipse cx="954.742" cy="1474.39" rx="25.869" ry="17.4499" fill="#8DC73F"/>
<path d="M110.976 1367.56C91.759 1359.01 102.78 1351.72 110.719 1349.13L110.976 1367.56C111.03 1367.59 111.085 1367.61 111.14 1367.64C111.086 1367.66 111.032 1367.69 110.978 1367.72L111.251 1387.33C111.346 1387.36 111.441 1387.39 111.538 1387.42C111.444 1387.46 111.349 1387.5 111.254 1387.54L111.525 1406.97C111.742 1407.05 111.963 1407.13 112.188 1407.21C111.971 1407.29 111.752 1407.36 111.531 1407.44L111.814 1427.76C91.6865 1418.56 102.872 1410.54 111.531 1407.44L111.525 1406.97C91.3846 1399.52 102.723 1391.01 111.254 1387.54L111.251 1387.33C91.8883 1381.04 102.877 1371.7 110.978 1367.72L110.976 1367.56Z" fill="#F9ED32"/>
<path fill-rule="evenodd" clip-rule="evenodd" d="M145.967 1343.77L110.498 1343.81L110.519 1362.52L110.541 1362.52L110.541 1430.12C103.542 1425.52 94.3428 1422.72 84.2668 1422.72C62.348 1422.72 44.5792 1435.94 44.5792 1452.24C44.5792 1468.55 62.348 1481.76 84.2668 1481.76C105.917 1481.76 123.518 1468.87 123.946 1452.84L124.002 1452.84L124.002 1362.5L145.989 1362.48L145.967 1343.77Z" fill="#8DC73F"/>
<ellipse cx="122.645" cy="1335.26" rx="7.14415" ry="5.02736" transform="rotate(-90 122.645 1335.26)" fill="#FFFDFD"/>
<ellipse cx="122.644" cy="1337.64" rx="4.23357" ry="2.91058" transform="rotate(-90 122.644 1337.64)" fill="#8DC73F"/>
<ellipse cx="134.286" cy="1335.26" rx="7.14415" ry="5.02736" transform="rotate(-90 134.286 1335.26)" fill="#FFFDFD"/>
<ellipse cx="134.286" cy="1337.64" rx="4.23357" ry="2.91058" transform="rotate(-90 134.286 1337.64)" fill="#8DC73F"/>
<path fill-rule="evenodd" clip-rule="evenodd" d="M829.894 397V413.804H859.014V543.755H875.815V413.804H907.177V397H829.894Z" fill="#8DC73F"/>
<path fill-rule="evenodd" clip-rule="evenodd" d="M730.819 397L730.819 413.804L730.819 459.735V476.539V525.831L730.819 542.635H747.62L796.902 542.635V525.831H747.62V476.539H796.902V459.735H747.62V413.804H796.902V397H730.819Z" fill="#8DC73F"/>
<path fill-rule="evenodd" clip-rule="evenodd" d="M239.728 413.804V542.635H222.927V397H231.887V397H297.97L305.81 397V542.635H289.009V413.804H239.728Z" fill="#8DC73F"/>
<path fill-rule="evenodd" clip-rule="evenodd" d="M481.387 397H498.188V483.158L547.471 404.274V397H564.271V526.951H564.256C563.819 535.663 553.211 542.635 540.189 542.635C526.89 542.635 516.108 535.362 516.108 526.391C516.108 517.419 526.89 510.147 540.189 510.147C542.727 510.147 545.173 510.412 547.471 510.903V435.984L498.188 514.868V526.951H498.173C497.736 535.663 487.128 542.635 474.106 542.635C460.807 542.635 450.025 535.362 450.025 526.391C450.025 517.419 460.807 510.147 474.106 510.147C476.644 510.147 479.09 510.412 481.387 510.902V397Z" fill="#8DC73F"/>
<path fill-rule="evenodd" clip-rule="evenodd" d="M598.982 397H615.783V415.152C620.201 411.589 626.84 409.323 634.264 409.323C647.563 409.323 658.345 416.596 658.345 425.567C658.345 434.538 647.563 441.811 634.264 441.811C626.84 441.811 620.201 439.545 615.783 435.982V488.66C623.325 484.578 632.858 482.14 643.224 482.14C667.659 482.14 687.466 495.682 687.466 512.387C687.466 529.092 667.659 542.635 643.224 542.635C619.339 542.635 599.874 529.694 599.012 513.508H598.982V397Z" fill="#8DC73F"/>
<path fill-rule="evenodd" clip-rule="evenodd" d="M391.904 457.494C416.338 457.494 436.146 443.952 436.146 427.247C436.146 410.542 416.338 397 391.904 397C368.019 397 348.554 409.941 347.692 426.127H347.662V542.635H364.463V450.975C372.004 455.057 381.538 457.494 391.904 457.494Z" fill="#8DC73F"/>
<rect x="945.806" y="393" width="17.9927" height="88.905" fill="#8DC73F"/>
<ellipse cx="954.741" cy="530.048" rx="25.869" ry="17.4499" fill="#8DC73F"/>
<path d="M110.976 431.446C91.759 422.892 102.78 415.6 110.719 413.017L110.976 431.446C111.03 431.471 111.085 431.495 111.14 431.519C111.086 431.545 111.032 431.572 110.978 431.598L111.251 451.213C111.346 451.244 111.441 451.275 111.538 451.305C111.444 451.343 111.349 451.381 111.254 451.419L111.525 470.855C111.742 470.936 111.963 471.016 112.188 471.096C111.971 471.169 111.752 471.245 111.531 471.324L111.814 491.639C91.6865 482.443 102.872 474.423 111.531 471.324L111.525 470.855C91.3846 463.402 102.723 454.892 111.254 451.419L111.251 451.213C91.8883 444.922 102.877 435.582 110.978 431.598L110.976 431.446Z" fill="#F9ED32"/>
<path fill-rule="evenodd" clip-rule="evenodd" d="M145.967 407.65L110.498 407.693L110.519 426.403L110.541 426.403L110.541 494.002C103.542 489.401 94.3428 486.608 84.2668 486.608C62.348 486.608 44.5792 499.824 44.5792 516.127C44.5792 532.431 62.348 545.647 84.2668 545.647C105.917 545.647 123.518 532.753 123.946 516.726L124.002 516.726L124.002 426.386L145.989 426.36L145.967 407.65Z" fill="#8DC73F"/>
<ellipse cx="122.645" cy="399.144" rx="7.14415" ry="5.02736" transform="rotate(-90 122.645 399.144)" fill="#FFFDFD"/>
<ellipse cx="122.644" cy="401.526" rx="4.23357" ry="2.91058" transform="rotate(-90 122.644 401.526)" fill="#8DC73F"/>
<ellipse cx="134.286" cy="399.144" rx="7.14415" ry="5.02736" transform="rotate(-90 134.286 399.144)" fill="#FFFDFD"/>
<ellipse cx="134.286" cy="401.526" rx="4.23357" ry="2.91058" transform="rotate(-90 134.286 401.526)" fill="#8DC73F"/>
<path fill-rule="evenodd" clip-rule="evenodd" d="M829.894 1149V1165.8H859.014V1295.75H875.815V1165.8H907.177V1149H829.894Z" fill="#8DC73F"/>
<path fill-rule="evenodd" clip-rule="evenodd" d="M730.819 1149L730.819 1165.8L730.819 1211.73V1228.54V1277.83L730.819 1294.63H747.62L796.902 1294.63V1277.83H747.62V1228.54H796.902V1211.73H747.62V1165.8H796.902V1149H730.819Z" fill="#8DC73F"/>
<path fill-rule="evenodd" clip-rule="evenodd" d="M239.728 1165.8V1294.63H222.927V1149H231.887V1149H297.97L305.81 1149V1294.63H289.009V1165.8H239.728Z" fill="#8DC73F"/>
<path fill-rule="evenodd" clip-rule="evenodd" d="M481.387 1149H498.188V1235.16L547.471 1156.27V1149H564.271V1278.95H564.256C563.819 1287.66 553.211 1294.63 540.189 1294.63C526.89 1294.63 516.108 1287.36 516.108 1278.39C516.108 1269.42 526.89 1262.15 540.189 1262.15C542.727 1262.15 545.173 1262.41 547.471 1262.9V1187.98L498.188 1266.87V1278.95H498.173C497.736 1287.66 487.128 1294.63 474.106 1294.63C460.807 1294.63 450.025 1287.36 450.025 1278.39C450.025 1269.42 460.807 1262.15 474.106 1262.15C476.644 1262.15 479.09 1262.41 481.387 1262.9V1149Z" fill="#8DC73F"/>
<path fill-rule="evenodd" clip-rule="evenodd" d="M598.982 1149H615.783V1167.15C620.201 1163.59 626.84 1161.32 634.264 1161.32C647.563 1161.32 658.345 1168.6 658.345 1177.57C658.345 1186.54 647.563 1193.81 634.264 1193.81C626.84 1193.81 620.201 1191.54 615.783 1187.98V1240.66C623.325 1236.58 632.858 1234.14 643.224 1234.14C667.659 1234.14 687.466 1247.68 687.466 1264.39C687.466 1281.09 667.659 1294.63 643.224 1294.63C619.339 1294.63 599.874 1281.69 599.012 1265.51H598.982V1149Z" fill="#8DC73F"/>
<path fill-rule="evenodd" clip-rule="evenodd" d="M391.904 1209.49C416.338 1209.49 436.146 1195.95 436.146 1179.25C436.146 1162.54 416.338 1149 391.904 1149C368.019 1149 348.554 1161.94 347.692 1178.13H347.662V1294.63H364.463V1202.97C372.004 1207.06 381.538 1209.49 391.904 1209.49Z" fill="#8DC73F"/>
<rect x="945.806" y="1145" width="17.9927" height="88.905" fill="#8DC73F"/>
<ellipse cx="954.741" cy="1282.05" rx="25.869" ry="17.4499" fill="#8DC73F"/>
<path d="M110.976 1183.45C91.759 1174.89 102.78 1167.6 110.719 1165.02L110.976 1183.45C111.03 1183.47 111.085 1183.49 111.14 1183.52C111.086 1183.55 111.032 1183.57 110.978 1183.6L111.251 1203.21C111.346 1203.24 111.441 1203.27 111.538 1203.31C111.444 1203.34 111.349 1203.38 111.254 1203.42L111.525 1222.86C111.742 1222.94 111.963 1223.02 112.188 1223.1C111.971 1223.17 111.752 1223.24 111.531 1223.32L111.814 1243.64C91.6865 1234.44 102.872 1226.42 111.531 1223.32L111.525 1222.86C91.3846 1215.4 102.723 1206.89 111.254 1203.42L111.251 1203.21C91.8883 1196.92 102.877 1187.58 110.978 1183.6L110.976 1183.45Z" fill="#F9ED32"/>
<path fill-rule="evenodd" clip-rule="evenodd" d="M145.967 1159.65L110.498 1159.69L110.519 1178.4L110.541 1178.4L110.541 1246C103.542 1241.4 94.3428 1238.61 84.2668 1238.61C62.348 1238.61 44.5792 1251.82 44.5792 1268.13C44.5792 1284.43 62.348 1297.65 84.2668 1297.65C105.917 1297.65 123.518 1284.75 123.946 1268.73L124.002 1268.73L124.002 1178.39L145.989 1178.36L145.967 1159.65Z" fill="#8DC73F"/>
<ellipse cx="122.645" cy="1151.14" rx="7.14415" ry="5.02736" transform="rotate(-90 122.645 1151.14)" fill="#FFFDFD"/>
<ellipse cx="122.644" cy="1153.53" rx="4.23357" ry="2.91058" transform="rotate(-90 122.644 1153.53)" fill="#8DC73F"/>
<ellipse cx="134.286" cy="1151.14" rx="7.14415" ry="5.02736" transform="rotate(-90 134.286 1151.14)" fill="#FFFDFD"/>
<ellipse cx="134.286" cy="1153.53" rx="4.23357" ry="2.91058" transform="rotate(-90 134.286 1153.53)" fill="#8DC73F"/>
<path fill-rule="evenodd" clip-rule="evenodd" d="M829.894 595V611.804H859.014V741.755H875.815V611.804H907.177V595H829.894Z" fill="#8DC73F"/>
<path fill-rule="evenodd" clip-rule="evenodd" d="M730.819 575L730.819 591.804L730.819 637.735V654.539V703.831L730.819 720.635H747.62L796.902 720.635V703.831H747.62V654.539H796.902V637.735H747.62V591.804H796.902V575H730.819Z" fill="#8DC73F"/>
<path fill-rule="evenodd" clip-rule="evenodd" d="M239.728 591.804V720.635H222.927V575H231.887V575H297.97L305.81 575V720.635H289.009V591.804H239.728Z" fill="#8DC73F"/>
<path fill-rule="evenodd" clip-rule="evenodd" d="M481.387 575H498.188V661.158L547.471 582.274V575H564.271V704.951H564.256C563.819 713.663 553.211 720.635 540.189 720.635C526.89 720.635 516.108 713.362 516.108 704.391C516.108 695.419 526.89 688.147 540.189 688.147C542.727 688.147 545.173 688.412 547.471 688.903V613.984L498.188 692.868V704.951H498.173C497.736 713.663 487.128 720.635 474.106 720.635C460.807 720.635 450.025 713.362 450.025 704.391C450.025 695.419 460.807 688.147 474.106 688.147C476.644 688.147 479.09 688.412 481.387 688.902V575Z" fill="#8DC73F"/>
<path fill-rule="evenodd" clip-rule="evenodd" d="M598.982 595H615.783V613.152C620.201 609.589 626.84 607.323 634.264 607.323C647.563 607.323 658.345 614.596 658.345 623.567C658.345 632.538 647.563 639.811 634.264 639.811C626.84 639.811 620.201 637.545 615.783 633.982V686.66C623.325 682.578 632.858 680.14 643.224 680.14C667.659 680.14 687.466 693.682 687.466 710.387C687.466 727.092 667.659 740.635 643.224 740.635C619.339 740.635 599.874 727.694 599.012 711.508H598.982V595Z" fill="#8DC73F"/>
<path fill-rule="evenodd" clip-rule="evenodd" d="M391.904 655.494C416.338 655.494 436.146 641.952 436.146 625.247C436.146 608.542 416.338 595 391.904 595C368.019 595 348.554 607.941 347.692 624.127H347.662V740.635H364.463V648.975C372.004 653.057 381.538 655.494 391.904 655.494Z" fill="#8DC73F"/>
<rect x="945.806" y="571" width="17.9927" height="88.905" fill="#8DC73F"/>
<ellipse cx="954.741" cy="708.048" rx="25.869" ry="17.4499" fill="#8DC73F"/>
<path d="M110.976 629.446C91.759 620.892 102.78 613.6 110.719 611.017L110.976 629.446C111.03 629.471 111.085 629.495 111.14 629.519C111.086 629.545 111.032 629.572 110.978 629.598L111.251 649.213C111.346 649.244 111.441 649.275 111.538 649.305C111.444 649.343 111.349 649.381 111.254 649.419L111.525 668.855C111.742 668.936 111.963 669.016 112.188 669.096C111.971 669.169 111.752 669.245 111.531 669.324L111.814 689.639C91.6865 680.443 102.872 672.423 111.531 669.324L111.525 668.855C91.3846 661.402 102.723 652.892 111.254 649.419L111.251 649.213C91.8883 642.922 102.877 633.582 110.978 629.598L110.976 629.446Z" fill="#F9ED32"/>
<path fill-rule="evenodd" clip-rule="evenodd" d="M145.967 605.65L110.498 605.693L110.519 624.403L110.541 624.403L110.541 692.002C103.542 687.401 94.3428 684.608 84.2668 684.608C62.348 684.608 44.5792 697.824 44.5792 714.127C44.5792 730.431 62.348 743.647 84.2668 743.647C105.917 743.647 123.518 730.753 123.946 714.726L124.002 714.726L124.002 624.386L145.989 624.36L145.967 605.65Z" fill="#8DC73F"/>
<ellipse cx="122.645" cy="597.144" rx="7.14415" ry="5.02736" transform="rotate(-90 122.645 597.144)" fill="#FFFDFD"/>
<ellipse cx="122.644" cy="599.526" rx="4.23357" ry="2.91058" transform="rotate(-90 122.644 599.526)" fill="#8DC73F"/>
<ellipse cx="134.286" cy="597.144" rx="7.14415" ry="5.02736" transform="rotate(-90 134.286 597.144)" fill="#FFFDFD"/>
<ellipse cx="134.286" cy="599.526" rx="4.23357" ry="2.91058" transform="rotate(-90 134.286 599.526)" fill="#8DC73F"/>
<path fill-rule="evenodd" clip-rule="evenodd" d="M829.894 970V986.804H859.014V1116.75H875.815V986.804H907.177V970H829.894Z" fill="#8DC73F"/>
<path fill-rule="evenodd" clip-rule="evenodd" d="M730.819 950L730.819 966.804L730.819 1012.73V1029.54V1078.83L730.819 1095.63H747.62L796.902 1095.63V1078.83H747.62V1029.54H796.902V1012.73H747.62V966.804H796.902V950H730.819Z" fill="#8DC73F"/>
<path fill-rule="evenodd" clip-rule="evenodd" d="M239.728 966.804V1095.63H222.927V950H231.887V950H297.97L305.81 950V1095.63H289.009V966.804H239.728Z" fill="#8DC73F"/>
<path fill-rule="evenodd" clip-rule="evenodd" d="M481.387 950H498.188V1036.16L547.471 957.274V950H564.271V1079.95H564.256C563.819 1088.66 553.211 1095.63 540.189 1095.63C526.89 1095.63 516.108 1088.36 516.108 1079.39C516.108 1070.42 526.89 1063.15 540.189 1063.15C542.727 1063.15 545.173 1063.41 547.471 1063.9V988.984L498.188 1067.87V1079.95H498.173C497.736 1088.66 487.128 1095.63 474.106 1095.63C460.807 1095.63 450.025 1088.36 450.025 1079.39C450.025 1070.42 460.807 1063.15 474.106 1063.15C476.644 1063.15 479.09 1063.41 481.387 1063.9V950Z" fill="#8DC73F"/>
<path fill-rule="evenodd" clip-rule="evenodd" d="M598.982 970H615.783V988.152C620.201 984.589 626.84 982.323 634.264 982.323C647.563 982.323 658.345 989.596 658.345 998.567C658.345 1007.54 647.563 1014.81 634.264 1014.81C626.84 1014.81 620.201 1012.54 615.783 1008.98V1061.66C623.325 1057.58 632.858 1055.14 643.224 1055.14C667.659 1055.14 687.466 1068.68 687.466 1085.39C687.466 1102.09 667.659 1115.63 643.224 1115.63C619.339 1115.63 599.874 1102.69 599.012 1086.51H598.982V970Z" fill="#8DC73F"/>
<path fill-rule="evenodd" clip-rule="evenodd" d="M391.904 1030.49C416.338 1030.49 436.146 1016.95 436.146 1000.25C436.146 983.542 416.338 970 391.904 970C368.019 970 348.554 982.941 347.692 999.127H347.662V1115.63H364.463V1023.97C372.004 1028.06 381.538 1030.49 391.904 1030.49Z" fill="#8DC73F"/>
<rect x="945.805" y="946" width="17.9927" height="88.905" fill="#8DC73F"/>
<ellipse cx="954.74" cy="1083.05" rx="25.869" ry="17.4499" fill="#8DC73F"/>
<path d="M110.976 1004.45C91.759 995.892 102.78 988.6 110.719 986.017L110.976 1004.45C111.03 1004.47 111.085 1004.49 111.14 1004.52C111.086 1004.55 111.032 1004.57 110.978 1004.6L111.251 1024.21C111.346 1024.24 111.441 1024.27 111.538 1024.31C111.444 1024.34 111.349 1024.38 111.254 1024.42L111.525 1043.86C111.742 1043.94 111.963 1044.02 112.188 1044.1C111.971 1044.17 111.752 1044.24 111.531 1044.32L111.814 1064.64C91.6865 1055.44 102.872 1047.42 111.531 1044.32L111.525 1043.86C91.3846 1036.4 102.723 1027.89 111.254 1024.42L111.251 1024.21C91.8883 1017.92 102.877 1008.58 110.978 1004.6L110.976 1004.45Z" fill="#F9ED32"/>
<path fill-rule="evenodd" clip-rule="evenodd" d="M145.967 980.65L110.498 980.693L110.519 999.403L110.541 999.403L110.541 1067C103.542 1062.4 94.3428 1059.61 84.2668 1059.61C62.348 1059.61 44.5792 1072.82 44.5792 1089.13C44.5792 1105.43 62.348 1118.65 84.2668 1118.65C105.917 1118.65 123.518 1105.75 123.946 1089.73L124.002 1089.73L124.002 999.386L145.989 999.36L145.967 980.65Z" fill="#8DC73F"/>
<ellipse cx="122.645" cy="972.144" rx="7.14415" ry="5.02736" transform="rotate(-90 122.645 972.144)" fill="#FFFDFD"/>
<ellipse cx="122.644" cy="974.526" rx="4.23357" ry="2.91058" transform="rotate(-90 122.644 974.526)" fill="#8DC73F"/>
<ellipse cx="134.286" cy="972.144" rx="7.14415" ry="5.02736" transform="rotate(-90 134.286 972.144)" fill="#FFFDFD"/>
<ellipse cx="134.286" cy="974.526" rx="4.23357" ry="2.91058" transform="rotate(-90 134.286 974.526)" fill="#8DC73F"/>
<path fill-rule="evenodd" clip-rule="evenodd" d="M829.894 790V806.804H859.014V936.755H875.815V806.804H907.177V790H829.894Z" fill="#8DC73F"/>
<path fill-rule="evenodd" clip-rule="evenodd" d="M730.819 754L730.819 770.804L730.819 816.735V833.539V882.831L730.819 899.635H747.62L796.902 899.635V882.831H747.62V833.539H796.902V816.735H747.62V770.804H796.902V754H730.819Z" fill="#8DC73F"/>
<path fill-rule="evenodd" clip-rule="evenodd" d="M239.728 770.804V899.635H222.927V754H231.887V754H297.97L305.81 754V899.635H289.009V770.804H239.728Z" fill="#8DC73F"/>
<path fill-rule="evenodd" clip-rule="evenodd" d="M481.387 754H498.188V840.158L547.471 761.274V754H564.271V883.951H564.256C563.819 892.663 553.211 899.635 540.189 899.635C526.89 899.635 516.108 892.362 516.108 883.391C516.108 874.419 526.89 867.147 540.189 867.147C542.727 867.147 545.173 867.412 547.471 867.903V792.984L498.188 871.868V883.951H498.173C497.736 892.663 487.128 899.635 474.106 899.635C460.807 899.635 450.025 892.362 450.025 883.391C450.025 874.419 460.807 867.147 474.106 867.147C476.644 867.147 479.09 867.412 481.387 867.902V754Z" fill="#8DC73F"/>
<path fill-rule="evenodd" clip-rule="evenodd" d="M598.982 790H615.783V808.152C620.201 804.589 626.84 802.323 634.264 802.323C647.563 802.323 658.345 809.596 658.345 818.567C658.345 827.538 647.563 834.811 634.264 834.811C626.84 834.811 620.201 832.545 615.783 828.982V881.66C623.325 877.578 632.858 875.14 643.224 875.14C667.659 875.14 687.466 888.682 687.466 905.387C687.466 922.092 667.659 935.635 643.224 935.635C619.339 935.635 599.874 922.694 599.012 906.508H598.982V790Z" fill="#8DC73F"/>
<path fill-rule="evenodd" clip-rule="evenodd" d="M391.904 850.494C416.338 850.494 436.146 836.952 436.146 820.247C436.146 803.542 416.338 790 391.904 790C368.019 790 348.554 802.941 347.692 819.127H347.662V935.635H364.463V843.975C372.004 848.057 381.538 850.494 391.904 850.494Z" fill="#8DC73F"/>
<rect x="945.805" y="754" width="17.9927" height="88.905" fill="#8DC73F"/>
<ellipse cx="954.74" cy="891.048" rx="25.869" ry="17.4499" fill="#8DC73F"/>
<path d="M110.976 822.446C91.759 813.892 102.78 806.6 110.719 804.017L110.976 822.446C111.03 822.471 111.085 822.495 111.14 822.519C111.086 822.545 111.032 822.572 110.978 822.598L111.251 842.213C111.346 842.244 111.441 842.275 111.538 842.305C111.444 842.343 111.349 842.381 111.254 842.419L111.525 861.855C111.742 861.936 111.963 862.016 112.188 862.096C111.971 862.169 111.752 862.245 111.531 862.324L111.814 882.639C91.6865 873.443 102.872 865.423 111.531 862.324L111.525 861.855C91.3846 854.402 102.723 845.892 111.254 842.419L111.251 842.213C91.8883 835.922 102.877 826.582 110.978 822.598L110.976 822.446Z" fill="#F9ED32"/>
<path fill-rule="evenodd" clip-rule="evenodd" d="M145.967 798.65L110.498 798.693L110.519 817.403L110.541 817.403L110.541 885.002C103.542 880.401 94.3428 877.608 84.2668 877.608C62.348 877.608 44.5792 890.824 44.5792 907.127C44.5792 923.431 62.348 936.647 84.2668 936.647C105.917 936.647 123.518 923.753 123.946 907.726L124.002 907.726L124.002 817.386L145.989 817.36L145.967 798.65Z" fill="#8DC73F"/>
<ellipse cx="122.645" cy="790.144" rx="7.14415" ry="5.02736" transform="rotate(-90 122.645 790.144)" fill="#FFFDFD"/>
<ellipse cx="122.644" cy="792.526" rx="4.23357" ry="2.91058" transform="rotate(-90 122.644 792.526)" fill="#8DC73F"/>
<ellipse cx="134.286" cy="790.144" rx="7.14415" ry="5.02736" transform="rotate(-90 134.286 790.144)" fill="#FFFDFD"/>
<ellipse cx="134.286" cy="792.526" rx="4.23357" ry="2.91058" transform="rotate(-90 134.286 792.526)" fill="#8DC73F"/>
</svg>
