<svg width="1920" height="2840" viewBox="0 0 1920 2840" fill="none" xmlns="http://www.w3.org/2000/svg">
<path fill-rule="evenodd" clip-rule="evenodd" d="M1561 4V35.7538H1616.03V281.317H1647.78V35.7538H1707.04V4H1561Z" fill="#8DC73F"/>
<path fill-rule="evenodd" clip-rule="evenodd" d="M1405.49 226.357V319.502H1498.62V351.256L1405.49 351.256H1373.74V76.0562H1373.74V76.0561H1498.62V107.81H1405.49V194.604H1498.62V226.357H1405.49Z" fill="#8DC73F"/>
<path fill-rule="evenodd" clip-rule="evenodd" d="M445.748 107.81V351.256H414V76.0562H430.932V76.0561H555.806L570.622 76.0562V351.256H538.874V107.81H445.748Z" fill="#8DC73F"/>
<path fill-rule="evenodd" clip-rule="evenodd" d="M902.401 76.0562H934.149V238.864L1027.27 89.8016V76.0562H1059.02V320.469C1059.02 320.499 1059.02 320.53 1059.02 320.56C1059.02 320.591 1059.02 320.621 1059.02 320.652V321.619H1059C1058.17 338.081 1038.12 351.256 1013.52 351.256C988.386 351.256 968.013 337.513 968.013 320.56C968.013 303.608 988.386 289.865 1013.52 289.865C1018.31 289.865 1022.93 290.365 1027.27 291.293V149.724L934.149 298.786V320.469L934.149 320.56L934.149 320.652V321.619H934.122C933.295 338.081 913.25 351.256 888.644 351.256C863.512 351.256 843.139 337.513 843.139 320.56C843.139 303.608 863.512 289.865 888.644 289.865C893.439 289.865 898.061 290.365 902.401 291.293V76.0562Z" fill="#8DC73F"/>
<path fill-rule="evenodd" clip-rule="evenodd" d="M1124.62 6.20435H1156.36V40.5053C1164.71 33.7727 1177.26 29.4904 1191.29 29.4904C1216.42 29.4904 1236.79 43.2332 1236.79 60.1857C1236.79 77.1383 1216.42 90.8811 1191.29 90.8811C1177.26 90.8811 1164.71 86.5987 1156.36 79.8661V179.41C1170.62 171.696 1188.63 167.09 1208.22 167.09C1254.39 167.09 1291.82 192.68 1291.82 224.247C1291.82 255.814 1254.39 281.404 1208.22 281.404C1163.08 281.404 1126.3 256.95 1124.67 226.364H1124.62V6.20435Z" fill="#8DC73F"/>
<path fill-rule="evenodd" clip-rule="evenodd" d="M733.602 120.314C779.775 120.314 817.205 94.7237 817.205 63.1568C817.205 31.59 779.775 6 733.602 6C688.467 6 651.685 30.4538 650.056 61.0399H650V281.2H681.748V107.994C695.999 115.708 714.014 120.314 733.602 120.314Z" fill="#8DC73F"/>
<rect x="1780" y="59" width="34" height="168" fill="#8DC73F"/>
<ellipse cx="1796.88" cy="317.974" rx="48.8836" ry="32.9743" fill="#8DC73F"/>
<path fill-rule="evenodd" clip-rule="evenodd" d="M1560.96 374V405.754H1615.99V651.316H1647.74V405.754H1707V374H1560.96Z" fill="#8DC73F"/>
<path fill-rule="evenodd" clip-rule="evenodd" d="M1405.49 564.357V657.502H1498.62V689.256L1405.49 689.256H1373.74V414.056H1373.74V414.056H1498.62V445.81H1405.49V532.604H1498.62V564.357H1405.49Z" fill="#8DC73F"/>
<path fill-rule="evenodd" clip-rule="evenodd" d="M445.748 445.81V689.256H414V414.056H430.932V414.056H555.806L570.622 414.056V689.256H538.874V445.81H445.748Z" fill="#8DC73F"/>
<path fill-rule="evenodd" clip-rule="evenodd" d="M902.401 414.056H934.149V576.864L1027.27 427.802V414.056H1059.02V658.469C1059.02 658.499 1059.02 658.53 1059.02 658.56C1059.02 658.591 1059.02 658.621 1059.02 658.652V659.619H1059C1058.17 676.081 1038.12 689.256 1013.52 689.256C988.386 689.256 968.013 675.513 968.013 658.56C968.013 641.608 988.386 627.865 1013.52 627.865C1018.31 627.865 1022.93 628.365 1027.27 629.293V487.724L934.149 636.786V658.469L934.149 658.56L934.149 658.652V659.619H934.122C933.295 676.081 913.25 689.256 888.644 689.256C863.512 689.256 843.139 675.513 843.139 658.56C843.139 641.608 863.512 627.865 888.644 627.865C893.439 627.865 898.061 628.365 902.401 629.293V414.056Z" fill="#8DC73F"/>
<path fill-rule="evenodd" clip-rule="evenodd" d="M1124.62 376.204H1156.36V410.505C1164.71 403.773 1177.26 399.49 1191.29 399.49C1216.42 399.49 1236.79 413.233 1236.79 430.186C1236.79 447.138 1216.42 460.881 1191.29 460.881C1177.26 460.881 1164.71 456.599 1156.36 449.866V549.41C1170.62 541.696 1188.63 537.09 1208.22 537.09C1254.39 537.09 1291.82 562.68 1291.82 594.247C1291.82 625.814 1254.39 651.404 1208.22 651.404C1163.08 651.404 1126.3 626.95 1124.67 596.364H1124.62V376.204Z" fill="#8DC73F"/>
<path fill-rule="evenodd" clip-rule="evenodd" d="M733.309 490.518C779.482 490.518 816.911 464.928 816.911 433.361C816.911 401.794 779.482 376.204 733.309 376.204C688.174 376.204 651.392 400.658 649.763 431.244H649.707V651.404H681.455V478.198C695.706 485.912 713.721 490.518 733.309 490.518Z" fill="#8DC73F"/>
<rect x="1780" y="397" width="34" height="168" fill="#8DC73F"/>
<ellipse cx="1796.88" cy="655.974" rx="48.8836" ry="32.9743" fill="#8DC73F"/>
<path fill-rule="evenodd" clip-rule="evenodd" d="M1560.96 748V779.754H1615.99V1025.32H1647.74V779.754H1707V748H1560.96Z" fill="#8DC73F"/>
<path fill-rule="evenodd" clip-rule="evenodd" d="M1405.49 899.301V992.446H1498.62V1024.2L1405.49 1024.2H1373.74V749H1373.74V749H1498.62V780.754H1405.49V867.547H1498.62V899.301H1405.49Z" fill="#8DC73F"/>
<path fill-rule="evenodd" clip-rule="evenodd" d="M445.748 780.754V1024.2H414V749H430.932V749H555.806L570.622 749V1024.2H538.874V780.754H445.748Z" fill="#8DC73F"/>
<path fill-rule="evenodd" clip-rule="evenodd" d="M902.401 749H934.149V911.808L1027.27 762.745V749H1059.02V993.413C1059.02 993.443 1059.02 993.474 1059.02 993.504C1059.02 993.535 1059.02 993.565 1059.02 993.596V994.563H1059C1058.17 1011.03 1038.12 1024.2 1013.52 1024.2C988.386 1024.2 968.013 1010.46 968.013 993.504C968.013 976.552 988.386 962.809 1013.52 962.809C1018.31 962.809 1022.93 963.309 1027.27 964.237V822.667L934.149 971.73V993.413L934.149 993.504L934.149 993.596V994.563H934.122C933.295 1011.03 913.25 1024.2 888.644 1024.2C863.512 1024.2 843.139 1010.46 843.139 993.504C843.139 976.552 863.512 962.809 888.644 962.809C893.439 962.809 898.061 963.309 902.401 964.237V749Z" fill="#8DC73F"/>
<path fill-rule="evenodd" clip-rule="evenodd" d="M1124.62 749H1156.36V783.301C1164.71 776.568 1177.26 772.286 1191.29 772.286C1216.42 772.286 1236.79 786.029 1236.79 802.981C1236.79 819.934 1216.42 833.677 1191.29 833.677C1177.26 833.677 1164.71 829.394 1156.36 822.662V922.206C1170.62 914.492 1188.63 909.886 1208.22 909.886C1254.39 909.886 1291.82 935.476 1291.82 967.043C1291.82 998.61 1254.39 1024.2 1208.22 1024.2C1163.08 1024.2 1126.3 999.746 1124.67 969.16H1124.62V749Z" fill="#8DC73F"/>
<path fill-rule="evenodd" clip-rule="evenodd" d="M733.309 863.314C779.482 863.314 816.911 837.724 816.911 806.157C816.911 774.59 779.482 749 733.309 749C688.174 749 651.392 773.454 649.763 804.04H649.707V1024.2H681.455V850.994C695.706 858.708 713.721 863.314 733.309 863.314Z" fill="#8DC73F"/>
<rect x="1780" y="741" width="34" height="168" fill="#8DC73F"/>
<ellipse cx="1796.88" cy="999.974" rx="48.8836" ry="32.9743" fill="#8DC73F"/>
<path fill-rule="evenodd" clip-rule="evenodd" d="M1560.96 1123V1154.75H1615.99V1400.32H1647.74V1154.75H1707V1123H1560.96Z" fill="#8DC73F"/>
<path fill-rule="evenodd" clip-rule="evenodd" d="M1405.49 1234.3V1327.45H1498.62V1359.2L1405.49 1359.2H1373.74V1084H1373.74V1084H1498.62V1115.75H1405.49V1202.55H1498.62V1234.3H1405.49Z" fill="#8DC73F"/>
<path fill-rule="evenodd" clip-rule="evenodd" d="M445.748 1115.75V1359.2H414V1084H430.932V1084H555.806L570.622 1084V1359.2H538.874V1115.75H445.748Z" fill="#8DC73F"/>
<path fill-rule="evenodd" clip-rule="evenodd" d="M902.401 1084H934.149V1246.81L1027.27 1097.75V1084H1059.02V1328.41C1059.02 1328.44 1059.02 1328.47 1059.02 1328.5C1059.02 1328.53 1059.02 1328.57 1059.02 1328.6V1329.56H1059C1058.17 1346.03 1038.12 1359.2 1013.52 1359.2C988.386 1359.2 968.013 1345.46 968.013 1328.5C968.013 1311.55 988.386 1297.81 1013.52 1297.81C1018.31 1297.81 1022.93 1298.31 1027.27 1299.24V1157.67L934.149 1306.73V1328.41L934.149 1328.5L934.149 1328.6V1329.56H934.122C933.295 1346.03 913.25 1359.2 888.644 1359.2C863.512 1359.2 843.139 1345.46 843.139 1328.5C843.139 1311.55 863.512 1297.81 888.644 1297.81C893.439 1297.81 898.061 1298.31 902.401 1299.24V1084Z" fill="#8DC73F"/>
<path fill-rule="evenodd" clip-rule="evenodd" d="M1124.62 1124H1156.36V1158.3C1164.71 1151.57 1177.26 1147.29 1191.29 1147.29C1216.42 1147.29 1236.79 1161.03 1236.79 1177.98C1236.79 1194.93 1216.42 1208.68 1191.29 1208.68C1177.26 1208.68 1164.71 1204.39 1156.36 1197.66V1297.21C1170.62 1289.49 1188.63 1284.89 1208.22 1284.89C1254.39 1284.89 1291.82 1310.48 1291.82 1342.04C1291.82 1373.61 1254.39 1399.2 1208.22 1399.2C1163.08 1399.2 1126.3 1374.75 1124.67 1344.16H1124.62V1124Z" fill="#8DC73F"/>
<path fill-rule="evenodd" clip-rule="evenodd" d="M733.309 1238.31C779.482 1238.31 816.911 1212.72 816.911 1181.16C816.911 1149.59 779.482 1124 733.309 1124C688.174 1124 651.392 1148.45 649.763 1179.04H649.707V1399.2H681.455V1225.99C695.706 1233.71 713.721 1238.31 733.309 1238.31Z" fill="#8DC73F"/>
<rect x="1780" y="1076" width="34" height="168" fill="#8DC73F"/>
<ellipse cx="1796.88" cy="1334.97" rx="48.8836" ry="32.9743" fill="#8DC73F"/>
<path fill-rule="evenodd" clip-rule="evenodd" d="M1560.96 1495V1526.75H1615.99V1772.32H1647.74V1526.75H1707V1495H1560.96Z" fill="#8DC73F"/>
<path fill-rule="evenodd" clip-rule="evenodd" d="M1405.49 1571.3V1664.45H1498.62V1696.2L1405.49 1696.2H1373.74V1421H1373.74V1421H1498.62V1452.75H1405.49V1539.55H1498.62V1571.3H1405.49Z" fill="#8DC73F"/>
<path fill-rule="evenodd" clip-rule="evenodd" d="M445.748 1452.75V1696.2H414V1421H430.932V1421H555.806L570.622 1421V1696.2H538.874V1452.75H445.748Z" fill="#8DC73F"/>
<path fill-rule="evenodd" clip-rule="evenodd" d="M902.401 1421H934.149V1583.81L1027.27 1434.75V1421H1059.02V1665.41C1059.02 1665.44 1059.02 1665.47 1059.02 1665.5C1059.02 1665.53 1059.02 1665.57 1059.02 1665.6V1666.56H1059C1058.17 1683.03 1038.12 1696.2 1013.52 1696.2C988.386 1696.2 968.013 1682.46 968.013 1665.5C968.013 1648.55 988.386 1634.81 1013.52 1634.81C1018.31 1634.81 1022.93 1635.31 1027.27 1636.24V1494.67L934.149 1643.73V1665.41L934.149 1665.5L934.149 1665.6V1666.56H934.122C933.295 1683.03 913.25 1696.2 888.644 1696.2C863.512 1696.2 843.139 1682.46 843.139 1665.5C843.139 1648.55 863.512 1634.81 888.644 1634.81C893.439 1634.81 898.061 1635.31 902.401 1636.24V1421Z" fill="#8DC73F"/>
<path fill-rule="evenodd" clip-rule="evenodd" d="M1124.62 1496H1156.36V1530.3C1164.71 1523.57 1177.26 1519.29 1191.29 1519.29C1216.42 1519.29 1236.79 1533.03 1236.79 1549.98C1236.79 1566.93 1216.42 1580.68 1191.29 1580.68C1177.26 1580.68 1164.71 1576.39 1156.36 1569.66V1669.21C1170.62 1661.49 1188.63 1656.89 1208.22 1656.89C1254.39 1656.89 1291.82 1682.48 1291.82 1714.04C1291.82 1745.61 1254.39 1771.2 1208.22 1771.2C1163.08 1771.2 1126.3 1746.75 1124.67 1716.16H1124.62V1496Z" fill="#8DC73F"/>
<path fill-rule="evenodd" clip-rule="evenodd" d="M733.309 1610.31C779.482 1610.31 816.912 1584.72 816.912 1553.16C816.912 1521.59 779.482 1496 733.309 1496C688.174 1496 651.392 1520.45 649.763 1551.04H649.707V1771.2H681.455V1597.99C695.706 1605.71 713.721 1610.31 733.309 1610.31Z" fill="#8DC73F"/>
<rect x="1780" y="1421" width="34" height="168" fill="#8DC73F"/>
<ellipse cx="1796.88" cy="1679.97" rx="48.8836" ry="32.9743" fill="#8DC73F"/>
<path d="M202.452 77.5403C166.139 61.3756 186.965 47.5954 201.967 42.715L202.452 77.5403C202.555 77.5862 202.658 77.6321 202.762 77.678C202.66 77.7274 202.558 77.7773 202.456 77.8277L202.972 114.893C203.151 114.951 203.332 115.009 203.514 115.067C203.336 115.138 203.157 115.21 202.977 115.283L203.489 152.01C203.9 152.162 204.317 152.314 204.742 152.465C204.332 152.602 203.918 152.746 203.501 152.895L204.036 191.283C166.002 173.906 187.139 158.751 203.501 152.895L203.489 152.01C165.431 137.925 186.856 121.845 202.977 115.283L202.972 114.893C166.383 103.005 187.147 85.3544 202.456 77.8277L202.452 77.5403Z" fill="#F9ED32"/>
<path fill-rule="evenodd" clip-rule="evenodd" d="M268.574 32.5738L201.549 32.6543L201.59 68.0096L201.63 68.0095L201.63 195.75C188.404 187.054 171.021 181.777 151.981 181.777C110.562 181.777 76.9851 206.751 76.9851 237.559C76.9851 268.366 110.562 293.341 151.981 293.341C192.892 293.341 226.152 268.975 226.962 238.69L227.067 238.69L227.067 67.979L268.615 67.9291L268.574 32.5738Z" fill="#8DC73F"/>
<ellipse cx="224.5" cy="16.5" rx="13.5" ry="9.5" transform="rotate(-90 224.5 16.5)" fill="#FFFDFD"/>
<ellipse cx="224.5" cy="21" rx="8" ry="5.5" transform="rotate(-90 224.5 21)" fill="#8DC73F"/>
<ellipse cx="246.5" cy="16.5" rx="13.5" ry="9.5" transform="rotate(-90 246.5 16.5)" fill="#FFFDFD"/>
<ellipse cx="246.5" cy="21" rx="8" ry="5.5" transform="rotate(-90 246.5 21)" fill="#8DC73F"/>
<path d="M202.452 450.54C166.139 434.376 186.965 420.595 201.967 415.715L202.452 450.54C202.555 450.586 202.658 450.632 202.762 450.678C202.66 450.727 202.558 450.777 202.456 450.828L202.972 487.893C203.151 487.951 203.332 488.009 203.514 488.067C203.336 488.138 203.157 488.21 202.977 488.283L203.489 525.01C203.9 525.162 204.317 525.314 204.742 525.465C204.332 525.602 203.918 525.746 203.501 525.895L204.036 564.283C166.002 546.906 187.139 531.751 203.501 525.895L203.489 525.01C165.431 510.925 186.856 494.845 202.977 488.283L202.972 487.893C166.383 476.005 187.147 458.354 202.456 450.828L202.452 450.54Z" fill="#F9ED32"/>
<path fill-rule="evenodd" clip-rule="evenodd" d="M268.574 405.574L201.549 405.654L201.59 441.01L201.63 441.01L201.63 568.75C188.404 560.054 171.021 554.777 151.981 554.777C110.562 554.777 76.9851 579.751 76.9851 610.559C76.9851 641.366 110.562 666.341 151.981 666.341C192.892 666.341 226.152 641.975 226.962 611.69L227.067 611.69L227.067 440.979L268.615 440.929L268.574 405.574Z" fill="#8DC73F"/>
<ellipse cx="224.5" cy="389.5" rx="13.5" ry="9.5" transform="rotate(-90 224.5 389.5)" fill="#FFFDFD"/>
<ellipse cx="224.5" cy="394" rx="8" ry="5.5" transform="rotate(-90 224.5 394)" fill="#8DC73F"/>
<ellipse cx="246.5" cy="389.5" rx="13.5" ry="9.5" transform="rotate(-90 246.5 389.5)" fill="#FFFDFD"/>
<ellipse cx="246.5" cy="394" rx="8" ry="5.5" transform="rotate(-90 246.5 394)" fill="#8DC73F"/>
<path d="M202.452 812.54C166.139 796.376 186.965 782.595 201.967 777.715L202.452 812.54C202.555 812.586 202.658 812.632 202.762 812.678C202.66 812.727 202.558 812.777 202.456 812.828L202.972 849.893C203.151 849.951 203.332 850.009 203.514 850.067C203.336 850.138 203.157 850.21 202.977 850.283L203.489 887.01C203.9 887.162 204.317 887.314 204.742 887.465C204.332 887.602 203.918 887.745 203.501 887.895L204.036 926.283C166.002 908.906 187.139 893.751 203.501 887.895L203.489 887.01C165.431 872.925 186.856 856.845 202.977 850.283L202.972 849.893C166.383 838.005 187.147 820.354 202.456 812.828L202.452 812.54Z" fill="#F9ED32"/>
<path fill-rule="evenodd" clip-rule="evenodd" d="M268.574 767.574L201.549 767.654L201.59 803.009L201.63 803.009L201.63 930.75C188.404 922.054 171.021 916.777 151.981 916.777C110.562 916.777 76.9851 941.751 76.9851 972.559C76.9851 1003.37 110.562 1028.34 151.981 1028.34C192.892 1028.34 226.152 1003.98 226.962 973.69L227.067 973.69L227.067 802.979L268.615 802.929L268.574 767.574Z" fill="#8DC73F"/>
<ellipse cx="224.5" cy="751.5" rx="13.5" ry="9.5" transform="rotate(-90 224.5 751.5)" fill="#FFFDFD"/>
<ellipse cx="224.5" cy="756" rx="8" ry="5.5" transform="rotate(-90 224.5 756)" fill="#8DC73F"/>
<ellipse cx="246.5" cy="751.5" rx="13.5" ry="9.5" transform="rotate(-90 246.5 751.5)" fill="#FFFDFD"/>
<ellipse cx="246.5" cy="756" rx="8" ry="5.5" transform="rotate(-90 246.5 756)" fill="#8DC73F"/>
<path fill-rule="evenodd" clip-rule="evenodd" d="M1560.96 2173V2204.75H1615.99V2450.32H1647.74V2204.75H1707V2173H1560.96Z" fill="#8DC73F"/>
<path fill-rule="evenodd" clip-rule="evenodd" d="M1405.49 2324.3V2417.45H1498.62V2449.2L1405.49 2449.2H1373.74V2174H1373.74V2174H1498.62V2205.75H1405.49V2292.55H1498.62V2324.3H1405.49Z" fill="#8DC73F"/>
<path fill-rule="evenodd" clip-rule="evenodd" d="M445.748 2205.75V2449.2H414V2174H430.932V2174H555.806L570.622 2174V2449.2H538.874V2205.75H445.748Z" fill="#8DC73F"/>
<path fill-rule="evenodd" clip-rule="evenodd" d="M902.401 2174H934.149V2336.81L1027.27 2187.75V2174H1059.02V2418.41C1059.02 2418.44 1059.02 2418.47 1059.02 2418.5C1059.02 2418.53 1059.02 2418.57 1059.02 2418.6V2419.56H1059C1058.17 2436.03 1038.12 2449.2 1013.52 2449.2C988.386 2449.2 968.013 2435.46 968.013 2418.5C968.013 2401.55 988.386 2387.81 1013.52 2387.81C1018.31 2387.81 1022.93 2388.31 1027.27 2389.24V2247.67L934.149 2396.73V2418.41L934.149 2418.5L934.149 2418.6V2419.56H934.122C933.295 2436.03 913.25 2449.2 888.644 2449.2C863.512 2449.2 843.139 2435.46 843.139 2418.5C843.139 2401.55 863.512 2387.81 888.644 2387.81C893.439 2387.81 898.061 2388.31 902.401 2389.24V2174Z" fill="#8DC73F"/>
<path fill-rule="evenodd" clip-rule="evenodd" d="M1124.62 2174H1156.36V2208.3C1164.71 2201.57 1177.26 2197.29 1191.29 2197.29C1216.42 2197.29 1236.79 2211.03 1236.79 2227.98C1236.79 2244.93 1216.42 2258.68 1191.29 2258.68C1177.26 2258.68 1164.71 2254.39 1156.36 2247.66V2347.21C1170.62 2339.49 1188.63 2334.89 1208.22 2334.89C1254.39 2334.89 1291.82 2360.48 1291.82 2392.04C1291.82 2423.61 1254.39 2449.2 1208.22 2449.2C1163.08 2449.2 1126.3 2424.75 1124.67 2394.16H1124.62V2174Z" fill="#8DC73F"/>
<path fill-rule="evenodd" clip-rule="evenodd" d="M733.309 2288.31C779.482 2288.31 816.911 2262.72 816.911 2231.16C816.911 2199.59 779.482 2174 733.309 2174C688.174 2174 651.392 2198.45 649.763 2229.04H649.707V2449.2H681.455V2275.99C695.706 2283.71 713.721 2288.31 733.309 2288.31Z" fill="#8DC73F"/>
<rect x="1780" y="2166" width="34" height="168" fill="#8DC73F"/>
<ellipse cx="1796.88" cy="2424.97" rx="48.8836" ry="32.9743" fill="#8DC73F"/>
<path d="M202.452 2237.54C166.139 2221.38 186.965 2207.6 201.967 2202.71L202.452 2237.54C202.555 2237.59 202.658 2237.63 202.762 2237.68C202.66 2237.73 202.558 2237.78 202.456 2237.83L202.972 2274.89C203.151 2274.95 203.332 2275.01 203.514 2275.07C203.336 2275.14 203.157 2275.21 202.977 2275.28L203.489 2312.01C203.9 2312.16 204.317 2312.31 204.742 2312.47C204.332 2312.6 203.918 2312.75 203.501 2312.89L204.036 2351.28C166.002 2333.91 187.139 2318.75 203.501 2312.89L203.489 2312.01C165.431 2297.93 186.856 2281.84 202.977 2275.28L202.972 2274.89C166.383 2263 187.147 2245.35 202.456 2237.83L202.452 2237.54Z" fill="#F9ED32"/>
<path fill-rule="evenodd" clip-rule="evenodd" d="M268.574 2192.57L201.549 2192.65L201.59 2228.01L201.63 2228.01L201.63 2355.75C188.404 2347.05 171.021 2341.78 151.981 2341.78C110.562 2341.78 76.9851 2366.75 76.9851 2397.56C76.9851 2428.37 110.562 2453.34 151.981 2453.34C192.892 2453.34 226.152 2428.98 226.962 2398.69L227.067 2398.69L227.067 2227.98L268.615 2227.93L268.574 2192.57Z" fill="#8DC73F"/>
<ellipse cx="224.5" cy="2176.5" rx="13.5" ry="9.5" transform="rotate(-90 224.5 2176.5)" fill="#FFFDFD"/>
<ellipse cx="224.5" cy="2181" rx="8" ry="5.5" transform="rotate(-90 224.5 2181)" fill="#8DC73F"/>
<ellipse cx="246.5" cy="2176.5" rx="13.5" ry="9.5" transform="rotate(-90 246.5 2176.5)" fill="#FFFDFD"/>
<ellipse cx="246.5" cy="2181" rx="8" ry="5.5" transform="rotate(-90 246.5 2181)" fill="#8DC73F"/>
<path d="M202.452 1198.54C166.139 1182.38 186.965 1168.6 201.967 1163.71L202.452 1198.54C202.555 1198.59 202.658 1198.63 202.762 1198.68C202.66 1198.73 202.558 1198.78 202.456 1198.83L202.972 1235.89C203.151 1235.95 203.332 1236.01 203.514 1236.07C203.336 1236.14 203.157 1236.21 202.977 1236.28L203.489 1273.01C203.9 1273.16 204.317 1273.31 204.742 1273.47C204.332 1273.6 203.918 1273.75 203.501 1273.89L204.036 1312.28C166.002 1294.91 187.139 1279.75 203.501 1273.89L203.489 1273.01C165.431 1258.93 186.856 1242.84 202.977 1236.28L202.972 1235.89C166.383 1224 187.147 1206.35 202.456 1198.83L202.452 1198.54Z" fill="#F9ED32"/>
<path fill-rule="evenodd" clip-rule="evenodd" d="M268.574 1153.57L201.549 1153.65L201.59 1189.01L201.63 1189.01L201.63 1316.75C188.404 1308.05 171.021 1302.78 151.981 1302.78C110.562 1302.78 76.9851 1327.75 76.9851 1358.56C76.9851 1389.37 110.562 1414.34 151.981 1414.34C192.892 1414.34 226.152 1389.98 226.962 1359.69L227.067 1359.69L227.067 1188.98L268.615 1188.93L268.574 1153.57Z" fill="#8DC73F"/>
<ellipse cx="224.5" cy="1137.5" rx="13.5" ry="9.5" transform="rotate(-90 224.5 1137.5)" fill="#FFFDFD"/>
<ellipse cx="224.5" cy="1142" rx="8" ry="5.5" transform="rotate(-90 224.5 1142)" fill="#8DC73F"/>
<ellipse cx="246.5" cy="1137.5" rx="13.5" ry="9.5" transform="rotate(-90 246.5 1137.5)" fill="#FFFDFD"/>
<ellipse cx="246.5" cy="1142" rx="8" ry="5.5" transform="rotate(-90 246.5 1142)" fill="#8DC73F"/>
<path fill-rule="evenodd" clip-rule="evenodd" d="M1560.96 1835V1866.75H1615.99V2112.32H1647.74V1866.75H1707V1835H1560.96Z" fill="#8DC73F"/>
<path fill-rule="evenodd" clip-rule="evenodd" d="M1405.49 1946.3V2039.45H1498.62V2071.2L1405.49 2071.2H1373.74V1796H1373.74V1796H1498.62V1827.75H1405.49V1914.55H1498.62V1946.3H1405.49Z" fill="#8DC73F"/>
<path fill-rule="evenodd" clip-rule="evenodd" d="M445.748 1827.75V2071.2H414V1796H430.932V1796H555.806L570.622 1796V2071.2H538.874V1827.75H445.748Z" fill="#8DC73F"/>
<path fill-rule="evenodd" clip-rule="evenodd" d="M902.401 1796H934.149V1958.81L1027.27 1809.75V1796H1059.02V2040.41C1059.02 2040.44 1059.02 2040.47 1059.02 2040.5C1059.02 2040.53 1059.02 2040.57 1059.02 2040.6V2041.56H1059C1058.17 2058.03 1038.12 2071.2 1013.52 2071.2C988.386 2071.2 968.013 2057.46 968.013 2040.5C968.013 2023.55 988.386 2009.81 1013.52 2009.81C1018.31 2009.81 1022.93 2010.31 1027.27 2011.24V1869.67L934.149 2018.73V2040.41L934.149 2040.5L934.149 2040.6V2041.56H934.122C933.295 2058.03 913.25 2071.2 888.644 2071.2C863.512 2071.2 843.139 2057.46 843.139 2040.5C843.139 2023.55 863.512 2009.81 888.644 2009.81C893.439 2009.81 898.061 2010.31 902.401 2011.24V1796Z" fill="#8DC73F"/>
<path fill-rule="evenodd" clip-rule="evenodd" d="M1124.62 1836H1156.36V1870.3C1164.71 1863.57 1177.26 1859.29 1191.29 1859.29C1216.42 1859.29 1236.79 1873.03 1236.79 1889.98C1236.79 1906.93 1216.42 1920.68 1191.29 1920.68C1177.26 1920.68 1164.71 1916.39 1156.36 1909.66V2009.21C1170.62 2001.49 1188.63 1996.89 1208.22 1996.89C1254.39 1996.89 1291.82 2022.48 1291.82 2054.04C1291.82 2085.61 1254.39 2111.2 1208.22 2111.2C1163.08 2111.2 1126.3 2086.75 1124.67 2056.16H1124.62V1836Z" fill="#8DC73F"/>
<path fill-rule="evenodd" clip-rule="evenodd" d="M733.309 1950.31C779.482 1950.31 816.911 1924.72 816.911 1893.16C816.911 1861.59 779.482 1836 733.309 1836C688.174 1836 651.392 1860.45 649.763 1891.04H649.707V2111.2H681.455V1937.99C695.706 1945.71 713.721 1950.31 733.309 1950.31Z" fill="#8DC73F"/>
<rect x="1780" y="1788" width="34" height="168" fill="#8DC73F"/>
<ellipse cx="1796.88" cy="2046.97" rx="48.8836" ry="32.9743" fill="#8DC73F"/>
<path d="M202.452 1910.54C166.139 1894.38 186.965 1880.6 201.967 1875.71L202.452 1910.54C202.555 1910.59 202.658 1910.63 202.762 1910.68C202.66 1910.73 202.558 1910.78 202.456 1910.83L202.972 1947.89C203.151 1947.95 203.332 1948.01 203.514 1948.07C203.336 1948.14 203.157 1948.21 202.977 1948.28L203.489 1985.01C203.9 1985.16 204.317 1985.31 204.742 1985.47C204.332 1985.6 203.918 1985.75 203.501 1985.89L204.036 2024.28C166.002 2006.91 187.139 1991.75 203.501 1985.89L203.489 1985.01C165.431 1970.93 186.856 1954.84 202.977 1948.28L202.972 1947.89C166.383 1936 187.147 1918.35 202.456 1910.83L202.452 1910.54Z" fill="#F9ED32"/>
<path fill-rule="evenodd" clip-rule="evenodd" d="M268.574 1865.57L201.549 1865.65L201.59 1901.01L201.63 1901.01L201.63 2028.75C188.404 2020.05 171.021 2014.78 151.981 2014.78C110.562 2014.78 76.9851 2039.75 76.9851 2070.56C76.9851 2101.37 110.562 2126.34 151.981 2126.34C192.892 2126.34 226.152 2101.98 226.962 2071.69L227.067 2071.69L227.067 1900.98L268.615 1900.93L268.574 1865.57Z" fill="#8DC73F"/>
<ellipse cx="224.5" cy="1849.5" rx="13.5" ry="9.5" transform="rotate(-90 224.5 1849.5)" fill="#FFFDFD"/>
<ellipse cx="224.5" cy="1854" rx="8" ry="5.5" transform="rotate(-90 224.5 1854)" fill="#8DC73F"/>
<ellipse cx="246.5" cy="1849.5" rx="13.5" ry="9.5" transform="rotate(-90 246.5 1849.5)" fill="#FFFDFD"/>
<ellipse cx="246.5" cy="1854" rx="8" ry="5.5" transform="rotate(-90 246.5 1854)" fill="#8DC73F"/>
<path d="M202.452 1556.54C166.139 1540.38 186.965 1526.6 201.967 1521.71L202.452 1556.54C202.555 1556.59 202.658 1556.63 202.762 1556.68C202.66 1556.73 202.558 1556.78 202.456 1556.83L202.972 1593.89C203.151 1593.95 203.332 1594.01 203.514 1594.07C203.336 1594.14 203.157 1594.21 202.977 1594.28L203.489 1631.01C203.9 1631.16 204.317 1631.31 204.742 1631.47C204.332 1631.6 203.918 1631.75 203.501 1631.89L204.036 1670.28C166.002 1652.91 187.139 1637.75 203.501 1631.89L203.489 1631.01C165.431 1616.93 186.856 1600.84 202.977 1594.28L202.972 1593.89C166.383 1582 187.147 1564.35 202.456 1556.83L202.452 1556.54Z" fill="#F9ED32"/>
<path fill-rule="evenodd" clip-rule="evenodd" d="M268.574 1511.57L201.549 1511.65L201.59 1547.01L201.63 1547.01L201.63 1674.75C188.404 1666.05 171.021 1660.78 151.981 1660.78C110.562 1660.78 76.9851 1685.75 76.9851 1716.56C76.9851 1747.37 110.562 1772.34 151.981 1772.34C192.892 1772.34 226.152 1747.98 226.962 1717.69L227.067 1717.69L227.067 1546.98L268.615 1546.93L268.574 1511.57Z" fill="#8DC73F"/>
<ellipse cx="224.5" cy="1495.5" rx="13.5" ry="9.5" transform="rotate(-90 224.5 1495.5)" fill="#FFFDFD"/>
<ellipse cx="224.5" cy="1500" rx="8" ry="5.5" transform="rotate(-90 224.5 1500)" fill="#8DC73F"/>
<ellipse cx="246.5" cy="1495.5" rx="13.5" ry="9.5" transform="rotate(-90 246.5 1495.5)" fill="#FFFDFD"/>
<ellipse cx="246.5" cy="1500" rx="8" ry="5.5" transform="rotate(-90 246.5 1500)" fill="#8DC73F"/>
<path fill-rule="evenodd" clip-rule="evenodd" d="M1560.96 2501V2532.75H1615.99V2778.32H1647.74V2532.75H1707V2501H1560.96Z" fill="#8DC73F"/>
<path fill-rule="evenodd" clip-rule="evenodd" d="M1405.49 2691.36V2784.5H1498.62V2816.26L1405.49 2816.26H1373.74V2541.06H1373.74V2541.06H1498.62V2572.81H1405.49V2659.6H1498.62V2691.36H1405.49Z" fill="#8DC73F"/>
<path fill-rule="evenodd" clip-rule="evenodd" d="M445.748 2572.81V2816.26H414V2541.06H430.932V2541.06H555.806L570.622 2541.06V2816.26H538.874V2572.81H445.748Z" fill="#8DC73F"/>
<path fill-rule="evenodd" clip-rule="evenodd" d="M902.401 2541.06H934.149V2703.86L1027.27 2554.8V2541.06H1059.02V2785.47C1059.02 2785.5 1059.02 2785.53 1059.02 2785.56C1059.02 2785.59 1059.02 2785.62 1059.02 2785.65V2786.62H1059C1058.17 2803.08 1038.12 2816.26 1013.52 2816.26C988.386 2816.26 968.013 2802.51 968.013 2785.56C968.013 2768.61 988.386 2754.86 1013.52 2754.86C1018.31 2754.86 1022.93 2755.37 1027.27 2756.29V2614.72L934.149 2763.79V2785.47L934.149 2785.56L934.149 2785.65V2786.62H934.122C933.295 2803.08 913.25 2816.26 888.644 2816.26C863.512 2816.26 843.139 2802.51 843.139 2785.56C843.139 2768.61 863.512 2754.86 888.644 2754.86C893.439 2754.86 898.061 2755.37 902.401 2756.29V2541.06Z" fill="#8DC73F"/>
<path fill-rule="evenodd" clip-rule="evenodd" d="M1124.62 2503.2H1156.36V2537.51C1164.71 2530.77 1177.26 2526.49 1191.29 2526.49C1216.42 2526.49 1236.79 2540.23 1236.79 2557.19C1236.79 2574.14 1216.42 2587.88 1191.29 2587.88C1177.26 2587.88 1164.71 2583.6 1156.36 2576.87V2676.41C1170.62 2668.7 1188.63 2664.09 1208.22 2664.09C1254.39 2664.09 1291.82 2689.68 1291.82 2721.25C1291.82 2752.81 1254.39 2778.4 1208.22 2778.4C1163.08 2778.4 1126.3 2753.95 1124.67 2723.36H1124.62V2503.2Z" fill="#8DC73F"/>
<path fill-rule="evenodd" clip-rule="evenodd" d="M733.309 2617.52C779.482 2617.52 816.911 2591.93 816.911 2560.36C816.911 2528.79 779.482 2503.2 733.309 2503.2C688.174 2503.2 651.392 2527.66 649.763 2558.24H649.707V2778.4H681.455V2605.2C695.706 2612.91 713.721 2617.52 733.309 2617.52Z" fill="#8DC73F"/>
<rect x="1780" y="2524" width="34" height="168" fill="#8DC73F"/>
<ellipse cx="1796.88" cy="2782.97" rx="48.8836" ry="32.9743" fill="#8DC73F"/>
<path d="M202.452 2577.54C166.139 2561.38 186.965 2547.6 201.967 2542.71L202.452 2577.54C202.555 2577.59 202.658 2577.63 202.762 2577.68C202.66 2577.73 202.558 2577.78 202.456 2577.83L202.972 2614.89C203.151 2614.95 203.332 2615.01 203.514 2615.07C203.336 2615.14 203.157 2615.21 202.977 2615.28L203.489 2652.01C203.9 2652.16 204.317 2652.31 204.742 2652.47C204.332 2652.6 203.918 2652.75 203.501 2652.89L204.036 2691.28C166.002 2673.91 187.139 2658.75 203.501 2652.89L203.489 2652.01C165.431 2637.93 186.856 2621.84 202.977 2615.28L202.972 2614.89C166.383 2603 187.147 2585.35 202.456 2577.83L202.452 2577.54Z" fill="#F9ED32"/>
<path fill-rule="evenodd" clip-rule="evenodd" d="M268.574 2532.57L201.549 2532.65L201.59 2568.01L201.63 2568.01L201.63 2695.75C188.404 2687.05 171.021 2681.78 151.981 2681.78C110.562 2681.78 76.9851 2706.75 76.9851 2737.56C76.9851 2768.37 110.562 2793.34 151.981 2793.34C192.892 2793.34 226.152 2768.98 226.962 2738.69L227.067 2738.69L227.067 2567.98L268.615 2567.93L268.574 2532.57Z" fill="#8DC73F"/>
<ellipse cx="224.5" cy="2516.5" rx="13.5" ry="9.5" transform="rotate(-90 224.5 2516.5)" fill="#FFFDFD"/>
<ellipse cx="224.5" cy="2521" rx="8" ry="5.5" transform="rotate(-90 224.5 2521)" fill="#8DC73F"/>
<ellipse cx="246.5" cy="2516.5" rx="13.5" ry="9.5" transform="rotate(-90 246.5 2516.5)" fill="#FFFDFD"/>
<ellipse cx="246.5" cy="2521" rx="8" ry="5.5" transform="rotate(-90 246.5 2521)" fill="#8DC73F"/>
</svg>
