<svg width="1280" height="147" viewBox="0 0 1280 147" fill="none" xmlns="http://www.w3.org/2000/svg">
<path fill-rule="evenodd" clip-rule="evenodd" d="M595.613 27.6812H609.142L653.338 27.6812V27.6813H662.357V131.743C662.358 131.781 662.358 131.819 662.358 131.857C662.358 131.895 662.358 131.933 662.357 131.97V132.308H662.347C661.994 139.322 653.452 144.935 642.966 144.935C632.256 144.935 623.574 139.08 623.574 131.857C623.574 124.634 632.256 118.778 642.966 118.778C645.009 118.778 646.979 118.992 648.828 119.387V68.2692H609.142V131.793L609.142 131.857L609.142 131.921V132.308H609.131C608.779 139.322 600.237 144.935 589.75 144.935C579.04 144.935 570.358 139.08 570.358 131.857C570.358 124.634 579.04 118.778 589.75 118.778C591.794 118.778 593.763 118.992 595.613 119.387V27.6812ZM609.142 41.2104H648.828V54.74H609.142V41.2104Z" fill="#8DC73F"/>
<path fill-rule="evenodd" clip-rule="evenodd" d="M1214.81 27.1566C1225.52 27.1566 1234.2 21.3012 1234.2 14.0783C1234.2 6.85535 1225.52 1 1214.81 1C1204.1 1 1195.41 6.85535 1195.41 14.0783C1195.41 21.3012 1204.1 27.1566 1214.81 27.1566ZM1192.71 27.1566H1179.18V118.862C1177.33 118.467 1175.36 118.254 1173.32 118.254C1162.61 118.254 1153.92 124.109 1153.92 131.332C1153.92 138.555 1162.61 144.41 1173.32 144.41C1183.8 144.41 1192.34 138.797 1192.7 131.783H1192.71V131.396L1192.71 131.332L1192.71 131.268V122.055L1232.39 58.544V118.862C1230.54 118.467 1228.57 118.254 1226.53 118.254C1215.82 118.254 1207.14 124.109 1207.14 131.332C1207.14 138.555 1215.82 144.41 1226.53 144.41C1237.02 144.41 1245.56 138.797 1245.91 131.783H1245.92V131.446C1245.92 131.408 1245.92 131.37 1245.92 131.332C1245.92 131.294 1245.92 131.256 1245.92 131.218V27.1566H1232.39V33.0132L1192.71 96.5239V27.1566Z" fill="#8DC73F"/>
<path fill-rule="evenodd" clip-rule="evenodd" d="M168.6 40.5981C168.6 40.5724 168.6 40.5466 168.6 40.5208C168.6 40.495 168.6 40.4692 168.6 40.4435V39.1678H168.498C167.494 32.5806 159.241 27.4425 149.208 27.4425C138.498 27.4425 129.816 33.2979 129.816 40.5208C129.816 47.7438 138.498 53.5991 149.208 53.5991C151.252 53.5991 153.221 53.386 155.071 52.9909V68.0302V81.5595L168.6 81.5595L194.757 81.5595V131.167H155.071V144.696H208.286L208.286 144.696V27.4425H194.757V68.0302H168.6V40.5981Z" fill="#8DC73F"/>
<path fill-rule="evenodd" clip-rule="evenodd" d="M514.339 54.6187C523.808 59.6226 534.22 58.5021 537.595 52.116C540.97 45.7299 536.029 36.4965 526.56 31.4926C517.733 26.828 508.087 27.4855 504.085 32.7693L504.082 32.7676L504.072 32.7865C503.787 33.1658 503.53 33.5688 503.304 33.9953C503.053 34.4719 502.847 34.9643 502.686 35.4697L480.066 79.2555H473.743V28.7463H460.214V79.2555V92.7847V146H473.743V92.7847H499.899V132.47H499.911C499.903 132.62 499.899 132.771 499.899 132.921C499.899 140.144 508.581 146 519.291 146C530.001 146 538.683 140.144 538.683 132.921C538.683 125.699 530.001 119.843 519.291 119.843C517.248 119.843 515.278 120.056 513.429 120.451V92.7847H513.429V79.2555H513.429V79.2553H499.899V79.2555H495.294L509.632 51.5011C511.035 52.6524 512.612 53.7059 514.339 54.6187Z" fill="#8DC73F"/>
<path fill-rule="evenodd" clip-rule="evenodd" d="M731.603 132.992V41.8944H770.386V120.07C768.537 119.675 766.567 119.462 764.524 119.462C753.814 119.462 745.132 125.318 745.132 132.541C745.132 139.764 753.814 145.619 764.524 145.619C775.01 145.619 783.552 140.006 783.905 132.992H783.915V132.655C783.916 132.617 783.916 132.579 783.916 132.541C783.916 132.502 783.916 132.464 783.915 132.426V28.3652H777.602V28.3651H724.387V28.3652H718.073V120.071C716.224 119.675 714.254 119.462 712.21 119.462C701.5 119.462 692.818 125.318 692.818 132.541C692.818 139.764 701.5 145.619 712.21 145.619C722.696 145.619 731.238 140.006 731.591 132.992H731.603Z" fill="#8DC73F"/>
<path fill-rule="evenodd" clip-rule="evenodd" d="M941.783 27.6812H955.313V66.4651H994.097V27.6812H1007.63V132.308H1007.61C1007.26 139.322 998.72 144.935 988.234 144.935C977.524 144.935 968.842 139.08 968.842 131.857C968.842 124.634 977.524 118.778 988.234 118.778C990.278 118.778 992.247 118.991 994.097 119.387V79.9944H955.313V131.743C955.313 131.781 955.313 131.819 955.313 131.857C955.313 131.895 955.313 131.932 955.313 131.97V132.308H955.302C954.949 139.322 946.407 144.935 935.921 144.935C925.211 144.935 916.529 139.08 916.529 131.857C916.529 124.634 925.211 118.778 935.921 118.778C937.964 118.778 939.934 118.991 941.783 119.386V27.6812Z" fill="#8DC73F"/>
<path fill-rule="evenodd" clip-rule="evenodd" d="M47.5293 144.696V49.9372L58.2984 64.2127C56.0952 67.6835 54.7452 72.3584 54.7452 77.501C54.7452 88.2108 60.6005 96.8929 67.8235 96.8929C75.0464 96.8929 80.9018 88.2108 80.9018 77.501C80.9018 72.6714 79.7111 68.2543 77.7413 64.8596L89.02 49.9112V144.696H102.549V27.4428H89.0244H89.02V27.4486L68.264 54.9579L47.5293 27.472V27.4427H47.5072L47.507 27.4425L47.5068 27.4427H34V144.696H47.5293Z" fill="#8DC73F"/>
<path fill-rule="evenodd" clip-rule="evenodd" d="M301.861 51.9106C301.613 52.3772 301.328 52.8155 301.007 53.2253L287.319 76.6515L304.595 110.861C305.275 111.943 305.844 113.065 306.292 114.221L306.562 114.756L306.501 114.787C307.138 116.61 307.476 118.513 307.476 120.47C307.476 133.92 291.525 144.823 271.849 144.823C252.172 144.823 236.222 133.92 236.222 120.47C236.222 107.02 252.172 96.1172 271.849 96.1172C275.58 96.1172 279.178 96.5093 282.558 97.2366L271.959 76.2492L271.903 76.2166L283.483 56.3984C281.854 55.8929 280.213 55.2134 278.599 54.3557C269.143 49.3284 264.225 40.0828 267.616 33.7051C271.006 27.3274 281.421 26.2326 290.878 31.2599C300.334 36.2872 305.252 45.5328 301.861 51.9106Z" fill="#8DC73F"/>
<path fill-rule="evenodd" clip-rule="evenodd" d="M1112.7 27.6812H1126.23V144.935H1112.7V27.6812ZM1036.94 27.6812H1050.47V101.479C1056.54 98.1921 1064.22 96.2296 1072.56 96.2296C1092.24 96.2296 1108.19 107.133 1108.19 120.582C1108.19 134.032 1092.24 144.935 1072.56 144.935C1053.33 144.935 1037.65 134.516 1036.96 121.484H1036.94V27.6812Z" fill="#8DC73F"/>
<path fill-rule="evenodd" clip-rule="evenodd" d="M337.417 27.4425H350.946V101.24C357.019 97.9532 364.697 95.9907 373.044 95.9907C392.721 95.9907 408.671 106.894 408.671 120.343C408.671 133.793 392.721 144.696 373.044 144.696C353.81 144.696 338.135 134.277 337.441 121.245H337.417V27.4425ZM413.181 27.4425H426.711V144.696H413.181V27.4425Z" fill="#8DC73F"/>
<path fill-rule="evenodd" clip-rule="evenodd" d="M831.544 28.3651H818.015V121.178C818.015 121.208 818.015 121.237 818.015 121.266C818.015 121.295 818.015 121.325 818.015 121.354V122.168H818.039C818.733 135.2 834.407 145.619 853.642 145.619C873.318 145.619 889.269 134.716 889.269 121.266C889.269 107.816 873.318 96.9134 853.642 96.9134C845.294 96.9134 837.617 98.8757 831.544 102.162V28.3651Z" fill="#8DC73F"/>
</svg>
