<svg width="1440" height="156" viewBox="0 0 1440 156" fill="none" xmlns="http://www.w3.org/2000/svg">
<g clip-path="url(#clip0_343_6490)">
<path fill-rule="evenodd" clip-rule="evenodd" d="M677.525 28.7266V28.7267H672.669V127.463C670.678 127.037 668.557 126.808 666.357 126.808C654.826 126.808 645.479 133.112 645.479 140.889C645.479 148.665 654.826 154.97 666.357 154.97C677.647 154.97 686.844 148.926 687.224 141.374H687.236V140.942L687.236 140.889L687.236 140.836V72.4261H729.964V127.463C727.973 127.037 725.852 126.808 723.652 126.808C712.121 126.808 702.774 133.112 702.774 140.889C702.774 148.665 712.121 154.97 723.652 154.97C734.942 154.97 744.139 148.926 744.519 141.374H744.531V140.956C744.531 140.934 744.531 140.911 744.531 140.889C744.531 140.866 744.531 140.843 744.531 140.821V28.7267L734.82 28.7266H677.525ZM729.964 43.2931V57.8596L687.236 57.8596V43.2931H729.964Z" fill="#8DC73F"/>
<path fill-rule="evenodd" clip-rule="evenodd" d="M1339.33 28.1619C1350.86 28.1619 1360.21 21.8576 1360.21 14.0809C1360.21 6.30425 1350.86 0 1339.33 0C1327.8 0 1318.45 6.30425 1318.45 14.0809C1318.45 21.8576 1327.8 28.1619 1339.33 28.1619ZM1315.54 28.1619H1300.97V126.898C1298.98 126.472 1296.86 126.243 1294.66 126.243C1283.13 126.243 1273.78 132.547 1273.78 140.324C1273.78 148.101 1283.13 154.405 1294.66 154.405C1305.95 154.405 1315.15 148.361 1315.53 140.809H1315.54V130.334L1358.27 61.9574V126.898C1356.27 126.472 1354.15 126.243 1351.95 126.243C1340.42 126.243 1331.08 132.547 1331.08 140.324C1331.08 148.101 1340.42 154.405 1351.95 154.405C1363.24 154.405 1372.44 148.361 1372.82 140.809H1372.83V140.496C1372.83 140.439 1372.83 140.381 1372.83 140.324C1372.83 140.266 1372.83 140.209 1372.83 140.152V28.1619H1358.27V34.4693L1315.54 102.846V28.1619Z" fill="#8DC73F"/>
<path fill-rule="evenodd" clip-rule="evenodd" d="M241.08 28.4697H255.647V154.713L255.646 154.713H198.352V140.146H241.08V86.7357H212.918V86.7357H198.352V86.7357V72.1692V55.9767C196.36 56.4022 194.24 56.6316 192.04 56.6316C180.509 56.6316 171.161 50.3274 171.161 42.5507C171.161 34.774 180.509 28.4697 192.04 28.4697C202.841 28.4697 211.727 34.0018 212.808 41.094H212.918V42.4677C212.918 42.4954 212.918 42.523 212.918 42.5507C212.918 42.5784 212.918 42.606 212.918 42.6337V72.1692H241.08V28.4697Z" fill="#8DC73F"/>
<path fill-rule="evenodd" clip-rule="evenodd" d="M585.164 57.7296C595.359 63.1171 606.569 61.9106 610.203 55.035C613.836 48.1593 608.517 38.218 598.322 32.8305C588.818 27.8083 578.432 28.5161 574.124 34.2049L574.121 34.2031L574.11 34.224C573.802 34.6322 573.526 35.066 573.283 35.5251C573.012 36.038 572.791 36.568 572.618 37.112L548.264 84.2548H541.456V29.8732H526.89V84.2548V98.8212V156.116H541.456V98.8212H569.619V141.55H569.631C569.623 141.711 569.619 141.873 569.619 142.035C569.619 149.812 578.967 156.116 590.498 156.116C602.029 156.116 611.376 149.812 611.376 142.035C611.376 134.259 602.029 127.954 590.498 127.954C588.297 127.954 586.177 128.184 584.185 128.609V84.2549H584.185V84.2548H564.659L580.096 54.3728C581.607 55.6124 583.304 56.7468 585.164 57.7296Z" fill="#8DC73F"/>
<path fill-rule="evenodd" clip-rule="evenodd" d="M819.083 141.54V44.0297H860.841V128.199C858.85 127.774 856.729 127.544 854.529 127.544C842.998 127.544 833.65 133.849 833.65 141.625C833.65 149.402 842.998 155.706 854.529 155.706C865.819 155.706 875.016 149.663 875.395 142.111H875.407V141.68C875.408 141.661 875.408 141.643 875.408 141.625C875.408 141.607 875.408 141.589 875.407 141.571V29.4632L868.609 29.4632H811.315V29.4632H804.517V128.199C802.525 127.774 800.405 127.544 798.205 127.544C786.674 127.544 777.326 133.849 777.326 141.625C777.326 149.402 786.674 155.706 798.205 155.706C809.495 155.706 818.692 149.663 819.071 142.111H819.083V141.71C819.083 141.682 819.083 141.654 819.083 141.625C819.083 141.61 819.083 141.594 819.083 141.579C819.083 141.566 819.083 141.553 819.083 141.54Z" fill="#8DC73F"/>
<path fill-rule="evenodd" clip-rule="evenodd" d="M1045.38 28.7266H1059.95V70.4839H1101.71V28.7266H1116.27V141.374H1116.26C1115.88 148.926 1106.68 154.97 1095.39 154.97C1083.86 154.97 1074.51 148.665 1074.51 140.889C1074.51 133.112 1083.86 126.808 1095.39 126.808C1097.59 126.808 1099.71 127.037 1101.71 127.463V85.0504H1059.95V141.374H1059.93C1059.56 148.926 1050.36 154.97 1039.07 154.97C1027.54 154.97 1018.19 148.665 1018.19 140.889C1018.19 133.112 1027.54 126.808 1039.07 126.808C1041.27 126.808 1043.39 127.037 1045.38 127.463V28.7266Z" fill="#8DC73F"/>
<path fill-rule="evenodd" clip-rule="evenodd" d="M82.5665 154.713V52.6898L94.1604 68.0587C91.7883 71.7956 90.3348 76.829 90.3348 82.3658C90.3348 93.8967 96.639 103.244 104.416 103.244C112.192 103.244 118.497 93.8967 118.497 82.3658C118.497 77.1661 117.215 72.4103 115.094 68.7554L127.237 52.6612V154.713H141.804V28.4698H127.242H127.237V28.4765L104.89 58.0945L82.5665 28.5023V28.4698H82.542L82.542 28.4698L82.5419 28.4698H68V154.713H82.5665Z" fill="#8DC73F"/>
<path fill-rule="evenodd" clip-rule="evenodd" d="M356.397 54.8136C356.13 55.3159 355.822 55.7878 355.478 56.2289L340.739 81.4517L359.337 118.278C360.073 119.446 360.687 120.658 361.17 121.907L361.458 122.477L361.392 122.51C362.079 124.473 362.442 126.522 362.442 128.629C362.442 143.11 345.269 154.849 324.084 154.849C302.899 154.849 285.726 143.11 285.726 128.629C285.726 114.148 302.899 102.409 324.084 102.409C328.101 102.409 331.974 102.831 335.613 103.614L324.202 81.018L324.142 80.9832L336.61 59.6455C334.856 59.1013 333.089 58.3697 331.352 57.4462C321.17 52.0335 315.876 42.0791 319.526 35.2124C323.176 28.3458 334.39 27.1671 344.571 32.5798C354.753 37.9925 360.047 47.9469 356.397 54.8136Z" fill="#8DC73F"/>
<path fill-rule="evenodd" clip-rule="evenodd" d="M1229.4 28.7266H1243.96V154.97H1229.4V28.7266ZM1147.83 28.7267H1162.39V108.182C1168.93 104.643 1177.2 102.53 1186.18 102.53C1207.37 102.53 1224.54 114.269 1224.54 128.75C1224.54 143.231 1207.37 154.97 1186.18 154.97C1165.48 154.97 1148.6 143.752 1147.85 129.721H1147.83V128.798C1147.83 128.782 1147.83 128.766 1147.83 128.75C1147.83 128.734 1147.83 128.718 1147.83 128.702V28.7267Z" fill="#8DC73F"/>
<path fill-rule="evenodd" clip-rule="evenodd" d="M476.25 28.4697H490.816V154.713H476.25V28.4697ZM394.678 28.4697H409.244V107.925C415.783 104.386 424.049 102.273 433.036 102.273C454.221 102.273 471.395 114.012 471.395 128.493C471.395 142.974 454.221 154.713 433.036 154.713C412.327 154.713 395.451 143.495 394.704 129.464H394.678V128.493V28.4697Z" fill="#8DC73F"/>
<path fill-rule="evenodd" clip-rule="evenodd" d="M926.688 29.4632H912.121V129.486V130.458H912.147C912.894 144.488 929.77 155.706 950.48 155.706C971.664 155.706 988.838 143.967 988.838 129.486C988.838 115.006 971.664 103.267 950.48 103.267C941.492 103.267 933.226 105.38 926.688 108.918V29.4632Z" fill="#8DC73F"/>
</g>
<defs>
<clipPath id="clip0_343_6490">
<rect width="1440" height="156" fill="white"/>
</clipPath>
</defs>
</svg>
