<svg width="1920" height="212" viewBox="0 0 1920 212" fill="none" xmlns="http://www.w3.org/2000/svg">
<path fill-rule="evenodd" clip-rule="evenodd" d="M901.507 39V39H894.915V173.046C892.211 172.469 889.332 172.157 886.345 172.157C870.691 172.157 858 180.716 858 191.274C858 201.832 870.691 210.391 886.345 210.391C901.673 210.391 914.159 202.186 914.674 191.933H914.691V191.294L914.691 191.274L914.691 191.254V98.3275H972.7V173.046C969.996 172.469 967.117 172.157 964.13 172.157C948.476 172.157 935.785 180.716 935.785 191.274C935.785 201.832 948.476 210.391 964.13 210.391C979.458 210.391 991.944 202.186 992.459 191.933H992.475V191.354C992.476 191.327 992.476 191.301 992.476 191.274C992.476 191.247 992.476 191.22 992.475 191.194V39H979.292V39H901.507ZM972.7 58.7758V78.5517H914.691V58.7758H972.7Z" fill="#8DC73F"/>
<path fill-rule="evenodd" clip-rule="evenodd" d="M1799.99 38.2333C1815.65 38.2333 1828.34 29.6745 1828.34 19.1166C1828.34 8.55881 1815.65 0 1799.99 0C1784.34 0 1771.65 8.55881 1771.65 19.1166C1771.65 29.6745 1784.34 38.2333 1799.99 38.2333ZM1767.69 38.2332H1747.92V172.28C1745.21 171.702 1742.33 171.391 1739.35 171.391C1723.69 171.391 1711 179.949 1711 190.507C1711 201.065 1723.69 209.624 1739.35 209.624C1754.67 209.624 1767.16 201.419 1767.67 191.166H1767.69V176.946L1825.7 84.1127V172.28C1823 171.702 1820.12 171.391 1817.13 171.391C1801.48 171.391 1788.79 179.949 1788.79 190.507C1788.79 201.065 1801.48 209.624 1817.13 209.624C1832.46 209.624 1844.94 201.419 1845.46 191.166H1845.48V190.587C1845.48 190.561 1845.48 190.534 1845.48 190.507C1845.48 190.48 1845.48 190.454 1845.48 190.427V38.2332H1825.7V46.7941L1767.69 139.628V38.2332Z" fill="#8DC73F"/>
<path fill-rule="evenodd" clip-rule="evenodd" d="M308.978 38.6514H328.754V97.9788H328.754V117.755V190.266V210.042H250.969V190.266H308.978V117.755H270.745V117.755H250.969V117.755V97.9788V75.9956C248.266 76.5731 245.387 76.8847 242.4 76.8847C226.745 76.8847 214.055 68.3259 214.055 57.7681C214.055 47.2102 226.745 38.6514 242.4 38.6514C257.065 38.6514 269.128 46.1618 270.596 55.7905H270.745V57.686C270.745 57.7133 270.745 57.7407 270.745 57.7681C270.745 57.7954 270.745 57.8228 270.745 57.8501V97.9788H308.978V38.6514Z" fill="#8DC73F"/>
<path fill-rule="evenodd" clip-rule="evenodd" d="M776.115 78.3751C789.956 85.6893 805.175 84.0515 810.108 74.7168C815.041 65.3822 807.819 51.8857 793.979 44.5715C781.076 37.7532 766.976 38.7142 761.127 46.4375L761.122 46.435L761.108 46.4631C760.69 47.0174 760.315 47.6064 759.986 48.2297C759.617 48.9263 759.317 49.6459 759.082 50.3845L726.018 114.386H716.776V40.5567H697V114.386V134.162V211.947H716.776V134.162H755.01V192.171H755.026C755.015 192.39 755.01 192.61 755.01 192.831C755.01 203.388 767.7 211.947 783.355 211.947C799.01 211.947 811.7 203.388 811.7 192.831C811.7 182.273 799.01 173.714 783.355 173.714C780.368 173.714 777.489 174.026 774.785 174.603V114.387H774.785V114.386H748.277L769.235 73.818C771.286 75.5009 773.59 77.0408 776.115 78.3751Z" fill="#8DC73F"/>
<path fill-rule="evenodd" clip-rule="evenodd" d="M1093.69 192.933V59.7758H1150.38V174.046C1147.68 173.469 1144.8 173.157 1141.81 173.157C1126.16 173.157 1113.47 181.716 1113.47 192.274C1113.47 202.832 1126.16 211.391 1141.81 211.391C1157.14 211.391 1169.63 203.186 1170.14 192.933H1170.16V192.294C1170.16 192.287 1170.16 192.281 1170.16 192.274C1170.16 192.267 1170.16 192.261 1170.16 192.254V40H1160.93V40H1083.14V40H1073.92V174.047C1071.21 173.469 1068.33 173.157 1065.35 173.157C1049.69 173.157 1037 181.716 1037 192.274C1037 202.832 1049.69 211.391 1065.35 211.391C1080.67 211.391 1093.16 203.186 1093.67 192.933H1093.69Z" fill="#8DC73F"/>
<path fill-rule="evenodd" clip-rule="evenodd" d="M1400.91 39H1420.69V95.6908H1477.38V39H1497.16V191.933H1497.14C1496.63 202.186 1484.14 210.391 1468.81 210.391C1453.16 210.391 1440.47 201.832 1440.47 191.274C1440.47 180.716 1453.16 172.157 1468.81 172.157C1471.8 172.157 1474.68 172.469 1477.38 173.047V115.467H1420.69V191.254L1420.69 191.274L1420.69 191.294V191.933H1420.67C1420.16 202.186 1407.67 210.391 1392.35 210.391C1376.69 210.391 1364 201.832 1364 191.274C1364 180.716 1376.69 172.157 1392.35 172.157C1395.33 172.157 1398.21 172.469 1400.91 173.046V39Z" fill="#8DC73F"/>
<path fill-rule="evenodd" clip-rule="evenodd" d="M93.7758 210.042V71.5326L109.516 92.3984C106.296 97.4716 104.323 104.305 104.323 111.822C104.323 127.477 112.882 140.167 123.439 140.167C133.997 140.167 142.556 127.477 142.556 111.822C142.556 104.763 140.816 98.3059 137.936 93.344L154.422 71.4948V210.042H174.197V38.6514H154.429H154.422V38.6611L124.083 78.8705L93.7758 38.6951V38.6514H93.7429L93.7429 38.6514L93.7428 38.6514H74V210.042H93.7758Z" fill="#8DC73F"/>
<path fill-rule="evenodd" clip-rule="evenodd" d="M465.535 74.4163C465.172 75.0995 464.754 75.7412 464.285 76.3409L444.278 110.58L469.527 160.578C470.525 162.163 471.359 163.809 472.015 165.504L472.406 166.278L472.317 166.323C473.249 168.988 473.743 171.77 473.743 174.63C473.743 194.289 450.427 210.226 421.666 210.226C392.905 210.226 369.59 194.289 369.59 174.63C369.59 154.971 392.905 139.033 421.666 139.033C427.12 139.033 432.378 139.607 437.319 140.669L421.826 109.993L421.744 109.945L438.672 80.9761C436.29 80.2372 433.891 79.2441 431.533 77.9905C417.71 70.642 410.522 57.1277 415.478 47.8053C420.434 38.4829 435.657 36.8827 449.48 44.2312C463.303 51.5796 470.491 65.094 465.535 74.4163Z" fill="#8DC73F"/>
<path fill-rule="evenodd" clip-rule="evenodd" d="M1650.74 39H1670.52V210.391H1650.74V39ZM1540 39H1559.78V146.87C1568.65 142.066 1579.87 139.198 1592.08 139.198C1620.84 139.198 1644.15 155.135 1644.15 174.794C1644.15 194.453 1620.84 210.391 1592.08 210.391C1563.96 210.391 1541.05 195.161 1540.04 176.112H1540V174.853C1540 174.833 1540 174.814 1540 174.794C1540 174.775 1540 174.755 1540 174.736V39Z" fill="#8DC73F"/>
<path fill-rule="evenodd" clip-rule="evenodd" d="M628.251 38.6514H648.027V210.042H628.251V38.6514ZM517.506 38.6514H537.282V146.522C546.159 141.717 557.38 138.849 569.582 138.849C598.343 138.849 621.659 154.786 621.659 174.445C621.659 194.105 598.343 210.042 569.582 210.042C541.467 210.042 518.556 194.812 517.541 175.764H517.506V38.6514Z" fill="#8DC73F"/>
<path fill-rule="evenodd" clip-rule="evenodd" d="M1239.78 40H1220V177.112H1220.04C1221.05 196.161 1243.96 211.391 1272.08 211.391C1300.84 211.391 1324.15 195.453 1324.15 175.794C1324.15 156.135 1300.84 140.198 1272.08 140.198C1259.87 140.198 1248.65 143.066 1239.78 147.87V40Z" fill="#8DC73F"/>
</svg>
