<svg width="1024" height="112" viewBox="0 0 1024 112" fill="none" xmlns="http://www.w3.org/2000/svg">
<path fill-rule="evenodd" clip-rule="evenodd" d="M481.282 20.6089V20.6089H477.798V91.4433C476.37 91.1382 474.849 90.9737 473.271 90.9737C464.998 90.9737 458.292 95.4964 458.292 101.076C458.292 106.655 464.998 111.177 473.271 111.177C481.37 111.177 487.968 106.842 488.241 101.424H488.248V101.193C488.249 101.154 488.249 101.115 488.249 101.076C488.249 101.036 488.249 100.997 488.248 100.958V51.9595H518.903V91.4435C517.474 91.1383 515.953 90.9737 514.374 90.9737C506.102 90.9737 499.396 95.4964 499.396 101.076C499.396 106.655 506.102 111.177 514.374 111.177C522.474 111.177 529.072 106.842 529.344 101.424H529.353V101.09C529.353 101.085 529.353 101.08 529.353 101.076C529.353 101.071 529.353 101.066 529.353 101.061V20.6089L522.386 20.6089H481.282ZM518.903 31.0591V41.5093H488.248V31.0591H518.903Z" fill="#8DC73F"/>
<path fill-rule="evenodd" clip-rule="evenodd" d="M956.073 20.2037C964.346 20.2037 971.052 15.681 971.052 10.1019C971.052 4.52276 964.346 0 956.073 0C947.801 0 941.094 4.52276 941.094 10.1019C941.094 15.681 947.801 20.2037 956.073 20.2037ZM939.004 20.2037H928.554V91.0384C927.125 90.7331 925.604 90.5685 924.026 90.5685C915.753 90.5685 909.047 95.0912 909.047 100.67C909.047 106.249 915.753 110.772 924.026 110.772C932.125 110.772 938.723 106.437 938.995 101.019H939.004V100.685L939.004 100.67L939.004 100.656V93.5044L969.658 44.4483V91.0384C968.229 90.7331 966.708 90.5685 965.129 90.5685C956.857 90.5685 950.151 95.0912 950.151 100.67C950.151 106.249 956.857 110.772 965.129 110.772C973.229 110.772 979.827 106.437 980.099 101.019H980.108V100.685C980.108 100.68 980.108 100.675 980.108 100.67C980.108 100.665 980.108 100.661 980.108 100.656V20.2037H969.658V24.728L939.004 73.7841V20.2037Z" fill="#8DC73F"/>
<path fill-rule="evenodd" clip-rule="evenodd" d="M168.172 20.4246H178.622V110.993L178.622 110.993H137.518V100.543H168.172V62.2254H147.968V62.2255H137.518V62.2254V51.7752V40.1585C136.089 40.4637 134.568 40.6284 132.989 40.6284C124.717 40.6284 118.011 36.1056 118.011 30.5265C118.011 24.9474 124.717 20.4247 132.989 20.4247C140.739 20.4247 147.113 24.3934 147.889 29.4815H147.968V30.5119C147.968 30.5168 147.968 30.5217 147.968 30.5265C147.968 30.5314 147.968 30.5362 147.968 30.5411V51.7752H168.172V20.4246Z" fill="#8DC73F"/>
<path fill-rule="evenodd" clip-rule="evenodd" d="M415.021 41.416C422.335 45.2811 430.378 44.4156 432.984 39.4829C435.591 34.5502 431.775 27.4181 424.461 23.5531C417.643 19.95 410.192 20.4579 407.101 24.5392L407.098 24.5378L407.09 24.5534C406.87 24.8461 406.672 25.1571 406.498 25.4862C406.303 25.854 406.145 26.234 406.021 26.6239L388.548 60.4456H383.664V21.4315H373.214V60.4456V70.8958V112H383.664V70.8958H403.869V101.55H403.878C403.872 101.665 403.869 101.782 403.869 101.898C403.869 107.477 410.575 112 418.848 112C427.12 112 433.826 107.477 433.826 101.898C433.826 96.319 427.12 91.7962 418.848 91.7962C417.269 91.7962 415.748 91.9609 414.319 92.2661V60.4457H414.318V60.4456H400.31L411.385 39.0078C412.469 39.8971 413.687 40.7109 415.021 41.416Z" fill="#8DC73F"/>
<path fill-rule="evenodd" clip-rule="evenodd" d="M582.839 101.589V31.5875H612.796V91.9719C611.368 91.6667 609.846 91.5021 608.268 91.5021C599.996 91.5021 593.289 96.0248 593.289 101.604C593.289 107.183 599.996 111.706 608.268 111.706C616.368 111.706 622.966 107.37 623.238 101.952H623.247V101.619C623.247 101.614 623.247 101.609 623.247 101.604C623.247 101.599 623.247 101.594 623.247 101.589V21.1373L618.37 21.1373H577.266V21.1373H572.389V91.9719C570.96 91.6667 569.439 91.5021 567.86 91.5021C559.588 91.5021 552.882 96.0248 552.882 101.604C552.882 107.183 559.588 111.706 567.86 111.706C575.96 111.706 582.558 107.37 582.83 101.952H582.839V101.619L582.839 101.604L582.839 101.589Z" fill="#8DC73F"/>
<path fill-rule="evenodd" clip-rule="evenodd" d="M745.187 20.6089H755.637V50.5662H785.593V20.6089H796.044V100.958C796.044 100.997 796.045 101.036 796.045 101.076C796.045 101.115 796.044 101.154 796.044 101.193V101.424H796.036C795.764 106.842 789.166 111.177 781.066 111.177C772.793 111.177 766.087 106.655 766.087 101.076C766.087 95.4964 772.793 90.9736 781.066 90.9736C782.644 90.9736 784.165 91.1382 785.593 91.4433V61.0164H755.637V101.061L755.637 101.076L755.637 101.09V101.424H755.628C755.356 106.842 748.758 111.177 740.658 111.177C732.386 111.177 725.68 106.655 725.68 101.076C725.68 95.4964 732.386 90.9736 740.658 90.9736C742.237 90.9736 743.758 91.1383 745.187 91.4435V20.6089Z" fill="#8DC73F"/>
<path fill-rule="evenodd" clip-rule="evenodd" d="M54.4502 110.993V37.8007L62.7675 48.8261C61.0656 51.507 60.0228 55.1181 60.0228 59.0904C60.0228 67.3629 64.5456 74.0691 70.1247 74.0691C75.7038 74.0691 80.2266 67.3629 80.2266 59.0904C80.2266 55.3602 79.307 51.9485 77.7856 49.3265L86.4974 37.7802V110.993H96.9476V20.4246H86.5013H86.4974V20.4298L70.4654 41.678L54.4502 20.4483V20.4246H54.4324L54.4324 20.4246L54.4324 20.4246H44V110.993H54.4502Z" fill="#8DC73F"/>
<path fill-rule="evenodd" clip-rule="evenodd" d="M250.901 39.3241C250.709 39.6853 250.488 40.0246 250.24 40.3417L239.668 58.4344L253.011 84.8553C253.538 85.6928 253.978 86.5617 254.325 87.4568L254.532 87.8669L254.485 87.8908C254.977 89.2991 255.238 90.7689 255.238 92.2803C255.238 102.669 242.917 111.091 227.719 111.091C212.521 111.091 200.2 102.669 200.2 92.2803C200.2 81.8916 212.521 73.47 227.719 73.47C230.601 73.47 233.38 73.7728 235.991 74.3345L227.804 58.1237L227.761 58.0985L236.706 42.7904C235.447 42.4 234.18 41.8752 232.933 41.2128C225.629 37.3296 221.831 30.1882 224.45 25.2619C227.068 20.3357 235.113 19.4901 242.417 23.3732C249.722 27.2564 253.52 34.3978 250.901 39.3241Z" fill="#8DC73F"/>
<path fill-rule="evenodd" clip-rule="evenodd" d="M877.206 20.6089H887.656V111.177H877.206V20.6089ZM818.684 20.6089H829.134V77.6112C833.825 75.0724 839.755 73.5566 846.203 73.5566C861.401 73.5566 873.721 81.9783 873.721 92.367C873.721 102.756 861.401 111.177 846.203 111.177C831.346 111.177 819.238 103.13 818.702 93.0637H818.684V20.6089Z" fill="#8DC73F"/>
<path fill-rule="evenodd" clip-rule="evenodd" d="M336.886 20.4246H347.337V110.993H336.886V20.4246ZM278.364 20.4247H288.814V77.4269C293.505 74.8882 299.435 73.3724 305.883 73.3724C321.081 73.3724 333.402 81.7941 333.402 92.1828C333.402 102.571 321.081 110.993 305.883 110.993C291.026 110.993 278.919 102.945 278.383 92.8795H278.364V92.1828V20.4247Z" fill="#8DC73F"/>
<path fill-rule="evenodd" clip-rule="evenodd" d="M660.036 21.1373H649.586V93.5921H649.604C650.141 103.658 662.248 111.706 677.105 111.706C692.303 111.706 704.624 103.284 704.624 92.8954C704.624 82.5067 692.303 74.085 677.105 74.085C670.657 74.085 664.727 75.6008 660.036 78.1396V21.1373Z" fill="#8DC73F"/>
</svg>
