<svg width="767" height="152" viewBox="0 0 767 152" fill="none" xmlns="http://www.w3.org/2000/svg">
<path d="M100.16 113.023L97.6495 79.5173L122.157 77.6808L122.383 80.6963L101.37 82.271L102.191 93.2323L113.152 92.4109C117.109 92.1143 120.17 92.7033 122.334 94.1777C124.528 95.6178 125.742 97.9014 125.976 101.029C126.218 104.252 125.286 106.808 123.182 108.699C121.109 110.587 117.998 111.687 113.85 111.998L100.16 113.023ZM103.443 109.937L113.591 109.177C116.686 108.945 118.971 108.18 120.446 106.882C121.951 105.55 122.617 103.735 122.445 101.438C122.103 96.8745 118.805 94.8272 112.55 95.2959L102.403 96.0564L103.443 109.937ZM136.662 91.6599L154.372 90.3327L154.598 93.3483L136.888 94.6755L136.662 91.6599ZM138.204 107.092L158.355 105.582L158.585 108.645L134.891 110.421L132.38 76.9147L155.356 75.1929L155.585 78.2563L136.152 79.7126L138.204 107.092ZM162.169 104.333L163.271 101.7C164.835 102.866 166.55 103.7 168.417 104.202C170.313 104.67 172.188 104.85 174.041 104.743C175.892 104.605 177.563 104.207 179.054 103.549C180.577 102.89 181.777 101.997 182.656 100.873C183.532 99.7159 183.912 98.3717 183.798 96.84C183.652 94.8935 182.758 93.4523 181.115 92.5164C179.504 91.5781 177.327 91.2118 174.583 91.4175L167.403 91.9555L167.188 89.0836L174.176 88.5599C176.537 88.3829 178.335 87.7508 179.569 86.6635C180.833 85.542 181.398 84.0877 181.264 82.3007C181.168 81.0243 180.704 79.968 179.871 79.1319C179.068 78.2615 177.994 77.636 176.65 77.2554C175.335 76.8405 173.879 76.6768 172.281 76.7645C170.681 76.8202 169.037 77.152 167.35 77.7598C165.692 78.3333 164.102 79.1744 162.581 80.2832L161.213 77.4495C163.103 76.1205 165.101 75.1526 167.205 74.5456C169.307 73.9067 171.37 73.5918 173.392 73.6007C175.414 73.6096 177.252 73.9371 178.905 74.5834C180.59 75.2273 181.957 76.1357 183.008 77.3084C184.058 78.4812 184.648 79.9292 184.777 81.6523C184.897 83.2479 184.587 84.683 183.849 85.9578C183.142 87.2302 182.079 88.2564 180.662 89.0366C179.274 89.7824 177.59 90.2294 175.612 90.3777L175.724 89.3103C177.958 89.1429 179.915 89.3492 181.595 89.9293C183.307 90.507 184.659 91.4165 185.65 92.6579C186.671 93.865 187.246 95.3301 187.376 97.0532C187.498 98.6807 187.192 100.164 186.458 101.502C185.753 102.807 184.715 103.943 183.344 104.913C182.002 105.847 180.468 106.572 178.741 107.087C177.012 107.569 175.185 107.802 173.258 107.786C171.332 107.77 169.418 107.496 167.517 106.965C165.613 106.402 163.831 105.524 162.169 104.333ZM209.401 104.837L206.89 71.331L209.81 71.1122L227.085 96.0991L225.554 96.2139L238.769 68.9421L241.689 68.7233L244.199 102.229L240.801 102.484L238.688 74.2911L239.502 74.2301L227.319 99.2104L225.643 99.3359L209.777 76.4576L210.687 76.3895L212.799 104.582L209.401 104.837ZM254.669 98.1235C256.344 98.6398 257.888 98.6845 259.3 98.2578C260.709 97.7992 261.949 96.5671 263.018 94.5616L264.452 91.8549L264.754 91.399L275.764 66.1698L279.306 65.9043L266.186 95.0943C265.311 97.1174 264.207 98.6602 262.875 99.7227C261.575 100.783 260.145 101.403 258.586 101.584C257.059 101.763 255.49 101.592 253.879 101.071L254.669 98.1235ZM264.899 94.6132L248.337 68.2251L252.118 67.9417L266.595 91.5499L264.899 94.6132ZM283.563 95.2362L284.665 92.6025C286.229 93.7689 287.944 94.603 289.811 95.1049C291.707 95.5726 293.582 95.753 295.435 95.6462C297.286 95.5075 298.957 95.1095 300.448 94.4522C301.971 93.7926 303.171 92.9004 304.05 91.7756C304.926 90.6189 305.306 89.2747 305.192 87.743C305.046 85.7964 304.152 84.3552 302.509 83.4194C300.898 82.4811 298.721 82.1148 295.977 82.3204L288.797 82.8585L288.582 79.9865L295.57 79.4628C297.931 79.2859 299.729 78.6538 300.963 77.5665C302.227 76.4449 302.792 74.9906 302.658 73.2037C302.562 71.9272 302.098 70.871 301.265 70.0349C300.462 69.1645 299.388 68.539 298.044 68.1583C296.729 67.7434 295.273 67.5798 293.675 67.6674C292.075 67.7232 290.431 68.055 288.744 68.6627C287.086 69.2362 285.496 70.0774 283.975 71.1862L282.607 68.3524C284.497 67.0235 286.495 66.0555 288.599 65.4486C290.701 64.8097 292.764 64.4947 294.786 64.5036C296.808 64.5125 298.646 64.8401 300.299 65.4864C301.984 66.1303 303.351 67.0386 304.402 68.2114C305.452 69.3842 306.042 70.8321 306.171 72.5553C306.291 74.1508 305.981 75.586 305.243 76.8607C304.536 78.1331 303.473 79.1594 302.056 79.9395C300.668 80.6853 298.984 81.1324 297.006 81.2806L297.118 80.2132C299.352 80.0458 301.309 80.2522 302.989 80.8322C304.701 81.4099 306.053 82.3195 307.044 83.5608C308.065 84.7679 308.64 86.233 308.77 87.9562C308.892 89.5836 308.586 91.0666 307.851 92.4052C307.147 93.7095 306.109 94.8463 304.738 95.8155C303.396 96.7504 301.862 97.475 300.135 97.9895C298.406 98.472 296.579 98.7053 294.652 98.6892C292.726 98.6731 290.812 98.3994 288.911 97.8679C287.007 97.3046 285.225 96.4274 283.563 95.2362ZM330.678 74.0882C334.635 73.7917 337.718 74.4592 339.926 76.0908C342.163 77.688 343.412 80.2258 343.673 83.704C343.943 87.3099 343.032 90.1379 340.939 92.188C338.844 94.2062 335.723 95.3708 331.574 95.6816L318.268 96.6788L315.757 63.1728L319.251 62.9109L320.148 74.8774L330.678 74.0882ZM331.267 92.8647C334.362 92.6328 336.656 91.7709 338.149 90.2792C339.674 88.7851 340.337 86.7138 340.138 84.0652C339.94 81.4166 338.996 79.5298 337.307 78.4049C335.616 77.248 333.207 76.7868 330.08 77.0211L320.363 77.7493L321.55 93.5929L331.267 92.8647ZM350.29 94.2791L347.779 60.7731L351.273 60.5112L353.784 94.0173L350.29 94.2791ZM387.986 91.4542L373.858 75.714L376.601 73.7756L392.055 91.1493L387.986 91.4542ZM365.058 93.1724L362.547 59.6663L365.994 59.4081L368.505 92.9141L365.058 93.1724ZM366.3 77.6281L366.067 74.5169L376.55 73.7313L376.783 76.8426L366.3 77.6281ZM377.042 75.8123L373.745 75.4818L384.996 57.9841L388.826 57.6971L377.042 75.8123ZM397.499 90.7414L394.988 57.2353L398.482 56.9735L400.562 84.7356L419.926 55.3665L423.133 55.1262L425.644 88.6322L422.149 88.8941L420.073 61.1798L400.706 90.5011L397.499 90.7414ZM471.474 51.5036L474.968 51.2417L477.479 84.7478L473.985 85.0096L471.474 51.5036ZM453.02 86.5807L449.478 86.8461L446.967 53.3401L450.509 53.0747L453.02 86.5807ZM473.162 69.5239L451.478 71.1488L451.245 68.0375L472.928 66.4126L473.162 69.5239ZM488.789 83.9002L486.279 50.3941L489.773 50.1323L491.853 77.8945L511.217 48.5253L514.424 48.285L516.935 81.7911L513.44 82.0529L511.363 54.3386L491.996 83.6599L488.789 83.9002ZM551.169 79.2256L537.041 63.4853L539.784 61.5469L555.238 78.9207L551.169 79.2256ZM528.241 80.9437L525.73 47.4377L529.177 47.1794L531.688 80.6855L528.241 80.9437ZM529.483 65.3995L529.25 62.2882L539.733 61.5027L539.966 64.6139L529.483 65.3995ZM540.226 63.5836L536.928 63.2532L548.18 45.7554L552.009 45.4684L540.226 63.5836ZM559.906 75.2495C561.582 75.7658 563.125 75.8105 564.537 75.3838C565.947 74.9252 567.187 73.6931 568.256 71.6876L569.689 68.9809L569.992 68.525L581.002 43.2958L584.544 43.0303L571.424 72.2203C570.549 74.2434 569.445 75.7862 568.113 76.8487C566.813 77.9089 565.383 78.5294 563.824 78.7104C562.297 78.889 560.728 78.7178 559.117 78.1968L559.906 75.2495ZM570.137 71.7392L553.575 45.3511L557.356 45.0677L571.833 68.6759L570.137 71.7392ZM614.319 72.8085L612.163 44.0412L596.128 45.2428L596.451 53.4015C596.544 55.9296 596.566 58.3668 596.517 60.713C596.498 63.0249 596.334 65.123 596.026 67.0073C595.748 68.8573 595.285 70.3842 594.637 71.5879C594.021 72.7893 593.146 73.5288 592.011 73.8063L588.08 73.3789C589.362 73.3471 590.38 72.8054 591.135 71.754C591.923 70.7003 592.473 69.2631 592.786 67.4427C593.131 65.6198 593.325 63.5034 593.369 61.0933C593.413 58.6833 593.379 56.0866 593.267 53.3032L592.835 42.409L615.428 40.7159L617.813 72.5467L614.319 72.8085ZM587.629 84.0505L586.884 73.4686L622.735 70.7819L623.528 81.3603L620.225 81.6078L619.662 74.0928L590.416 76.2845L590.931 83.803L587.629 84.0505ZM625.26 73.6734L638.066 39.0195L641.56 38.7576L659.388 71.1158L655.654 71.3956L639.225 41.0024L640.661 40.8948L628.945 73.3972L625.26 73.6734ZM630.62 64.2705L631.458 61.3196L650.939 59.8597L652.207 62.6528L630.62 64.2705ZM664.29 60.6403L661.862 37.2362L665.883 36.9349L666.922 60.443L664.29 60.6403ZM666.401 70.831C665.699 70.8836 665.075 70.6897 664.528 70.2493C664.011 69.7746 663.728 69.2022 663.678 68.5321C663.625 67.83 663.821 67.2377 664.267 66.7551C664.741 66.2382 665.33 65.9534 666.032 65.9008C666.766 65.8458 667.374 66.0409 667.856 66.4861C668.369 66.8969 668.651 67.4534 668.704 68.1554C668.754 68.8255 668.559 69.4338 668.118 69.9803C667.707 70.4924 667.135 70.776 666.401 70.831Z" fill="#F9ED32"/>
</svg>
