<svg width="830" height="118" viewBox="0 0 830 118" fill="none" xmlns="http://www.w3.org/2000/svg">
<path fill-rule="evenodd" clip-rule="evenodd" d="M378.06 2.21777H391.15H429.546H442.636V102.921C442.636 102.95 442.636 102.979 442.636 103.008C442.636 103.037 442.636 103.065 442.636 103.094V103.444H442.625C442.284 110.23 434.02 115.661 423.875 115.661C413.513 115.661 405.113 109.996 405.113 103.008C405.113 96.0196 413.513 90.3545 423.875 90.3545C425.851 90.3545 427.757 90.5607 429.546 90.943V41.4866H391.15V102.921C391.15 102.95 391.15 102.979 391.15 103.008C391.15 103.037 391.15 103.065 391.15 103.094V103.444H391.14C390.799 110.23 382.534 115.661 372.389 115.661C362.027 115.661 353.627 109.996 353.627 103.008C353.627 96.0196 362.027 90.3545 372.389 90.3545C374.366 90.3545 376.271 90.5607 378.06 90.943V2.21777ZM391.15 15.3074H429.546V28.397H391.15V15.3074Z" fill="#8DC73F"/>
<path fill-rule="evenodd" clip-rule="evenodd" d="M677.049 2.21777H690.138V69.3318L728.535 7.88498V2.21777H741.624V102.921C741.624 102.95 741.625 102.979 741.625 103.008C741.625 103.036 741.624 103.065 741.624 103.094V103.444H741.614C741.273 110.23 733.008 115.661 722.863 115.661C712.501 115.661 704.101 109.996 704.101 103.008C704.101 96.0194 712.501 90.3544 722.863 90.3544C724.84 90.3544 726.745 90.5606 728.535 90.9428V32.5861L690.138 94.0329V102.921C690.138 102.937 690.139 102.952 690.139 102.967C690.139 102.98 690.139 102.994 690.139 103.008C690.139 103.036 690.139 103.065 690.138 103.094V103.444H690.128C689.787 110.23 681.522 115.661 671.377 115.661C661.015 115.661 652.615 109.996 652.615 103.008C652.615 96.0194 661.015 90.3544 671.377 90.3544C673.354 90.3544 675.259 90.5606 677.049 90.9428V2.21777Z" fill="#8DC73F"/>
<path fill-rule="evenodd" clip-rule="evenodd" d="M526.585 2.21777H539.674V41.4866H539.675V54.5762H539.674V102.571H539.675V115.661H488.189V102.571H526.585V54.5762H488.189V41.4866V26.9359C486.4 27.3182 484.494 27.5243 482.518 27.5243C472.156 27.5243 463.756 21.8593 463.756 14.8711C463.756 7.88285 472.156 2.21778 482.518 2.21778C492.224 2.21778 500.209 7.18894 501.18 13.5621H501.279V14.7719C501.279 14.8049 501.279 14.838 501.279 14.8711C501.279 14.9042 501.279 14.9372 501.279 14.9703V41.4866H526.585V2.21777Z" fill="#8DC73F"/>
<path fill-rule="evenodd" clip-rule="evenodd" d="M595.939 14.9577C595.939 14.9289 595.94 14.9 595.94 14.8711C595.94 14.8421 595.939 14.8132 595.939 14.7844V13.5621H595.84C594.869 7.18894 586.884 2.21777 577.178 2.21777C566.816 2.21777 558.416 7.88284 558.416 14.8711C558.416 21.8593 566.816 27.5243 577.178 27.5243C579.155 27.5243 581.06 27.3181 582.85 26.9359V41.4866V54.5762H621.245V115.661H634.335V54.5762H634.335V41.4866H634.335V2.21777H621.245V41.4866H595.939V14.9577Z" fill="#8DC73F"/>
<path fill-rule="evenodd" clip-rule="evenodd" d="M273.557 2.21777H286.646V39.7413H324.171V2.21777H337.26V102.921C337.261 102.95 337.261 102.979 337.261 103.008C337.261 103.037 337.261 103.065 337.26 103.094V103.444H337.25C336.909 110.23 328.644 115.661 318.499 115.661C308.137 115.661 299.737 109.996 299.737 103.008C299.737 96.0196 308.137 90.3545 318.499 90.3545C320.476 90.3545 322.381 90.5607 324.171 90.943V52.8309H286.646V102.921C286.646 102.95 286.647 102.979 286.647 103.008C286.647 103.037 286.646 103.065 286.646 103.094V103.444H286.636C286.295 110.23 278.03 115.661 267.885 115.661C257.523 115.661 249.123 109.996 249.123 103.008C249.123 96.0196 257.523 90.3545 267.885 90.3545C269.862 90.3545 271.767 90.5607 273.557 90.943V2.21777Z" fill="#8DC73F"/>
<path fill-rule="evenodd" clip-rule="evenodd" d="M776.767 115.443V23.7656L787.186 37.5765C785.055 40.9344 783.749 45.4569 783.749 50.4316C783.749 60.7935 789.414 69.1934 796.402 69.1934C803.391 69.1934 809.056 60.7935 809.056 50.4316C809.056 45.7585 807.903 41.4843 805.997 38.1998L816.909 23.7379V115.443H829.998V2.00005H816.913H816.909V2.00523L796.827 28.6213L776.767 2.0305V2.00017H776.744L776.744 2L776.744 2.00017H763.678V115.443H776.767Z" fill="#8DC73F"/>
<path fill-rule="evenodd" clip-rule="evenodd" d="M53.1998 2.42249H66.2745V115.787H53.194V24.1478L42.2898 38.5997C44.1939 41.8816 45.3447 46.1517 45.3447 50.8204C45.3447 61.1751 39.6836 69.5692 32.7002 69.5692C25.7169 69.5692 20.0557 61.1751 20.0557 50.8204C20.0557 45.8479 21.3612 41.3276 23.4918 37.9718L13.0805 24.1706V115.787H0V2.42261H13.0592L13.0593 2.42253L13.0594 2.42261H13.0805V2.45061L33.1278 29.0252L53.194 2.43026V2.42249H53.1998Z" fill="#8DC73F"/>
<path fill-rule="evenodd" clip-rule="evenodd" d="M86.3301 2.42249H99.4106V73.7722C105.282 70.5944 112.705 68.697 120.776 68.697C139.799 68.697 155.221 79.2385 155.221 92.242C155.221 105.245 139.799 115.787 120.776 115.787C102.179 115.787 87.0246 105.714 86.3535 93.1141H86.3301V2.42249ZM159.582 2.42249H172.662V115.787H159.582V2.42249Z" fill="#8DC73F"/>
</svg>
