<svg width="1127" height="160" viewBox="0 0 1127 160" fill="none" xmlns="http://www.w3.org/2000/svg">
<path fill-rule="evenodd" clip-rule="evenodd" d="M582.792 23.4818H530.698V41.2413H582.792V23.4818ZM530.698 59.0008H582.792V126.101C580.364 125.583 577.779 125.303 575.096 125.303C561.038 125.303 549.641 132.989 549.641 142.47C549.641 151.952 561.038 159.638 575.096 159.638C588.861 159.638 600.074 152.27 600.537 143.062H600.551V142.544C600.552 142.519 600.552 142.495 600.552 142.47C600.552 142.446 600.552 142.421 600.551 142.397V5.72236L588.712 5.72235H518.858L512.938 5.72236V126.101C510.51 125.583 507.925 125.303 505.242 125.303C491.184 125.303 479.787 132.989 479.787 142.47C479.787 151.952 491.184 159.638 505.242 159.638C519.007 159.638 530.22 152.27 530.683 143.062H530.698V142.489L530.698 142.47L530.698 142.451V59.0008Z" fill="#8DC73F"/>
<path fill-rule="evenodd" clip-rule="evenodd" d="M918.593 5.72235H936.352V96.7784L988.447 13.4099V5.72235H1006.21V142.457C1006.21 142.461 1006.21 142.466 1006.21 142.47C1006.21 142.475 1006.21 142.479 1006.21 142.484V143.062H1006.19C1005.73 152.27 994.516 159.638 980.751 159.638C966.692 159.638 955.296 151.952 955.296 142.47C955.296 132.989 966.692 125.303 980.751 125.303C983.433 125.303 986.019 125.583 988.447 126.101V46.9234L936.352 130.292V143.062H936.337C935.874 152.27 924.661 159.638 910.897 159.638C896.838 159.638 885.441 151.952 885.441 142.47C885.441 132.989 896.838 125.303 910.897 125.303C913.579 125.303 916.165 125.583 918.593 126.101V5.72235Z" fill="#8DC73F"/>
<path fill-rule="evenodd" clip-rule="evenodd" d="M662.356 39.2588C659.928 39.7775 657.343 40.0573 654.66 40.0573C640.602 40.0573 629.205 32.3712 629.205 22.8898C629.205 13.4085 640.602 5.72235 654.66 5.72235C667.83 5.72235 678.663 12.467 679.981 21.1139H680.116V59.0008H714.451V5.72236H732.21V59.0008H732.21V76.7603V141.878L732.21 159.638H714.451L662.356 159.638V141.878H714.451V76.7603L680.116 76.7603L662.356 76.7603V59.0008V39.2588Z" fill="#8DC73F"/>
<path fill-rule="evenodd" clip-rule="evenodd" d="M808.551 22.9228C808.551 22.9118 808.551 22.9008 808.551 22.8898C808.551 22.8789 808.551 22.8679 808.551 22.8569V21.1139H808.417C807.099 12.467 796.265 5.72235 783.096 5.72235C769.037 5.72235 757.641 13.4085 757.641 22.8898C757.641 32.3712 769.037 40.0573 783.096 40.0573C785.778 40.0573 788.364 39.7775 790.792 39.2588V59.0008V76.7603L808.551 76.7603L842.886 76.7603V159.638H860.646V5.72236H842.886V59.0008H808.551V22.9228Z" fill="#8DC73F"/>
<path fill-rule="evenodd" clip-rule="evenodd" d="M371.151 5.72235H388.911V56.6328H439.821V5.72235H457.581V143.062H457.566C457.103 152.27 445.89 159.638 432.125 159.638C418.067 159.638 406.67 151.952 406.67 142.47C406.67 132.989 418.067 125.303 432.125 125.303C434.808 125.303 437.393 125.583 439.821 126.101V74.3923H388.911V143.062H388.896C388.433 152.27 377.22 159.638 363.455 159.638C349.397 159.638 338 151.952 338 142.47C338 132.989 349.397 125.303 363.455 125.303C366.138 125.303 368.723 125.583 371.151 126.101V5.72235Z" fill="#8DC73F"/>
<path fill-rule="evenodd" clip-rule="evenodd" d="M1053.89 153.916V29.5287L1068.02 48.2673C1065.13 52.8233 1063.36 58.9599 1063.36 65.7101C1063.36 79.7687 1071.05 91.1654 1080.53 91.1654C1090.01 91.1654 1097.7 79.7687 1097.7 65.7101C1097.7 59.3705 1096.13 53.5721 1093.55 49.116L1108.35 29.495V153.916H1126.11V5.72492e-05H1108.36H1108.35V0.00899601L1081.11 36.1186L1053.89 0.0392911V9.11876e-05H1053.86L1053.86 0L1053.86 9.11876e-05H1036.13V153.916H1053.89Z" fill="#8DC73F"/>
<path fill-rule="evenodd" clip-rule="evenodd" d="M17.7472 159.809V35.5074L31.8729 54.2325C28.9824 58.7854 27.2113 64.9183 27.2113 71.6645C27.2113 85.7133 34.8921 97.1021 44.3669 97.1021C53.8416 97.1021 61.5225 85.7133 61.5225 71.6645C61.5225 65.3299 59.9609 59.5361 57.3773 55.0834L72.1718 35.4754V159.809H89.9189V6.00004H72.1792H72.1718V6.00982L44.9462 42.0936L17.7472 6.03852V6.00013H17.7182L17.7181 6L17.7179 6.00013H0V159.809H17.7472Z" fill="#8DC73F"/>
<path fill-rule="evenodd" clip-rule="evenodd" d="M117.129 6H134.876V102.805C142.842 98.4931 152.913 95.9189 163.863 95.9189C189.674 95.9189 210.597 110.221 210.597 127.864C210.597 145.506 189.674 159.809 163.863 159.809C138.632 159.809 118.071 146.141 117.16 129.047H117.129V6ZM216.513 6H234.261V159.809H216.513V6Z" fill="#8DC73F"/>
</svg>
