<svg width="767" height="109" viewBox="0 0 767 109" fill="none" xmlns="http://www.w3.org/2000/svg">
<path fill-rule="evenodd" clip-rule="evenodd" d="M353.397 3.8975V3.89756H349.365V85.8881C347.711 85.5349 345.951 85.3443 344.124 85.3443C334.548 85.3443 326.786 90.5794 326.786 97.0372C326.786 103.495 334.548 108.73 344.124 108.73C353.499 108.73 361.136 103.712 361.451 97.4405H361.461V97.1427C361.461 97.1248 361.461 97.1068 361.461 97.0889C361.461 97.0717 361.462 97.0545 361.462 97.0372C361.462 97.002 361.461 96.9669 361.461 96.9318V40.1858H396.943V85.8882C395.289 85.5349 393.529 85.3443 391.702 85.3443C382.126 85.3443 374.364 90.5794 374.364 97.0372C374.364 103.495 382.126 108.73 391.702 108.73C401.077 108.73 408.714 103.712 409.029 97.4405H409.039V97.0948C409.039 97.0756 409.039 97.0564 409.039 97.0372C409.039 97.018 409.039 96.9988 409.039 96.9796V3.89756H400.975V3.8975H353.397ZM396.943 15.9936V28.0897H361.461V15.9936H396.943Z" fill="#8DC73F"/>
<path fill-rule="evenodd" clip-rule="evenodd" d="M625.658 3.89756H637.754V65.9149L673.235 9.13293V3.89756H685.332V97.4405H685.321C685.005 103.712 677.368 108.73 667.993 108.73C658.418 108.73 650.655 103.495 650.655 97.0372C650.655 90.5794 658.418 85.3443 667.993 85.3443C669.82 85.3443 671.582 85.535 673.235 85.8884V31.9592L637.754 88.7411V97.4405H637.743C637.428 103.712 629.791 108.73 620.416 108.73C610.84 108.73 603.078 103.495 603.078 97.0372C603.078 90.5794 610.84 85.3443 620.416 85.3443C622.243 85.3443 624.004 85.535 625.658 85.8884V3.89756Z" fill="#8DC73F"/>
<path fill-rule="evenodd" clip-rule="evenodd" d="M486.616 3.89756H498.712V108.73H486.616L451.134 108.73V96.634H486.616V52.2817H463.23V52.2818H451.134V52.2817V40.1857V26.7394C449.48 27.0927 447.719 27.2833 445.892 27.2833C436.317 27.2833 428.555 22.0482 428.555 15.5905C428.555 9.13266 436.317 3.89758 445.892 3.89758C454.862 3.89758 462.241 8.49137 463.138 14.3808H463.23V40.1857H486.616V3.89756Z" fill="#8DC73F"/>
<path fill-rule="evenodd" clip-rule="evenodd" d="M586.189 3.89756H574.093V40.1857H550.707V15.6999C550.707 15.6635 550.708 15.627 550.708 15.5905C550.708 15.5539 550.707 15.5174 550.707 15.481V14.3808H550.616C549.718 8.49137 542.34 3.89758 533.37 3.89758C523.795 3.89758 516.032 9.13266 516.032 15.5905C516.032 22.0482 523.795 27.2833 533.37 27.2833C535.197 27.2833 536.957 27.0928 538.611 26.7396V40.1857V52.2817V52.2818H550.707V52.2817H574.093V108.73H586.189V3.89756Z" fill="#8DC73F"/>
<path fill-rule="evenodd" clip-rule="evenodd" d="M252.793 3.89756H264.889V38.5729H299.564V3.89756H311.66V96.9807C311.66 96.9995 311.66 97.0184 311.66 97.0372C311.66 97.0561 311.66 97.0749 311.66 97.0938V97.4405H311.65C311.335 103.712 303.698 108.73 294.323 108.73C284.747 108.73 276.985 103.495 276.985 97.0372C276.985 90.5794 284.747 85.3443 294.323 85.3443C296.149 85.3443 297.91 85.5349 299.564 85.8882V50.669H264.889V97.4405H264.879C264.564 103.712 256.927 108.73 247.551 108.73C237.976 108.73 230.214 103.495 230.214 97.0372C230.214 90.5794 237.976 85.3443 247.551 85.3443C249.378 85.3443 251.14 85.535 252.793 85.8883V3.89756Z" fill="#8DC73F"/>
<path fill-rule="evenodd" clip-rule="evenodd" d="M717.809 104.833V20.1116L727.438 32.8754C725.468 35.9785 724.261 40.1581 724.261 44.7556C724.261 54.3309 729.496 62.0933 735.954 62.0933C742.412 62.0933 747.647 54.3309 747.647 44.7556C747.647 40.4375 746.582 36.4881 744.821 33.453L754.904 20.0896V104.833H767V6.10352e-05H754.909H754.904V0.00652748L736.347 24.6007L717.809 0.0262698V8.86768e-05H717.789L717.789 5.42465e-05L717.789 8.86768e-05H705.713V104.833H717.809Z" fill="#8DC73F"/>
<path fill-rule="evenodd" clip-rule="evenodd" d="M12.0877 108.847V24.1835L21.7092 36.9378C19.7404 40.0388 18.5339 44.2161 18.5339 48.8111C18.5339 58.3798 23.7654 66.1368 30.2187 66.1368C36.672 66.1368 41.9035 58.3798 41.9035 48.8111C41.9035 44.4967 40.8399 40.5505 39.0803 37.5177L49.1571 24.1623V108.847H61.2448V4.08666H49.162H49.1571V4.09313L30.6136 28.67L12.0877 4.11213V4.08677H12.0685L12.0685 4.08665L12.0683 4.08677H0V108.847H12.0877Z" fill="#8DC73F"/>
<path fill-rule="evenodd" clip-rule="evenodd" d="M147.468 4.08666H159.556V108.847H147.468V4.08666ZM79.7773 4.08667H91.865V70.0206C97.2909 67.0841 104.15 65.3308 111.608 65.3308C129.188 65.3308 143.439 75.0722 143.439 87.0887C143.439 99.1052 129.188 108.846 111.608 108.846C94.4232 108.846 80.4189 99.5377 79.7987 87.8945H79.7773V87.1339C79.7773 87.1188 79.7773 87.1037 79.7773 87.0887C79.7773 87.0736 79.7773 87.0585 79.7773 87.0434V4.08667Z" fill="#8DC73F"/>
</svg>
