<svg width="1280" height="157" viewBox="0 0 1280 157" fill="none" xmlns="http://www.w3.org/2000/svg">
<g clip-path="url(#clip0_234_562)">
<path fill-rule="evenodd" clip-rule="evenodd" d="M698.528 17.9472V155.542H680.36V1.90573e-05H680.36V0H751.821V17.9472H698.528Z" fill="#8DC73F"/>
<path fill-rule="evenodd" clip-rule="evenodd" d="M1031.61 0V17.9472H1063.1V156.739H1081.27V17.9472H1115.18V0H1031.61Z" fill="#8DC73F"/>
<path fill-rule="evenodd" clip-rule="evenodd" d="M313.365 0H331.533V1.52588e-05H394.516V17.9472H331.533V137.595H390.882V155.542L331.533 155.542L319.422 155.542L313.365 155.542V0Z" fill="#8DC73F"/>
<path fill-rule="evenodd" clip-rule="evenodd" d="M193.456 0H211.624H264.917H283.085V138.136C283.085 138.155 283.086 138.174 283.086 138.193C283.086 138.212 283.085 138.231 283.085 138.25V138.791H283.07C282.597 148.096 271.126 155.542 257.045 155.542C242.663 155.542 231.004 147.775 231.004 138.193C231.004 128.612 242.663 120.844 257.045 120.844C259.789 120.844 262.434 121.127 264.917 121.651V53.8415H211.624V138.072L211.625 138.14L211.625 138.193C211.625 138.234 211.624 138.274 211.624 138.314V138.791H211.609C211.136 148.096 199.665 155.542 185.584 155.542C171.202 155.542 159.543 147.775 159.543 138.193C159.543 128.612 171.202 120.844 185.584 120.844C188.328 120.844 190.972 121.127 193.456 121.651V0ZM211.624 17.9472H264.917V35.8943H211.624V17.9472Z" fill="#8DC73F"/>
<path fill-rule="evenodd" clip-rule="evenodd" d="M985.583 17.9472H932.29V35.8944H985.583V17.9472ZM932.29 53.8415H985.583V121.651C983.099 121.127 980.454 120.844 977.71 120.844C963.328 120.844 951.669 128.612 951.669 138.193C951.669 147.775 963.328 155.542 977.71 155.542C991.791 155.542 1003.26 148.096 1003.74 138.791H1003.75V2.23031e-05L991.639 0H920.178L914.122 2.23031e-05V121.651C911.638 121.127 908.993 120.844 906.249 120.844C891.867 120.844 880.208 128.612 880.208 138.193C880.208 147.775 891.867 155.542 906.249 155.542C920.33 155.542 931.801 148.096 932.275 138.791H932.29V138.251L932.29 138.193L932.29 138.136V53.8415Z" fill="#8DC73F"/>
<path fill-rule="evenodd" clip-rule="evenodd" d="M558.029 0H576.197V92.0189L629.49 7.76942V0H647.658V138.136C647.658 138.155 647.658 138.174 647.658 138.193C647.658 138.212 647.658 138.231 647.658 138.25V138.791H647.643C647.17 148.096 635.699 155.542 621.617 155.542C607.235 155.542 595.577 147.775 595.577 138.193C595.577 128.612 607.235 120.844 621.617 120.844C624.361 120.844 627.006 121.127 629.49 121.651V41.6372L576.197 125.887V138.791H576.182C575.709 148.096 564.238 155.542 550.156 155.542C535.774 155.542 524.115 147.775 524.115 138.193C524.115 128.612 535.774 120.844 550.156 120.844C552.9 120.844 555.545 121.127 558.029 121.651V0Z" fill="#8DC73F"/>
<path fill-rule="evenodd" clip-rule="evenodd" d="M36 0H54.1681V19.3875C58.9449 15.5819 66.125 13.1613 74.1537 13.1613C88.5357 13.1613 100.195 20.9287 100.195 30.5102C100.195 40.0918 88.5357 47.8591 74.1537 47.8591C66.125 47.8591 58.9449 45.4385 54.1681 41.6329V97.8955C62.3234 93.5355 72.6327 90.9323 83.8425 90.9323C110.265 90.9323 131.685 105.396 131.685 123.237C131.685 141.079 110.265 155.542 83.8425 155.542C58.013 155.542 36.9643 141.721 36.0322 124.434H36V123.277C36 123.264 36 123.251 36 123.237C36 123.224 36 123.211 36 123.197V0Z" fill="#8DC73F"/>
<path fill-rule="evenodd" clip-rule="evenodd" d="M832.365 64.6098C858.788 64.6098 880.208 50.1464 880.208 32.3049C880.208 14.4634 858.788 0 832.365 0C806.536 0 785.487 13.8213 784.555 31.1085H784.522V155.542H802.691V57.6465C810.846 62.0065 821.155 64.6098 832.365 64.6098Z" fill="#8DC73F"/>
<path fill-rule="evenodd" clip-rule="evenodd" d="M1166.05 0H1147.88V123.07C1147.88 123.126 1147.88 123.181 1147.88 123.237C1147.88 123.293 1147.88 123.349 1147.88 123.404V124.434H1147.92C1148.85 141.721 1169.9 155.542 1195.73 155.542C1222.15 155.542 1243.57 141.079 1243.57 123.237C1243.57 105.396 1222.15 90.9323 1195.73 90.9323C1184.52 90.9323 1174.21 93.5354 1166.05 97.8952V0Z" fill="#8DC73F"/>
</g>
<defs>
<clipPath id="clip0_234_562">
<rect width="1280" height="156.74" fill="white"/>
</clipPath>
</defs>
</svg>
