<svg width="1440" height="170" viewBox="0 0 1440 170" fill="none" xmlns="http://www.w3.org/2000/svg">
<g clip-path="url(#clip0_349_6822)">
<path fill-rule="evenodd" clip-rule="evenodd" d="M763.467 1V1.00004V20.3985V169.12H783.104V20.3985H840.707V1H763.467Z" fill="#8DC73F"/>
<path fill-rule="evenodd" clip-rule="evenodd" d="M1143.12 1.00012V20.3986H1177.16V170.414H1196.79V20.3986H1233.45V1.00012H1143.12Z" fill="#8DC73F"/>
<path fill-rule="evenodd" clip-rule="evenodd" d="M386.432 20.3986V149.722H450.58V169.12H386.432V169.12H366.795V1.00024H377.268V1.00012H454.508V20.3986H386.432Z" fill="#8DC73F"/>
<path fill-rule="evenodd" clip-rule="evenodd" d="M243.735 1V1.00004H237.19V132.489C234.505 131.922 231.646 131.616 228.68 131.616C213.135 131.616 200.533 140.012 200.533 150.368C200.533 160.725 213.135 169.12 228.68 169.12C243.9 169.12 256.299 161.072 256.81 151.015H256.827V59.1955H314.429V132.489C311.744 131.922 308.885 131.616 305.919 131.616C290.374 131.616 277.773 140.012 277.773 150.368C277.773 160.725 290.374 169.12 305.919 169.12C321.14 169.12 333.538 161.072 334.05 151.015H334.066V1.00004L320.975 1H243.735ZM314.429 20.3985V39.797H256.827V20.3985H314.429Z" fill="#8DC73F"/>
<path fill-rule="evenodd" clip-rule="evenodd" d="M1022.68 1.00012V1.00017H1016.13V132.489C1013.45 131.922 1010.59 131.617 1007.62 131.617C992.078 131.617 979.477 140.012 979.477 150.369C979.477 160.725 992.078 169.12 1007.62 169.12C1022.84 169.12 1035.24 161.072 1035.75 151.015H1035.77V59.1956H1093.37V132.489C1090.69 131.922 1087.83 131.617 1084.86 131.617C1069.32 131.617 1056.72 140.012 1056.72 150.368C1056.72 160.725 1069.32 169.12 1084.86 169.12C1100.08 169.12 1112.48 161.072 1112.99 151.015H1113.01V1.00017H1099.92V1.00012H1022.68ZM1093.37 20.3986V39.7971H1035.77V20.3986H1093.37Z" fill="#8DC73F"/>
<path fill-rule="evenodd" clip-rule="evenodd" d="M631.242 1.00012H650.879V100.461L708.482 9.39744V1.00012H728.119V151.015H728.102C727.591 161.072 715.192 169.12 699.972 169.12C684.427 169.12 671.825 160.725 671.825 150.368C671.825 140.012 684.427 131.617 699.972 131.617C702.938 131.617 705.797 131.922 708.482 132.489V46.0039L650.879 137.067V150.258C650.879 150.277 650.879 150.296 650.879 150.315C650.879 150.333 650.879 150.351 650.879 150.368C650.879 150.405 650.879 150.442 650.879 150.479V151.015H650.863C650.351 161.072 637.953 169.12 622.733 169.12C607.188 169.12 594.586 160.725 594.586 150.368C594.586 140.012 607.188 131.617 622.733 131.617C625.698 131.617 628.557 131.922 631.242 132.489V1.00012Z" fill="#8DC73F"/>
<path fill-rule="evenodd" clip-rule="evenodd" d="M67 1H86.6372V21.9546C91.8004 17.8417 99.5607 15.2256 108.238 15.2256C123.783 15.2256 136.385 23.6211 136.385 33.9774C136.385 44.3338 123.783 52.7293 108.238 52.7293C99.5607 52.7293 91.8004 50.1132 86.6372 46.0002V106.812C95.452 102.099 106.595 99.2856 118.711 99.2856C147.271 99.2856 170.423 114.919 170.423 134.203C170.423 153.487 147.271 169.12 118.711 169.12C90.7932 169.12 68.0423 154.181 67.0348 135.496H67V134.203V1Z" fill="#8DC73F"/>
<path fill-rule="evenodd" clip-rule="evenodd" d="M927.764 70.8345C956.323 70.8345 979.475 55.2016 979.475 35.9173C979.475 16.633 956.323 1 927.764 1C899.846 1 877.095 15.9389 876.088 34.6241H876.053V35.9173V169.12H895.69V63.3082C904.505 68.0208 915.648 70.8345 927.764 70.8345Z" fill="#8DC73F"/>
<path fill-rule="evenodd" clip-rule="evenodd" d="M1288.43 1.00012H1268.8V134.045C1268.8 134.098 1268.8 134.15 1268.8 134.203C1268.8 134.256 1268.8 134.308 1268.8 134.361V135.496H1268.83C1269.84 154.181 1292.59 169.12 1320.51 169.12C1349.07 169.12 1372.22 153.487 1372.22 134.203C1372.22 114.919 1349.07 99.2857 1320.51 99.2857C1308.39 99.2857 1297.25 102.099 1288.43 106.812V1.00012Z" fill="#8DC73F"/>
</g>
<defs>
<clipPath id="clip0_349_6822">
<rect width="1440" height="170" fill="white"/>
</clipPath>
</defs>
</svg>
