<svg width="1772" height="230" viewBox="0 0 1772 230" fill="none" xmlns="http://www.w3.org/2000/svg">
<path fill-rule="evenodd" clip-rule="evenodd" d="M945.541 0V26.3359L945.541 228.244H972.201V26.3359H1050.4V0H945.541Z" fill="#8DC73F"/>
<path fill-rule="evenodd" clip-rule="evenodd" d="M1460.97 0V26.3359H1507.18V230H1533.84V26.3359H1583.6V0H1460.97Z" fill="#8DC73F"/>
<path fill-rule="evenodd" clip-rule="evenodd" d="M433.67 26.3359V201.908H520.759V228.244L433.67 228.244L415.897 228.244L407.01 228.244V2.86102e-05H421.229V0H526.091V26.3359H433.67Z" fill="#8DC73F"/>
<path fill-rule="evenodd" clip-rule="evenodd" d="M239.939 0V2.86102e-05H231.052V178.512C227.408 177.743 223.526 177.328 219.5 177.328C198.395 177.328 181.287 188.726 181.287 202.786C181.287 216.846 198.395 228.244 219.5 228.244C240.163 228.244 256.996 217.318 257.69 203.664H257.712V202.814L257.712 202.786L257.712 202.758V79.0076H335.915V178.512C332.27 177.743 328.389 177.328 324.362 177.328C303.258 177.328 286.149 188.726 286.149 202.786C286.149 216.846 303.258 228.244 324.362 228.244C345.025 228.244 361.858 217.318 362.552 203.664H362.575V2.86102e-05L344.802 0H239.939ZM335.915 26.3359V52.6718H257.712V26.3359H335.915Z" fill="#8DC73F"/>
<path fill-rule="evenodd" clip-rule="evenodd" d="M1297.45 0V5.91278e-05H1288.57V178.513C1284.92 177.743 1281.04 177.328 1277.01 177.328C1255.91 177.328 1238.8 188.726 1238.8 202.786C1238.8 216.846 1255.91 228.244 1277.01 228.244C1297.68 228.244 1314.51 217.318 1315.2 203.664H1315.23V79.0077H1393.43V178.513C1389.78 177.743 1385.9 177.328 1381.88 177.328C1360.77 177.328 1343.66 188.726 1343.66 202.786C1343.66 216.846 1360.77 228.244 1381.88 228.244C1402.54 228.244 1419.37 217.318 1420.07 203.664H1420.09V5.91278e-05L1402.32 0H1297.45ZM1393.43 26.3359V52.6718H1315.23V26.3359H1393.43Z" fill="#8DC73F"/>
<path fill-rule="evenodd" clip-rule="evenodd" d="M766.031 0H792.691V135.03L870.894 11.4003V0H897.554V203.664H897.531C896.837 217.318 880.004 228.244 859.341 228.244C838.236 228.244 821.128 216.846 821.128 202.786C821.128 188.726 838.236 177.328 859.341 177.328C863.368 177.328 867.249 177.743 870.894 178.512V61.0982L792.691 184.728V202.699L792.691 202.786L792.691 202.874V203.664H792.669C791.974 217.318 775.142 228.244 754.478 228.244C733.374 228.244 716.266 216.846 716.266 202.786C716.266 188.726 733.374 177.328 754.478 177.328C758.505 177.328 762.386 177.743 766.031 178.512V0Z" fill="#8DC73F"/>
<path fill-rule="evenodd" clip-rule="evenodd" d="M0 0H26.66V28.4485C33.6696 22.8647 44.2053 19.313 55.9861 19.313C77.0903 19.313 94.1987 30.7109 94.1987 44.771C94.1987 58.8311 77.0903 70.229 55.9861 70.229C44.2053 70.229 33.6696 66.6773 26.66 61.0935V143.653C38.6272 137.255 53.7552 133.435 70.2046 133.435C108.978 133.435 140.409 154.659 140.409 180.84C140.409 207.02 108.978 228.244 70.2046 228.244C32.3022 228.244 1.41509 207.963 0.0472598 182.595H0V180.84V0Z" fill="#8DC73F"/>
<path fill-rule="evenodd" clip-rule="evenodd" d="M1168.6 94.8091C1207.37 94.8091 1238.8 73.5854 1238.8 47.4046C1238.8 21.2237 1207.37 0 1168.6 0C1130.69 0 1099.81 20.2815 1098.44 45.6489H1098.39V228.244H1125.05V84.5912C1137.02 90.9891 1152.15 94.8091 1168.6 94.8091Z" fill="#8DC73F"/>
<path fill-rule="evenodd" clip-rule="evenodd" d="M1658.25 0H1631.59V180.635C1631.59 180.703 1631.59 180.771 1631.59 180.84C1631.59 180.908 1631.59 180.976 1631.59 181.045V182.595H1631.64C1633 207.963 1663.89 228.244 1701.79 228.244C1740.57 228.244 1772 207.02 1772 180.84C1772 154.659 1740.57 133.435 1701.79 133.435C1685.35 133.435 1670.22 137.255 1658.25 143.653V0Z" fill="#8DC73F"/>
</svg>
